<svg width="175" height="174" viewBox="0 0 175 174" fill="none" xmlns="http://www.w3.org/2000/svg">
<path fill-rule="evenodd" clip-rule="evenodd" d="M90.3459 2.23574C89.2859 -0.745247 85.0702 -0.745247 84.0101 2.23574L79.9684 13.6047C76.5763 13.9317 73.2508 14.4872 70.0074 15.2555L62.5009 5.82508C60.53 3.34971 56.5426 4.71861 56.5079 7.88229L56.3761 19.9336C53.2978 21.3398 50.333 22.9503 47.4981 24.7477L37.3293 18.2615C34.6619 16.56 31.335 19.1494 32.3293 22.1529L36.1244 33.6127C33.6835 35.9274 31.4002 38.4063 29.2914 41.0318L17.5597 38.1971C14.4842 37.4539 12.1784 40.9832 14.0944 43.501L21.3946 53.0944C19.8393 56.0653 18.479 59.1548 17.3313 62.3454L5.33463 63.4716C2.18455 63.7671 1.14985 67.8539 3.77929 69.6132L13.8036 76.3199C13.3088 79.6065 13.0292 82.9635 12.98 86.3764L1.97865 91.346C-0.905018 92.6485 -0.55652 96.85 2.50163 97.66L14.1573 100.748C14.7624 104.096 15.5921 107.366 16.6305 110.542L7.85479 118.8C5.55086 120.968 7.2441 124.829 10.3998 124.602L22.4265 123.738C24.0799 126.683 25.9283 129.504 27.9546 132.183L22.3275 142.858C20.8524 145.657 23.7074 148.759 26.6183 147.52L37.7252 142.792C40.2303 145.033 42.8889 147.106 45.6829 148.994L43.8274 160.914C43.341 164.04 47.0483 166.047 49.3996 163.929L58.3541 155.865C61.4394 157.167 64.6308 158.266 67.9122 159.146L70.0252 171.01C70.5806 174.125 74.7381 174.819 76.2747 172.053L82.1349 161.502C83.8014 161.614 85.4829 161.671 87.178 161.671C88.8732 161.671 90.5551 161.614 92.2221 161.502L98.0823 172.053C99.6179 174.819 103.776 174.125 104.331 171.01L106.444 159.145C109.726 158.266 112.918 157.167 116.002 155.865L124.956 163.929C127.308 166.047 131.016 164.04 130.529 160.914L128.674 148.993C131.467 147.106 134.126 145.033 136.631 142.792L147.738 147.52C150.649 148.759 153.504 145.657 152.029 142.858L146.402 132.183C148.428 129.504 150.276 126.683 151.93 123.738L163.956 124.602C167.112 124.829 168.805 120.968 166.501 118.8L157.726 110.542C158.764 107.366 159.594 104.096 160.199 100.748L171.855 97.66C174.913 96.85 175.261 92.6485 172.377 91.346L161.376 86.3763C161.327 82.9635 161.048 79.6065 160.553 76.3202L170.577 69.6132C173.207 67.8539 172.172 63.7671 169.022 63.4716L157.025 62.3453C155.877 59.1548 154.517 56.0657 152.961 53.0949L160.262 43.501C162.178 40.9832 159.872 37.4539 156.797 38.1971L145.065 41.0319C142.956 38.4064 140.673 35.9274 138.232 33.6127L142.027 22.1529C143.021 19.1494 139.695 16.56 137.027 18.2615L126.858 24.7477C124.023 22.9503 121.058 21.3399 117.98 19.9337L117.849 7.88229C117.814 4.71861 113.826 3.34971 111.856 5.82508L104.349 15.2556C101.106 14.4873 97.7807 13.9317 94.3886 13.6047L90.3459 2.23574ZM87.178 151.104C109.08 151.104 128.398 140.04 139.848 123.196L112.283 109.828C106.126 116.736 97.1602 121.086 87.178 121.086C77.157 121.086 68.1598 116.702 62.0004 109.747L34.4489 123.108C45.8907 140.002 65.2377 151.104 87.178 151.104ZM144.502 115.137L119.134 97.9437C120.214 94.6461 120.799 91.1238 120.799 87.4649C120.799 71.2113 109.265 57.6514 93.9355 54.5234L91.732 23.9859C124.754 26.3205 150.818 53.849 150.818 87.4649C150.818 97.3824 148.549 106.77 144.502 115.137ZM82.383 24.0033L80.1767 54.5741C64.9685 57.7954 53.5572 71.2974 53.5572 87.4649C53.5572 91.0745 54.1261 94.5512 55.1791 97.8103L29.7946 115.015C25.7853 106.678 23.5386 97.334 23.5386 87.4649C23.5386 53.931 49.4756 26.4548 82.383 24.0033ZM87.178 94.9095C91.2897 94.9095 94.6227 91.5764 94.6227 87.4649C94.6227 83.3534 91.2897 80.0203 87.178 80.0203C83.0664 80.0203 79.7334 83.3534 79.7334 87.4649C79.7334 91.5764 83.0664 94.9095 87.178 94.9095Z" fill="white"/>
</svg>
