<svg width="104" height="104" viewBox="0 0 104 104" fill="none" xmlns="http://www.w3.org/2000/svg">
<path d="M102.817 79.4938C102.817 79.2591 102.83 78.3148 102.832 77.9061C102.851 78.3695 102.818 80.3406 102.817 79.4938ZM100.906 37.5654C100.916 37.9046 100.925 38.2437 100.934 38.5829C100.934 37.6191 100.921 36.3236 100.923 35.4292C100.923 35.2829 100.947 35.6624 100.946 35.3163C100.945 34.9701 100.916 35.0368 100.91 34.5333C100.903 33.9685 100.91 31.3823 100.904 30.4867C100.884 27.1369 100.848 23.7583 100.845 20.4018C100.886 23.867 100.893 20.3752 100.878 19.4046C100.875 19.1896 100.814 19.2239 100.813 15.7473C100.813 14.2459 100.858 14.7071 100.867 14C100.866 13.6968 100.881 13.1533 100.684 12.1013C100.895 14.6606 100.846 12.0997 100.103 10.2323C100.054 9.88177 98.7409 7.4029 97.7983 6.5792C97.5082 6.27499 97.0159 5.86474 96.5746 5.52979C96.2704 5.29968 96.0478 5.11328 95.5625 4.81891C93.8795 3.80941 91.9511 3.28732 90 3.29573C89.2415 3.29793 88.4811 3.29965 87.7172 3.3008C89.447 3.20543 86.3593 3.26758 86.2206 3.26378C85.5154 3.24188 88.7051 3.22399 87.4436 3.21318C85.6808 3.22197 83.918 3.23058 82.1552 3.23901C83.602 3.24538 80.2398 3.32166 79.6209 3.29387C79.8934 3.37432 71.5865 3.24764 70.322 3.27729C70.0587 3.28376 71.7826 3.31996 67.7834 3.31185C67.3503 3.31089 67.5142 3.28551 67.287 3.28841C67.151 3.29011 66.3276 3.37173 65.4504 3.32997C65.13 3.31462 67.1795 3.25763 62.6788 3.28911C64.4712 3.3665 56.4382 3.34764 54.9603 3.32927C55.2556 3.33977 55.5508 3.35026 55.8461 3.36072C54.3851 3.3338 54.1214 3.3623 53.7923 3.36142C52.466 3.35788 50.6425 3.33274 49.407 3.33738C47.9612 3.34275 47.9563 3.39459 46.2707 3.37712C46.6706 3.38794 47.0706 3.39873 47.4705 3.40949C46.3064 3.40869 45.1423 3.40777 43.9782 3.40673C46.6739 3.33389 43.3966 3.40432 43.1807 3.4061C42.8363 3.4091 43.3311 3.38019 42.7552 3.38451C42.6956 3.38517 42.7817 3.41164 41.8941 3.41587C40.0393 3.42457 40.3325 3.39064 39.5538 3.39201C39.4824 3.39227 39.7322 3.41599 38.3872 3.42334C34.1125 3.44647 38.4085 3.40492 38.5725 3.40137C38.7879 3.3967 37.3222 3.29811 40.9533 3.32929C39.7341 3.3195 39.6114 3.27519 39.4742 3.27425C39.3526 3.2735 37.2402 3.28207 37.1237 3.2837C36.0853 3.29989 36.999 3.32937 36.7966 3.33503C36.6311 3.33966 34.0861 3.30245 33.4896 3.39469C32.2718 3.31117 34.1902 3.31728 36.2322 3.30222C36.5301 3.28462 34.2876 3.26992 34.1698 3.27003C31.2773 3.27269 32.8787 3.34093 32.2463 3.386C31.9142 3.4096 30.7357 3.36307 31.8237 3.42461C29.1983 3.43346 30.7905 3.39586 30.621 3.39066C30.3651 3.38299 29.4465 3.40162 29.3314 3.39931C29.1627 3.3959 29.7494 3.37381 29.084 3.36667C28.9734 3.36563 27.9011 3.40371 29.2837 3.42051C27.4365 3.41656 27.5887 3.44823 26.9622 3.38452C25.69 3.50665 26.039 3.31334 25.5381 3.3068C24.2059 3.28955 24.5924 3.38468 24.5221 3.38937C24.0373 3.4195 20.3495 3.38823 19.4362 3.40213C19.7965 3.33331 22.3597 3.40046 22.9329 3.38683C24.8437 3.3417 20.2397 3.35353 21.6274 3.26662C21.0456 3.29053 20.4638 3.31444 19.882 3.33833C18.8153 3.28302 20.3286 3.25852 17.4578 3.27935C16.9883 3.32742 19.4875 3.2714 18.9861 3.30927C18.6906 3.33152 17.0259 3.33658 16.9932 3.34826C16.9603 3.36235 18.4649 3.34541 18.2277 3.36709C17.71 3.41404 12.2224 3.36993 16.3998 3.34412C15.3864 3.34493 14.8003 3.27474 14 3.2755C14 3.2755 14 3.2755 14 3.2755C13.892 3.27561 13.78 3.27889 13.6626 3.28628C13.445 3.3014 13.7673 3.3094 14 3.33445C14 3.33445 14 3.33445 14 3.33445C14.2221 3.35498 14.3698 3.37672 14 3.39111C14 3.39111 14 3.39111 14 3.39111C13.6874 3.41734 12.9444 3.37477 11.4893 3.70339C11.3699 3.64306 13.4064 3.35937 13.4654 3.40158C13.5413 3.39205 13.1607 3.31477 13.0952 3.31716C12.9835 3.31756 11.6549 3.4276 10.3242 3.9322C8.98115 4.40591 7.72068 5.2913 7.29939 5.61287C7.48584 5.50743 6.71723 6.07656 6.01181 6.87078C5.29101 7.6523 4.69074 8.6661 4.59462 8.87401C4.53922 8.9828 4.79277 8.60164 4.73206 8.71739C4.29729 9.40588 3.47919 11.4643 3.39357 12.4982C3.25604 13.6357 3.3383 13.4974 3.32543 13.5599C3.30881 14.063 3.29844 13.6599 3.29418 13.9694C3.29415 13.9785 3.29412 13.9888 3.29411 14C3.29358 14.6263 3.28634 18.075 3.29025 18.2514C3.29152 18.3041 3.32642 17.719 3.33207 18.5003C3.33302 18.6357 3.29261 18.5499 3.30746 20.8638C3.32513 23.6505 3.36021 18.9287 3.40129 20.0866C3.33863 21.8766 3.39855 21.8185 3.3932 22.3039C3.39125 22.472 3.3388 23.7228 3.34011 25.0812C3.33325 24.1062 3.32631 23.1312 3.31927 22.1562C3.30918 23.1147 3.3177 24.9761 3.30652 25.7658C3.30109 26.151 3.25992 25.8336 3.25988 26.6704C3.26009 26.848 3.36042 27.5527 3.31808 25.3606C3.35457 25.1853 3.32948 26.2285 3.33899 26.7123C3.34049 26.7856 3.40046 27.0742 3.36195 27.6922C3.35243 27.8405 3.17905 26.2251 3.29985 30.3914C3.30373 30.5256 3.32648 30.0591 3.33082 30.1902C3.33377 30.2799 3.32309 31.3435 3.326 31.461C3.32913 31.5812 3.35399 31.0675 3.35846 31.2106C3.38144 31.9441 3.28483 32.9071 3.29462 31.3944C3.28203 31.9 3.26944 32.4056 3.25686 32.9112C3.32931 32.37 3.2756 33.7053 3.27656 34.4048C3.28233 38.8882 3.33411 35.886 3.35661 36.6568C3.39248 37.8966 3.27284 36.9497 3.30564 38.7901C3.30864 38.9604 3.36497 36.7356 3.32658 41.0797C3.32599 40.4386 3.32537 39.7974 3.3247 39.1563C3.25546 39.526 3.3245 41.4715 3.32503 41.621C3.33053 43.3269 3.30873 42.1737 3.33776 44.7067C3.34035 44.933 3.32242 45.4257 3.32958 45.9094C3.35897 47.9146 3.35695 43.2635 3.38472 43.1364C3.39853 43.0761 3.38238 48.078 3.37543 48.2497C3.34537 48.9788 3.36893 45.9823 3.33236 46.5534C3.31973 46.7619 3.32614 53.8909 3.30812 55.3212C3.28762 56.9717 3.19587 57.7147 3.29653 57.7252C3.19633 58.191 3.26256 58.6024 3.26121 58.8136C3.24436 61.3658 3.24341 61.3706 3.24576 63.5593C3.24622 64.0426 3.2154 64.4507 3.21983 64.6216C3.22252 64.7211 3.25469 64.5351 3.26279 65.0225C3.27386 65.6995 3.22745 69.7683 3.20924 70.0707C3.19104 70.3731 3.20769 68.3525 3.17809 68.7146C3.17038 70.1772 3.17255 71.5798 3.1644 73.0521C3.16094 73.6637 3.14247 73.3495 3.14116 73.6137C3.14058 73.7262 3.15023 75.8379 3.15767 75.7485C3.17533 75.5388 3.18704 69.0179 3.21549 70.735C3.22096 71.0663 3.17148 72.2368 3.22722 72.0506C3.19345 77.8765 3.15791 83.7024 3.12082 89.5283C3.09631 86.181 3.14645 82.414 3.15635 78.9079C3.15774 78.4274 3.1691 76.8029 3.14092 77.0004C3.12303 79.9818 3.12254 83.6883 3.09348 86.5512C3.09255 86.6428 3.07005 86.3064 3.06492 86.6496C3.05544 87.2911 3.08508 89.3797 3.0737 89.7309C3.0712 89.7909 3.04494 88.6023 3.02368 88.9638C2.99626 89.4316 3.01104 89.7234 3.0317 90C3.05277 90.2512 3.08346 90.482 3.10776 90.8431C2.98054 91.4266 4.00223 95.1112 4.70345 95.8268C4.99249 96.238 4.59459 95.6613 4.24625 94.9558C3.8888 94.2539 3.62266 93.4175 3.68103 93.5458C4.51325 95.9601 6.2314 98.0872 8.3039 99.3485C8.34035 99.3701 8.03625 99.1593 8.49845 99.4365C9.31401 99.8991 9.53792 100.008 9.95707 100.192C10.4011 100.42 12.0997 100.848 12.3373 100.862C12.3668 100.869 12.0104 100.84 11.9576 100.829C11.204 100.69 10.9587 100.555 10.8919 100.538C10.6435 100.462 10.3951 100.394 10.1731 100.309C9.80769 100.166 9.61303 100.072 9.15054 99.8428C8.83364 99.6796 9.12634 99.8629 8.8231 99.7008C8.69912 99.6575 7.59036 98.872 7.46332 98.8304C7.37775 98.8308 10.5284 101.159 14 101.053C16.6886 101.071 19.1745 101.084 19.6903 101.08C18.6473 101.067 17.6042 101.055 16.5612 101.042C18.6793 101.07 21.2237 101.036 21.4039 101.107C29.2584 101.153 37.1129 101.201 44.9674 101.253C46.3699 101.266 45.6009 101.3 47.9084 101.302C47.3121 101.286 46.7158 101.271 46.1195 101.255C47.3021 101.271 52.5426 101.318 53.3908 101.316C53.5006 101.316 53.6531 101.284 54.9625 101.29C56.1245 101.295 56.3111 101.32 56.9323 101.328C57.4538 101.336 58.0396 101.333 58.1944 101.335C58.3132 101.337 58.3602 101.352 58.6459 101.356C59.5482 101.369 58.8169 101.325 59.7126 101.376C59.4945 101.377 59.2765 101.377 59.0584 101.378C60.1473 101.391 61.635 101.42 60.031 101.421C59.7552 101.421 59.9921 101.409 59.7864 101.408C51.7324 101.364 58.1638 101.427 60.9862 101.422C61.7111 101.447 65.7735 101.458 65.9085 101.463C66.0962 101.469 65.401 101.481 66.3123 101.499C66.504 101.502 71.9356 101.523 69.9798 101.536C69.5762 101.539 66.972 101.519 66.3441 101.517C67.8212 101.564 71.2838 101.526 71.6731 101.531C73.2437 101.545 68.6558 101.547 72.1941 101.57C74.9149 101.588 72.3606 101.55 73.407 101.545C73.995 101.543 77.0741 101.586 76.9905 101.552C78.0474 101.555 77.4288 101.569 77.5593 101.571C77.6869 101.573 79.7649 101.575 80.4394 101.586C80.5213 101.588 80.2637 101.603 80.3483 101.605C80.5128 101.608 82.5168 101.616 82.5974 101.615C82.6486 101.614 82.1708 101.597 82.3672 101.595C82.5961 101.593 84.5245 101.608 84.6308 101.604C84.781 101.599 82.4004 101.589 82.7971 101.575C83.8944 101.586 85.6823 101.587 86.4067 101.581C86.2292 101.583 85.1652 101.576 84.7958 101.572C84.9697 101.551 87.2543 101.568 86.4733 101.58C86.9697 101.574 86.6307 101.567 86.9103 101.56C86.9837 101.558 87.6891 101.563 87.825 101.56C87.8427 101.56 87.1149 101.546 87.2606 101.543C87.5245 101.537 89.6632 101.555 89.8382 101.559C90.3308 101.568 88.587 101.562 88.4416 101.569C88.4209 101.571 89.9041 101.598 89.9265 101.6C90.0132 101.617 88.3629 101.594 88.5516 101.61C88.9597 101.616 89.3679 101.621 89.776 101.627C88.2017 101.632 85.2892 101.606 84.5382 101.619C86.8723 101.628 89.3151 101.644 89.31 101.681C89.3083 101.697 88.3013 101.702 88.3403 101.706C88.4888 101.721 89.8867 101.712 89.9381 101.713C89.9806 101.715 90 101.716 90 101.716C90 101.716 90 101.716 90 101.716C90 101.716 90 101.716 90 101.716C90 101.716 90 101.716 90 101.716C89.9999 101.725 88.0072 101.721 87.9075 101.725C87.7399 101.731 88.6268 101.764 88.6254 101.77C88.5945 101.771 87.1754 101.773 87.6543 101.786C88.1387 101.799 89.3808 101.803 89.4243 101.805C89.6615 101.812 87.4889 101.811 87.4241 101.815C87.39 101.817 88.5567 101.833 88.5907 101.836C88.6197 101.84 87.733 101.845 87.3836 101.856C87.1231 101.864 87.8817 101.872 87.7483 101.873C87.653 101.874 85.6002 101.869 85.4992 101.871C85.3489 101.872 85.8297 101.884 85.7597 101.886C85.6605 101.89 84.9976 101.885 85.0838 101.889C85.1487 101.892 87.7186 101.931 87.702 101.94C87.6726 101.956 84.9511 101.917 87.4835 101.982C87.5012 101.983 88.1176 101.978 88.1348 101.979C88.5151 101.99 86.5391 102.008 88.9554 102.005C84.4605 102.025 88.396 102.028 87.731 102.055C87.4741 102.065 85.7317 102.072 85.7235 102.073C85.8929 102.087 86.448 102.076 86.6368 102.082C86.7407 102.085 85.1816 102.102 85.5325 102.11C85.7139 102.115 87.3688 102.11 87.4372 102.111C88.0921 102.118 87.2889 102.129 87.4328 102.135C87.5284 102.138 88.527 102.136 88.553 102.137C88.5951 102.138 87.2391 102.158 86.9567 102.165C86.7419 102.17 87.5479 102.174 87.3981 102.177C86.4953 102.191 84.5748 102.167 86.4255 102.203C86.5385 102.205 87.2386 102.202 87.2591 102.202C87.6918 102.213 86.4028 102.218 86.1722 102.229C85.7763 102.247 87.6289 102.231 86.0883 102.248C87.244 102.255 87.8881 102.251 89.2405 102.243C85.4958 102.266 84.1741 102.318 88.3316 102.296C87.0091 102.302 87.1558 102.325 86.7613 102.328C86.5159 102.329 84.5983 102.315 85.4775 102.365C85.5879 102.372 86.7527 102.356 86.3879 102.372C83.5922 102.385 86.3286 102.382 86.3314 102.383C86.2952 102.416 79.464 102.433 78.2902 102.443C76.9281 102.456 75.7177 102.493 75.4216 102.495C74.4475 102.501 75.2559 102.481 75.0381 102.477C74.8173 102.472 72.0473 102.519 71.909 102.519C71.3725 102.515 71.917 102.493 71.8613 102.493C71.1969 102.485 67.4768 102.522 66.4353 102.523C66.4675 102.536 68.5586 102.525 67.253 102.553C65.7328 102.587 65.6458 102.53 65.606 102.528C58.6406 102.568 51.6752 102.607 44.7098 102.643C44.7966 102.679 49.3505 102.627 49.4541 102.632C50.0624 102.656 42.3696 102.698 41.4259 102.689C42.1428 102.694 42.8597 102.698 43.5766 102.702C42.3525 102.752 39.6434 102.71 37.8728 102.739C37.3008 102.748 38.3992 102.76 38.3764 102.761C37.7335 102.782 36.702 102.774 37.4733 102.747C35.9039 102.777 36.1332 102.751 34.9289 102.756C34.8669 102.756 35.3839 102.772 34.4311 102.784C33.9846 102.79 31.6034 102.803 31.2846 102.821C31.1534 102.829 32.3614 102.895 32.5105 102.832C35.1004 102.848 33.338 102.799 34.3442 102.795C34.4985 102.794 34.1435 102.831 36.6773 102.8C36.1947 102.865 33.277 102.835 32.7768 102.845C31.7454 102.867 35.9959 102.874 36.7757 102.822C36.4113 102.872 37.0772 102.827 38.0247 102.823C39.0618 102.819 38.6098 102.836 39.171 102.832C40.7057 102.823 40.0695 102.795 41.3347 102.816C40.1012 102.732 43.5007 102.792 44.4913 102.809C42.8795 102.823 41.2677 102.838 39.6558 102.853C39.748 102.857 39.8401 102.861 39.9323 102.866C39.5077 102.868 39.0832 102.87 38.6587 102.871C38.7267 102.866 38.7947 102.861 38.8627 102.856C36.6736 102.9 36.1394 102.869 35.9609 102.87C33.6629 102.879 31.0086 102.895 28.6853 102.908C28.3367 102.91 28.5759 102.942 26.0353 102.93C25.2249 102.927 25.99 102.897 25.0714 102.905C23.9223 102.982 23.944 102.926 23.6023 102.928C22.622 102.933 22.0228 102.954 21.9322 102.954C20.7209 102.964 18.9468 102.97 17.6163 102.98C17.5913 102.98 18.2837 102.999 17.4195 102.997C17.1995 102.997 15.7094 102.953 14 102.945C13.2991 102.943 12.5653 102.885 11.8656 102.781C12.5234 102.894 13.1934 102.956 13.8598 102.966C13.4702 102.972 11.8859 102.894 10.6181 102.545C9.34631 102.218 8.39895 101.755 9.01382 102.044C9.76588 102.42 11.7582 102.815 11.9731 102.875C11.0734 102.771 8.04807 102.038 5.80764 100.169C3.50145 98.3891 2.25186 95.8246 2.11251 95.4712C2.06531 95.3721 2.38078 95.9711 2.31692 95.8331C2.21977 95.7486 1.36246 93.5698 1.34579 93.2487C1.29748 93.071 1.59469 94.0593 1.58433 93.9749C1.49085 93.9229 0.929869 91.0622 0.972184 90.8874C0.990998 91.6073 1.41978 93.578 1.17631 92.5485C1.14177 92.417 1.0447 91.7183 1.02636 91.5544C0.936273 90.7922 0.965579 91.5579 1.16908 92.5824C1.36032 93.6117 1.83777 94.8541 1.98865 95.1738C1.37341 93.8307 0.885214 91.9518 0.89104 90C0.886715 88.311 0.883566 86.5805 0.866379 85.0923C0.884213 83.8555 0.908653 86.9258 0.921913 85.5265C0.94988 82.6235 0.887203 84.7541 0.884006 84.6639C0.857687 83.9429 0.97295 81.4869 0.877958 81.4856C0.888238 80.4332 0.901614 80.7738 0.883546 79.2886C0.877635 79.484 0.871739 79.6794 0.865859 79.8747C0.803566 78.2258 0.932206 74.7358 0.944358 74.9973C0.975575 75.7007 0.936595 77.5182 0.938301 77.6734C0.940884 77.9032 1.03999 78.5383 0.962018 81.0528C1.03023 82.0825 0.992573 77.0674 1.0445 79.3494C1.03181 77.8082 1.05932 71.4682 1.02767 70.5555C1.02353 70.4467 0.958163 70.9539 0.987638 69.3876C1.00176 68.644 1.00766 70.437 1.02192 70.0968C1.06485 69.0498 0.99989 54.8102 0.992282 52.1053C0.991833 51.9298 1.01368 51.9942 1.01312 51.8216C1.01145 51.2917 0.974997 49.3603 0.983165 48.4118C0.946706 50.377 0.935711 46.5604 0.938349 45.5895C0.94231 44.116 0.98131 44.2071 0.988425 43.5706C1.0161 41.117 0.916893 37.3153 1.00133 35.4092C0.914732 35.5135 1.03917 32.1123 1.03831 30.5651C1.03752 29.3532 0.977533 27.5948 0.94433 29.2307C0.945695 27.1386 0.926809 24.9364 0.919379 22.974C0.918141 22.6496 0.944617 23.0962 0.941697 22.5427C0.941245 22.4924 0.915671 22.4231 0.912526 21.9478C0.886358 18.0244 0.942612 19.9335 0.95789 19.1994C0.966477 18.7886 0.970676 18.4855 0.971959 18.263C0.978847 20.5498 0.991469 23.1876 0.992923 23.893C1.04851 23.2913 0.977289 18.8244 0.991496 17.5162C0.992014 17.4708 1.02331 17.6288 1.02349 17.5828C1.02349 17.5818 1.02349 17.5808 1.02349 17.5799C1.02547 17.0896 1.01178 13.9672 0.974977 14.61C0.965145 14.7825 0.966172 16.2197 0.970953 17.9243C0.963604 17.463 0.92897 17.8074 0.927414 17.726C0.912277 16.9014 0.932242 15.0783 0.941664 14C0.943509 13.7676 0.95108 13.5683 0.958488 13.4155C0.969384 13.2034 0.94746 13.2163 0.949226 13.1815C1.02265 12.3351 1.04599 12.6889 1.10771 11.818C1.38177 10.6532 0.900099 13.0086 0.971512 14C0.974296 14.2604 0.980002 14.4134 0.991535 14.3495C0.995779 14.326 0.999255 14.2023 1.00201 14C0.98343 13.0896 1.21347 10.6489 2.14481 8.66265C3.01655 6.65503 4.38371 5.2154 4.34537 5.20815C4.37341 5.18794 4.4692 5.09258 4.66852 4.90111C5.05975 4.41786 7.23843 2.77482 7.68583 2.59807C7.75426 2.55764 7.69689 2.51901 7.78359 2.47127C7.96155 2.26773 11.109 1.07718 12.3775 1.01392C11.7072 1.0882 11.0406 1.21483 10.3875 1.39283C12.3639 0.858243 13.252 0.925719 13.4287 0.888689C13.6112 0.877123 13.1115 0.872486 12.4328 0.94376C12.365 0.951665 12.2988 0.957721 12.2342 0.966143C11.1792 1.07504 9.87281 1.47423 9.85406 1.48273C9.79026 1.45944 12.2737 0.725452 14 0.805571C14 0.805571 14 0.805571 14 0.805571C15.0058 0.810783 15.6917 0.822841 15.213 0.845169C15.1385 0.848574 14.5341 0.8456 14 0.844624C14 0.844624 14 0.844624 14 0.844624C13.2478 0.846735 12.6275 0.905602 13.5203 0.876829C13.5891 0.876169 13.7674 0.870577 14 0.870586C14.6413 0.870557 15.7248 0.864897 15.7991 0.868275C16.1786 0.88537 14.9899 0.905552 14 0.92773C13.1955 0.942414 12.5208 1.04689 12.7543 1.03882C13.1348 0.988209 13.5568 0.958964 14 0.956092C14 0.956092 14 0.956092 14 0.956092C14.7401 0.950683 15.5361 0.957176 16.2753 0.950523C16.7966 0.945864 16.9245 0.915098 16.9888 0.914524C17.9498 0.906605 17.4105 0.938815 17.7313 0.938051C17.9034 0.937497 19.797 0.869176 19.4391 0.963779C25.6784 0.895826 21.165 0.894379 17.3376 0.899187C18.547 0.864826 20.9181 0.882046 21.982 0.874402C22.3638 0.871621 22.1375 0.839974 22.7824 0.833886C24.1096 0.821175 30.4464 0.860767 32.0972 0.870644C31.0834 0.881035 31.3799 0.915495 32.1624 0.913657C32.945 0.911822 32.2876 0.865684 32.4403 0.860879C32.6039 0.855864 36.2755 0.880349 36.8864 0.87506C34.1222 0.889148 34.7458 0.923788 37.0919 0.929308C36.7527 0.938811 36.4136 0.948328 36.0744 0.957859C37.4495 0.945186 40.3407 0.999619 41.1357 0.985002C41.2603 0.982652 40.8123 0.953713 40.8824 0.952392C41.5796 0.940959 43.9517 0.972503 44.0621 0.962937C44.1557 0.954974 43.1439 0.930021 43.5194 0.918703C43.5978 0.91633 44.5733 0.955814 45.534 0.947501C45.8905 0.944453 45.6758 0.917379 45.7656 0.915931C46.514 0.903957 46.0723 0.948541 47.4401 0.942982C48.4422 0.938863 49.1886 0.895872 50.5735 0.91239C46.0264 0.850061 49.8489 0.878604 51.7502 0.864615C52.0549 0.862385 51.7937 0.813631 53.6143 0.8401C49.7398 0.921286 54.719 0.887803 55.7375 0.890556C55.7934 0.890945 55.8125 0.922666 56.3121 0.923983C56.3544 0.924026 56.2936 0.90252 56.7579 0.901666C61.1611 0.893855 58.3456 0.913088 59.1821 0.935538C59.5383 0.945061 61.6795 0.918834 62.2562 0.919256C62.3888 0.919433 62.3278 0.941334 62.8409 0.94143C63.7486 0.941537 64.5618 0.919769 65.1609 0.919137C65.2308 0.919178 65.2337 0.953717 66.3694 0.944791C66.6888 0.942304 67.0472 0.930818 66.5938 0.919969C65.0897 0.884102 62.2368 0.935207 60.5368 0.899326C58.9866 0.866389 63.8747 0.872993 64.129 0.873476C64.2223 0.87355 63.2676 0.888828 64.2375 0.894184C65.0658 0.898623 66.5795 0.842224 67.8138 0.858009C67.9079 0.8592 68.8941 0.911691 68.8487 0.914503C68.8074 0.916534 67.2928 0.924229 67.5128 0.939291C67.539 0.941002 68.5016 0.942682 68.6272 0.953781C68.7811 0.96732 69.196 1.09744 69.4015 1.10103C69.929 1.10999 69.5857 1.07991 69.9269 1.0826C70.6585 1.08833 73.1963 1.13111 73.2789 1.08687C72.8596 1.08339 72.4404 1.07992 72.0211 1.07645C74.3537 1.07652 73.3594 1.05567 73.6899 1.04801C74.0458 1.03976 73.9456 1.07855 74.7319 1.08382C74.903 1.08492 78.1929 1.08383 78.1331 1.06757C76.3137 1.08938 76.9883 1.04305 76.9043 1.042C76.5856 1.03816 76.1785 1.06413 75.7508 1.06268C72.7429 1.05203 75.7764 1.01596 75.0663 1.00351C74.8218 0.999262 74.3349 1.02122 74.2312 1.01982C73.8942 1.01527 73.8887 0.985033 73.6638 0.986973C73.1392 0.991485 73.7517 1.03563 73.7101 1.03775C73.2414 1.06355 71.4044 1.02634 72.548 0.982088C71.8615 0.963739 71.781 1.02037 71.2367 0.996504C70.1544 0.94915 71.7758 0.964206 72.2151 0.957748C73.7909 0.934446 74.2584 0.95725 76.489 0.955209C77.2923 0.954534 78.2438 0.92973 78.6165 0.929224C78.8513 0.92902 81.0681 1.02866 81.1334 0.881863C81.9951 0.898626 83.3472 0.99877 84.2349 0.996652C85.032 0.994776 84.7786 0.942607 84.8529 0.940815C84.9669 0.938008 85.9308 0.94483 86.2568 0.938537C86.6388 0.931098 86.4481 0.91095 87.0543 0.904834C88.5627 0.889771 88.5231 0.941755 88.6782 0.945584C90.294 0.985487 89.8241 0.928183 90 0.912679C90.0219 0.910918 90.0531 0.909727 90.0977 0.909575C90.2969 0.906638 91.8353 0.928911 93.3996 1.37292C94.9738 1.7831 96.486 2.63493 96.9843 2.95763C96.5692 2.70475 96.1408 2.47559 95.7005 2.27094C96.4685 2.6751 97.2583 3.14846 97.239 3.20544C97.4529 3.20491 98.8278 4.36548 99.1832 4.76909C99.3326 4.91887 99.3327 4.89558 99.5148 5.08845C100.272 5.8097 101.517 7.79897 101.723 8.32516C102.226 9.4312 101.924 8.52918 101.284 7.37633C100.658 6.21161 99.5261 4.94441 99.3455 4.77864C99.7028 5.11787 100.78 6.36857 101.366 7.41865C101.96 8.45933 102.254 9.16151 101.727 7.98549C101.557 7.62473 101.162 7.03788 101.037 6.85399C100.177 5.61322 100.879 6.57028 100.816 6.47069C100.713 6.29527 100.078 5.52821 99.9016 5.33461C99.8374 5.27419 100.266 5.64938 99.2674 4.6055C99.9271 4.97872 102.138 8.41783 102.201 8.98239C102.238 9.06976 102.16 8.83163 102.229 8.97709C102.28 9.12627 102.581 9.6401 102.917 11.3495C102.915 11.3087 102.913 11.2677 102.911 11.2269C103.104 12.1389 103.198 13.0708 103.195 14C103.192 14.9139 103.189 15.8277 103.186 16.7416C103.173 16.5503 103.149 15.5619 103.15 16.8067C103.15 17.5234 103.183 16.9932 103.184 17.0586C103.19 17.7017 103.121 29.0852 103.112 31.2914C103.109 32.0418 103.12 34.1335 103.119 34.2931C103.116 35.2468 103.081 38.6241 103.08 39.2978C103.08 39.7185 103.106 39.3186 103.102 39.6944C103.099 40.0438 103.079 39.6818 103.077 39.7856C103.064 40.6451 103.052 47.1738 103.021 48.7241C103.034 47.7766 103.02 43.0482 103.003 43.1433C103.001 43.1639 102.978 44.313 102.984 44.5501C102.963 44.9417 103.012 46.2864 102.997 47.0178C102.995 47.1005 102.965 46.7747 102.951 48.0801C102.947 48.5297 102.964 49.7072 102.929 50.8922C102.932 52.6078 102.836 61.6275 102.863 62.2463C102.864 62.2646 102.884 60.9945 102.891 61.8526C102.9 62.9934 102.85 61.9689 102.836 63.2985C102.834 63.4989 102.815 67.198 102.818 67.3191C102.84 68.4395 102.876 65.2071 102.879 65.2523C102.887 65.3651 102.873 68.0508 102.87 68.16C102.867 68.2639 102.843 66.0735 102.839 68.7056C102.846 68.4041 102.853 68.1026 102.86 67.8011C102.861 69.0389 102.832 69.1569 102.828 69.4568C102.817 70.389 102.85 71.3976 102.789 72.8912C102.773 73.2862 102.763 72.6305 102.76 72.6799C102.739 73.1544 102.782 73.7597 102.742 74.4731C102.739 74.5268 102.729 72.8665 102.71 75.7685C102.715 75.5687 102.719 75.369 102.724 75.1693C102.729 75.5785 102.713 78.5167 102.708 78.912C102.695 80.0668 102.679 79.0597 102.674 80.2204C102.71 79.476 102.689 83.0054 102.664 82.8024C102.693 83.2953 102.646 86.2935 102.635 87.7029C102.631 88.2996 102.629 89.3127 102.627 90C102.626 90.3566 102.611 90.6255 102.604 90.724C102.574 91.0862 102.572 90.9736 102.487 91.6219C102.476 91.8017 102.18 93.7512 101.398 95.2754C101.257 95.5739 100.9 96.1653 101.178 95.6221C101.686 94.7041 102.253 92.7997 102.203 92.8154C102.234 92.8552 101.395 95.3859 100.968 95.9768C100.135 97.4027 99.8368 97.6196 99.8796 97.5838C99.9081 97.5384 100.172 97.17 100.144 97.2015C100.029 97.3919 98.8523 98.7447 98.7759 98.7751C98.5576 98.9944 99.4294 98.0729 99.423 98.042C99.4479 98.036 98.2206 99.2406 98.4913 98.9578C98.9164 98.592 99.9438 97.3892 99.9859 97.2943C100.728 96.2205 99.6885 97.6782 99.3337 98.0204C99.2345 98.1311 99.6117 97.6744 99.5307 97.7674C98.2667 99.1582 99.317 98.1098 98.4272 98.9918C97.5923 99.7356 98.6531 98.7641 98.6126 98.7839C98.5837 98.8341 97.5758 99.7101 97.3923 99.8146C97.3497 99.8443 98.0248 99.3385 98.6102 98.7421C99.2036 98.1537 99.6985 97.4862 99.6474 97.5387C98.9684 98.4067 98.172 99.1826 97.2866 99.8387C97.2179 99.8902 98.4509 98.8961 98.5496 98.7598C98.785 98.5289 98.1112 99.1547 98.1316 99.118C98.1494 99.1055 98.921 98.3551 98.2078 99.0157C97.9566 99.233 97.4503 99.7313 96.4093 100.363C98.1764 99.1966 98.3146 98.8463 98.1684 99.0163C98.0058 99.164 97.4103 99.6401 97.3552 99.6704C97.256 99.7393 98.8338 98.496 96.8955 99.9766C96.7836 100.001 96.9399 99.9478 97.484 99.519C97.8126 99.2511 97.5919 99.4203 97.5929 99.4159C97.5816 99.3988 97.8598 99.2803 98.9319 98.1617C98.8426 98.3252 96.9597 99.9501 96.8117 99.9734C96.7183 100.038 97.1649 99.7131 97.0022 99.824C95.0302 101.055 96.3818 100.205 95.7952 100.533C95.7574 100.592 93.7566 101.484 95.2721 100.79C97.9735 99.3773 98.7209 98.2256 99.0358 97.8498C97.5873 99.5879 95.1453 100.898 94.5023 101.109C93.5284 101.484 94.5352 101.09 94.413 101.131C94.374 101.154 93.5268 101.451 93.5124 101.446C93.1963 101.511 94.1744 101.273 95.3053 100.713C96.4467 100.172 97.6644 99.2348 98.182 98.7218C97.8926 98.9847 97.5907 99.2333 97.2777 99.4665C97.6967 99.143 98.0945 98.7915 98.4671 98.4155C96.5924 100.102 98.4395 98.5115 98.8081 97.996C98.8988 97.8889 97.7875 99.1076 99.0413 97.7047C98.1062 98.728 98.4095 98.4097 97.4683 99.2396C97.5268 99.2575 99.5489 97.2655 100.049 96.252C98.9681 97.8907 98.5811 98.1263 98.3572 98.3993C98.0984 98.6389 97.9496 98.9192 96.5485 99.8823C96.037 100.252 97.3712 99.3277 97.2558 99.3934C96.888 99.6924 95.9764 100.346 94.754 100.916C94.5525 101.004 95.422 100.672 94.1454 101.186C94.0057 101.248 93.1646 101.496 93.1742 101.485C93.2856 101.451 94.1092 101.183 94.1384 101.159C94.1712 101.151 93.2553 101.457 93.249 101.448C93.2185 101.449 94.0157 101.201 93.898 101.232C93.6465 101.318 90.3332 102.288 94.6282 100.914C91.0718 102.112 94.2427 101.243 95.5176 100.501C95.8445 100.322 95.9247 100.271 96.3718 99.9854C96.9469 99.6172 97.5707 99.1162 97.831 98.8777C97.9724 98.7511 97.6361 99.0414 97.5534 99.1012C97.4591 99.1492 97.7025 99.0556 98.7697 97.9207C97.7462 99.1417 95.3819 100.74 93.8711 101.172C92.3665 101.622 92.8932 101.464 93.8491 101.149C94.8095 100.835 96.0892 100.103 96.3119 99.9392C96.4361 99.8599 96.0115 100.113 96.0941 100.06C96.2849 100.051 98.6193 98.1407 98.7398 97.8402C98.9375 97.6204 97.9856 98.6428 97.8948 98.6826C97.9273 98.7952 100.211 95.9887 98.977 97.5087C98.165 98.6025 96.1358 100.089 95.7287 100.222C97.4552 99.2416 98.9226 97.8148 99.9507 96.1226C99.3754 97.041 98.6729 97.8781 97.8704 98.6036C99.4853 97.0855 100.53 95.3882 101.123 93.3758C99.2456 98.0498 101.765 91.8621 101.449 91.7004C101.485 91.6844 101.027 93.6053 100.871 93.8895C101.203 93.0311 101.551 91.15 101.496 90C101.481 88.925 101.465 88.4853 101.454 90C101.454 90.005 101.454 90.0101 101.454 90.0151C101.454 90.0101 101.454 90.0051 101.454 90C101.46 89.4045 101.426 88.01 101.424 88.0286C101.413 88.1325 101.42 89.2064 101.424 90C101.426 90.557 101.386 90.9657 101.394 90.7621C101.399 90.5384 101.407 90.2853 101.407 90C101.407 89.5498 101.413 89.0368 101.408 88.4946C101.365 83.8748 101.265 85.1422 101.246 80.5098C101.243 80.602 101.239 80.6941 101.236 80.7863C101.203 75.7511 101.173 70.7159 101.145 65.6808C101.092 63.7107 101.029 58.4678 101.016 55.8926C101.013 55.3741 101.018 52.8283 101.021 52.6362C101.027 52.2804 101.042 54.2366 101.051 53.3526C101.052 53.166 101.035 48.8559 101.012 49.1641C101.012 49.6471 101.034 51.1586 101.03 51.406C100.999 53.1437 100.949 39.8562 100.929 39.198C100.922 39.4923 100.915 39.7866 100.909 40.0808C100.908 39.2424 100.907 38.4039 100.906 37.5654ZM102.788 76.0941C102.804 76.5973 102.779 77.8585 102.779 78.6037C102.779 79.6333 102.839 81.3835 102.771 80.63C102.777 79.118 102.782 77.6061 102.788 76.0941ZM102.978 53.9967C102.958 55.0105 102.911 54.2242 102.938 53.3931C102.941 53.301 103.004 52.6249 102.978 53.9967ZM102.881 64.6257C102.881 64.583 102.888 63.7068 102.889 63.6762C102.914 62.8905 102.891 65.5321 102.881 64.6257ZM103.122 13.2118C103.16 14.4324 103.218 13.5479 103.129 12.7864C103.125 12.7388 103.119 13.1311 103.122 13.2118ZM103.14 14.0742C103.085 14.9418 103.182 16.6893 103.178 15.3001C103.177 15.1653 103.143 14.0341 103.14 14.0742ZM102.933 57.6106C102.918 57.4965 102.933 56.4507 102.939 56.0041C102.954 56.0162 102.934 57.1726 102.933 57.6106ZM103.089 31.0945C103.075 31.0502 103.056 34.6852 103.073 34.9328C103.069 34.3591 103.102 31.1363 103.089 31.0945ZM103.116 21.7724C103.113 21.8646 103.111 23.1203 103.124 23.0837C103.145 22.4707 103.13 21.3575 103.116 21.7724ZM98.2438 3.69126C98.1672 3.66847 98.9821 4.2967 97.0137 2.85185C96.7189 2.64532 97.8014 3.33613 97.6931 3.26902C97.4798 3.10685 97.3053 2.98625 97.1631 2.89288C98.1329 3.50224 99.004 4.3184 99.0802 4.40295C99.4572 4.78767 98.2858 3.69375 98.2438 3.69126ZM88.367 0.834736C88.1532 0.849449 86.7876 0.836753 86.4768 0.829354C86.4235 0.827973 86.6561 0.787965 86.0412 0.788959C85.5475 0.789853 86.285 0.834091 85.3233 0.824307C84.3515 0.814457 85.6499 0.788753 85.565 0.786377C85.4512 0.783176 83.948 0.797151 83.9947 0.772858C84.0296 0.754843 85.64 0.772435 86.0383 0.769956C86.5482 0.766773 85.9299 0.734643 86.7822 0.744054C87.3177 0.749949 87.0209 0.801538 87.1339 0.804586C87.2287 0.807001 89.1007 0.783204 88.3641 0.834561C88.3651 0.834619 88.366 0.834677 88.367 0.834736ZM96.9008 2.72904C96.9749 2.77286 97.0609 2.8259 97.1631 2.89288C97.0758 2.83687 96.9881 2.78219 96.9008 2.72904ZM102.794 73.1648C102.809 72.6377 102.811 74.202 102.793 74.7944C102.782 74.8047 102.792 73.2487 102.794 73.1648ZM95.9588 2.24554C94.4237 1.52693 95.6033 1.95382 96.9008 2.72904C96.486 2.48973 96.4596 2.5132 95.9588 2.24554ZM102.984 44.5501C102.988 44.4851 102.993 44.4439 103.001 44.4387C102.991 44.6096 102.986 44.6249 102.984 44.5501ZM103.02 40.9536C103.002 39.7206 102.989 42.2257 103.006 42.2098C103.013 42.2023 103.021 41.0029 103.02 40.9536ZM102.946 11.6525C102.952 11.7757 102.578 9.8994 103.056 12.6377C102.882 11.1625 103.094 12.7143 103.089 12.6932C103.158 12.6228 102.68 10.1605 102.441 9.65022C102.283 9.24551 102.93 11.2362 102.945 11.6494C102.945 11.6504 102.945 11.6515 102.946 11.6525ZM70.8358 0.759906C71.1448 0.735311 72.1252 0.746107 72.7868 0.74939C72.4777 0.773836 71.4974 0.76312 70.8358 0.759906ZM16.58 103.008C15.4868 103.019 14.6232 103.022 14 103.021C12.3138 102.957 12.2581 102.924 14 102.982C14.421 102.98 14.9558 102.98 15.6074 102.982C15.6886 102.982 16.8552 102.998 16.58 103.008ZM0.844798 72.5268C0.886169 72.0996 0.897696 73.5132 0.883323 74.4416C0.88006 74.6517 0.839859 75.4284 0.828225 74.5414C0.879784 74.5697 0.894964 73.198 0.844798 72.5268ZM95.081 1.86555C94.6246 1.68083 93.1895 1.18905 92.3979 1.06078C92.8868 1.10328 94.4438 1.55583 95.081 1.86555ZM2.84872 96.7542C2.58089 96.3105 2.393 96.0118 2.43138 96.0932C2.60133 96.4601 3.14653 97.2667 2.84872 96.7542ZM99.1242 4.55674C99.1837 4.59165 97.651 3.31033 97.5364 3.22643C97.9025 3.45372 99.1105 4.49928 99.1242 4.55674ZM72.0834 0.776623C72.3675 0.786451 70.8959 0.798998 70.4508 0.788836C70.4866 0.769771 71.8971 0.770203 72.0834 0.776623ZM0.91971 88.8422C0.920983 88.4143 0.917573 87.3455 0.902762 87.2271C0.884226 87.08 0.896942 88.6474 0.91971 88.8422ZM73.6024 102.592C73.6563 102.595 72.0009 102.634 71.265 102.633C69.8675 102.631 73.5438 102.59 73.6024 102.592ZM6.13957 100.352C7.30932 101.229 6.00379 100.266 6.04107 100.321C6.79463 100.971 8.98608 102.084 7.51441 101.263C7.23005 101.101 6.49985 100.636 6.13957 100.352ZM5.11457 99.4786C4.98772 99.386 4.22192 98.6579 4.86779 99.303C5.17062 99.5983 5.7069 100.016 5.11457 99.4786ZM63.3453 102.677C62.136 102.665 67.6799 102.637 67.8392 102.639C67.9234 102.64 67.9786 102.641 68.01 102.642C68.2136 102.635 69.2608 102.626 69.382 102.64C69.068 102.641 68.2108 102.649 68.1113 102.648C68.0684 102.648 68.0364 102.647 68.0143 102.647C67.6448 102.663 63.5771 102.679 63.3453 102.677ZM54.1593 102.718C55.5431 102.677 55.7881 102.729 55.6688 102.732C54.1623 102.764 55.1448 102.718 55.0986 102.716C54.9934 102.714 53.9232 102.739 54.1636 102.718C54.1622 102.718 54.1607 102.718 54.1593 102.718ZM61.4624 102.682C61.5193 102.68 62.681 102.674 62.7288 102.674C63.681 102.684 60.3935 102.704 61.4624 102.682ZM81.035 0.871118C80.2032 0.860273 81.0191 0.83125 81.5719 0.844163C81.6173 0.845411 81.7687 0.880681 81.035 0.871118ZM4.59644 98.9799C4.52405 98.9069 3.56473 97.8916 2.88385 96.7525C2.18128 95.6284 1.75722 94.4335 1.79185 94.594C1.86397 94.8077 2.49001 96.3361 3.33183 97.4826C4.14936 98.6434 5.0499 99.4458 4.59644 98.9799ZM0.873757 62.2813C0.875891 63.1513 0.828545 62.2028 0.843823 61.7386C0.849519 61.5665 0.873204 62.062 0.873757 62.2813ZM100.821 6.64413C101.374 7.45972 101.204 7.32457 100.758 6.59983C100.739 6.57163 100.799 6.61255 100.821 6.64413ZM0.869404 69.2313C0.833202 66.231 0.974965 66.9415 0.939773 70.8421C0.933239 70.7201 0.926699 70.598 0.920154 70.4759C0.913846 74.9781 0.911335 70.7839 0.90014 69.6814C0.895867 69.2624 0.873821 69.6137 0.869248 69.2342C0.8693 69.2332 0.869352 69.2322 0.869404 69.2313ZM0.863897 57.7064C0.958151 54.817 0.905874 60.333 0.923566 61.9151C0.877922 60.3814 0.878493 58.3844 0.843506 61.1003C0.82399 57.1294 0.869109 58.7825 0.871965 58.624C0.875228 58.4363 0.859867 57.8296 0.863897 57.7064ZM0.885983 65.3279C0.88936 65.4948 0.872922 66.7532 0.877642 67.2065C0.841747 66.5726 0.862845 64.219 0.885983 65.3279ZM44.5289 102.795C44.6334 102.775 44.8918 102.76 45.885 102.761C45.5782 102.772 44.9438 102.784 44.5289 102.795ZM102.693 77.0493C102.688 77.7333 102.672 79.0952 102.692 78.6775C102.694 78.6318 102.703 77.0514 102.693 77.0493ZM0.958366 84.8202C0.960831 84.6747 0.949096 80.9128 0.925936 82.2121C0.918923 82.604 0.935681 86.0268 0.958366 84.8202ZM9.20084 102.045C8.87558 101.94 7.63561 101.327 7.61433 101.303C7.51249 101.295 9.04477 102.035 9.20084 102.045ZM102.654 80.4997C102.651 80.5898 102.64 82.6789 102.649 82.4492C102.667 82.0133 102.662 80.191 102.654 80.4997ZM78.0086 0.926126C77.834 0.926683 77.603 0.896646 77.5426 0.896156C77.4006 0.895305 74.2039 0.898552 75.4252 0.863665C75.6289 0.857743 80.2283 0.884671 80.8265 0.890119C81.0579 0.930857 79.0932 0.887319 78.6151 0.890158C78.5308 0.89072 78.4769 0.924312 78.0101 0.925959C78.0096 0.926015 78.0091 0.92607 78.0086 0.926126ZM49.703 102.743C49.8441 102.725 53.6022 102.691 53.5587 102.711C52.2734 102.722 50.9882 102.732 49.703 102.743ZM47.794 102.752C46.9921 102.745 48.8701 102.729 49.4237 102.731C49.4296 102.743 47.9108 102.753 47.794 102.752ZM3.32752 97.2665C3.08775 96.9375 3.78738 97.9752 3.62081 97.7507C3.5029 97.6144 2.9983 96.8557 2.84789 96.6067C2.79736 96.5401 3.26716 97.3448 3.43482 97.5574C3.66299 97.8645 3.46038 97.5531 3.71268 97.885C4.56255 98.9758 5.45717 99.8362 6.51663 100.584C6.61176 100.652 5.88169 100.114 6.69724 100.689C6.82439 100.772 7.57665 101.329 8.67256 101.813C10.4612 102.528 12.003 102.89 14 102.909C14.6832 102.908 15.423 102.905 16.2573 102.893C16.164 102.888 14.6711 102.882 14 102.88C13.8159 102.879 13.69 102.875 13.6603 102.874C10.8307 103.03 6.0427 100.849 4.25519 98.4626C3.76951 97.8921 3.99332 98.179 3.78977 97.928C3.63609 97.724 3.8316 97.9565 3.32752 97.2665ZM102.684 76.6861C102.66 77.012 102.666 78.1556 102.66 78.886C102.681 78.6289 102.674 77.3998 102.684 76.6861ZM30.9214 102.83C30.5552 102.833 29.4202 102.831 29.3264 102.839C29.2056 102.851 30.8439 102.849 30.9214 102.83ZM59.9839 0.875909C59.9485 0.876839 59.0678 0.873252 59.0345 0.872038C58.2476 0.8411 60.8893 0.852116 59.9839 0.875909ZM38.9155 0.83839C38.2476 0.842352 37.574 0.853492 37.3495 0.822701C37.7751 0.82778 38.9938 0.817197 38.9155 0.83839ZM9.53277 1.60411C9.67499 1.55727 7.64208 2.40925 7.30427 2.66631C7.40496 2.53123 9.39997 1.57238 9.53277 1.60411ZM44.3842 102.714C45.6131 102.709 45.3537 102.672 46.134 102.685C46.2613 102.687 46.6729 102.765 45.322 102.743C45.0789 102.739 46.03 102.714 44.3842 102.714ZM0.940596 71.4775C0.965604 71.79 0.961467 72.7669 0.961656 73.427C0.94343 73.279 0.943759 71.9471 0.940596 71.4775ZM102.612 84.2728C102.588 84.8492 102.585 87.5124 102.602 86.8534C102.605 86.7597 102.609 84.6464 102.612 84.2728ZM91.7712 1.06513C90.5862 0.938243 93.0356 1.24904 93.7748 1.51578C93.4443 1.38629 91.8545 1.05128 91.7712 1.06513ZM16.8311 0.848779C16.7785 0.849985 15.6167 0.847014 15.5647 0.845555C14.6125 0.814426 17.8999 0.822678 16.8311 0.848779ZM45.8437 0.89462C45.4251 0.918098 42.673 0.895517 42.0562 0.87068C42.6497 0.835991 46.3632 0.865255 45.8437 0.89462ZM39.3273 102.754C40.204 102.748 41.0359 102.749 41.8413 102.751C41.6718 102.765 39.4199 102.764 39.3273 102.754ZM12.4328 0.94376C12.365 0.951665 12.2988 0.957721 12.2342 0.966143C12.3017 0.957959 12.368 0.95059 12.4328 0.94376ZM19.7033 102.843C18.9686 102.84 19.1211 102.868 19.1664 102.869C19.7192 102.875 20.5351 102.846 19.7033 102.843ZM102.647 77.5255C102.626 77.7802 102.633 79.016 102.624 79.7268C102.64 79.5206 102.645 78.0981 102.647 77.5255ZM0.921385 54.612C0.953975 53.6889 1.00268 57.4447 0.982409 58.2361C0.961352 58.2946 0.91696 54.7472 0.921385 54.612ZM95.2979 2.1276C95.3731 2.15641 96.8851 2.94885 96.5706 2.76933C96.3839 2.63121 95.2652 2.08322 95.2979 2.1276ZM0.972577 60.1248C0.980987 60.4776 0.958725 61.3002 0.943146 61.0106C0.923122 60.6388 0.970169 60.0336 0.972577 60.1248ZM1.22984 91.9124C1.16156 91.7534 1.03158 89.5231 1.04904 90.4457C1.06196 91.0876 1.11634 91.1866 1.12943 91.3358C1.07205 91.5158 1.81196 95.0315 1.22984 91.9124ZM0.902947 33.5769C0.914113 34.3597 0.903977 35.3063 0.906015 36.1256C0.889447 35.7918 0.882063 33.91 0.902947 33.5769ZM88.9546 0.990048C89.0078 0.992931 89.4523 0.996643 90 0.999664C91.531 0.979202 93.7582 1.47368 91.4951 1.06798C91.4068 1.05529 90.6831 0.972086 90 0.974303C89.2965 0.971861 88.6495 0.973563 88.9546 0.990048ZM44.3842 102.714C44.2292 102.715 44.0503 102.715 43.8429 102.715C44.0489 102.714 44.2281 102.714 44.3842 102.714ZM30.4264 102.786C30.7093 102.771 29.2839 102.774 28.8633 102.784C28.7338 102.801 30.3874 102.788 30.4264 102.786ZM0.932423 36.1879C0.943947 36.6599 0.933802 37.5167 0.936024 38.1012C0.918376 38.0023 0.914912 36.392 0.932423 36.1879ZM6.00879 3.64643C5.18259 4.25214 4.32719 5.18242 4.33538 5.21397C4.3186 5.22734 4.28257 5.26145 4.22527 5.32041C4.16033 5.37404 3.47181 6.22444 3.20829 6.6207C2.42329 7.81896 3.81104 5.39129 5.47227 4.06126C6.27127 3.37493 7.03937 2.91702 7.14989 2.85966C7.27846 2.82321 6.65733 3.06572 5.17169 4.40654C5.43915 4.14174 5.71854 3.88799 6.00879 3.64643ZM49.5677 0.950387C50.0997 0.977365 51.5898 0.946482 51.2031 0.935627C50.9338 0.92815 49.035 0.923175 49.5677 0.950387ZM29.0941 0.946922C29.2531 0.951778 30.708 0.933882 30.7455 0.919825C29.9091 0.904425 28.3696 0.924304 29.0941 0.946922ZM53.6577 0.986757C53.9916 0.991172 54.4177 0.949658 54.3785 0.947767C54.0391 0.931848 53.0969 0.962448 53.6577 0.986757ZM41.8384 102.652C41.3415 102.647 39.7576 102.675 39.4127 102.696C39.3485 102.692 39.1755 102.689 38.8584 102.684C38.8593 102.684 38.8603 102.684 38.8613 102.684C38.4331 102.679 25.6314 102.731 34.2183 102.728C34.4872 102.728 34.1199 102.712 35.2141 102.71C35.2864 102.71 35.3223 102.724 35.5455 102.724C36.0594 102.723 38.7961 102.718 39.3461 102.703C39.3508 102.706 39.3863 102.708 39.4619 102.71C40.1365 102.727 42.2239 102.657 41.8384 102.652ZM26.2096 0.949311C26.5023 0.957193 27.4292 0.950267 27.5252 0.93186C27.0656 0.922565 25.5301 0.930907 26.2096 0.949311ZM89.1153 1.05906C89.3343 1.0647 89.6769 1.06536 90 1.06321C90.6011 1.05837 91.1379 1.0972 90.8273 1.06414C90.719 1.05381 90.3743 1.03369 90 1.03576C89.372 1.03836 88.6711 1.04766 89.1153 1.05906ZM35.4926 0.945226C32.0722 0.92087 34.6763 0.946355 34.1524 0.972923C34.5992 0.963671 35.0459 0.954438 35.4926 0.945226ZM57.669 102.61C57.1236 102.61 57.7646 102.576 58.3651 102.589C58.5536 102.593 57.9742 102.61 57.669 102.61ZM82.2978 102.448C81.8322 102.431 84.1058 102.427 83.2197 102.447C83.1786 102.448 82.3311 102.448 82.2978 102.448ZM65.0879 102.547C64.7177 102.566 64.4766 102.57 63.4336 102.572C64.9776 102.557 63.5456 102.551 65.0879 102.547ZM4.34537 5.20815C4.34 5.21211 4.33556 5.21556 4.33538 5.21397C4.34118 5.20936 4.34415 5.20777 4.34537 5.20815ZM56.8737 0.983404C57.3018 1.0106 58.5018 1.01051 58.1444 0.983298C58.1099 0.980777 57.0491 0.964069 56.8737 0.983404ZM39.4127 102.696C39.4696 102.699 39.4406 102.701 39.3461 102.703C39.3417 102.701 39.3661 102.699 39.4127 102.696ZM50.4303 0.995909C50.4731 0.975985 48.6466 0.965822 48.5734 0.968094C47.5251 1.00153 49.6761 0.996108 50.4303 0.995909ZM100.345 6.32557C100.408 6.40563 100.055 5.85272 99.7757 5.5628C99.5638 5.33665 100.122 6.01982 100.345 6.32557ZM68.6294 102.519C69.2078 102.515 70.0221 102.51 70.1723 102.522C69.7847 102.522 68.6175 102.528 68.6294 102.519ZM81.4077 102.439C80.7241 102.456 79.1627 102.466 78.1657 102.47C78.1473 102.453 80.7661 102.447 81.4077 102.439ZM43.4073 102.654C43.3598 102.653 41.9095 102.653 42.1076 102.669C42.3969 102.692 43.8164 102.661 43.4073 102.654ZM98.2988 4.10573C97.7541 3.67155 98.9616 4.72529 99.4649 5.26087C99.7498 5.51194 98.4151 4.15391 98.2988 4.10573ZM60.6207 1.02406C61.4767 1.01103 59.3554 0.981673 59.0591 1.0074C59.4533 1.01014 60.3167 1.02868 60.6207 1.02406ZM31.4995 1.01848C34.1966 1.09801 32.7276 0.955096 32.2492 0.967241C32.1818 0.968971 31.4336 1.01661 31.4995 1.01848ZM102.45 91.0039C102.427 91.3148 102.519 90.4742 102.512 90C102.513 89.8759 102.512 89.7789 102.51 89.7393C102.507 89.6976 102.503 89.8183 102.5 90C102.497 90.3291 102.464 90.8428 102.45 91.0039ZM0.971959 18.263C0.971615 18.1491 0.971266 18.0361 0.970953 17.9243C0.972289 18.0082 0.972792 18.1185 0.971959 18.263ZM68.3899 1.13741C66.4913 1.02907 66.6907 1.11036 66.5257 1.10968C66.1692 1.10795 65.3407 1.07801 64.6688 1.08155C65.4383 1.07096 66.2078 1.06044 66.9773 1.05001C66.3695 1.04128 61.0889 0.992909 60.9782 1.01003C60.8197 1.03432 62.4813 1.02939 62.5297 1.03165C62.5994 1.03485 62.859 1.10335 63.0131 1.10617C63.2667 1.11063 67.6822 1.11938 68.3899 1.13741ZM37.1397 1.01026C36.706 1.00155 36.5827 0.973568 36.3813 0.980072C36.3126 0.982298 36.3016 1.00889 36.0672 1.01559C36.4247 1.0138 36.7822 1.01203 37.1397 1.01026ZM71.7896 1.04977C72.327 1.0817 69.9173 1.06526 69.8401 1.06165C69.4279 1.03979 71.3504 1.02362 71.7896 1.04977ZM51.3421 1.02034C51.43 1.02231 53.2804 1.03474 53.2655 1.01703C52.776 1.00283 50.3019 0.995584 51.3421 1.02034ZM35.7777 1.01719C35.1276 1.0136 33.8986 0.985895 34.0395 1.02612C34.0405 1.02612 34.0415 1.02612 34.0424 1.02612C34.6209 1.02312 35.1993 1.02014 35.7777 1.01719ZM96.3046 2.80636C97.3742 3.5267 96.9125 3.1166 95.913 2.55535C95.5933 2.4195 96.1267 2.69042 96.3046 2.80636ZM99.4758 5.40614C99.5945 5.53887 100.259 6.30252 100.741 7.05787C101.232 7.80628 101.564 8.516 101.456 8.25493C101.416 8.04818 100.259 6.2669 100.168 6.21334C100.076 6.09639 100.529 6.60285 99.8137 5.72429C99.85 5.77967 99.3981 5.31101 99.4758 5.40614ZM97.1894 3.40121C98.2035 4.17573 98.4528 4.32744 97.7017 3.72422C97.4019 3.49613 97.0414 3.294 97.1894 3.40121ZM92.4031 1.39957C92.8569 1.48273 94.0416 1.80331 94.8297 2.11327C93.7832 1.68195 92.6776 1.39119 91.5538 1.25084C91.4226 1.24972 92.0086 1.31293 92.4061 1.40015C92.4051 1.39996 92.4041 1.39976 92.4031 1.39957ZM88.6022 102.303C87.6509 102.298 89.8425 102.283 89.9352 102.285C90.2104 102.291 89.0275 102.305 88.6022 102.303ZM99.2443 97.7801C99.0671 97.9788 98.9475 98.1052 98.5421 98.527C98.966 98.1184 99.3608 97.6787 99.7225 97.2119C99.9743 96.8281 99.4432 97.5668 99.2443 97.7801ZM97.5862 99.2865C97.6459 99.2292 97.2899 99.5056 98.1048 98.819C98.3706 98.5746 97.814 99.155 97.0206 99.7315C96.2352 100.32 95.1921 100.839 94.8633 100.968C95.5904 100.672 97.0568 99.7659 97.5862 99.2865ZM91.3276 101.773C91.2865 101.795 92.7362 101.545 92.8961 101.481C93.7684 101.278 91.5787 101.814 91.3276 101.773ZM95.7664 100.345C95.1603 100.675 96.4955 99.9296 96.8531 99.6446C96.9008 99.6359 95.8686 100.308 95.7664 100.345ZM78.969 101.788C78.2124 101.759 77.5357 101.815 78.6998 101.806C78.7553 101.806 79.0012 101.789 78.969 101.788ZM92.7356 101.49C93.4057 101.334 91.9249 101.703 91.4678 101.729C91.4273 101.742 92.6366 101.53 92.7356 101.49ZM78.4364 101.723C77.4316 101.7 77.7854 101.766 77.911 101.769C78.4282 101.781 80.2016 101.761 80.5639 101.757C77.9095 101.757 78.9095 101.734 78.4364 101.723ZM73.8021 101.746C72.87 101.751 75.2522 101.772 75.7068 101.755C75.2435 101.754 74.0672 101.745 73.8021 101.746ZM68.1446 101.705C67.6434 101.701 66.1528 101.689 65.9027 101.7C66.4499 101.7 67.9331 101.716 68.1446 101.705ZM67.0099 101.666C66.2265 101.647 66.0386 101.693 66.9419 101.683C66.977 101.682 67.0387 101.667 67.0099 101.666ZM62.6058 101.633C62.0918 101.611 61.5051 101.656 62.338 101.661C62.5854 101.662 62.6602 101.635 62.6058 101.633ZM77.1787 101.648C76.4427 101.637 75.4945 101.661 77.0658 101.671C76.5139 101.673 75.962 101.675 75.4101 101.677C77.4682 101.702 77.3171 101.662 77.9081 101.667C78.7339 101.673 78.6688 101.704 78.5029 101.713C79.18 101.696 82.0566 101.709 83.719 101.712C82.2579 101.698 79.8869 101.674 78.4451 101.662C78.0334 101.659 77.6339 101.665 77.2829 101.663C76.7201 101.659 77.2199 101.648 77.1816 101.648C77.1806 101.648 77.1796 101.648 77.1787 101.648ZM56.8165 101.61C55.3059 101.581 56.2612 101.635 57.1147 101.629C57.1512 101.628 56.8541 101.611 56.8165 101.61ZM90.7825 101.689C91.7646 101.612 91.8967 101.57 92.2934 101.501C92.6785 101.397 93.3892 101.368 95.2405 100.459C93.6811 101.209 95.1643 100.521 94.8607 100.669C94.6213 100.8 93.6669 101.155 94.2248 100.956C93.5297 101.362 90.1742 101.857 90.015 101.746C90.0165 101.746 90.0179 101.746 90.0193 101.746C89.9282 101.742 90.1557 101.725 90.7825 101.689ZM68.1373 101.589C67.6335 101.533 67.4359 101.618 66.4454 101.568C65.1267 101.628 70.0882 101.585 70.6889 101.642C65.3007 101.613 74.2489 101.709 70.4878 101.614C73.5863 101.656 71.5031 101.609 71.9814 101.601C72.4931 101.593 74.2457 101.613 74.1567 101.594C74.1557 101.594 74.1548 101.594 74.1538 101.594C73.0818 101.59 72.0099 101.586 70.9379 101.582C71.9871 101.628 69.7965 101.606 69.0535 101.567C68.7481 101.574 68.4427 101.582 68.1373 101.589ZM74.2044 101.656C74.0988 101.654 71.7672 101.65 71.9177 101.659C72.2291 101.665 75.5382 101.673 74.2044 101.656ZM84.4658 101.694C83.6287 101.69 82.3342 101.677 81.8781 101.689C82.7154 101.693 84.0101 101.705 84.4658 101.694ZM41.3579 101.509C40.2907 101.523 43.5762 101.539 42.6257 101.516C42.5789 101.515 41.4103 101.509 41.3579 101.509ZM65.7102 101.586C64.6253 101.564 65.138 101.621 65.9418 101.61C65.9883 101.609 65.7603 101.587 65.7102 101.586ZM92.3605 101.463C92.4495 101.516 95.1591 100.607 95.5633 100.274C95.364 100.527 92.3105 101.586 92.3605 101.463ZM85.9392 101.664C84.2734 101.618 82.013 101.648 81.7652 101.646C81.5187 101.644 81.9053 101.629 81.8491 101.629C81.721 101.627 79.096 101.614 78.969 101.615C78.8781 101.615 79.353 101.642 78.8112 101.647C79.8681 101.638 84.667 101.672 84.9159 101.67C85.1089 101.669 83.6547 101.638 85.9363 101.664C85.9373 101.664 85.9382 101.664 85.9392 101.664ZM81.1457 101.638C81.8015 101.651 79.9625 101.643 79.5175 101.637C78.5286 101.624 81.0616 101.636 81.1457 101.638ZM76.7228 101.605C76.5127 101.602 74.6175 101.589 74.4563 101.601C75.3534 101.621 77.1992 101.613 76.7228 101.605ZM55.6326 101.503C55.1404 101.502 53.7867 101.485 53.7092 101.498C54.2019 101.498 55.5553 101.516 55.6326 101.503ZM99.9482 95.8982C99.5418 96.5732 100.469 94.9988 100.64 94.4909C100.678 94.4767 100.005 95.8524 99.9482 95.8982ZM65.5264 101.472C65.235 101.466 59.2889 101.442 58.4549 101.443C59.2707 101.457 65.1635 101.49 65.4309 101.487C65.509 101.486 65.5636 101.472 65.5264 101.472ZM78.3857 101.544C78.9309 101.532 79.2866 101.553 79.3554 101.553C80.0295 101.56 81.4277 101.565 81.1211 101.577C79.9314 101.564 77.3004 101.567 78.3857 101.544ZM55.21 101.413C53.191 101.409 57.0691 101.45 56.5604 101.428C56.5276 101.426 55.4188 101.413 55.21 101.413ZM66.1907 101.47C66.636 101.459 72.5839 101.507 73.5387 101.512C72.6834 101.531 71.9941 101.509 70.8453 101.503C70.5353 101.502 70.618 101.513 70.5847 101.512C70.0479 101.51 70.4497 101.5 70.1187 101.498C69.9096 101.496 65.564 101.486 66.1907 101.47ZM78.6969 101.536C79.0294 101.529 82.7432 101.55 82.8926 101.554C84.0103 101.577 78.9855 101.54 78.6969 101.536ZM65.6451 101.444C66.2846 101.418 69.2385 101.456 67.2169 101.459C67.0238 101.459 66.2062 101.441 65.6451 101.444ZM55.4257 101.382C55.3263 101.381 53.2216 101.362 53.1838 101.372C53.488 101.378 56.5561 101.399 55.4257 101.382ZM56.5169 101.353C56.4662 101.353 56.9597 101.376 55.9728 101.367C55.8905 101.367 55.7371 101.343 54.4965 101.344C54.2448 101.344 53.8547 101.357 53.8828 101.358C55.1747 101.402 59.0654 101.356 56.5169 101.353ZM78.7649 101.522C78.5648 101.513 79.0475 101.494 79.4828 101.508C79.6694 101.514 79.3212 101.525 78.7649 101.522ZM48.7507 101.335C49.9742 101.323 46.1329 101.298 45.9371 101.302C46.0605 101.314 48.6283 101.336 48.7507 101.335ZM100.648 94.1998C100.648 94.2006 100.648 94.2015 100.647 94.2023C100.985 93.2811 100.788 93.8558 100.806 93.8134C101.425 91.8145 101.171 92.3224 101.253 92.0077C101.345 91.3144 101.397 91.4315 101.426 90.249C101.342 92.2011 101.446 90.425 101.448 90.3697C101.561 90.1543 101.213 92.9766 100.795 93.8769C100.758 94.0087 101.075 93.0547 100.976 93.3888C100.728 94.5177 98.9941 97.585 100.648 94.1998ZM79.8185 101.508C80.2959 101.499 83.9181 101.537 82.9577 101.54C82.8033 101.541 79.1167 101.523 79.8185 101.508ZM5.78619 6.92266C5.29154 7.53267 6.5061 6.17849 6.77184 5.96742C6.88374 5.83996 5.99019 6.63913 5.78619 6.92266ZM17.8312 3.26904C18.8656 3.26367 19.9561 3.1569 18.6692 3.1737C18.5324 3.17554 17.7126 3.25428 17.8312 3.26904ZM3.12796 59.2434C3.16629 58.1633 3.10026 58.2276 3.09912 59.0205C3.09871 59.3005 3.12674 59.2774 3.12796 59.2434ZM3.19451 18.0184C3.19707 17.9103 3.19375 16.6616 3.17757 16.7071C3.16749 17.1687 3.17705 18.7175 3.19451 18.0184ZM3.13637 59.5864C3.12624 58.946 3.07589 60.0483 3.12005 60.8311C3.11735 60.4335 3.13739 59.6523 3.13637 59.5864ZM63.4133 101.346C62.8771 101.358 61.3598 101.343 60.4883 101.34C60.3944 101.319 62.7907 101.346 63.4133 101.346ZM13.4962 3.23806C14.375 3.17013 12.4873 3.25086 12.6651 3.29494C12.6892 3.28717 13.4609 3.23402 13.4962 3.23806ZM3.64871 93.673C3.53605 93.368 3.63268 93.7079 3.76207 94.0505C3.88985 94.3921 4.05182 94.7323 3.94919 94.4655C3.93259 94.4415 3.65478 93.7083 3.64871 93.673ZM9.62666 100.134C9.14677 99.9793 7.36137 98.8392 8.04628 99.2975C8.13685 99.3961 9.57368 100.16 9.62666 100.134ZM101.25 91.9483C101.205 92.22 101.407 90.6289 101.386 90.3966C101.403 90.3045 101.354 91.598 101.25 91.9483ZM3.15159 52.2283C3.14838 51.6695 3.16051 50.22 3.14186 49.9647C3.14426 50.6484 3.11303 52.4121 3.15159 52.2283ZM9.61873 4.15396C10.3275 3.85833 11.5876 3.52804 11.2631 3.55929C9.88341 3.98871 11.4244 3.48459 9.61873 4.15396ZM3.16782 63.1859C3.17213 62.7377 3.12456 62.3943 3.12212 62.4449C3.099 62.9305 3.14765 63.6312 3.16782 63.1859ZM3.2013 29.5549C3.22342 29.529 3.21549 28.0924 3.20097 28.2841C3.19611 28.347 3.18342 29.5758 3.2013 29.5549ZM44.5984 101.216C43.94 101.199 45.9504 101.199 46.545 101.218C46.8341 101.241 44.6816 101.218 44.5984 101.216ZM3.11541 75.6139C3.14488 75.6807 3.13598 73.4352 3.10817 74.32C3.10125 74.5415 3.10559 75.5904 3.11541 75.6139ZM4.92552 96.1078C4.5458 95.5342 5.08604 96.5 5.80992 97.313C6.52282 98.135 7.38221 98.7813 6.80824 98.2799C6.67194 98.2602 4.93113 96.253 4.92552 96.1078ZM12.7075 100.932C12.4723 100.89 12.5972 100.855 13.5742 100.946C13.7032 100.959 13.0985 100.946 13.2034 100.957C13.2285 100.959 13.5763 100.991 14 100.996C14.7008 101.003 15.58 101.012 15.6451 101.011C15.7609 101.009 15.6245 100.981 15.742 100.978C15.8745 100.976 17.3139 101.008 18.0678 101.012C19.4884 101.02 19.6419 100.998 19.7583 100.999C20.0977 101 20.6682 101.02 21.3561 101.023C24.8239 101.042 30.1277 101.055 32.8767 101.116C30.4302 101.084 28.099 101.089 25.6647 101.082C26.3777 101.04 22.0836 101.098 24.5952 101.059C23.6643 101.062 17.005 101.035 14 101.018C13.3284 101.013 12.862 100.952 12.7102 100.932C12.7093 100.932 12.7084 100.932 12.7075 100.932ZM21.914 3.29944C21.2785 3.33804 24.5392 3.32808 24.8159 3.2836C24.3854 3.27769 21.9928 3.2951 21.914 3.29944ZM8.0634 5.20872C7.85446 5.37727 7.64691 5.52666 6.6037 6.45704C6.60279 6.45794 6.60188 6.45883 6.60097 6.45972C6.30321 6.74079 6.62042 6.39825 6.56309 6.4467C6.53381 6.45464 5.63503 7.37317 6.3579 6.58811C7.52759 5.45601 6.4963 6.51049 7.14002 5.93322C7.19986 5.84019 8.51396 4.86302 8.44397 4.92652C8.4334 4.92873 8.02346 5.20313 7.95593 5.2492C7.69575 5.41473 7.80507 5.31016 7.76886 5.33418C7.60146 5.35796 5.72747 7.16731 5.53282 7.50313C5.49072 7.5505 6.10594 6.70396 6.91594 5.9902C7.71207 5.26063 8.68467 4.7025 8.75885 4.66763C8.85286 4.61932 8.84547 4.69759 8.94385 4.65119C8.97911 4.59861 10.5378 3.88641 10.7653 3.85933C10.8275 3.84133 10.875 3.82873 10.91 3.81974C10.65 3.85709 12.1573 3.47804 12.1188 3.53419C12.0916 3.53496 11.0523 3.77206 11.0185 3.794C11.0022 3.79805 10.988 3.80127 10.9749 3.80452C11.085 3.78491 10.2687 4.02149 9.56925 4.36C8.86541 4.68909 8.27936 5.08616 8.61888 4.89716C7.74576 5.46557 8.71098 4.76507 8.0634 5.20872ZM4.7381 8.90297C4.78417 8.8055 4.83174 8.70873 4.88078 8.61267C4.01228 10.0879 3.38548 12.008 3.38977 14C3.38942 14.1454 3.38918 14.2909 3.38906 14.4363C3.3885 15.0412 3.4307 14.3453 3.41858 15.1383C3.40885 15.7735 3.36965 16.4764 3.36142 16.1311C3.35936 16.0468 3.38571 14.7536 3.38373 14.1063C3.38361 14.07 3.38349 14.0346 3.38336 14C3.42642 12.4156 3.42308 12.8254 3.4159 12.7272C3.41798 12.6168 3.61259 11.5655 3.79067 11.0113C4.24223 9.62989 4.464 8.95535 5.6895 7.37443C5.01992 8.31309 5.40668 7.81521 4.7381 8.90297ZM3.16733 85.0981C3.18639 85.1767 3.16337 86.5309 3.16407 87.023C3.1451 86.9456 3.16807 85.5903 3.16733 85.0981ZM100.914 31.0077C100.945 31.4237 100.936 28.306 100.916 29.1276C100.912 29.3094 100.912 30.616 100.914 31.0077ZM100.862 17.0021C100.852 16.5851 100.837 18.2644 100.861 18.2613C100.869 18.2588 100.863 17.0558 100.862 17.0021ZM3.36009 34.7116C3.36107 34.7905 3.35082 35.9377 3.34891 35.9737C3.30929 36.7337 3.33853 32.9577 3.36009 34.7116ZM94.2082 4.1051C94.8076 4.36095 94.2208 4.06688 93.5897 3.84593C92.9595 3.62238 92.2917 3.48189 92.8696 3.64035C92.9322 3.63866 94.1575 4.06381 94.2082 4.1051ZM88.7447 3.2798C88.9428 3.2784 89.5279 3.27946 90 3.27872C90.3234 3.27791 90.583 3.29237 90.592 3.28819C90.603 3.28222 90.3344 3.26016 90 3.25927C89.4872 3.25765 88.8469 3.26304 88.7447 3.2798ZM3.29546 63.4884C3.33439 63.3204 3.29838 65.3609 3.3007 66.0704C3.26202 66.2388 3.29792 64.1975 3.29546 63.4884ZM3.36362 50.6088C3.36949 59.2111 3.29189 57.3147 3.34578 50.0965C3.37117 50.0861 3.36316 50.0659 3.36362 50.6088ZM3.32545 61.6242C3.30181 61.3116 3.31227 60.3347 3.31636 59.6747C3.33324 59.7934 3.3226 61.1481 3.32545 61.6242ZM100.89 34.72C100.861 34.1805 100.88 31.7914 100.893 32.2162C100.896 32.315 100.906 34.9181 100.89 34.72ZM3.39339 35.4324C3.43328 35.232 3.41176 37.8152 3.40258 38.0129C3.36582 38.8101 3.40171 35.6415 3.39339 35.4324ZM3.28264 75.6978C3.30899 76.154 3.28909 77.4495 3.28523 78.2827C3.26292 77.9033 3.27926 76.4048 3.28264 75.6978ZM3.32855 69.6828C3.32946 69.7351 3.32241 70.8972 3.32089 70.9492C3.28934 71.9014 3.3089 68.614 3.32855 69.6828ZM99.9609 95.3709C99.9842 95.3419 100.342 94.5938 100.348 94.5645C100.496 94.2252 100.338 94.6338 100.153 95.0143C99.968 95.3955 99.7615 95.7494 99.9609 95.3709Z" fill="#fff"/>
</svg>
