<svg width="104" height="104" viewBox="0 0 104 104" fill="none" xmlns="http://www.w3.org/2000/svg">
<path d="M43.3565 2.81695C43.5912 2.81676 44.5355 2.82965 44.9442 2.8321C44.4808 2.8509 42.5097 2.8175 43.3565 2.81695ZM85.2849 0.905962C84.9457 0.915505 84.6066 0.925016 84.2674 0.934493C85.2312 0.933709 86.5267 0.920666 87.4211 0.922792C87.5674 0.923184 87.1879 0.947348 87.534 0.946404C87.8803 0.945466 87.8135 0.915662 88.317 0.909553C88.5747 0.906472 89.2532 0.906124 90 0.906252C90.9712 0.898389 92.042 1.04857 92.5624 1.15514C96.1639 1.82963 99.4612 4.12946 101.328 7.30868C99.1367 4.21141 101.416 7.28853 101.815 8.28637C101.827 8.52441 102.295 8.3319 103.049 12.0874C103.24 13.7255 103.116 13.2264 103.133 14C103.128 14.3335 103.131 14.9268 103.151 16.1083C103.2 13.2732 103.208 16.0612 103.22 18.2836C103.223 18.6668 103.227 21.761 103.235 23.1278C103.238 23.5954 103.275 24.3079 103.278 24.9282C103.281 25.3551 103.264 25.678 103.267 26.3118C103.283 29.2669 103.296 32.1729 103.301 35.1331C103.205 33.4033 103.268 36.491 103.264 36.6297C103.242 37.3349 103.224 34.1452 103.213 35.4067C103.222 37.1695 103.231 38.9323 103.239 40.6951C103.245 39.2484 103.322 42.6105 103.294 43.2294C103.374 42.9569 103.248 51.2638 103.277 52.5283C103.284 52.7916 103.32 51.0677 103.312 55.0669C103.311 55.5 103.286 55.3361 103.288 55.5633C103.29 55.6993 103.372 56.5227 103.33 57.3999C103.315 57.7203 103.258 55.6708 103.289 60.1715C103.367 58.3791 103.348 66.4121 103.329 67.89C103.34 67.5947 103.35 67.2995 103.361 67.0042C103.334 68.4652 103.362 68.7289 103.361 69.058C103.358 70.3843 103.333 72.2078 103.337 73.4433C103.343 74.8891 103.395 74.894 103.377 76.5796C103.388 76.1797 103.399 75.7797 103.409 75.3798C103.409 76.5439 103.408 77.708 103.407 78.8721C103.334 76.1764 103.404 79.4537 103.406 79.6696C103.409 80.014 103.38 79.5192 103.385 80.0951C103.385 80.1547 103.412 80.0686 103.416 80.9563C103.425 82.811 103.391 82.5178 103.392 83.2965C103.392 83.3679 103.416 83.1181 103.423 84.4631C103.446 88.7378 103.405 84.4418 103.401 84.2778C103.397 84.0624 103.298 85.5281 103.329 81.897C103.32 83.1162 103.275 83.2389 103.274 83.3761C103.274 83.4977 103.282 85.6101 103.284 85.7266C103.3 86.765 103.329 85.8513 103.335 86.0537C103.34 86.2192 103.302 88.7642 103.395 89.3607C103.311 90.5785 103.317 88.6601 103.302 86.6181C103.285 86.3202 103.27 88.5626 103.27 88.6805C103.271 89.3102 103.274 89.7269 103.28 90C103.28 91.0871 103.354 90.123 103.369 90.6725C103.386 91.0463 103.186 92.3484 103.376 91.1464C102.986 94.0566 103.179 92.2828 103.163 92.4729C103.114 92.7537 102.879 93.7542 102.83 93.8737C102.772 94.0525 102.943 93.4212 102.717 94.1276C102.68 94.2444 102.326 95.391 102.835 93.9309C102.166 95.8865 102.162 95.7083 101.807 96.3089C101.212 97.6075 101.221 97.1578 100.912 97.6171C100.024 98.7953 100.329 98.4944 100.292 98.5647C100.08 99.1108 96.8775 101.743 95.8677 102.052C96.2365 101.883 98.6581 100.359 99.07 99.846C99.8195 99.0887 99.2912 99.6246 98.6604 100.15C98.0285 100.676 97.2755 101.155 97.8769 100.676C97.3739 101.077 96.8406 101.443 96.2811 101.77C95.1813 102.212 96.7562 101.64 93.7743 102.735C93.5306 102.829 94.0745 102.68 94.5963 102.482C95.1205 102.287 95.6196 102.047 95.3741 102.179C95.0963 102.366 93.3365 102.946 93.2949 102.938C93.2706 102.984 94.8603 102.455 94.6136 102.549C94.141 103.06 88.0405 103.703 92.6501 103.081C91.5421 103.295 90.8818 103.266 90 103.275C89.8801 103.276 89.7555 103.277 89.6239 103.281C89.3796 103.288 89.7405 103.31 90 103.334C90 103.334 90 103.334 90 103.334C90.2473 103.354 90.4134 103.373 90 103.391C90 103.391 90 103.391 90 103.391C89.6463 103.405 88.8194 103.412 87.1316 103.404C87.0141 103.361 89.3364 103.392 89.3966 103.388C89.4814 103.384 89.0612 103.284 88.9885 103.28C88.7314 103.264 83.0997 103.316 81.9097 103.265C82.3808 103.323 77.6542 103.274 77.1394 103.291C77.0024 103.295 77.5146 103.331 77.3681 103.334C76.4541 103.356 73.982 103.292 72.8351 103.289C71.5517 103.286 71.7143 103.317 71.6426 103.317C71.0778 103.314 71.529 103.294 71.1838 103.294C70.6623 103.294 67.0782 103.286 66.8983 103.29C66.8456 103.292 67.4307 103.326 66.6494 103.332C66.514 103.333 66.5998 103.293 64.2859 103.307C61.4992 103.325 66.221 103.36 65.0631 103.401C63.2731 103.339 63.3312 103.399 62.8458 103.393C62.6777 103.391 61.4269 103.339 60.0685 103.34C61.0435 103.333 62.0185 103.326 62.9935 103.319C62.035 103.309 60.1736 103.318 59.3839 103.307C58.9987 103.301 59.3161 103.26 58.4793 103.26C58.3017 103.26 57.597 103.36 59.7891 103.318C59.9644 103.355 58.9212 103.329 58.4373 103.339C58.3641 103.34 58.0755 103.4 57.4575 103.362C57.3092 103.352 58.9246 103.179 54.7583 103.3C54.6241 103.304 55.0906 103.326 54.9595 103.331C54.8698 103.334 53.8062 103.323 53.6887 103.326C53.5685 103.329 54.0822 103.354 53.9391 103.358C53.2056 103.381 52.2426 103.285 53.7553 103.295C53.2497 103.282 52.7441 103.269 52.2385 103.257C52.7797 103.329 51.4444 103.276 50.7449 103.277C46.2615 103.282 49.2637 103.334 48.4929 103.357C47.2531 103.392 48.2 103.273 46.3596 103.306C46.1893 103.309 48.4141 103.365 44.07 103.327C44.7111 103.326 45.3523 103.325 45.9934 103.325C45.6237 103.255 43.6782 103.324 43.5287 103.325C41.8228 103.331 42.976 103.309 40.443 103.338C40.2167 103.34 39.724 103.322 39.2403 103.33C37.2351 103.359 41.8862 103.357 42.0133 103.385C42.0736 103.399 37.0717 103.382 36.9 103.375C36.1709 103.345 39.1674 103.369 38.5962 103.332C38.3878 103.32 31.2588 103.326 29.8285 103.308C28.178 103.288 27.435 103.196 27.4245 103.297C26.9587 103.196 26.5473 103.263 26.3361 103.261C23.7839 103.244 23.7791 103.243 21.5904 103.246C21.1071 103.246 20.699 103.215 20.5281 103.22C20.4286 103.223 20.6146 103.255 20.1272 103.263C19.4502 103.274 15.3814 103.227 15.079 103.209C14.7766 103.191 16.7972 103.208 16.4351 103.178C15.6121 103.174 14.8081 103.173 14 103.171C13.3106 103.169 12.6192 103.115 11.9224 103.001C11.2607 102.884 11.605 102.924 11.3211 102.868C11.1868 102.892 8.97629 102.205 9.07852 102.206C9.18592 102.352 12.4292 103.308 14 103.193C14.6673 103.199 14.9667 103.206 14.4147 103.215C14.3242 103.217 14.171 103.214 14 103.211C13.4977 103.206 12.8633 103.139 13.0082 103.191C6.50951 102.796 0.973552 96.9693 0.889139 90.5156C0.989316 94.1773 2.96098 98.2057 6.07375 100.502C6.47282 100.85 8.01154 101.755 7.84218 101.612C4.90393 100.135 2.21365 96.7646 1.44052 93.7123C1.41321 93.6162 1.5382 93.9612 1.43801 93.6013C1.19846 92.9389 0.877615 90.6795 0.929542 90.2937C0.917025 90.2293 1.02986 91.5167 1.02411 91.1229C1.00951 90.6141 0.990057 90.3022 0.968297 90C0.947955 89.728 0.921892 89.4707 0.92424 89.0751C0.928109 88.4582 0.998911 84.3126 0.970097 83.2801C0.93954 82.1822 0.935844 86.3353 0.907917 86.0285C0.89132 83.2185 0.936137 80.3732 0.945398 77.7181C0.945549 77.6713 0.921332 78.0775 0.921205 77.4851C0.921045 76.4541 0.953687 76.1835 0.961137 75.6817C0.969093 75.1406 0.974291 73.2268 0.986808 72.9709C0.988428 72.9383 1.01702 73.326 1.01761 73.3849C1.02622 74.2185 0.984974 74.5146 0.984064 74.5905C0.981137 74.8754 0.995079 75.1555 0.992917 75.4154C0.989333 75.8435 0.97396 76.0792 0.969944 76.6442C0.967132 77.034 0.996374 76.6578 0.993338 77.0335C0.992227 77.1714 0.921952 78.6591 0.985809 78.7978C1.00582 78.8408 1.08835 66.6754 1.07988 65.4594C1.06733 66.5024 1.05473 67.5455 1.04208 68.5885C1.07041 66.4704 1.03584 63.926 1.10746 63.7458C1.15281 55.8913 1.20124 48.0368 1.25252 40.1822C1.26598 38.7798 1.29984 39.5488 1.30192 37.2413C1.28643 37.8376 1.27077 38.4339 1.25496 39.0302C1.27071 37.8476 1.31818 32.607 1.31595 31.7589C1.31565 31.6491 1.28384 31.4966 1.28967 30.1872C1.29488 29.0252 1.32 28.8386 1.32847 28.2174C1.33552 27.6958 1.33309 27.1101 1.33539 26.9553C1.33719 26.8365 1.3518 26.7895 1.35608 26.5038C1.36936 25.6015 1.32495 26.3328 1.3763 25.4371C1.37669 25.6552 1.37709 25.8732 1.37751 26.0913C1.39093 25.0024 1.42007 23.5147 1.42089 25.1187C1.42106 25.3945 1.40881 25.1576 1.40762 25.3633C1.36371 33.4172 1.42747 26.9859 1.42248 24.1635C1.44655 23.4386 1.45807 19.3762 1.46281 19.2412C1.46928 19.0535 1.48056 19.7487 1.4987 18.8374C1.50233 18.6457 1.52278 13.2141 1.53583 15.1699C1.53859 15.5735 1.51927 18.1777 1.51663 18.8056C1.55514 17.6103 1.53701 15.115 1.53198 14C1.5308 13.7254 1.53852 13.5329 1.54236 13.4561C1.60197 12.617 1.53737 13.4728 1.54762 14C1.55129 14.3395 1.55567 14.5356 1.56189 14C1.56507 13.7743 1.57042 13.4289 1.61677 12.9192C2.02338 10.1321 1.59348 12.7419 1.7626 11.6704C1.7623 11.0333 2.98878 8.0779 2.99596 8.17656C3.53211 7.22015 3.23393 7.78925 3.30078 7.67155C3.33498 7.53679 4.58509 5.77799 5.1237 5.32176C5.18356 5.26204 5.00902 5.46362 5.07118 5.40211C5.16155 5.24948 6.74226 3.91275 6.83483 3.89695C6.87659 3.86429 6.46887 4.14245 6.63082 4.02037C6.79676 3.84183 8.51985 2.83817 8.63595 2.82211C8.74852 2.70408 6.6287 3.9534 6.98151 3.74626C7.9082 3.08106 9.61094 2.32879 10.3356 2.13016C10.1561 2.17531 9.12046 2.54907 8.77644 2.72038C8.91111 2.57165 11.1676 1.84747 10.4011 2.10905C10.8927 1.96004 10.5535 2.04991 10.8317 1.96705C10.9032 1.94095 11.6185 1.78379 11.7571 1.76196C11.7745 1.75284 11.0328 1.89731 11.1801 1.86352C11.4375 1.74403 13.6498 1.50969 13.8317 1.55977C14.3413 1.54854 12.5374 1.61195 12.3898 1.6728C12.3685 1.65513 13.8991 1.57645 13.9237 1.60027C14.0113 1.59103 12.3119 1.68339 12.5077 1.69877C12.9273 1.65425 13.3484 1.63122 13.7683 1.62923C12.1265 1.55965 9.21221 2.448 8.55634 2.87734C10.7258 1.76449 13.3096 1.65403 13.2919 1.7015C13.2892 1.70733 12.2631 1.81365 12.3045 1.82196C12.4559 1.79465 13.8813 1.69319 13.9363 1.71363C13.98 1.71451 14 1.71552 14 1.71633C14 1.71633 14 1.71633 14 1.71633C14 1.71633 14 1.71634 14 1.71634C14 1.71634 14 1.71634 14 1.71634C13.9962 1.68599 11.9656 1.84598 11.8697 1.90913C11.7017 1.93958 12.6015 1.83506 12.6017 1.84927C12.5668 1.83397 11.1451 2.09072 11.627 2.01624C12.1119 1.91389 13.3689 1.80628 13.415 1.81839C13.6521 1.77622 11.4592 2.02569 11.4037 2.09218C11.3691 2.08856 12.5374 1.90557 12.5741 1.91903C12.6027 1.9134 11.7136 2.0443 11.3722 2.14097C11.1161 2.20348 11.8688 2.05381 11.737 2.08376C11.6322 2.05952 9.63617 2.63001 9.55528 2.71075C9.4143 2.76737 9.87203 2.60319 9.80707 2.63162C9.71187 2.66504 9.09244 2.91623 9.17484 2.88833C9.21491 2.8009 11.7048 2.08386 11.7038 2.15869C11.6676 2.14074 9.02489 2.82382 11.4974 2.24309C11.5146 2.23592 12.1199 2.12058 12.1385 2.12197C12.5165 2.08161 10.5634 2.37313 12.9563 2.04931C8.54191 2.84215 12.4024 2.11713 11.7538 2.26589C11.4957 2.29025 9.83545 2.78846 9.83805 2.81966C9.99877 2.77021 10.5195 2.58616 10.702 2.54393C10.7954 2.4982 9.34114 3.0268 9.67393 2.92189C9.8336 2.83204 11.4056 2.36579 11.4791 2.37867C12.1159 2.25593 11.339 2.42486 11.4799 2.40273C11.5715 2.37584 12.5448 2.21495 12.572 2.22213C12.611 2.20301 11.2917 2.4431 11.0296 2.54037C10.8254 2.59492 11.5977 2.41305 11.4553 2.45114C10.5807 2.62971 8.80707 3.29031 10.5367 2.71969C10.6414 2.68403 11.3068 2.50593 11.3275 2.50641C11.7426 2.41596 10.5136 2.72038 10.3073 2.81958C9.94194 2.94923 11.6719 2.40218 10.2354 2.86424C11.3145 2.52635 11.9351 2.37778 13.2555 2.26594C11.4183 2.39823 10.2521 2.89151 10.0032 2.98571C9.75992 3.12335 10.3736 2.73704 12.3768 2.40737C11.1048 2.61875 11.2593 2.65692 10.8865 2.74743C10.6453 2.77633 8.90418 3.44685 9.71716 3.17899C9.81425 3.1319 10.8828 2.76729 10.5515 2.89205C8.01815 3.84437 10.489 2.88992 10.5026 2.91897C10.4957 2.9393 8.87975 3.42551 7.41272 4.47699C5.91592 5.48797 4.72189 7.04462 4.42781 7.52182C3.69354 8.61474 3.30773 9.7245 3.21324 9.98925C2.91067 10.872 3.1456 10.1338 3.07341 10.3298C2.92477 10.5118 2.47528 13.1343 2.54128 13.2729C2.51105 13.7859 2.51533 13.2643 2.51254 13.3171C2.50372 13.4444 2.49146 13.6834 2.49277 14C2.49823 15.3236 2.52228 17.8795 2.52346 18.7144C2.53631 18.6822 2.52458 16.5911 2.55309 17.8967C2.58682 19.4169 2.53005 19.5039 2.52769 19.5437C2.5684 26.5091 2.6067 33.4745 2.64256 40.4399C2.67931 40.3531 2.62737 35.7992 2.63168 35.6956C2.65611 35.0873 2.69802 42.7801 2.68903 43.7238C2.69355 43.0069 2.69792 42.29 2.70211 41.5731C2.75224 42.7972 2.71024 45.5063 2.73886 47.2769C2.74834 47.8489 2.75981 46.7505 2.76107 46.7733C2.78203 47.4162 2.77417 48.4476 2.74651 47.6764C2.77741 49.2458 2.75128 49.0165 2.75556 50.2207C2.75582 50.2828 2.77156 49.7658 2.78431 50.7186C2.79031 51.1651 2.80287 53.5463 2.82115 53.8651C2.82899 53.9962 2.89537 52.7883 2.83168 52.6392C2.84777 50.0493 2.79872 51.8117 2.79472 50.8055C2.79422 50.6512 2.83077 51.0062 2.80041 48.4724C2.8647 48.955 2.83539 51.8727 2.84549 52.3729C2.86739 53.4043 2.87449 49.1538 2.82191 48.374C2.87196 48.7384 2.82657 48.0725 2.82303 47.125C2.81905 46.0879 2.83577 46.5399 2.83247 45.9787C2.82347 44.4439 2.79452 45.0802 2.81643 43.815C2.73227 45.0485 2.79204 41.649 2.80851 40.6584C2.82325 42.2702 2.83799 43.882 2.85272 45.4939C2.857 45.4017 2.86127 45.3096 2.86553 45.2174C2.86753 45.642 2.86952 46.0665 2.8715 46.491C2.86638 46.423 2.86128 46.355 2.85618 46.287C2.90038 48.4761 2.8691 49.0103 2.86969 49.1888C2.87949 51.4868 2.89523 54.141 2.90829 56.4644C2.91017 56.813 2.94177 56.5738 2.93035 59.1144C2.9266 59.9248 2.89656 59.1597 2.9054 60.0783C2.98221 61.2274 2.92587 61.2057 2.92754 61.5474C2.93281 62.5277 2.95376 63.1269 2.95445 63.2175C2.96383 64.4288 2.97031 66.2029 2.97997 67.5334C2.98039 67.5583 2.99924 66.866 2.99718 67.7302C2.99684 68.0338 2.91306 70.7561 2.95603 73.1359C2.95979 72.517 2.96347 71.898 2.96706 71.279C2.96137 72.0069 3.01087 77.1068 3.03185 75.8597C3.04435 75.0954 2.97104 73.2292 3.03148 73.0245C3.02207 74.7216 3.09522 84.0946 3.08324 84.8244C3.08154 84.9253 3.05772 84.3043 3.05567 84.4437C3.05412 84.5516 3.06861 86.6987 3.06167 86.9837C3.05755 87.1534 3.04049 86.2047 3.0332 86.2818C3.02814 86.3493 3.03008 89.0306 3.05754 89.1836C3.04407 88.5252 3.04557 86.6746 3.07218 87.6452C3.07553 87.77 3.06107 88.4169 3.06525 88.5685C3.10419 89.9758 3.07795 85.7704 3.07519 85.1196C3.09859 86.4768 3.10444 88.2152 3.10896 90C3.10555 91.5384 3.46796 93.0962 4.02671 94.3218C4.44628 95.3626 3.37322 92.7915 3.82521 93.9789C4.9031 96.3899 4.13926 94.6055 4.17149 94.6822C4.41517 95.291 5.63579 97.1748 5.74653 97.0862C6.38301 97.7955 6.1374 97.6122 7.17198 98.4758C7.03778 98.3599 6.90627 98.2407 6.778 98.1186C7.85768 99.1849 10.7526 100.516 10.5493 100.39C9.91423 100.252 8.44891 99.4581 8.34242 99.3636C8.19175 99.2301 7.50529 99.1439 5.94591 97.4363C5.60614 97.1075 6.19653 97.8077 6.78133 98.3126C7.36357 98.8174 7.87616 99.1852 7.02746 98.5658C7.86219 99.5532 12.2227 101.322 14 101.037C14.2724 101.035 14.4776 101.032 14.5941 101.028C14.703 101.024 14.1958 100.958 15.7621 100.988C16.5057 101.002 14.7127 101.008 15.0529 101.022C16.0999 101.065 30.3395 101 33.0444 100.992C33.2199 100.992 33.1555 101.014 33.3281 101.013C33.858 101.011 35.7894 100.975 36.7379 100.983C34.7727 100.947 38.5893 100.936 39.5602 100.938C41.0337 100.942 40.9426 100.981 41.5791 100.988C44.0327 101.016 47.8344 100.917 49.7405 101.001C49.6362 100.915 53.0374 101.039 54.5846 101.038C55.7965 101.038 57.5549 100.978 55.919 100.944C58.0111 100.946 60.2133 100.927 62.1757 100.919C62.5001 100.918 62.0535 100.945 62.607 100.942C62.6573 100.941 62.7266 100.916 63.2019 100.913C67.1253 100.886 65.2162 100.943 65.9503 100.958C66.3611 100.966 66.6642 100.971 66.8867 100.972C64.5999 100.979 61.9621 100.991 61.2567 100.993C61.8584 101.049 66.3253 100.977 67.6335 100.991C67.6789 100.992 67.5209 101.023 67.5669 101.023C67.5679 101.023 67.5689 101.023 67.5698 101.023C68.0601 101.025 71.1825 101.012 70.5397 100.975C70.3672 100.965 68.93 100.966 67.2254 100.971C67.6867 100.964 67.3423 100.929 67.4237 100.927C68.4109 100.909 70.8295 100.942 71.6874 100.946C71.8835 100.946 71.8695 100.924 71.9016 100.924C72.6819 100.929 72.3618 100.993 73.1622 100.926C74.5753 101.005 70.514 100.94 70.8002 100.992C71.0201 101.031 80.0407 101.005 80.0138 100.942C80.0449 100.949 80.1689 100.957 80.4233 100.967C80.9875 100.988 83.4983 100.98 83.9316 100.969C84.0047 100.966 83.9755 100.905 84.0662 100.904C84.293 100.903 87.3618 100.951 88.508 100.914C87.889 100.906 87.2701 100.897 86.6511 100.889C90.389 100.888 89.8113 100.87 88.5659 100.851C88.5036 100.851 88.443 100.849 88.3835 100.848C87.4182 100.835 86.1807 100.822 86.1619 100.817C86.1189 100.806 88.4429 100.797 90 100.806C90 100.806 90 100.806 90 100.806C90.9086 100.808 91.5239 100.714 91.096 100.791C91.0303 100.802 90.4855 100.849 90 100.845C89.3145 100.843 88.745 100.845 89.5616 100.868C89.6247 100.87 89.7883 100.871 90 100.871C90 100.871 90 100.871 90 100.871C90.5842 100.884 91.5605 100.762 91.6252 100.748C91.9678 100.71 90.9077 100.919 90 100.928C89.2621 100.944 88.6347 100.962 88.8496 100.98C89.2037 100.966 89.5934 100.959 90 100.956C90.6774 100.952 91.4046 100.89 92.0659 100.756C92.5318 100.66 92.6355 100.593 92.692 100.58C93.5327 100.342 93.0677 100.501 93.3479 100.416C93.5123 100.401 95.061 99.6509 94.8013 99.8596C97.2935 98.4677 97.4004 97.9446 96.8583 98.4779C96.2864 98.9585 94.6827 100.031 92.9942 100.483C94.0601 100.201 95.9842 99.2036 96.711 98.5572C96.9783 98.3376 96.8051 98.4485 97.2393 98.0602C97.6849 97.6678 98.9327 96.4211 99.7147 94.8238C100.538 93.2473 100.816 91.4271 100.85 90.6834C100.781 91.5991 100.846 91.338 100.896 90.6267C100.924 89.9156 100.854 90.5113 100.855 90.3725C100.854 90.345 100.86 90.2091 100.861 90C100.864 88.9916 100.879 86.4617 100.875 85.9639C100.889 88.7281 100.924 88.1045 100.929 85.7584C100.939 86.0976 100.948 86.4367 100.958 86.7759C100.945 85.4008 101 82.5096 100.985 81.7146C100.983 81.59 100.954 82.038 100.952 81.9679C100.941 81.2707 100.973 78.8986 100.963 78.7882C100.955 78.6946 100.93 79.7064 100.919 79.3309C100.916 79.2525 100.956 78.277 100.948 77.3163C100.944 76.9598 100.917 77.1745 100.916 77.0847C100.904 76.3363 100.949 76.778 100.943 75.4102C100.939 74.4081 100.896 73.6617 100.912 72.2768C100.85 76.8239 100.879 73.0014 100.865 71.1001C100.862 70.7954 100.814 71.0566 100.84 69.236C100.921 73.1105 100.888 68.1313 100.891 67.1128C100.891 67.0569 100.923 67.0378 100.924 66.5382C100.924 66.4959 100.903 66.5567 100.902 66.0924C100.894 61.6892 100.913 64.5047 100.936 63.6682C100.945 63.312 100.919 61.1708 100.919 60.5941C100.919 60.4615 100.941 60.5225 100.941 60.0094C100.942 59.1017 100.92 58.2885 100.919 57.6894C100.919 57.6195 100.954 57.6166 100.945 56.4809C100.942 56.1616 100.931 55.8031 100.92 56.2566C100.884 57.7606 100.935 60.6135 100.899 62.3135C100.866 63.8637 100.873 58.9756 100.873 58.7213C100.874 58.628 100.889 59.5827 100.894 58.6128C100.899 57.7846 100.842 56.2708 100.858 55.0365C100.859 54.9424 100.912 53.9562 100.915 54.0016C100.917 54.0429 100.924 55.5575 100.939 55.3375C100.941 55.3113 100.943 54.3487 100.954 54.2231C100.967 54.0692 101.097 53.6544 101.101 53.4488C101.11 52.9213 101.08 53.2646 101.083 52.9234C101.088 52.1918 101.131 49.654 101.087 49.5715C101.083 49.9907 101.08 50.4099 101.076 50.8292C101.077 48.4966 101.056 49.4909 101.048 49.1604C101.04 48.8045 101.079 48.9047 101.084 48.1184C101.085 47.9473 101.084 44.6574 101.068 44.7172C101.089 46.5366 101.043 45.862 101.042 45.946C101.038 46.2647 101.064 46.6718 101.063 47.0995C101.052 50.1074 101.016 47.0739 101.004 47.784C100.999 48.0285 101.021 48.5154 101.02 48.6191C101.015 48.9561 100.985 48.9617 100.987 49.1865C100.991 49.7111 101.036 49.0986 101.038 49.1402C101.064 49.6089 101.026 51.4459 100.982 50.3023C100.964 50.9888 101.02 51.0693 100.997 51.6136C100.949 52.6959 100.964 51.0745 100.958 50.6352C100.934 49.0594 100.957 48.5919 100.955 46.3613C100.955 45.558 100.93 44.6065 100.929 44.2338C100.929 43.999 101.029 41.7822 100.882 41.7169C100.899 40.8552 100.999 39.5031 100.997 38.6154C100.995 37.8183 100.943 38.0717 100.941 37.9974C100.938 37.8834 100.945 36.9195 100.939 36.5935C100.931 36.2115 100.911 36.4022 100.905 35.796C100.89 34.2876 100.942 34.3272 100.946 34.1721C100.99 32.3723 100.914 33.1604 100.909 32.761C100.905 32.3896 100.95 27.1798 100.936 26.0831C100.944 26.5294 100.953 26.9757 100.962 27.4219C100.996 26.6233 100.947 25.7767 101.004 25.7618C100.913 25.5998 100.98 23.9514 100.979 23.4563C100.979 23.2612 100.963 23.2765 100.964 23.0322C100.964 22.0782 100.984 19.9271 100.978 19.4096C100.954 17.1717 100.876 22.8943 100.871 23.3448C100.875 22.443 100.876 17.3408 100.823 19.6861C100.815 20.0486 100.852 20.6909 100.853 20.8946C100.858 22.2727 100.826 21.1889 100.822 21.2969C100.816 21.4806 100.847 22.3876 100.842 22.627C100.841 22.7069 100.81 22.1926 100.804 23.5069C100.774 22.8605 100.816 19.1663 100.811 18.6816C100.809 18.509 100.737 19.5912 100.816 16.4296C100.81 16.4663 100.803 16.503 100.797 16.5396C100.8 15.6931 100.802 14.8465 100.805 14C100.808 13.1747 100.718 12.3511 100.535 11.5487C100.589 11.7133 100.789 12.5837 100.557 11.4832C100.399 10.8557 100.484 11.3285 100.469 11.2713C100.414 11.0145 99.6991 8.26017 97.564 6.22662C95.5168 4.09841 92.3903 3.27332 91.4128 3.20228C91.1027 3.15903 90.5398 3.10967 90 3.11394C89.2989 3.11644 88.6438 3.11952 88.5572 3.11925C87.6035 3.11602 84.2262 3.08121 83.5525 3.08032C83.1318 3.07981 83.5317 3.10557 83.1559 3.10216C82.8066 3.09896 83.1685 3.07868 83.0647 3.07711C82.2053 3.06432 75.6765 3.05199 74.1262 3.02125C75.0737 3.03391 79.8021 3.01987 79.707 3.00326C79.6864 3.00098 78.5373 2.97753 78.3002 2.98427C77.9086 2.96314 76.5639 3.01244 75.8325 2.99658C75.7498 2.99482 76.0756 2.96485 74.7702 2.9513C74.3206 2.94674 73.1431 2.96393 71.9581 2.92942C70.2425 2.93191 61.2228 2.83635 60.604 2.86297C60.5857 2.86445 61.8558 2.88366 60.9977 2.89056C59.8569 2.89959 60.8814 2.84984 59.5518 2.83628C59.3514 2.83434 55.6523 2.81532 55.5312 2.81773C54.4108 2.84036 57.6432 2.87558 57.598 2.87893C57.4852 2.88733 54.7995 2.87322 54.6903 2.87027C54.5864 2.86747 56.7768 2.84266 54.1447 2.83927C54.4462 2.8462 54.7477 2.85316 55.0493 2.86014C53.8114 2.8605 53.6934 2.83201 53.3935 2.82823C52.4613 2.81653 51.4527 2.84986 49.9591 2.78883C49.5641 2.77277 50.2198 2.76264 50.1704 2.76027C49.6959 2.73925 49.0906 2.78248 48.3772 2.74225C48.3235 2.73934 49.9838 2.72932 47.0818 2.70985C47.2816 2.71452 47.4813 2.71921 47.681 2.72391C47.2718 2.72871 44.3336 2.71252 43.9383 2.70796C42.7835 2.69485 43.7906 2.67886 42.6299 2.67363C43.3743 2.71044 39.8449 2.68877 40.0479 2.66401C39.555 2.69348 36.5568 2.64615 35.1474 2.63531C34.2581 2.62844 32.4441 2.62815 32.1616 2.62438C31.8174 2.61988 31.922 2.60013 31.3004 2.59106C31.1232 2.58864 29.273 2.58927 27.6489 2.55696C27.3341 2.55066 26.6731 2.5134 27.2581 2.50924C28.2594 2.50182 30.1537 2.54153 30.1296 2.52135C30.1012 2.49967 27.5497 2.49593 26.863 2.48857C23.6925 2.45542 25.5233 2.44624 25.4417 2.43899C25.2303 2.42187 23.4979 2.41225 23.4256 2.41042C23.1261 2.40258 24.3537 2.39743 24.3722 2.38794C24.3946 2.37552 22.7247 2.34489 23.1043 2.34279C23.6477 2.33956 25.1823 2.36578 25.2796 2.36547C26.5462 2.35954 24.8101 2.32189 24.3317 2.30603C24.1866 2.30111 24.7645 2.29643 24.6443 2.29464C22.8086 2.26792 24.2573 2.33306 23.0363 2.3235C21.947 2.31498 23.3486 2.30306 23.307 2.30175C23.2532 2.3004 21.9507 2.29371 21.7468 2.28646C21.6463 2.28327 25.0317 2.26061 24.8903 2.24306C23.8101 2.24303 22.73 2.2428 21.6498 2.24237C21.5651 2.22154 23.1188 2.24204 23.2795 2.24051C23.603 2.23724 22.7009 2.22358 22.7396 2.21715C22.7604 2.2131 23.8191 2.20107 22.8626 2.19215C22.5339 2.18918 21.8441 2.20153 20.6468 2.18355C24.8134 2.17607 21.926 2.15626 21.8032 2.14907C21.6829 2.14166 23.6721 2.12814 21.2576 2.12661C21.1529 2.0867 21.3096 2.11414 21.9957 2.10825C22.8362 2.10083 20.8937 2.0847 23.9655 2.09917C23.7907 2.07949 21.3217 2.07814 21.191 2.07647C21.0781 2.07502 21.6269 2.06643 21.4313 2.06312C19.1166 2.02549 20.7064 2.04311 20.0361 2.02008C19.9764 2.01796 17.7888 2.00939 19.4542 2.00638C22.4885 2.0003 23.7566 2.02814 24.2665 1.96915C22.0222 1.94521 19.3028 1.98345 18.6206 1.98367C17.5763 1.9848 18.6581 1.97352 18.5294 1.97044C18.4847 1.96946 17.5848 1.9708 17.5727 1.96994C16.9311 1.92967 21.5788 1.96662 23.0421 1.9589C22.6499 1.95252 22.2577 1.94626 21.8655 1.94011C22.3976 1.93938 22.9297 1.93864 23.4618 1.9379C20.9268 1.92694 23.3725 1.93331 24.0046 1.89608C24.1465 1.88768 22.4811 1.90435 24.3809 1.87863C22.9797 1.87579 23.4266 1.86786 22.1578 1.88011C22.1906 1.86613 25.0452 1.84397 26.1712 1.83356C22.1935 1.82646 24.4618 1.87397 21.0231 1.85379C20.3855 1.8723 22.0268 1.86565 21.893 1.8688C21.4128 1.87988 20.287 1.86644 18.9289 1.90346C18.7077 1.90941 19.6435 1.92583 18.2588 1.92661C18.1056 1.92661 17.2233 1.9131 17.2355 1.91207C17.3525 1.9005 18.2256 1.90339 18.2617 1.89851C18.2955 1.89386 17.3214 1.89824 17.318 1.89699C17.2881 1.88273 18.1308 1.89006 18.0084 1.88577C17.7441 1.87595 14.2402 1.85385 18.8131 1.852C15.0148 1.87696 18.3268 1.86918 19.8059 1.85966C20.1831 1.85723 20.2787 1.84807 20.8162 1.84366C21.5075 1.83793 22.3167 1.84039 22.6745 1.83786C23.0593 1.83494 20.873 1.81875 24.035 1.81703C22.4258 1.79934 19.5833 1.83016 18.0026 1.82005C14.8134 1.80147 20.2262 1.77771 20.7901 1.77253C20.9403 1.7712 20.4367 1.76082 20.5368 1.75973C20.7006 1.75789 23.7726 1.75269 24.0755 1.74101C24.3776 1.72932 22.9503 1.74564 22.8554 1.73515C22.7911 1.72832 26.497 1.69997 24.4909 1.70305C23.1081 1.70571 20.5594 1.74465 20.1301 1.71611C22.1636 1.70473 24.1971 1.69326 26.2305 1.68171C25.1175 1.67395 24.0046 1.66681 22.8916 1.6603C25.1739 1.64496 27.147 1.65007 29.3147 1.62104C24.1058 1.60608 31.006 1.57878 31.0819 1.57299C31.1073 1.56951 29.057 1.54649 28.7271 1.54253C30.5439 1.519 36.0644 1.47796 32.8346 1.45407C33.4208 1.46025 34.8404 1.42614 34.8217 1.42426C34.6415 1.40554 31.5451 1.43972 32.0501 1.41882C32.6353 1.39439 33.4554 1.41607 34.3557 1.40772C38.9755 1.36451 37.7081 1.26481 42.3405 1.24597C42.2483 1.24267 42.1562 1.23938 42.064 1.2361C47.0992 1.20293 52.1344 1.1726 57.1696 1.14497C59.1396 1.09209 64.3825 1.02886 66.9577 1.01576C67.4762 1.01293 70.022 1.0183 70.2141 1.02117C70.5699 1.02651 68.6137 1.04217 69.4977 1.05068C69.6843 1.05221 73.9944 1.03496 73.6862 1.0121C73.2032 1.01229 71.6917 1.03427 71.4443 1.03008C69.7066 0.999365 82.9941 0.948987 83.6523 0.928782C83.3581 0.921978 83.0638 0.915223 82.7695 0.908517C83.608 0.907553 84.4464 0.906702 85.2849 0.905962ZM46.7562 2.7876C46.253 2.80396 44.9918 2.77921 44.2466 2.77905C43.217 2.77922 41.4668 2.83896 42.2203 2.77071C43.7323 2.77677 45.2442 2.7824 46.7562 2.7876ZM68.8536 2.97769C67.8397 2.958 68.6262 2.91136 69.4572 2.9382C69.5494 2.94119 70.2254 3.0044 68.8536 2.97769ZM58.2246 2.88093C58.2673 2.8806 59.1435 2.88802 59.1741 2.88899C59.9598 2.91404 57.3183 2.89121 58.2246 2.88093ZM100.854 14.7204C100.857 13.6032 100.795 14.4122 100.815 15.1068C100.817 15.1505 100.854 14.7938 100.854 14.7204ZM100.859 13.9323C100.936 13.1358 100.584 11.5854 100.76 12.8279C100.786 12.9464 100.867 13.9667 100.859 13.9323ZM65.2397 2.93303C65.3538 2.91799 66.3996 2.93253 66.8462 2.93933C66.8341 2.95386 65.6777 2.93419 65.2397 2.93303ZM91.5927 3.20444C91.6147 3.20105 90.8363 3.06909 90 3.06968C89.0497 3.06514 88.0437 3.06449 87.9175 3.07338C88.2005 3.07103 89.1277 3.07798 90 3.08408C90.8184 3.08579 91.574 3.20842 91.5927 3.20444ZM98.6809 7.43376C98.6447 7.35566 97.9026 6.4896 97.906 6.53187C98.2831 6.94117 98.896 7.74255 98.6809 7.43376ZM100.801 24.756C100.804 24.8241 100.9 23.8837 100.831 26.1121C100.82 26.4393 100.801 25.2708 100.797 25.387C100.79 25.6305 100.786 25.8229 100.785 25.9775C100.781 24.9397 100.782 23.8616 100.788 23.7573C100.816 23.2676 100.799 24.7258 100.801 24.756ZM100.835 34.4833C100.849 34.6972 100.837 36.0627 100.829 36.3735C100.828 36.4269 100.788 36.1942 100.789 36.8091C100.79 37.3028 100.834 36.5654 100.824 37.527C100.814 38.4988 100.789 37.2004 100.786 37.2853C100.783 37.3991 100.797 38.9024 100.773 38.8556C100.755 38.8208 100.772 37.2103 100.77 36.812C100.767 36.3021 100.735 36.9204 100.744 36.0681C100.75 35.5326 100.802 35.8294 100.805 35.7164C100.807 35.6216 100.783 33.7496 100.835 34.4862C100.835 34.4852 100.835 34.4843 100.835 34.4833ZM100.786 26.2583C100.785 26.1802 100.784 26.0884 100.785 25.9775C100.785 26.0717 100.786 26.1655 100.786 26.2583ZM49.6855 2.79441C50.2126 2.80884 48.6483 2.81068 48.0559 2.79265C48.0456 2.78166 49.6016 2.79217 49.6855 2.79441ZM100.824 27.2207C100.805 28.7624 100.792 27.6285 100.786 26.2583C100.794 26.6933 100.83 26.7031 100.824 27.2207ZM78.3002 2.98427C78.3652 2.9878 78.4064 2.99295 78.4116 3.00104C78.2407 2.9912 78.2254 2.98639 78.3002 2.98427ZM81.8968 3.01986C83.1297 3.00183 80.6246 2.9886 80.6405 3.00645C80.648 3.01321 81.8474 3.02058 81.8968 3.01986ZM100.845 16.1532C100.849 16.0404 100.928 17.7925 100.874 15.2486C100.858 16.6064 100.854 15.1739 100.847 15.1951C100.825 15.2505 100.836 17.5312 100.824 18.0361C100.862 18.4316 100.834 16.5255 100.845 16.1561C100.845 16.1551 100.845 16.1542 100.845 16.1532ZM100.76 52.0145C100.735 51.7055 100.746 50.7251 100.749 50.0635C100.774 50.3726 100.763 51.3529 100.76 52.0145ZM3.00822 68.5697C3.05161 73.1027 2.96872 73.6899 2.98155 69.5423C2.98188 69.4611 2.9983 68.2945 3.00822 68.5697ZM12.7561 100.774C13.1379 100.859 11.8542 100.742 11.05 100.479C10.8663 100.427 10.2109 100.176 10.9784 100.401C10.9342 100.454 12.1424 100.777 12.7561 100.774ZM100.848 28.092C100.874 28.541 100.849 29.9227 100.843 30.6508C100.821 30.2065 100.837 28.7358 100.848 28.092ZM3.03549 83.4653C3.03461 83.9431 3.07028 84.2657 3.07276 84.1832C3.08411 83.8139 3.05245 82.9209 3.03549 83.4653ZM100.869 23.6314C100.886 23.5682 100.895 25.3985 100.853 25.5259C100.858 25.1347 100.858 23.6768 100.869 23.6314ZM100.777 50.7669C100.786 50.4828 100.799 51.9544 100.789 52.3995C100.77 52.3637 100.77 50.9532 100.777 50.7669ZM3.13039 91.0536C3.15343 91.4446 3.33632 92.3994 3.38473 92.499C3.41565 92.628 3.14514 91.2335 3.13039 91.0536ZM2.82765 11.6834C2.82303 11.6302 2.60815 13.19 2.63394 13.8902C2.63348 13.9313 2.63325 13.9678 2.6331 14C2.63183 14.2969 2.62783 14.2387 2.62286 14C2.57144 13.4163 2.79242 11.7152 2.82765 11.6834ZM2.99771 78.9425C3.02327 77.5932 2.99939 79.0913 3.03264 79.0322C3.02956 78.1243 3.02043 75.8656 2.99511 77.4185C2.99018 77.721 2.99795 78.5192 2.99771 78.9425ZM2.99208 80.1872C3.0036 80.3319 3.04257 81.3044 3.03622 80.4636C3.03318 80.075 2.99221 79.4485 2.99208 80.1872ZM2.67656 21.8044C2.66527 23.0137 2.63687 17.4698 2.63869 17.3105C2.63982 17.2263 2.64107 17.1711 2.64223 17.1397C2.63476 16.9361 2.62615 15.8889 2.64008 15.7677C2.6412 16.0817 2.64888 16.9389 2.64794 17.0384C2.64755 17.0813 2.64711 17.1133 2.6466 17.1354C2.66259 17.5049 2.67895 21.5726 2.67656 21.8044ZM2.71779 30.9904C2.67704 29.6066 2.72926 29.3616 2.73173 29.4809C2.76405 30.9874 2.71754 30.0049 2.71603 30.0511C2.71359 30.1563 2.73925 31.2265 2.71776 30.9861C2.71777 30.9875 2.71778 30.989 2.71779 30.9904ZM2.68154 23.6873C2.6805 23.6304 2.67395 22.4687 2.67439 22.4209C2.68444 21.4687 2.70353 24.7562 2.68154 23.6873ZM100.871 41.8153C100.86 42.6471 100.831 41.8312 100.844 41.2784C100.845 41.233 100.881 41.0816 100.871 41.8153ZM3.00247 80.8515C2.99837 81.0444 2.99941 85.9776 3.04066 85.6812C3.03411 85.2622 3.03048 79.6549 3.00247 80.8515ZM22.8684 100.874C21.9984 100.876 22.9469 100.829 23.4111 100.844C23.5832 100.85 23.0877 100.873 22.8684 100.874ZM100.917 21.1638C100.897 20.2605 100.973 20.4473 100.944 21.2303C100.943 21.2611 100.917 21.1992 100.917 21.1638ZM15.9184 100.869C18.9187 100.833 18.2082 100.975 14.3076 100.94C14.4296 100.933 14.5517 100.927 14.6738 100.92C14.4228 100.92 14.1989 100.919 14 100.919C11.8854 100.806 12.8706 100.885 14 100.908C14.5572 100.906 15.1454 100.903 15.4683 100.9C15.8873 100.896 15.536 100.874 15.9155 100.869C15.9165 100.869 15.9175 100.869 15.9184 100.869ZM27.4433 100.864C30.3327 100.958 24.8167 100.906 23.2346 100.924C24.7683 100.878 26.7653 100.878 24.0494 100.844C28.0203 100.824 26.3672 100.869 26.5257 100.872C26.7134 100.875 27.3201 100.86 27.4433 100.864ZM19.8218 100.886C19.6549 100.889 18.3965 100.873 17.9432 100.878C18.5771 100.842 20.9307 100.863 19.8218 100.886ZM2.7947 40.6208C2.7754 40.5163 2.76022 40.2579 2.7611 39.2647C2.77222 39.5715 2.78414 40.2059 2.7947 40.6208ZM45.801 2.69341C45.117 2.68763 43.7551 2.67232 44.1728 2.69224C44.2185 2.69402 45.7989 2.70319 45.801 2.69341ZM4.04383 94.5852C4.06657 94.6467 4.45522 95.4533 4.8704 96.0514C5.2791 96.6533 5.6535 97.0736 5.2941 96.6029C5.1852 96.4619 4.67652 95.7554 4.35442 95.148C4.02685 94.5442 3.83392 94.0757 4.04383 94.5852ZM2.9631 75.6991C2.96431 76.0139 2.97452 77.2929 2.98016 77.3201C2.99964 77.4066 2.9818 75.8367 2.9631 75.6991ZM42.3506 2.65366C42.2605 2.65143 40.1714 2.64029 40.4011 2.64939C40.837 2.66684 42.6593 2.66155 42.3506 2.65366ZM100.926 44.8417C100.927 45.0163 100.897 45.2473 100.896 45.3077C100.895 45.4497 100.899 48.6464 100.864 47.4251C100.858 47.2214 100.885 42.622 100.89 42.0238C100.931 41.7924 100.887 43.7571 100.89 44.2352C100.891 44.3195 100.924 44.3734 100.926 44.8402C100.926 44.8407 100.926 44.8412 100.926 44.8417ZM2.74303 35.4467C2.72511 35.3056 2.69107 31.5474 2.71107 31.591C2.72174 32.8763 2.7324 34.1615 2.74303 35.4467ZM2.75213 37.3557C2.74485 38.1576 2.72942 36.2796 2.7313 35.726C2.74266 35.7201 2.7532 37.2389 2.75213 37.3557ZM2.91024 82.8271C2.9173 83.2047 2.94563 82.0434 2.95307 82.3032C2.95777 82.4696 2.94885 83.3135 2.96031 83.5826C2.96395 83.6589 2.99145 82.7982 2.989 82.5492C2.9857 82.1956 2.96276 82.5385 2.96097 82.1526C2.9551 80.8714 2.96744 79.7355 2.96171 78.5344C2.96116 78.4259 2.94787 79.2671 2.94409 78.3419C2.9435 78.1989 2.96486 77.3399 2.95609 76.2332C2.86824 73.7889 2.93543 71.9942 2.89345 68.8924C2.88707 69.0095 2.87869 71.3291 2.87851 71.4657C2.87774 74.0585 2.89567 78.7033 2.90629 81.4188C2.90901 82.1156 2.92443 81.7773 2.92626 82.0774C2.92768 82.3146 2.89543 82.0326 2.91024 82.8271ZM46.1642 2.68386C45.8383 2.6601 44.6947 2.66639 43.9643 2.66042C44.2214 2.68126 45.4505 2.67445 46.1642 2.68386ZM2.82991 54.2283C2.83293 54.5945 2.8308 55.7295 2.83943 55.8233C2.85076 55.9441 2.84852 54.3058 2.82991 54.2283ZM100.876 62.8664C100.877 62.9018 100.873 63.7825 100.872 63.8158C100.841 64.6027 100.852 61.961 100.876 62.8664ZM100.838 83.9348C100.842 84.6027 100.853 85.2764 100.823 85.5008C100.828 85.0752 100.817 83.8565 100.838 83.9348ZM85.8493 100.827C85.9872 100.867 83.977 100.842 83.5973 100.838C83.7379 100.82 85.7482 100.798 85.8493 100.827ZM2.71446 40.7655C2.70904 39.5365 2.67173 39.796 2.68498 39.0157C2.68727 38.8884 2.76514 38.4768 2.74302 39.8277C2.73893 40.0708 2.71439 39.1197 2.71446 40.7655ZM13.6998 100.937C13.4149 100.961 12.5209 100.889 11.9302 100.767C12.064 100.789 13.2691 100.948 13.6998 100.937ZM38.5775 2.61203C38.0011 2.58844 35.3379 2.58542 35.9969 2.60247C36.0906 2.60485 38.2039 2.60888 38.5775 2.61203ZM100.946 31.2167C100.969 32.3125 100.984 30.043 100.961 29.3266C100.961 29.6509 100.944 31.1429 100.946 31.2167ZM92.5378 100.551C92.4947 100.575 91.4603 100.762 91.4125 100.755C90.9832 100.788 91.5071 100.734 92.0127 100.639C92.5179 100.546 93.0012 100.418 92.5378 100.551ZM100.895 77.0066C100.918 77.4252 100.896 80.1773 100.871 80.7942C100.836 80.2006 100.865 76.4871 100.895 77.0066ZM2.7538 45.8224C2.74816 44.9457 2.74855 44.1138 2.75088 43.3084C2.76532 43.4779 2.76363 45.7298 2.7538 45.8224ZM88.5659 100.851C88.5036 100.851 88.443 100.849 88.3835 100.848C88.4456 100.849 88.5065 100.85 88.5659 100.851ZM2.84286 65.4464C2.84012 66.1811 2.86791 66.0286 2.86856 65.9833C2.87511 65.4305 2.84587 64.6146 2.84286 65.4464ZM45.3248 2.6467C45.0701 2.62591 43.8343 2.63307 43.1235 2.62403C43.3297 2.64018 44.7522 2.64515 45.3248 2.6467ZM30.5377 100.921C31.4608 100.954 27.705 101.003 26.9136 100.982C26.8551 100.961 30.4025 100.917 30.5377 100.921ZM101.002 27.8141C101.026 27.7404 101.003 26.1635 100.99 26.4985C100.983 26.7107 100.987 27.8582 101.002 27.8141ZM25.0249 100.973C24.6721 100.981 23.8495 100.959 24.1391 100.943C24.5109 100.923 25.1161 100.97 25.0249 100.973ZM2.91095 88.2154C2.90806 88.3697 2.9387 90.4446 2.9585 89.5874C2.97216 88.9926 2.93936 88.898 2.93875 88.7581C2.93833 88.6018 2.96518 85.2709 2.91095 88.2154ZM51.5728 100.903C50.79 100.914 49.8434 100.904 49.0241 100.906C49.3579 100.889 51.2397 100.882 51.5728 100.903ZM100.99 33.8957C101 33.7056 101.022 28.5263 100.983 31.4686C100.981 31.6401 100.959 34.4731 100.99 33.8957ZM2.71446 40.7655C2.71513 40.9205 2.71532 41.0994 2.71478 41.3068C2.7143 41.1008 2.71446 40.9216 2.71446 40.7655ZM2.78589 54.7233C2.7708 54.4404 2.77411 55.8658 2.78352 56.2864C2.80112 56.4159 2.788 54.7623 2.78589 54.7233ZM48.9618 100.932C48.4898 100.944 47.633 100.934 47.0485 100.936C47.1474 100.918 48.7577 100.915 48.9618 100.932ZM82.1124 100.922C81.175 100.911 80.0214 100.917 80.0036 100.939C79.9842 100.935 79.9387 100.932 79.8632 100.928C79.787 100.924 78.7828 100.935 78.3465 100.928C75.7344 100.884 88.4335 100.898 81.0732 100.963C81.4196 100.949 81.766 100.935 82.1124 100.922ZM100.95 73.2826C100.977 72.7506 100.946 71.2605 100.936 71.6472C100.928 71.9165 100.923 73.8153 100.95 73.2826ZM100.418 93.3722C100.488 93.2415 100.781 91.9462 100.754 91.9078C100.632 92.6606 100.186 93.9908 100.418 93.3722ZM100.987 69.1926C100.991 68.8587 100.95 68.4326 100.948 68.4718C100.932 68.8112 100.962 69.7534 100.987 69.1926ZM2.65239 43.3113C2.6467 43.8082 2.67499 45.3921 2.69583 45.737C2.69248 45.8012 2.68856 45.9742 2.68435 46.2913C2.68434 46.2903 2.68434 46.2894 2.68434 46.2884C2.67929 46.7166 2.73076 59.5183 2.7282 50.9314C2.72809 50.6625 2.71221 51.0298 2.71001 49.9356C2.70988 49.8633 2.72406 49.8274 2.72364 49.6042C2.72269 49.0903 2.71756 46.3536 2.70346 45.8036C2.70602 45.7989 2.7083 45.7634 2.71016 45.6878C2.72653 45.0132 2.65652 42.9258 2.65239 43.3113ZM99.3172 95.7544C99.473 95.5362 99.862 94.7838 99.876 94.6937C99.7099 95.0798 98.9744 96.2707 99.3172 95.7544ZM101.059 33.735C101.074 33.1385 101.053 31.6268 101.038 32.0837C101.029 32.3638 101.041 34.423 101.059 33.735ZM100.945 87.3577C100.921 90.7782 100.946 88.174 100.973 88.6979C100.964 88.2511 100.954 87.8044 100.945 87.3577ZM2.61014 27.4807C2.60972 28.0261 2.57551 27.3851 2.58864 26.7845C2.59277 26.5961 2.61026 27.1755 2.61014 27.4807ZM7.08407 4.74562C6.69707 4.97634 8.51821 3.7568 7.8139 4.24085C7.77694 4.2568 7.10589 4.72124 7.08407 4.74562ZM2.54663 20.0618C2.56592 20.432 2.56955 20.6731 2.57155 21.7161C2.55737 20.1721 2.55069 21.6041 2.54663 20.0618ZM80.0138 100.942C80.0077 100.941 80.0027 100.94 80.0036 100.939C80.0103 100.94 80.0133 100.941 80.0138 100.942ZM100.983 65.9766C101.011 65.5486 101.011 64.3485 100.983 64.7059C100.981 64.7404 100.964 65.8012 100.983 65.9766ZM2.69583 45.737C2.6988 45.6801 2.70105 45.7091 2.70346 45.8036C2.70105 45.808 2.69863 45.7836 2.69583 45.737ZM100.996 72.42C100.976 72.3772 100.966 74.2037 100.968 74.2769C101.002 75.3252 100.996 73.1742 100.996 72.42ZM101.12 21.6587C101.118 21.5645 101.07 22.172 101.087 22.5445C101.1 22.8329 101.126 22.0115 101.12 21.6587ZM2.51874 16.5203C2.5153 15.9419 2.51043 15.1276 2.522 14.9774C2.52248 15.365 2.52819 16.5322 2.51874 16.5203ZM6.4116 5.27745C5.91176 5.70769 4.89131 6.82038 4.38398 7.63653C4.31233 7.60888 5.89171 5.63527 6.4116 5.27745ZM2.65395 41.7424C2.65321 41.7899 2.65291 43.2402 2.66882 43.0421C2.6921 42.7528 2.6609 41.3333 2.65395 41.7424ZM101.086 24.4752C101.1 25.1237 101.153 23.6312 101.118 22.9468C101.1 22.5954 101.084 24.3659 101.086 24.4752ZM101.024 62.2296C101.011 61.3736 100.982 63.4949 101.007 63.7912C101.01 63.397 101.029 62.5336 101.024 62.2296ZM100.95 91.2395C101.04 90.6002 101.043 90.2115 101.042 90C101.038 89.6356 101.012 89.7591 100.991 90C100.976 90.1733 100.957 90.4093 100.954 90.5501C100.958 90.6127 100.945 91.2985 100.95 91.2395ZM31.8851 2.49021C31.5033 2.49313 32.9268 2.52125 33.111 2.50959C33.2248 2.50221 32.1293 2.48828 31.8851 2.49021ZM66.8867 100.972C67.0006 100.972 67.1136 100.971 67.2254 100.971C67.1415 100.972 67.0312 100.973 66.8867 100.972ZM101.137 54.4604C101.029 56.359 101.11 56.1597 101.11 56.3246C101.108 56.6811 101.078 57.5096 101.082 58.1815C101.071 57.412 101.06 56.6425 101.05 55.873C101.041 56.4808 100.993 61.7614 101.01 61.8721C101.034 62.0306 101.029 60.369 101.032 60.3206C101.035 60.2509 101.103 59.9913 101.106 59.8372C101.111 59.5836 101.119 55.1681 101.137 54.4604ZM101.01 85.7106C101.002 86.1443 100.974 86.2676 100.98 86.469C100.982 86.5377 101.009 86.5488 101.016 86.7831C101.014 86.4256 101.012 86.0681 101.01 85.7106ZM101.05 51.0607C101.082 50.5233 101.065 52.933 101.062 53.0103C101.04 53.4224 101.024 51.4999 101.05 51.0607ZM101.02 71.5082C101.022 71.4203 101.035 69.5699 101.017 69.5848C101.003 70.0743 100.996 72.5484 101.02 71.5082ZM101.017 87.0726C101.014 87.7227 100.986 88.9517 101.026 88.8108C101.026 88.8098 101.026 88.8088 101.026 88.8079C101.023 88.2294 101.02 87.651 101.017 87.0726ZM101.155 26.6954C101.215 25.4905 101.142 26.0613 101.121 27.1281C101.145 27.4513 101.145 26.8929 101.155 26.6954ZM101.208 22.8397C101.219 22.5046 101.217 19.0505 101.186 19.5775C101.175 19.7648 101.196 21.7511 101.194 21.8425C101.19 21.9813 101.16 21.3477 101.163 22.407C101.174 22.345 101.204 22.9545 101.208 22.8397ZM101.194 25.6982C101.24 24.5009 101.162 24.2319 101.159 25.1323C101.158 25.4841 101.187 25.869 101.194 25.6982ZM101.175 30.5886C101.183 30.1578 101.197 29.0103 101.173 28.2194C101.168 29.2778 101.163 30.3363 101.158 31.3948C101.173 31.5168 101.167 30.9655 101.175 30.5857C101.175 30.5867 101.175 30.5876 101.175 30.5886ZM12.6395 2.38109C11.7164 2.4788 13.8414 2.23855 13.9364 2.28518C14.2049 2.28473 13.0497 2.31848 12.6395 2.38109ZM24.4547 2.08222C24.1904 2.07738 24.0176 2.0625 23.4358 2.06963C24.021 2.08101 24.6062 2.09266 25.1914 2.10457C25.6461 2.07979 24.7436 2.08753 24.4547 2.08222ZM22.22 1.99082C22.3027 1.99022 21.8511 1.95293 22.9191 1.97758C23.6407 1.99484 19.7168 2.01066 19.0085 1.99476C19.7911 1.98729 21.5085 1.99563 22.22 1.99082ZM15.3468 1.84669C15.3015 1.84417 16.7923 1.83618 16.9649 1.83765C17.8709 1.84563 15.5916 1.86041 15.3468 1.84669ZM20.1026 1.84133C19.4035 1.83609 20.9523 1.82755 21.4139 1.83048C21.4587 1.83726 20.2106 1.84209 20.1026 1.84133ZM4.28925 6.59357C3.80303 7.19324 3.47749 7.80375 4.14019 6.82388C4.17241 6.77771 4.30988 6.56813 4.28925 6.59357ZM16.8042 1.80826C17.5034 1.81279 15.9546 1.82177 15.493 1.8194C15.45 1.81331 16.6978 1.80762 16.8042 1.80826ZM3.9165 6.99428C3.32579 7.83679 3.59179 7.57593 3.65812 7.46665C3.91925 7.00571 5.05079 5.59293 5.33473 5.35051C3.52013 7.35912 4.23719 6.63265 3.9165 6.99428ZM2.04198 11.3127C1.83053 12.2411 2.40467 9.87637 2.6241 9.45942C2.43188 9.89261 2.08556 11.0453 2.04198 11.3127ZM1.70503 17.0051C1.70075 17.5063 1.68922 18.9969 1.70021 19.247C1.69993 18.6998 1.71619 17.2166 1.70503 17.0051ZM1.66627 18.1398C1.64737 18.9232 1.69326 19.1111 1.6826 18.2078C1.68219 18.1727 1.66725 18.111 1.66627 18.1398ZM1.63255 22.5439C1.61119 23.0579 1.6563 23.6446 1.66051 22.8117C1.66165 22.5643 1.63496 22.4895 1.63255 22.5439ZM3.17204 8.05076C2.80231 8.71361 2.41413 9.60724 3.13752 8.16419C2.87042 8.66432 2.6381 9.1829 2.44287 9.7154C3.26696 7.76999 3.27398 7.94232 3.57006 7.41443C4.03888 6.7067 4.04228 6.79196 3.9478 6.93299C4.2719 6.31352 6.3148 4.12917 7.8572 3.35575C6.52489 4.05045 4.69115 5.70819 3.87172 6.95223C3.62656 7.29752 3.41641 7.65113 3.23762 7.96446C2.95593 8.47008 3.1926 8.0139 3.17349 8.04816C3.17301 8.04903 3.17252 8.0499 3.17204 8.05076ZM1.6101 28.3332C1.58127 29.8438 1.63504 28.8885 1.62903 28.035C1.62849 27.9985 1.61081 28.2956 1.6101 28.3332ZM14.8012 1.71429C16.8194 1.71813 15.3524 1.745 19.5744 1.69572C17.8006 1.72511 19.4763 1.7114 19.13 1.72153C18.8523 1.72948 17.8116 1.72838 18.4165 1.73922C17.6214 1.72788 14.1692 1.74728 14.0153 1.74571C14.0167 1.74571 14.0182 1.7457 14.0196 1.7457C13.9272 1.74483 14.1572 1.71318 14.8012 1.71429ZM1.58903 17.0123C1.53258 17.5162 1.61769 17.7138 1.56788 18.7042C1.62766 20.023 1.58532 15.0615 1.64158 14.4607C1.62133 18.2056 1.66225 15.0256 1.65652 14C1.65733 13.6546 1.65276 13.5455 1.63294 14C1.62768 14.1516 1.62136 14.3679 1.61378 14.6619C1.61732 14.4079 1.62023 14.1887 1.62259 14C1.73749 11.8248 1.61572 13.5938 1.63033 13.1409C1.61899 12.6069 1.9957 10.8317 1.97855 10.9232C1.9783 10.9242 1.97805 10.9251 1.9778 10.9261C1.71809 11.9279 1.58589 12.9634 1.58235 14C1.58208 14.0706 1.58181 14.1412 1.58155 14.2118C1.58591 14.1147 1.58965 14.0453 1.59284 14C1.59979 13.9004 1.60396 13.9127 1.60597 14C1.6139 14.3058 1.59477 15.5675 1.56724 16.0962C1.57441 16.4016 1.58167 16.707 1.58903 17.0123ZM2.05068 10.8909C1.96459 10.9836 1.61667 13.3594 1.6838 13.2103C1.59394 12.872 2.39549 9.56276 2.05068 10.8909ZM8.52277 2.97763C7.74259 3.34065 6.63748 4.08801 6.28905 4.40207C6.95102 3.85082 8.10303 3.18219 8.52277 2.97763ZM1.50938 43.7918C1.52272 44.859 1.53947 41.5735 1.51596 42.524C1.51484 42.5708 1.50877 43.7394 1.50938 43.7918ZM1.58609 19.4395C1.56417 20.5244 1.62065 20.0117 1.60995 19.2079C1.60934 19.1614 1.5871 19.3894 1.58609 19.4395ZM16.4366 1.70139C16.5092 1.69119 19.4374 1.6834 19.9565 1.68089C19.6615 1.6921 16.3534 1.71297 16.4366 1.70139ZM9.90343 2.36031C8.23601 2.83619 6.34522 4.26235 6.17241 4.44241C5.97519 4.60211 6.27302 4.3375 6.22816 4.37396C6.07572 4.40172 4.17636 6.33573 4.15166 6.48847C4.09537 6.5632 4.41332 6.19067 4.07989 6.63802C4.39063 6.19376 5.37046 5.02904 6.50204 4.19341C7.61623 3.3355 8.81605 2.8088 8.92986 2.75787C9.11641 2.68956 7.71526 3.21646 9.90062 2.36129C9.90156 2.36096 9.9025 2.36064 9.90343 2.36031ZM5.68424 4.85293C6.18819 4.40336 4.79275 5.68483 4.52274 6.06112C3.84732 6.82451 5.57292 4.86475 5.68424 4.85293ZM2.91573 8.44703C2.77839 8.62221 2.06242 10.4499 2.0657 10.6255C2.29536 9.72173 3.13613 8.00643 2.91573 8.44703ZM1.50277 29.5171C1.50246 30.0093 1.4845 31.363 1.49752 31.4405C1.49784 30.9478 1.51556 29.5944 1.50277 29.5171ZM26.4274 1.56342C25.6096 1.55976 27.5043 1.54477 28.057 1.54566C28.087 1.55251 26.497 1.56374 26.4274 1.56342ZM1.47153 19.6233C1.466 19.9147 1.44159 25.8608 1.44343 26.6948C1.45744 25.8789 1.48998 19.9862 1.48727 19.7188C1.48639 19.6407 1.47232 19.5861 1.47153 19.6233ZM3.73975 6.93534C4.05252 6.46297 4.30669 6.19182 4.35115 6.13663C4.77995 5.5807 5.84688 4.59671 5.62444 4.82504C4.63751 5.59182 3.12355 7.88135 3.73975 6.93534ZM1.41293 29.9397C1.40942 31.9587 1.45034 28.0806 1.42755 28.5893C1.42618 28.6221 1.41332 29.7309 1.41293 29.9397ZM1.47031 18.959C1.46282 18.6696 1.48042 16.0565 1.49526 14C1.49955 12.8429 1.68568 11.869 1.75678 11.5302C1.62011 12.327 1.51933 12.9874 1.50517 14C1.50442 14.098 1.50376 14.1993 1.50325 14.3044C1.50177 14.6144 1.51252 14.5317 1.51234 14.565C1.50969 15.1018 1.50016 14.7 1.49802 15.031C1.49644 15.2401 1.48643 19.5857 1.47031 18.959ZM3.91982 6.66694C4.01577 6.52446 4.65072 5.68035 5.40436 4.98077C6.14697 4.26941 6.98595 3.71307 7.0511 3.67247C7.54743 3.3711 6.66447 3.87983 5.76451 4.66943C4.8497 5.44428 4.00318 6.544 3.91982 6.66694ZM1.44395 19.5046C1.41766 18.8651 1.45639 15.9112 1.45856 17.9328C1.45877 18.1259 1.44074 18.9434 1.44395 19.5046ZM1.38212 29.724C1.38059 29.8234 1.36173 31.9281 1.37244 31.9659C1.37837 31.6617 1.39936 28.5936 1.38212 29.724ZM1.35262 28.6328C1.35259 28.6835 1.37586 28.19 1.36744 29.1769C1.36674 29.2592 1.34269 29.4126 1.34372 30.6532C1.34395 30.9049 1.35718 31.295 1.35832 31.2668C1.40191 29.9749 1.35615 26.0843 1.35262 28.6328ZM3.95033 6.60169C3.82072 6.76518 4.09748 6.34372 4.40053 6.00583C4.53191 5.86257 4.29729 6.13878 3.95033 6.60169ZM1.33482 36.399C1.32313 35.1755 1.29769 39.0168 1.30152 39.2126C1.31415 39.0892 1.33596 36.5214 1.33482 36.399ZM28.3421 1.44346C28.3412 1.44346 28.3402 1.44347 28.3392 1.44348C29.3686 1.43921 28.731 1.45564 28.7792 1.45564C30.9718 1.45778 30.3902 1.4348 30.7331 1.42908C31.4683 1.41678 31.3498 1.45121 32.59 1.42867C30.54 1.46347 32.406 1.44194 32.4641 1.45372C32.6938 1.50126 29.7347 1.44889 28.7127 1.46665C28.5702 1.46895 29.6217 1.47692 29.2568 1.4837C28.0706 1.50451 24.3923 1.46024 28.3421 1.44346ZM4.62833 5.74078C4.7839 5.54751 5.52259 4.77182 6.22302 4.2383C6.91644 3.69681 7.5198 3.35476 7.09985 3.62391C7.03195 3.6656 6.20215 4.22396 5.55115 4.82811C4.89275 5.42304 4.39715 6.0243 4.62833 5.74078ZM79.6852 103.158C78.8147 103.183 80.8323 103.214 81.2063 103.194C81.3919 103.184 80.0676 103.147 79.6852 103.158ZM94.1658 102.602C95.2558 102.235 96.2807 101.595 94.999 102.192C94.8654 102.258 94.0395 102.633 94.1658 102.602ZM25.9063 103.128C26.9864 103.166 26.9221 103.1 26.1292 103.099C25.8492 103.099 25.8722 103.127 25.9063 103.128ZM67.1313 103.195C67.2394 103.197 68.4881 103.194 68.4426 103.178C67.981 103.167 66.4322 103.177 67.1313 103.195ZM25.5633 103.136C26.2037 103.126 25.1014 103.076 24.3186 103.12C24.7162 103.117 25.4974 103.137 25.5633 103.136ZM1.34635 21.7363C1.35829 22.2726 1.34343 23.7899 1.3404 24.6614C1.31886 24.7553 1.34577 22.359 1.34635 21.7363ZM89.4401 103.227C90.4193 103.2 88.3214 103.178 88.5138 103.213C88.5405 103.215 89.4015 103.228 89.4401 103.227ZM0.980346 85.9084C0.996053 86.6202 1.03039 84.3601 0.995175 84.9821C0.993722 85.0128 0.979479 85.8694 0.980346 85.9084ZM1.03442 76.0392C1.02588 76.5792 1.0173 78.8821 1.03892 77.9858C1.04223 77.8467 1.05054 76.0797 1.03442 76.0392ZM30.7939 1.41562C30.5029 1.39922 32.1919 1.39099 32.4337 1.39257C32.5287 1.3934 31.1734 1.43716 30.7939 1.41562ZM32.9214 103.152C33.4802 103.148 34.9297 103.161 35.1849 103.142C34.5013 103.144 32.7376 103.113 32.9214 103.152ZM84.9751 103.226C85.8279 103.268 87.2849 103.264 86.9246 103.209C85.3153 103.213 87.1236 103.259 84.9751 103.226ZM21.9638 103.168C22.412 103.172 22.7554 103.125 22.7048 103.122C22.2192 103.099 21.5185 103.148 21.9638 103.168ZM55.5948 103.201C55.6207 103.223 57.0573 103.215 56.8656 103.201C56.8027 103.196 55.5739 103.183 55.5948 103.201ZM1.2161 40.5513C1.1988 41.2097 1.19876 39.1993 1.21769 38.6047C1.2412 38.3156 1.21814 40.4681 1.2161 40.5513ZM9.23112 102.221C9.13651 102.269 11.5024 102.947 10.5766 102.656C10.3402 102.6 9.25538 102.232 9.23112 102.221ZM0.937319 82.8893C0.963285 84.3955 1.01464 78.0707 0.966986 79.7327C0.963577 79.8516 0.935154 82.7581 0.937319 82.8893ZM1.00661 72.5599C1.00188 72.8198 0.914727 72.6902 0.954246 71.6148C0.95934 71.4737 0.979014 72.134 0.984917 72.0186C0.98829 71.9507 1.01246 69.6124 1.01099 69.5046C1.00931 69.3888 0.980905 69.5252 0.978423 69.4077C0.97569 69.2752 1.00756 67.8358 1.0118 67.0818C1.01979 65.6612 0.998124 65.5078 0.998688 65.3914C1.00043 65.052 1.01952 64.4815 1.02327 63.7936C1.04169 60.3258 1.05549 55.022 1.1161 52.273C1.08389 54.7194 1.08936 57.0507 1.08218 59.4849C1.04045 58.772 1.09789 63.0661 1.05877 60.5545C1.063 61.711 1.02098 71.7081 1.00663 72.557C1.00662 72.558 1.00662 72.5589 1.00661 72.5599ZM98.1496 100.511C97.8787 100.737 98.4782 100.319 99.0997 99.7309C99.7285 99.1498 100.342 98.3801 100.416 98.2447C100.17 98.6639 98.2559 100.499 98.1496 100.511ZM82.8707 103.393C82.5679 103.4 82.2805 103.475 80.6925 103.436C80.6911 103.436 80.6897 103.436 80.6882 103.436C80.2239 103.425 80.7529 103.407 80.6679 103.4C80.6369 103.397 79.1889 103.359 80.3915 103.354C82.2256 103.346 80.5642 103.41 81.5421 103.411C81.6617 103.411 83.5124 103.371 83.4048 103.362C83.3937 103.361 82.8368 103.37 82.7448 103.366C82.3975 103.352 82.5666 103.329 82.5176 103.327C82.3574 103.325 79.4306 103.363 79.005 103.328C78.8667 103.317 83.6706 103.293 83.8578 103.299C83.9762 103.302 83.9263 103.367 84.0488 103.374C84.112 103.377 86.0442 103.353 86.2951 103.359C86.3679 103.361 86.4236 103.363 86.4644 103.364C86.172 103.344 87.9219 103.346 87.8683 103.369C87.8379 103.377 86.6334 103.372 86.5903 103.371C86.5714 103.37 86.555 103.369 86.5397 103.368C86.789 103.393 82.7112 103.391 83.5915 103.427C82.4094 103.447 83.7592 103.374 82.8707 103.393ZM77.1886 103.43C77.3107 103.424 77.4327 103.417 77.5548 103.41C75.4853 103.426 73.0973 103.391 70.7134 103.389C70.1085 103.388 70.8044 103.431 70.0114 103.419C69.3762 103.409 68.6732 103.37 69.0186 103.361C69.1029 103.359 70.3961 103.386 71.0434 103.384C72.9543 103.378 72.4716 103.342 72.5833 103.341C72.7066 103.34 73.9093 103.366 74.5661 103.365C76.2174 103.364 76.9718 103.342 79.2279 103.372C77.9258 103.395 78.6391 103.447 77.1886 103.43ZM1.91344 95.232C1.84497 95.1672 1.34444 93.7636 1.23601 93.2325C1.25788 93.3151 1.67344 94.7443 1.91344 95.232ZM92.0006 1.06615C91.7736 1.04923 92.5035 1.1521 93.1638 1.32018C93.8254 1.48257 94.4168 1.6906 93.995 1.53757C93.8131 1.45454 92.4286 1.10694 92.0006 1.06615ZM102.732 10.7474C102.872 11.1844 102.372 9.40895 102.322 9.43059C102.331 9.43053 102.732 10.6853 102.732 10.7474ZM50.4381 103.36C50.3592 103.361 49.212 103.351 49.176 103.349C48.416 103.309 52.192 103.339 50.4381 103.36ZM103.251 28.024C103.223 26.5703 103.231 30.9457 103.253 29.6088C103.254 29.5421 103.252 28.0939 103.251 28.024ZM103.28 34.1056C103.277 33.7571 103.282 32.2097 103.272 32.1893C103.256 32.1584 103.251 33.9297 103.28 34.1056ZM21.6613 103.295C21.8292 103.334 19.7888 103.298 19.0793 103.301C18.9109 103.262 20.9522 103.298 21.6613 103.295ZM34.5409 103.364C25.9386 103.369 27.835 103.292 35.0532 103.346C35.0636 103.371 35.0838 103.363 34.5409 103.364ZM23.5255 103.325C23.8381 103.302 24.815 103.312 25.475 103.316C25.3563 103.333 24.0016 103.323 23.5255 103.325ZM88.1303 0.890363C88.4391 0.873728 89.3538 0.872467 90 0.877115C90.5296 0.881095 90.8897 0.918114 90.6915 0.910908C90.6585 0.910373 90.3764 0.895257 90 0.896581C89.2128 0.899424 87.9923 0.901073 88.1303 0.890363ZM49.7173 103.393C49.9177 103.433 47.3345 103.412 47.1368 103.403C46.3396 103.366 49.5082 103.402 49.7173 103.393ZM9.08381 102.343C8.59826 102.195 7.30964 101.545 6.55874 101.007C6.90527 101.244 8.3434 102.076 9.08381 102.343ZM15.4669 103.329C15.4146 103.329 14.2525 103.322 14.2005 103.321C13.2483 103.289 16.5357 103.309 15.4669 103.329ZM26.9151 1.31432C26.9538 1.31349 27.8339 1.30634 27.8645 1.30662C28.65 1.31364 26.0087 1.33463 26.9151 1.31432Z" fill="#fff"/>
</svg>
