<svg width="104" height="104" viewBox="0 0 104 104" fill="none" xmlns="http://www.w3.org/2000/svg">
<path d="M24.5062 103.476C24.7409 103.472 25.6852 103.481 26.0939 103.48C25.6305 103.52 23.6594 103.49 24.5062 103.476ZM66.4346 100.554C66.0954 100.564 65.7563 100.574 65.4171 100.584C66.3809 100.59 67.6764 100.583 68.5708 100.592C68.7171 100.594 68.3376 100.623 68.6837 100.624C69.0299 100.625 68.9632 100.586 69.4667 100.582C70.0315 100.577 72.6177 100.604 73.5133 100.604C76.8631 100.601 80.2417 100.579 83.5982 100.595C80.133 100.624 83.6248 100.654 84.5954 100.641C84.8104 100.638 84.7761 100.565 88.2527 100.583C89.7541 100.591 89.2929 100.642 90 100.658C90.2975 100.659 90.8309 100.676 91.8636 100.485C89.3509 100.667 91.8617 100.633 93.6968 99.9132C94.0404 99.867 96.4816 98.5912 97.2962 97.6675C97.5966 97.3833 97.9983 96.8977 98.3296 96.4652C98.5572 96.1672 98.744 95.9506 99.0358 95.4742C100.036 93.8222 100.56 91.9254 100.56 90C100.561 89.2415 100.562 88.4811 100.564 87.7172C100.662 89.447 100.606 86.3593 100.61 86.2206C100.637 85.5154 100.645 88.7051 100.661 87.4436C100.658 85.6808 100.655 83.918 100.652 82.1552C100.64 83.602 100.569 80.2398 100.602 79.6209C100.514 79.8934 100.677 71.5865 100.648 70.322C100.642 70.0587 100.599 71.7826 100.619 67.7834C100.621 67.3503 100.647 67.5142 100.645 67.287C100.643 67.151 100.56 66.3276 100.606 65.4504C100.623 65.13 100.678 67.1795 100.656 62.6788C100.571 64.4712 100.61 56.4382 100.631 54.9603C100.619 55.2556 100.608 55.5508 100.597 55.8461C100.627 54.3851 100.599 54.1214 100.6 53.7923C100.606 52.466 100.636 50.6425 100.633 49.407C100.63 47.9612 100.577 47.9563 100.598 46.2707C100.586 46.6706 100.574 47.0706 100.563 47.4705C100.565 46.3064 100.568 45.1423 100.571 43.9782C100.641 46.6739 100.574 43.3966 100.573 43.1807C100.57 42.8363 100.599 43.3311 100.595 42.7552C100.595 42.6956 100.568 42.7817 100.565 41.8941C100.559 40.0393 100.592 40.3325 100.592 39.5538C100.592 39.4824 100.568 39.7322 100.562 38.3872C100.544 34.1125 100.58 38.4085 100.584 38.5725C100.588 38.7879 100.69 37.3222 100.654 40.9533C100.665 39.7341 100.71 39.6114 100.711 39.4742C100.712 39.3526 100.706 37.2402 100.704 37.1237C100.689 36.0853 100.658 36.999 100.653 36.7966C100.648 36.6311 100.688 34.0861 100.596 33.4896C100.681 32.2718 100.673 34.1902 100.687 36.2322C100.704 36.5301 100.721 34.2876 100.721 34.1698C100.721 31.2773 100.651 32.8787 100.606 32.2463C100.583 31.9142 100.63 30.7357 100.567 31.8237C100.561 29.1983 100.597 30.7905 100.603 30.621C100.611 30.3651 100.593 29.4465 100.595 29.3314C100.598 29.1627 100.62 29.7494 100.628 29.084C100.629 28.9734 100.592 27.9011 100.574 29.2837C100.579 27.4365 100.547 27.5887 100.611 26.9622C100.49 25.69 100.683 26.039 100.69 25.5381C100.708 24.2059 100.613 24.5924 100.608 24.5221C100.578 24.0373 100.611 20.3495 100.597 19.4362C100.666 19.7965 100.598 22.3597 100.611 22.9329C100.656 24.8437 100.646 20.2397 100.732 21.6274C100.708 21.0456 100.685 20.4638 100.661 19.882C100.716 18.8153 100.741 20.3286 100.72 17.4578C100.672 16.9883 100.728 19.4875 100.69 18.9861C100.668 18.6906 100.663 17.0259 100.652 16.9932C100.637 16.9603 100.654 18.4649 100.632 18.2277C100.586 17.71 100.63 12.2224 100.656 16.3998C100.655 15.3864 100.725 14.8003 100.725 14C100.724 13.892 100.721 13.78 100.714 13.6626C100.699 13.445 100.691 13.7673 100.666 14C100.645 14.2221 100.623 14.3698 100.609 14C100.583 13.6874 100.625 12.9444 100.296 11.4893C100.357 11.3699 100.641 13.4064 100.598 13.4654C100.608 13.5413 100.685 13.1607 100.683 13.0952C100.682 12.9836 100.572 11.6549 100.067 10.3244C99.5935 8.98141 98.7077 7.7214 98.386 7.30029C98.4915 7.48669 97.9221 6.71839 97.1277 6.01352C96.346 5.29327 95.3321 4.69381 95.1242 4.59788C95.0154 4.54258 95.3965 4.79588 95.2808 4.73528C94.5922 4.30114 92.5342 3.4848 91.5008 3.40014C90.3639 3.26368 90.5022 3.34598 90.4398 3.33317C89.937 3.31704 90.3398 3.30615 90.0306 3.30218C90.0214 3.30216 90.0112 3.30214 90 3.30214C89.3737 3.30208 85.925 3.29813 85.7486 3.30232C85.6959 3.30366 86.281 3.33825 85.4997 3.34481C85.3643 3.34594 85.4501 3.30494 83.1362 3.32265C80.3495 3.34395 85.0713 3.37364 83.9134 3.41659C82.1234 3.35544 82.1815 3.41603 81.6961 3.41128C81.528 3.40954 80.2772 3.35803 78.9188 3.36129C79.8938 3.35292 80.8688 3.34456 81.8438 3.3362C80.8853 3.32717 79.0239 3.33835 78.2342 3.32814C77.849 3.32318 78.1664 3.28086 77.3296 3.282C77.152 3.28247 76.4473 3.38558 78.6394 3.33931C78.8147 3.37613 77.7715 3.35216 77.2877 3.36257C77.2144 3.36419 76.9258 3.4257 76.3078 3.38747C76.1595 3.37807 77.7749 3.19865 73.6086 3.32851C73.4744 3.3327 73.9409 3.35516 73.8098 3.35982C73.7201 3.36298 72.6565 3.35389 72.539 3.35708C72.4188 3.3605 72.9325 3.38503 72.7894 3.38985C72.0559 3.41472 71.0929 3.31743 72.6056 3.32485C72.1 3.31282 71.5944 3.3008 71.0888 3.28877C71.63 3.3621 70.2947 3.30941 69.5952 3.31166C65.1118 3.3261 68.114 3.37378 67.3432 3.39846C66.1034 3.43808 67.0503 3.3126 65.2099 3.3503C65.0396 3.35383 67.2644 3.40709 62.9203 3.37703C63.5614 3.37496 64.2026 3.37288 64.8437 3.37081C64.474 3.29989 62.5285 3.37567 62.379 3.37667C60.6731 3.38641 61.8263 3.36084 59.2933 3.39736C59.067 3.40064 58.5743 3.38314 58.0906 3.39187C56.0854 3.42784 60.7365 3.41369 60.8636 3.44241C60.9239 3.45647 55.922 3.45293 55.7503 3.44625C55.0212 3.41664 58.0177 3.43321 57.4466 3.39644C57.2381 3.38339 50.1091 3.4102 48.6788 3.3959C47.0283 3.37925 46.2853 3.28309 46.2748 3.39113C45.809 3.28508 45.3976 3.35744 45.1864 3.35671C42.6342 3.34689 42.6294 3.34582 40.4407 3.35598C39.9574 3.35818 39.5493 3.32601 39.3784 3.33144C39.2789 3.33472 39.4649 3.36916 38.9775 3.37978C38.3005 3.39432 34.2317 3.3589 33.9293 3.33986C33.6269 3.32083 35.6475 3.33161 35.2854 3.30031C33.8228 3.29715 32.4202 3.30489 30.9479 3.30159C30.3363 3.30013 30.6505 3.27822 30.3863 3.27779C30.2738 3.27752 28.1621 3.29681 28.2515 3.30489C28.4612 3.32368 34.9821 3.31105 33.265 3.34938C32.9337 3.35679 31.7632 3.30631 31.9494 3.3677C26.1235 3.35378 20.2976 3.33986 14.4717 3.32595C17.819 3.28004 21.586 3.3211 25.0921 3.31679C25.5726 3.31626 27.1971 3.32218 26.9996 3.29115C24.0182 3.28312 20.3117 3.29929 17.4488 3.27907C17.3572 3.2784 17.6936 3.25053 17.3504 3.24611C16.7089 3.23786 14.6203 3.28282 14.2691 3.2712C14.2091 3.26849 15.3977 3.23174 15.0362 3.20839C14.5684 3.17817 14.2766 3.19693 14 3.22276C13.753 3.24888 13.5267 3.28566 13.1724 3.31103C12.5994 3.18876 8.98654 4.1966 8.29277 4.89381C7.89373 5.18245 8.45716 4.79114 9.14666 4.44754C9.83272 4.09504 10.6511 3.83104 10.5267 3.89199C8.16936 4.72491 6.09564 6.4104 4.87559 8.44075C4.85474 8.4764 5.06383 8.18197 4.79661 8.6347C4.35132 9.4331 4.23819 9.64789 4.06028 10.0571C3.83833 10.4909 3.43188 12.1486 3.41631 12.3795C3.40895 12.4082 3.42668 12.0591 3.43683 12.0074C3.56434 11.2707 3.70676 11.0337 3.72242 10.9687C3.79573 10.7263 3.85728 10.4822 3.93916 10.2652C4.07694 9.90803 4.17162 9.71926 4.39294 9.26694C4.55083 8.95692 4.36665 9.24001 4.52376 8.94321C4.56588 8.82162 5.34102 7.74479 5.36732 7.60998C5.36377 7.52457 3.10139 10.6144 3.22099 14C3.21518 16.6886 3.21427 19.1745 3.22285 19.6903C3.2325 18.6473 3.24214 17.6042 3.25179 16.5612C3.22831 18.6793 3.29239 21.2237 3.19758 21.4039C3.18983 29.2584 3.18208 37.1129 3.17433 44.9674C3.16625 46.3699 3.10533 45.6009 3.12306 47.9084C3.14247 47.3121 3.16188 46.7158 3.18129 46.1195C3.16767 47.3021 3.14107 52.5426 3.15364 53.3908C3.15528 53.5006 3.21043 53.6531 3.21516 54.9625C3.21935 56.1245 3.17803 56.3111 3.17012 56.9323C3.16359 57.4538 3.17441 58.0396 3.17213 58.1944C3.17031 58.3132 3.14504 58.3602 3.14064 58.6459C3.12702 59.5482 3.19815 58.8169 3.11647 59.7126C3.11335 59.4945 3.11024 59.2765 3.10713 59.0584C3.0953 60.1473 3.05822 61.635 3.03992 60.031C3.03677 59.7552 3.06121 59.9921 3.06117 59.7864C3.05662 51.7324 3.00911 58.1638 3.04707 60.9862C3.01085 61.7111 3.03296 65.7735 3.02582 65.9085C3.01549 66.0962 2.98654 65.401 2.96155 66.3123C2.95626 66.504 2.97654 71.9356 2.92841 69.9798C2.91848 69.5762 2.92891 66.972 2.92749 66.3441C2.85073 67.8212 2.96071 71.2838 2.95789 71.6731C2.94593 73.2437 2.89137 68.6558 2.88245 72.1941C2.8756 74.9149 2.92686 72.3606 2.94873 73.407C2.96101 73.995 2.90455 77.0741 2.97767 76.9905C2.98547 78.0474 2.94676 77.4288 2.94397 77.5593C2.94153 77.6869 2.96341 79.7649 2.948 80.4394C2.94609 80.5213 2.90808 80.2637 2.90497 80.3483C2.89965 80.5128 2.90724 82.5168 2.91046 82.5974C2.9127 82.6486 2.94598 82.1708 2.95404 82.3672C2.96335 82.5961 2.95552 84.5245 2.96503 84.6308C2.97941 84.781 2.96994 82.4004 3.00715 82.7971C2.99778 83.8944 3.02261 85.6823 3.05256 86.4067C3.04399 86.2292 3.04277 85.1652 3.04578 84.7958C3.10028 84.9697 3.09954 87.2543 3.0564 86.4733C3.07957 86.9697 3.09186 86.6307 3.11372 86.9103C3.11926 86.9837 3.1204 87.6891 3.12983 87.825C3.13171 87.8427 3.15227 87.1149 3.16334 87.2606C3.18334 87.5245 3.17884 89.6632 3.1736 89.8382C3.15873 90.3308 3.14073 88.587 3.11775 88.4416C3.11422 88.4209 3.06917 89.9041 3.06519 89.9265C3.02251 90.0132 3.05327 88.3629 3.01484 88.5516C3.00672 88.9597 2.9986 89.3679 2.99048 89.776C2.95157 88.2017 2.97158 85.2892 2.92731 84.5382C2.94048 86.8723 2.93893 89.3151 2.83923 89.31C2.79725 89.3083 2.77264 88.3013 2.76196 88.3403C2.72376 88.4888 2.76526 89.8867 2.76324 89.9381C2.76091 89.9806 2.75865 90 2.75644 90C2.75644 90 2.75644 90 2.75644 90C2.73407 89.9999 2.71797 88.0072 2.70776 87.9075C2.68962 87.7399 2.61496 88.6268 2.59844 88.6254C2.59512 88.5945 2.57745 87.1754 2.54863 87.6543C2.51952 88.1387 2.51888 89.3808 2.51586 89.4243C2.49844 89.6615 2.48256 87.4889 2.47228 87.4241C2.46708 87.39 2.43513 88.5567 2.42595 88.5907C2.41673 88.6197 2.39662 87.733 2.36754 87.3836C2.34592 87.1231 2.32936 87.8817 2.32597 87.7483C2.32372 87.653 2.32409 85.6002 2.32029 85.4992C2.31467 85.3489 2.28885 85.8297 2.28239 85.7597C2.2731 85.6605 2.28242 84.9976 2.27287 85.0838C2.26574 85.1487 2.17671 87.7186 2.15293 87.702C2.11237 87.6726 2.2057 84.9511 2.04562 87.4835C2.04457 87.5012 2.05595 88.1176 2.05496 88.1348C2.02551 88.5151 1.98021 86.5391 1.98813 88.9554C1.93697 84.4605 1.92715 88.396 1.85885 87.731C1.8326 87.4741 1.82177 85.7317 1.81783 85.7235C1.78453 85.8929 1.81036 86.448 1.79403 86.6368C1.7849 86.7407 1.74969 85.1816 1.72683 85.5325C1.71504 85.7139 1.71924 87.3688 1.71694 87.4372C1.69526 88.0921 1.67191 87.2889 1.65651 87.4328C1.64619 87.5284 1.64537 88.527 1.64351 88.553C1.63964 88.5951 1.59793 87.2391 1.58327 86.9567C1.57198 86.7419 1.55431 87.5479 1.54939 87.3981C1.51998 86.4953 1.59499 84.5748 1.48988 86.4255C1.48343 86.5385 1.48604 87.2386 1.48475 87.2591C1.45495 87.6918 1.45238 86.4028 1.42799 86.1722C1.38595 85.7763 1.40939 87.6289 1.37983 86.0883C1.35234 87.244 1.35349 87.8881 1.36115 89.2405C1.33977 85.4958 1.23096 84.1741 1.2337 88.3316C1.2354 87.0091 1.17399 87.1558 1.17291 86.7613C1.17231 86.5159 1.23337 84.5983 1.09637 85.4775C1.07926 85.5879 1.101 86.7527 1.06597 86.3879C1.07491 83.5922 1.04369 86.3286 1.03906 86.3314C0.958355 86.2952 1.02445 79.464 1.01525 78.2902C1.00458 76.9281 0.940988 75.7177 0.940907 75.4216C0.940879 74.4475 0.973166 75.2559 0.985037 75.0381C0.996799 74.8173 0.934946 72.0473 0.938343 71.909C0.951988 71.3725 0.990247 71.917 0.992179 71.8613C1.01562 71.1969 0.985665 67.4768 0.994559 66.4353C0.969739 66.4675 0.96777 68.5586 0.927906 67.253C0.88143 65.7328 0.990843 65.6458 0.995658 65.606C0.99462 58.6406 0.993582 51.6752 0.992545 44.7098C0.934334 44.7966 0.978233 49.3505 0.970571 49.4541C0.925195 50.0624 0.92603 42.3696 0.946584 41.4259C0.93401 42.1428 0.921436 42.8597 0.908862 43.5766C0.84194 42.3525 0.928887 39.6434 0.899341 37.8728C0.889762 37.3008 0.863932 38.3992 0.862169 38.3764C0.836177 37.7335 0.856202 36.702 0.8911 37.4733C0.857663 35.9039 0.894556 36.1332 0.897326 34.9289C0.897443 34.8669 0.870436 35.3839 0.859239 34.4311C0.854015 33.9846 0.853928 31.6034 0.830307 31.2846C0.820362 31.1534 0.715633 32.3614 0.80577 32.5105C0.761832 35.1004 0.846844 33.338 0.844773 34.3442C0.844301 34.4985 0.793989 34.1435 0.817672 36.6773C0.726944 36.1947 0.794787 33.277 0.783797 32.7768C0.761207 31.7454 0.714354 35.9959 0.785078 36.7757C0.714277 36.4113 0.775537 37.0772 0.772627 38.0247C0.76947 39.0618 0.748387 38.6098 0.748273 39.171C0.747745 40.7057 0.797722 40.0695 0.752667 41.3347C0.892147 40.1012 0.771072 43.5007 0.734539 44.4913C0.727459 42.8795 0.720379 41.2677 0.713298 39.6558C0.705974 39.748 0.698649 39.8401 0.691325 39.9323C0.692362 39.5077 0.6934 39.0832 0.694438 38.6587C0.701457 38.7267 0.708476 38.7947 0.715496 38.8627C0.669857 36.6736 0.721151 36.1394 0.721721 35.9609C0.727672 33.6629 0.72723 31.0086 0.727398 28.6853C0.727423 28.3367 0.68177 28.5759 0.71751 26.0353C0.728891 25.2249 0.764406 25.99 0.759076 25.0714C0.662572 23.9223 0.739545 23.944 0.739666 23.6023C0.739654 22.622 0.715748 22.0228 0.715496 21.9322C0.711765 20.7209 0.715757 18.9468 0.7122 17.6163C0.711836 17.5913 0.682186 18.2837 0.690959 17.4195C0.693229 17.1995 0.760312 15.7094 0.781388 14C0.78874 13.2845 0.850534 12.5362 0.9581 11.8223C0.838111 12.4928 0.77018 13.1764 0.754525 13.8569C0.751304 13.459 0.837605 11.8417 1.19807 10.5488C1.53542 9.25186 2.00851 8.28621 1.70859 8.91113C1.31687 9.6761 0.920005 11.7119 0.842632 11.9289C0.954661 11.01 1.71841 7.92343 3.63285 5.64818C5.45775 3.30522 8.07272 2.04472 8.43339 1.90561C8.53461 1.85839 7.92574 2.18044 8.06668 2.11652C8.15334 2.01836 10.3722 1.15472 10.6988 1.14057C10.8797 1.09304 9.87489 1.39341 9.96121 1.38457C10.0153 1.29074 12.9227 0.733735 13.0992 0.772768C12.3688 0.790902 10.3646 1.21704 11.4107 0.969813C11.5444 0.934756 12.2552 0.841969 12.4215 0.823364C13.1955 0.732048 12.418 0.757651 11.3757 0.959896C10.3287 1.14965 9.06319 1.63036 8.73729 1.78249C10.1048 1.1592 12.0183 0.671271 14 0.685678C15.689 0.689245 17.4195 0.693954 18.9077 0.681071C20.1445 0.707626 17.0742 0.721694 18.4735 0.743695C21.3765 0.789299 19.2459 0.706973 19.3361 0.703593C20.0571 0.676802 22.5131 0.820384 22.5144 0.711101C23.5668 0.727552 23.2262 0.74133 24.7114 0.727032C24.516 0.719463 24.3206 0.711894 24.1253 0.704326C25.7742 0.641023 29.2642 0.800729 29.0027 0.812911C28.2993 0.845516 26.4818 0.794659 26.3266 0.795882C26.0968 0.797691 25.4617 0.908586 22.9472 0.809432C21.9175 0.883809 26.9326 0.859632 24.6506 0.910327C26.1918 0.902008 32.5318 0.953776 33.4445 0.921131C33.5533 0.916869 33.0461 0.842761 34.6124 0.88048C35.356 0.898441 33.563 0.899304 33.9032 0.916187C34.9502 0.968001 49.1898 0.934856 51.8947 0.932118C52.0702 0.932035 52.0058 0.955035 52.1784 0.954824C52.7083 0.954182 54.6397 0.919884 55.5882 0.93047C53.623 0.887897 57.4396 0.884586 58.4105 0.889269C59.884 0.896403 59.7929 0.936878 60.4294 0.945485C62.883 0.978663 66.6847 0.882567 68.5908 0.972402C68.4865 0.883242 71.8877 1.01612 73.4349 1.0169C74.6468 1.01754 76.4052 0.958535 74.7693 0.922596C76.8614 0.926702 79.0636 0.910067 81.026 0.904651C81.3504 0.903742 80.9038 0.930106 81.4573 0.927723C81.5076 0.927316 81.5769 0.901479 82.0522 0.898791C85.9756 0.87627 84.0665 0.931175 84.8006 0.947316C85.2114 0.956354 85.5145 0.960849 85.737 0.962331C83.4502 0.967382 80.8124 0.977528 80.107 0.978262C80.7087 1.03532 85.1756 0.967304 86.4838 0.982657C86.5292 0.983215 86.3712 1.01466 86.4172 1.01488C86.4182 1.01488 86.4192 1.01488 86.4201 1.01488C86.9104 1.01729 90.0328 1.00569 89.39 0.968191C89.2175 0.958173 87.7803 0.958192 86.0757 0.961599C86.537 0.954565 86.1926 0.919337 86.274 0.917835C87.0986 0.90329 88.9217 0.924881 90 0.935092C90.2325 0.937098 90.4319 0.944806 90.5847 0.952317C90.7969 0.963355 90.784 0.941293 90.8189 0.943082C91.6657 1.0171 91.3116 1.04053 92.1829 1.10247C93.348 1.37757 90.9919 0.894283 90 0.965126C89.7396 0.967748 89.5866 0.973385 89.6505 0.985037C89.674 0.989324 89.7977 0.992907 90 0.995812C90.9109 0.977856 93.3524 1.20939 95.3387 2.1418C97.3464 3.01463 98.7858 4.38239 98.7931 4.34401C98.8133 4.37207 98.9086 4.46792 99.1 4.66734C99.5832 5.05883 101.226 7.23808 101.403 7.68551C101.443 7.75395 101.482 7.69656 101.529 7.78327C101.733 7.96132 102.923 11.109 102.986 12.3775C102.912 11.7072 102.785 11.0406 102.607 10.3875C103.142 12.3639 103.074 13.2519 103.111 13.4287C103.123 13.6112 103.128 13.1115 103.056 12.4328C103.048 12.365 103.042 12.2988 103.034 12.2342C102.925 11.1792 102.526 9.87272 102.518 9.85397C102.541 9.79017 103.275 12.2738 103.194 14C103.189 15.0058 103.177 15.6917 103.155 15.213C103.151 15.1385 103.154 14.5341 103.155 14C103.153 13.2478 103.094 12.6275 103.123 13.5203C103.124 13.5891 103.129 13.7674 103.129 14C103.129 14.6413 103.135 15.7248 103.132 15.7991C103.115 16.1786 103.094 14.9899 103.072 14C103.058 13.1955 102.953 12.5208 102.961 12.7543C103.012 13.1348 103.041 13.5568 103.044 14C103.049 14.7401 103.043 15.5361 103.05 16.2753C103.054 16.7966 103.085 16.9245 103.086 16.9888C103.094 17.9498 103.061 17.4105 103.062 17.7313C103.063 17.9034 103.131 19.797 103.037 19.4391C103.106 25.6784 103.106 21.165 103.101 17.3376C103.136 18.547 103.119 20.9181 103.127 21.982C103.13 22.3638 103.161 22.1375 103.168 22.7824C103.181 24.1096 103.144 30.4464 103.136 32.0972C103.125 31.0834 103.09 31.3799 103.093 32.1624C103.095 32.945 103.141 32.2876 103.146 32.4403C103.151 32.6039 103.129 36.2755 103.135 36.8864C103.119 34.1222 103.084 34.7458 103.081 37.0919C103.071 36.7527 103.061 36.4136 103.051 36.0744C103.065 37.4495 103.013 40.3407 103.028 41.1357C103.031 41.2603 103.06 40.8123 103.061 40.8824C103.073 41.5796 103.044 43.9517 103.054 44.0621C103.062 44.1557 103.086 43.1439 103.098 43.5194C103.1 43.5978 103.061 44.5733 103.071 45.534C103.075 45.8905 103.102 45.6758 103.103 45.7656C103.117 46.514 103.071 46.0723 103.078 47.4401C103.083 48.4422 103.128 49.1886 103.113 50.5735C103.171 46.0264 103.147 49.8489 103.164 51.7502C103.167 52.0549 103.217 51.7937 103.192 53.6143C103.103 49.7398 103.145 54.719 103.144 55.7375C103.144 55.7934 103.111 55.8125 103.111 56.3121C103.111 56.3544 103.133 56.2936 103.134 56.7579C103.15 61.1611 103.125 58.3456 103.104 59.1821C103.094 59.5383 103.126 61.6795 103.126 62.2562C103.126 62.3888 103.103 62.3278 103.104 62.8409C103.106 63.7486 103.13 64.5618 103.132 65.1609C103.132 65.2308 103.096 65.2337 103.108 66.3694C103.111 66.6888 103.124 67.0472 103.135 66.5938C103.169 65.0897 103.11 62.2368 103.144 60.5368C103.175 58.9866 103.178 63.8747 103.178 64.129C103.178 64.2223 103.16 63.2676 103.157 64.2375C103.154 65.0658 103.216 66.5795 103.202 67.8138C103.201 67.9079 103.148 68.8941 103.145 68.8487C103.143 68.8074 103.132 67.2928 103.116 67.5128C103.114 67.539 103.115 68.5016 103.103 68.6272C103.089 68.7811 102.953 69.196 102.95 69.4015C102.941 69.929 102.972 69.5857 102.97 69.9269C102.966 70.6585 102.925 73.1963 102.972 73.2789C102.975 72.8596 102.978 72.4404 102.981 72.0211C102.986 74.3537 103.006 73.3594 103.015 73.6899C103.024 74.0458 102.983 73.9456 102.979 74.7319C102.978 74.903 102.987 78.1929 103.004 78.1331C102.976 76.3137 103.028 76.9883 103.029 76.9043C103.032 76.5856 103.003 76.1785 103.004 75.7508C103.008 72.7429 103.054 75.7764 103.066 75.0663C103.069 74.8218 103.045 74.3349 103.046 74.2312C103.05 73.8942 103.082 73.8887 103.08 73.6638C103.074 73.1392 103.028 73.7517 103.026 73.7101C102.997 73.2414 103.033 71.4044 103.082 72.548C103.1 71.8615 103.04 71.781 103.064 71.2367C103.112 70.1544 103.1 71.7758 103.107 72.2151C103.136 73.7909 103.113 74.2584 103.121 76.489C103.124 77.2923 103.153 78.2438 103.154 78.6165C103.156 78.8513 103.054 81.0681 103.213 81.1334C103.198 81.9951 103.093 83.3472 103.097 84.2349C103.102 85.032 103.158 84.7786 103.16 84.8529C103.164 84.9669 103.159 85.9308 103.167 86.2568C103.177 86.6388 103.198 86.4481 103.207 87.0543C103.229 88.5627 103.171 88.5231 103.167 88.6782C103.129 90.294 103.191 89.8241 103.209 90C103.211 90.0221 103.212 90.0535 103.212 90.0986C103.216 90.2996 103.198 91.8522 102.754 93.4336C102.344 95.0248 101.487 96.5558 101.164 97.0613C101.417 96.64 101.646 96.2057 101.851 95.7597C101.441 96.5348 100.971 97.338 100.907 97.3147C100.918 97.5374 99.7426 98.9269 99.3359 99.2876C99.1849 99.4393 99.2099 99.4408 99.0155 99.6258C98.2887 100.394 96.2785 101.66 95.7468 101.871C94.6292 102.387 95.5431 102.081 96.71 101.431C97.889 100.795 99.1694 99.6456 99.3367 99.4624C98.9945 99.8252 97.7324 100.921 96.6709 101.52C95.619 102.128 94.9084 102.431 96.1007 101.895C96.4665 101.721 97.0572 101.314 97.2429 101.186C98.4962 100.309 97.5318 101.028 97.6328 100.964C97.8107 100.86 98.5827 100.21 98.7785 100.031C98.8396 99.9655 98.4639 100.405 99.5178 99.389C99.1456 100.062 95.6647 102.314 95.092 102.382C95.0036 102.42 95.2459 102.342 95.099 102.414C94.9483 102.468 94.4276 102.776 92.6917 103.119C92.7334 103.118 92.7751 103.117 92.8168 103.115C91.8912 103.315 90.9445 103.415 90 103.416C89.0861 103.418 88.1723 103.419 87.2584 103.421C87.4497 103.404 88.4381 103.371 87.1933 103.378C86.4766 103.382 87.0068 103.419 86.9414 103.42C86.2983 103.43 74.9148 103.418 72.7086 103.422C71.9582 103.424 69.8665 103.454 69.7069 103.454C68.7532 103.457 65.3759 103.438 64.7022 103.442C64.2815 103.445 64.6814 103.476 64.3056 103.474C63.9562 103.473 64.3182 103.443 64.2144 103.441C63.3549 103.431 56.8262 103.47 55.2759 103.442C56.2234 103.45 60.9518 103.39 60.8567 103.369C60.8361 103.366 59.687 103.343 59.4499 103.354C59.0583 103.328 57.7136 103.407 56.9822 103.392C56.8995 103.39 57.2253 103.346 55.9199 103.337C55.4703 103.335 54.2928 103.369 53.1078 103.33C51.3922 103.349 42.3725 103.291 41.7537 103.339C41.7354 103.342 43.0055 103.358 42.1474 103.378C41.0066 103.404 42.0311 103.316 40.7015 103.308C40.5011 103.307 36.802 103.316 36.6809 103.322C35.5605 103.371 38.7929 103.391 38.7477 103.397C38.6349 103.411 35.9492 103.42 35.84 103.417C35.7361 103.413 37.9265 103.348 35.2944 103.372C35.5959 103.38 35.8974 103.388 36.1989 103.396C34.9611 103.411 34.8431 103.366 34.5432 103.363C33.611 103.354 32.6024 103.423 31.1088 103.338C30.7138 103.316 31.3695 103.291 31.3201 103.287C30.8456 103.257 30.2403 103.338 29.5269 103.278C29.4732 103.273 31.1335 103.237 28.2315 103.237C28.4313 103.243 28.631 103.248 28.8307 103.254C28.4215 103.267 25.4833 103.275 25.088 103.272C23.9332 103.263 24.9403 103.221 23.7796 103.226C24.524 103.283 20.9946 103.291 21.1976 103.241C20.7047 103.303 17.7065 103.256 16.2971 103.254C15.7004 103.254 14.6873 103.265 14 103.272C13.6255 103.276 13.3427 103.262 13.2391 103.256C12.8582 103.225 12.9783 103.202 12.2976 103.113C12.1103 103.101 10.0529 102.819 8.45149 101.987C8.13763 101.837 7.5323 101.433 8.1081 101.713C9.07967 102.225 11.0679 102.834 11.0565 102.761C11.0206 102.772 8.36591 101.923 7.74484 101.478C6.25038 100.609 6.02811 100.291 6.07152 100.328C6.12491 100.35 6.51603 100.617 6.4852 100.584C6.29667 100.451 4.88 99.2329 4.84881 99.1519C4.62481 98.9206 5.60005 99.8122 5.63922 99.7962C5.65453 99.8099 4.41845 98.5235 4.71718 98.7995C5.1031 99.2326 6.33911 100.308 6.43886 100.351C7.56289 101.102 6.06836 100.004 5.72692 99.6275C5.61595 99.5217 6.0938 99.9019 5.99854 99.8176C4.57685 98.5037 5.61156 99.6359 4.69937 98.7168C3.92979 97.8542 4.95639 98.9304 4.93607 98.8872C4.88522 98.8567 3.97779 97.8196 3.87597 97.6257C3.84687 97.5806 4.3819 98.2672 5.00774 98.8565C5.62586 99.4545 6.3221 99.9466 6.27423 99.8865C5.37983 99.1971 4.57791 98.3864 3.89728 97.4824C3.86624 97.396 4.87382 98.669 5.01637 98.7682C5.2577 99.0047 4.624 98.307 4.66829 98.3223C4.68573 98.3373 5.46814 99.1096 4.79755 98.3779C4.57762 98.1207 4.05145 97.6163 3.41942 96.5439C4.62611 98.3376 4.98893 98.4686 4.82183 98.3151C4.67706 98.1445 4.19638 97.536 4.16938 97.4772C4.10766 97.3714 5.38921 98.9547 3.88075 96.9943C3.90046 96.8504 3.92408 97.0295 4.36666 97.574C4.64274 97.9025 4.47684 97.6748 4.48458 97.6732C4.50524 97.6593 4.62566 97.9391 5.7528 99.0255C5.6037 98.917 3.96222 97.0216 3.93996 96.871C3.87648 96.7759 4.2145 97.2185 4.10596 97.0522C2.9072 95.0424 3.7446 96.4138 3.44175 95.8089C3.38498 95.769 2.50226 93.761 3.20182 95.2761C4.62092 97.9733 5.75175 98.7482 6.17584 99.0062C4.46939 97.5402 3.12696 95.138 2.91306 94.4933C2.53858 93.5217 2.9467 94.5207 2.9097 94.3969C2.88767 94.3575 2.59099 93.5139 2.59706 93.4991C2.56245 93.176 2.79803 94.1476 3.3486 95.2747C3.87985 96.4122 4.80309 97.6329 5.31738 98.1452C5.06219 97.851 4.82186 97.5449 4.59747 97.2284C4.91872 97.6447 5.26776 98.0399 5.64114 98.4101C3.98038 96.5349 5.55287 98.3796 6.09323 98.7099C6.20578 98.7918 4.99165 97.7054 6.39496 98.9245C5.39076 97.9946 5.71239 98.2885 4.88511 97.3673C4.88341 97.4139 6.85538 99.3931 7.85447 99.8783C6.25242 98.8036 6.01539 98.4327 5.73985 98.2188C5.49793 97.9713 5.21436 97.8278 4.28557 96.437C3.90319 95.9461 4.81393 97.2589 4.74645 97.1476C4.44045 96.792 3.81976 95.8841 3.21264 94.6977C3.11847 94.5013 3.4227 95.3736 2.91558 94.1076C2.85477 93.9687 2.6321 93.1291 2.6447 93.1386C2.6949 93.2441 2.95142 94.0596 2.98198 94.086C2.99601 94.116 2.69183 93.213 2.7028 93.2063C2.72324 93.1702 2.95273 93.9603 2.92926 93.8421C2.85787 93.5859 1.96012 90.3223 3.28468 94.5437C2.09318 91.0563 2.93992 94.1727 3.67599 95.4245C3.85322 95.7452 3.9139 95.8179 4.19716 96.255C4.56187 96.8173 5.04744 97.4345 5.28286 97.6893C5.40775 97.8275 5.12949 97.4913 5.07626 97.4059C5.0346 97.3093 5.12917 97.5444 6.23587 98.5965C5.06295 97.5702 3.48087 95.2702 3.08227 93.7832C2.66783 92.3056 2.8347 92.8194 3.14557 93.7474C3.45624 94.6804 4.16699 95.9263 4.32694 96.1425C4.40453 96.2629 4.1747 95.84 4.2272 95.92C4.23523 96.1039 6.07912 98.386 6.38029 98.4942C6.60237 98.6768 5.60261 97.7586 5.57495 97.6604C5.47413 97.6858 8.19534 99.8963 6.73171 98.6898C5.6811 97.8976 4.21596 95.9486 4.12681 95.5325C5.06975 97.2023 6.44527 98.6249 8.07917 99.6235C7.20158 99.0499 6.40765 98.3556 5.72562 97.5691C7.18004 99.1257 8.80374 100.156 10.7473 100.717C6.28152 98.8432 12.2088 101.304 12.3663 100.996C12.3801 101.027 10.5512 100.539 10.2855 100.382C11.1056 100.696 12.9002 101.034 14 100.978C15.075 100.96 15.5147 100.935 14 100.893C13.9952 100.893 13.9904 100.893 13.9856 100.892C13.9903 100.893 13.9951 100.893 14 100.893C14.5955 100.912 15.99 100.863 15.9714 100.859C15.8675 100.836 14.7936 100.835 14 100.832C13.4712 100.829 13.0846 100.786 13.2779 100.786C13.4903 100.784 13.7296 100.792 14 100.797C14.4502 100.803 14.9632 100.823 15.5054 100.82C20.1252 100.797 18.8578 100.591 23.4902 100.624C23.398 100.616 23.3059 100.609 23.2137 100.602C28.2489 100.613 33.2841 100.625 38.3192 100.637C40.2893 100.574 45.5322 100.535 48.1074 100.542C48.6259 100.544 51.1717 100.577 51.3638 100.582C51.7196 100.594 49.7634 100.598 50.6474 100.619C50.834 100.623 55.1441 100.637 54.8359 100.602C54.3529 100.597 52.8414 100.615 52.594 100.607C50.8563 100.548 64.1438 100.595 64.802 100.571C64.5077 100.56 64.2134 100.548 63.9192 100.537C64.7576 100.543 65.5961 100.548 66.4346 100.554ZM27.9059 103.376C27.4027 103.412 26.1415 103.385 25.3963 103.395C24.3667 103.409 22.6165 103.545 23.37 103.409C24.882 103.398 26.3939 103.387 27.9059 103.376ZM50.0033 103.429C48.9895 103.41 49.7758 103.334 50.6069 103.366C50.699 103.369 51.3751 103.454 50.0033 103.429ZM39.3743 103.393C39.417 103.392 40.2932 103.394 40.3238 103.395C41.1095 103.426 38.4679 103.419 39.3743 103.393ZM90.8005 103.33C89.5608 103.374 90.4596 103.439 91.2331 103.342C91.2813 103.337 90.8824 103.327 90.8005 103.33ZM89.9258 103.352C89.0582 103.29 87.3107 103.416 88.6999 103.403C88.8347 103.402 89.9659 103.355 89.9258 103.352ZM46.3894 103.399C46.5035 103.375 47.5493 103.387 47.9959 103.392C47.9838 103.414 46.8274 103.396 46.3894 103.399ZM72.9055 103.392C72.9498 103.374 69.3148 103.375 69.0672 103.399C69.6409 103.389 72.8637 103.409 72.9055 103.392ZM82.2276 103.366C82.1354 103.363 80.8797 103.368 80.9163 103.384C81.5293 103.406 82.6425 103.381 82.2276 103.366ZM100.44 98.3487C100.462 98.2709 99.8203 99.0903 101.282 97.0979C101.491 96.7993 100.798 97.8992 100.865 97.7897C101.03 97.5736 101.151 97.3967 101.245 97.2524C100.633 98.237 99.8095 99.1231 99.7237 99.2C99.3329 99.5809 100.438 98.3913 100.44 98.3487ZM103.289 88.367C103.272 88.1532 103.281 86.7876 103.288 86.4768C103.289 86.4235 103.334 86.6561 103.331 86.0412C103.328 85.5475 103.282 86.285 103.29 85.3233C103.297 84.3515 103.33 85.6499 103.332 85.565C103.335 85.4512 103.315 83.948 103.341 83.9947C103.361 84.0296 103.348 85.64 103.352 86.0383C103.357 86.5482 103.39 85.9299 103.383 86.7822C103.379 87.3177 103.321 87.0209 103.318 87.1339C103.315 87.2287 103.349 89.1007 103.289 88.3641C103.289 88.3651 103.289 88.366 103.289 88.367ZM101.41 96.9861C101.366 97.0614 101.313 97.1488 101.245 97.2524C101.302 97.1638 101.357 97.0748 101.41 96.9861ZM30.8352 103.351C31.3623 103.369 29.798 103.392 29.2056 103.368C29.1953 103.349 30.7513 103.348 30.8352 103.351ZM101.892 96.0285C102.615 94.4738 102.189 95.669 101.41 96.9861C101.65 96.5646 101.622 96.5358 101.892 96.0285ZM59.4499 103.354C59.5149 103.358 59.5561 103.365 59.5613 103.376C59.3904 103.364 59.3751 103.358 59.4499 103.354ZM63.0464 103.374C64.2794 103.34 61.7743 103.341 61.7902 103.366C61.7977 103.375 62.9971 103.375 63.0464 103.374ZM92.3834 103.145C92.2585 103.151 94.1592 102.751 91.3831 103.257C92.8804 103.077 91.3058 103.3 91.3271 103.295C91.3994 103.368 93.8976 102.869 94.4147 102.626C94.823 102.459 92.8066 103.129 92.3866 103.144C92.3855 103.145 92.3845 103.145 92.3834 103.145ZM103.314 70.8358C103.341 71.1448 103.332 72.1252 103.33 72.7868C103.304 72.4777 103.312 71.4974 103.314 70.8358ZM0.682352 16.58C0.676354 15.4868 0.678174 14.6232 0.683782 14C0.759629 12.2766 0.80156 12.2214 0.73394 14C0.733569 14.421 0.730539 14.9558 0.723736 15.6074C0.722826 15.6886 0.693457 16.8552 0.682352 16.58ZM31.4732 0.710735C31.9004 0.758484 30.4868 0.766163 29.5584 0.746442C29.3483 0.742006 28.5716 0.693641 29.4586 0.684183C29.4303 0.742061 30.802 0.764169 31.4732 0.710735ZM102.27 95.1379C102.452 94.6744 102.947 93.2231 103.074 92.4228C103.036 92.9175 102.582 94.4929 102.27 95.1379ZM7.12908 2.65635C7.58178 2.38627 7.8831 2.19052 7.79984 2.22873C7.42444 2.3979 6.60421 2.95395 7.12908 2.65635ZM99.5607 99.2377C99.5241 99.2962 100.814 97.7397 100.902 97.6266C100.673 97.9976 99.6198 99.2245 99.5607 99.2377ZM103.3 72.0834C103.29 72.3675 103.273 70.8959 103.282 70.4508C103.302 70.4866 103.306 71.8971 103.3 72.0834ZM15.1578 0.725384C15.5857 0.728992 16.6545 0.730092 16.7729 0.713298C16.92 0.692307 15.3526 0.699461 15.1578 0.725384ZM0.76164 73.6024C0.754096 73.6563 0.699722 72.0009 0.713481 71.265C0.739809 69.8675 0.766968 73.5438 0.76164 73.6024ZM3.45551 5.99347C2.55146 7.17724 3.54433 5.85539 3.48181 5.8887C2.8156 6.65339 1.67054 8.88308 2.5206 7.38973C2.6881 7.10131 3.16443 6.3589 3.45551 5.99347ZM4.35134 4.95513C4.44423 4.82488 5.18375 4.04306 4.5244 4.69834C4.22242 5.00573 3.80165 5.55532 4.35134 4.95513ZM0.743146 63.3453C0.779976 62.136 0.760216 67.6799 0.753766 67.8392C0.750359 67.9234 0.747148 67.9786 0.744427 68.01C0.7561 68.2136 0.758204 69.2608 0.72868 69.382C0.731117 69.068 0.72852 68.2108 0.731793 68.1113C0.733186 68.0684 0.734492 68.0364 0.735821 68.0143C0.710192 67.6448 0.736163 63.5771 0.743146 63.3453ZM0.78105 54.1593C0.835383 55.5431 0.743006 55.7881 0.740033 55.6688C0.702225 54.1623 0.770351 55.1448 0.773542 55.0986C0.778851 54.9934 0.74724 53.9232 0.78105 54.1636C0.78105 54.1622 0.78105 54.1607 0.78105 54.1593ZM0.758344 61.4624C0.759547 61.5193 0.756689 62.681 0.755231 62.7288C0.724185 63.681 0.732136 60.3935 0.758344 61.4624ZM103.224 81.035C103.234 80.2032 103.268 81.0191 103.255 81.5719C103.254 81.6173 103.216 81.7687 103.224 81.035ZM4.86 4.42877C4.93497 4.35576 5.97309 3.38485 7.13391 2.69729C8.27977 1.98756 9.49512 1.56045 9.33049 1.59123C9.11323 1.66413 7.55644 2.29356 6.38627 3.14517C5.20171 3.972 4.3812 4.88589 4.86 4.42877ZM41.7187 0.77812C40.8487 0.777723 41.7972 0.729312 42.2614 0.747357C42.4335 0.754061 41.938 0.77819 41.7187 0.77812ZM97.4499 100.959C96.6274 101.525 96.7582 101.342 97.4924 100.891C97.5209 100.873 97.4817 100.936 97.4499 100.959ZM34.7687 0.750287C37.769 0.720949 37.0585 0.874429 33.1579 0.822616C33.2799 0.81578 33.402 0.808944 33.5241 0.802108C29.0219 0.779084 33.2161 0.79129 34.3186 0.782698C34.7376 0.779432 34.3863 0.753813 34.7658 0.750104C34.7668 0.750165 34.7678 0.750226 34.7687 0.750287ZM46.2936 0.78105C49.183 0.889986 43.667 0.819046 42.0849 0.833237C43.6186 0.788252 45.6156 0.79506 42.8997 0.749005C46.8706 0.740099 45.2175 0.783486 45.376 0.787093C45.5637 0.791138 46.1704 0.776373 46.2936 0.78105ZM38.6721 0.781782C38.5052 0.78496 37.2468 0.762784 36.7935 0.766401C37.4274 0.729187 39.781 0.76017 38.6721 0.781782ZM0.75578 44.5289C0.784937 44.6334 0.806414 44.8918 0.795516 45.885C0.780865 45.5782 0.768264 44.9438 0.75578 44.5289ZM26.9507 103.223C26.2667 103.221 24.9048 103.21 25.3225 103.241C25.3682 103.243 26.9486 103.24 26.9507 103.223ZM19.1798 0.78929C19.3253 0.792875 23.0872 0.795281 21.7879 0.763105C21.396 0.753402 17.9732 0.757523 19.1798 0.78929ZM1.72115 9.10778C1.82984 8.77658 2.45889 7.51516 2.48246 7.493C2.48766 7.387 1.72846 8.94716 1.72115 9.10778ZM23.5003 103.193C23.4102 103.19 21.3211 103.195 21.5508 103.21C21.9867 103.236 23.809 103.204 23.5003 103.193ZM103.156 78.0086C103.155 77.834 103.187 77.603 103.187 77.5426C103.188 77.4006 103.175 74.2039 103.216 75.4252C103.223 75.6289 103.207 80.2283 103.203 80.8265C103.16 81.0579 103.201 79.0932 103.197 78.6151C103.196 78.5308 103.159 78.4769 103.156 78.0101C103.156 78.0096 103.156 78.0091 103.156 78.0086ZM0.786543 49.703C0.814186 49.8441 0.832489 53.6022 0.798995 53.5587C0.794844 52.2734 0.790694 50.9882 0.786543 49.703ZM0.791121 47.794C0.810675 46.9921 0.817144 48.8701 0.808517 49.4237C0.789921 49.4296 0.788261 47.9108 0.791121 47.794ZM6.6203 3.16158C6.95483 2.91833 5.89393 3.61965 6.12177 3.45027C6.26034 3.33028 7.0347 2.82254 7.28707 2.66894C7.35474 2.61725 6.53145 3.08633 6.3146 3.25623C6.00169 3.4873 6.32213 3.28654 5.98377 3.54173C4.87173 4.40138 3.99004 5.30526 3.22387 6.38086C3.15451 6.4774 3.70885 5.73874 3.12011 6.56641C3.03455 6.69542 2.45923 7.45588 1.96211 8.57114C1.23853 10.3957 0.857951 11.9626 0.828088 14C0.824923 14.6832 0.82491 15.423 0.834336 16.2573C0.841632 16.164 0.85871 14.6711 0.865799 14C0.867648 13.8124 0.872546 13.6841 0.873427 13.6538C0.730029 10.7677 2.97132 5.90485 5.40172 4.09909C5.98314 3.60786 5.68859 3.83145 5.94423 3.6255C6.15209 3.47006 5.91914 3.67286 6.6203 3.16158ZM27.3139 103.202C26.988 103.164 25.8444 103.188 25.114 103.186C25.3711 103.22 26.6002 103.193 27.3139 103.202ZM0.820602 30.9214C0.819134 30.5552 0.830592 29.4202 0.819137 29.3264C0.804179 29.2056 0.794744 30.8439 0.820602 30.9214ZM103.167 59.9839C103.166 59.9485 103.168 59.0678 103.169 59.0345C103.2 58.2476 103.193 60.8893 103.167 59.9839ZM103.174 38.9155C103.17 38.2476 103.158 37.574 103.189 37.3495C103.184 37.7751 103.196 38.9938 103.174 38.9155ZM102.396 9.53265C102.443 9.6749 101.591 7.64176 101.334 7.30385C101.469 7.40458 102.428 9.39986 102.396 9.53265ZM0.882677 44.3842C0.880286 45.6131 0.941518 45.3537 0.913806 46.134C0.909123 46.2613 0.781619 46.6729 0.829392 45.322C0.837979 45.0789 0.86828 46.03 0.882677 44.3842ZM32.5225 0.821335C32.21 0.848077 31.2331 0.84014 30.573 0.837998C30.721 0.818129 32.0529 0.823242 32.5225 0.821335ZM19.7272 103.163C19.1508 103.125 16.4876 103.153 17.1466 103.178C17.2403 103.181 19.3536 103.161 19.7272 103.163ZM103.057 91.7878C103.179 90.5911 102.871 93.0635 102.607 93.8119C102.737 93.4776 103.071 91.8718 103.057 91.7878ZM103.151 16.8311C103.15 16.7785 103.153 15.6167 103.154 15.5647C103.186 14.6125 103.178 17.8999 103.151 16.8311ZM103.125 45.8437C103.101 45.4251 103.12 42.673 103.145 42.0562C103.181 42.6497 103.156 46.3632 103.125 45.8437ZM0.865282 39.3273C0.866549 40.204 0.859013 41.0359 0.848435 41.8413C0.827837 41.6718 0.849896 39.4199 0.865282 39.3273ZM103.056 12.4328C103.048 12.365 103.042 12.2988 103.034 12.2342C103.042 12.3017 103.049 12.368 103.056 12.4328ZM0.879747 19.7033C0.887884 18.9686 0.850141 19.1211 0.848985 19.1664C0.836761 19.7192 0.870565 20.5351 0.879747 19.7033ZM26.4745 103.146C26.2198 103.112 24.984 103.138 24.2732 103.13C24.4794 103.157 25.9019 103.149 26.4745 103.146ZM49.388 0.850816C50.3111 0.887746 46.5553 0.930647 45.7639 0.906848C45.7054 0.884031 49.2528 0.845762 49.388 0.850816ZM101.99 95.3503C101.958 95.425 101.165 96.9561 101.347 96.6388C101.487 96.4501 102.036 95.3179 101.99 95.3503ZM43.8752 0.891284C43.5224 0.899429 42.6998 0.873091 42.9894 0.857042C43.3612 0.836467 43.9664 0.888952 43.8752 0.891284ZM12.0616 1.05541C12.2232 0.987323 14.4834 0.859273 13.5482 0.869804C12.8973 0.877849 12.7971 0.938302 12.6459 0.951069C12.4641 0.892195 8.89375 1.62317 12.0616 1.05541ZM70.4231 0.874071C69.6403 0.884333 68.6937 0.87242 67.8744 0.873155C68.2082 0.85665 70.09 0.852148 70.4231 0.874071ZM103.119 88.9546C103.116 89.0078 103.113 89.4523 103.112 90C103.136 91.5436 102.644 93.7931 103.049 91.5085C103.062 91.4194 103.144 90.6889 103.14 90C103.14 89.2965 103.136 88.6495 103.119 88.9546ZM0.882677 44.3842C0.882979 44.2292 0.884253 44.0503 0.886889 43.8429C0.885851 44.0489 0.884042 44.2281 0.882677 44.3842ZM0.886706 30.4264C0.906135 30.7093 0.911328 29.2839 0.900989 28.8633C0.877252 28.7338 0.88399 30.3874 0.886706 30.4264ZM67.8121 0.900256C67.3401 0.911374 66.4833 0.89951 65.8988 0.900805C65.9977 0.882744 67.608 0.881908 67.8121 0.900256ZM100.354 6.00808C99.749 5.18164 98.8189 4.3258 98.7873 4.33402C98.7739 4.31723 98.7398 4.28117 98.6809 4.22383C98.6273 4.15887 97.777 3.46995 97.3807 3.2062C96.1826 2.42049 98.6101 3.8096 99.9398 5.47137C100.626 6.27067 101.084 7.03891 101.141 7.14946C101.177 7.27804 100.935 6.65688 99.5945 5.17071C99.8593 5.43827 100.113 5.71775 100.354 6.00808ZM103.073 49.5677C103.046 50.0997 103.08 51.5898 103.091 51.2031C103.098 50.9338 103.1 49.035 103.073 49.5677ZM103.057 29.0941C103.052 29.2531 103.071 30.708 103.085 30.7455C103.1 29.9091 103.08 28.3696 103.057 29.0941ZM103.042 53.6577C103.038 53.9916 103.081 54.4177 103.083 54.3785C103.099 54.0391 103.066 53.0969 103.042 53.6577ZM0.999503 41.8384C1.01192 41.3415 0.980532 39.7576 0.951894 39.4127C0.957431 39.3485 0.964653 39.1755 0.973318 38.8584C0.973318 38.8593 0.973318 38.8603 0.973318 38.8613C0.984886 38.4331 0.997525 25.6314 0.942372 34.2183C0.940605 34.4872 0.966311 34.1199 0.961782 35.2141C0.961452 35.2864 0.940463 35.3223 0.939442 35.5455C0.937224 36.0594 0.924017 38.7961 0.940907 39.3461C0.937017 39.3508 0.933316 39.3863 0.92992 39.4619C0.899651 40.1365 0.989928 42.2239 0.999503 41.8384ZM103.053 26.2096C103.046 26.5023 103.053 27.4292 103.072 27.5252C103.081 27.0656 103.072 25.5301 103.053 26.2096ZM103.043 89.1153C103.038 89.3343 103.038 89.6769 103.041 90C103.048 90.6058 103.012 91.1475 103.045 90.8342C103.056 90.725 103.075 90.3774 103.072 90C103.067 89.372 103.054 88.6711 103.043 89.1153ZM103.063 35.4926C103.085 32.0722 103.062 34.6763 103.034 34.1524C103.044 34.5992 103.054 35.0459 103.063 35.4926ZM0.929371 57.669C0.935621 57.1236 0.989214 57.7646 0.960134 58.3651C0.950899 58.5536 0.925975 57.9742 0.929371 57.669ZM0.946034 82.2978C0.993557 81.8322 0.965634 84.1058 0.933033 83.2197C0.931935 83.1786 0.944226 82.3311 0.946034 82.2978ZM0.965444 65.0879C0.933086 64.7177 0.929248 64.4766 0.937245 63.4336C0.946361 64.9776 0.974978 63.5456 0.965444 65.0879ZM98.7931 4.34401C98.7891 4.33864 98.7857 4.3342 98.7873 4.33402C98.7919 4.33982 98.7935 4.34279 98.7931 4.34401ZM103.05 56.8737C103.023 57.3018 103.025 58.5018 103.052 58.1444C103.055 58.1099 103.07 57.0491 103.05 56.8737ZM0.951894 39.4127C0.946983 39.4696 0.943808 39.4406 0.940907 39.3461C0.944569 39.3417 0.948027 39.3661 0.951894 39.4127ZM103.028 50.4303C103.048 50.4731 103.056 48.6466 103.054 48.5734C103.018 47.5251 103.027 49.6761 103.028 50.4303ZM97.7543 100.453C97.6737 100.517 98.2353 100.163 98.5259 99.8784C98.7525 99.6621 98.062 100.226 97.7543 100.453ZM0.978628 68.6294C0.978592 69.2078 0.978616 70.0221 0.953542 70.1723C0.957391 69.7847 0.960228 68.6175 0.978628 68.6294ZM0.980459 81.4077C0.950981 80.7241 0.951064 79.1627 0.955922 78.1657C0.994725 78.1473 0.971335 80.7661 0.980459 81.4077ZM0.985037 43.4073C0.986615 43.3598 0.998193 41.9095 0.972219 42.1076C0.93413 42.3969 0.970912 43.8164 0.985037 43.4073ZM99.993 98.3817C100.428 97.8292 99.3632 99.0467 98.8271 99.5601C98.5761 99.8507 99.945 98.4994 99.993 98.3817ZM103.014 60.6207C103.029 61.4767 103.056 59.3554 103.029 59.0591C103.027 59.4533 103.009 60.3167 103.014 60.6207ZM102.987 31.4995C102.908 34.1966 103.051 32.7276 103.039 32.2492C103.037 32.1818 102.989 31.4336 102.987 31.4995ZM12.9552 102.965C12.6307 102.947 13.5061 103.049 14 103.039C14.1241 103.038 14.2211 103.036 14.2607 103.03C14.3024 103.024 14.1817 103.019 14 103.014C13.6576 103.009 13.1232 102.976 12.9552 102.965ZM85.737 0.962331C85.8509 0.96208 85.9639 0.961822 86.0757 0.961599C85.9918 0.962877 85.8815 0.963294 85.737 0.962331ZM102.909 68.3899C103.02 66.4913 102.935 66.6907 102.935 66.5257C102.936 66.1692 102.966 65.3407 102.961 64.6688C102.974 65.4383 102.986 66.2078 102.999 66.9773C103.007 66.3695 103.047 61.0889 103.029 60.9782C103.004 60.8197 103.012 62.4813 103.01 62.5297C103.006 62.5994 102.935 62.859 102.933 63.0131C102.928 63.2667 102.927 67.6822 102.909 68.3899ZM102.999 37.1397C103.007 36.706 103.036 36.5827 103.029 36.3813C103.027 36.3126 103 36.3016 102.993 36.0672C102.995 36.4247 102.997 36.7822 102.999 37.1397ZM103.009 71.7896C102.976 72.327 102.988 69.9173 102.992 69.8401C103.014 69.4279 103.036 71.3504 103.009 71.7896ZM103.004 51.3421C103.002 51.43 102.992 53.2804 103.01 53.2655C103.024 52.776 103.028 50.3019 103.004 51.3421ZM102.991 35.7777C102.994 35.1276 103.021 33.8986 102.981 34.0395C102.981 34.0405 102.981 34.0415 102.981 34.0424C102.984 34.6209 102.988 35.1993 102.991 35.7777ZM101.291 96.3598C100.561 97.4366 100.981 96.975 101.547 95.9661C101.681 95.6417 101.409 96.1806 101.291 96.3598ZM98.6724 99.5623C98.5383 99.6819 97.7695 100.354 97.0086 100.843C96.2548 101.342 95.5394 101.681 95.8037 101.573C96.0134 101.533 97.8071 100.357 97.8609 100.264C97.979 100.172 97.4716 100.635 98.3562 99.9091C98.2995 99.9446 98.7685 99.484 98.6724 99.5623ZM100.69 97.2512C99.9068 98.2724 99.7622 98.5312 100.369 97.7716C100.598 97.4686 100.798 97.1021 100.69 97.2512ZM102.697 92.4214C102.613 92.8787 102.292 94.0728 101.984 94.8693C102.417 93.8133 102.707 92.6982 102.846 91.5655C102.846 91.4331 102.784 92.0238 102.696 92.4244C102.697 92.4234 102.697 92.4224 102.697 92.4214ZM1.21173 88.6022C1.23733 87.6509 1.24713 89.8425 1.24085 89.9352C1.21997 90.2104 1.2003 89.0275 1.21173 88.6022ZM6.15304 99.3237C5.95593 99.1407 5.84135 99.0068 5.40932 98.6059C5.8115 99.0424 6.24661 99.4508 6.71083 99.8266C7.11708 100.055 6.3644 99.5289 6.15304 99.3237ZM4.72304 97.5784C4.78082 97.6376 4.54358 97.2503 5.20262 98.0849C5.43836 98.3578 4.85104 97.8097 4.26997 97.0195C3.67713 96.2375 3.15691 95.1934 3.03908 94.8603C3.34378 95.582 4.23875 97.0531 4.72304 97.5784ZM2.47143 91.3004C2.45445 91.2598 2.70156 92.678 2.76093 92.8353C2.94194 93.6951 2.40773 91.549 2.47143 91.3004ZM3.85068 95.6571C3.53732 95.0573 4.27008 96.3644 4.54387 96.7189C4.54465 96.7715 3.88553 95.7582 3.85068 95.6571ZM2.4763 78.969C2.53565 78.2124 2.4079 77.5357 2.43364 78.6998C2.43485 78.7553 2.4734 79.0012 2.4763 78.969ZM2.79794 92.6674C2.93825 93.3241 2.5756 91.8794 2.55739 91.4324C2.5551 91.3918 2.76072 92.5704 2.79794 92.6674ZM2.61767 78.4364C2.66037 77.4316 2.51705 77.7854 2.51128 77.911C2.48847 78.4282 2.54472 80.2016 2.55871 80.5639C2.5372 77.9095 2.59755 78.9095 2.61767 78.4364ZM2.5316 73.8021C2.51632 72.87 2.48707 75.2522 2.52703 75.7068C2.52511 75.2435 2.53602 74.0672 2.5316 73.8021ZM2.57757 68.1446C2.5827 67.6434 2.59499 66.1528 2.57244 65.9027C2.57652 66.4499 2.55436 67.9331 2.57757 68.1446ZM2.64513 67.0099C2.67577 66.2265 2.5865 66.0386 2.61309 66.9419C2.61412 66.977 2.64343 67.0387 2.64513 67.0099ZM2.67736 62.6058C2.71287 62.0918 2.62641 61.5051 2.62408 62.338C2.62354 62.5854 2.67329 62.6602 2.67736 62.6058ZM2.77185 77.1787C2.78709 76.4427 2.72518 75.4945 2.71838 77.0658C2.70892 76.5139 2.69946 75.962 2.69 75.4101C2.65529 77.4682 2.74116 77.3171 2.73761 77.9081C2.73256 78.7339 2.66171 78.6688 2.63946 78.5029C2.68287 79.18 2.68356 82.0566 2.69183 83.719C2.71005 82.2579 2.74163 79.8869 2.75317 78.4451C2.75651 78.0334 2.73708 77.6339 2.73925 77.2829C2.74284 76.7201 2.77082 77.2199 2.77185 77.1816C2.77185 77.1806 2.77185 77.1796 2.77185 77.1787ZM2.67864 56.8165C2.71886 55.3059 2.63203 56.2612 2.64751 57.1147C2.64871 57.1512 2.67766 56.8541 2.67864 56.8165ZM2.77604 90.7519C2.83341 91.6966 2.86069 91.8267 2.92059 92.2098C3.01367 92.5818 3.04397 93.2681 3.9305 95.045C3.18695 93.5529 3.85076 94.9809 3.69766 94.6932C3.56338 94.4656 3.23264 93.5391 3.40317 94.0862C3.03399 93.4039 2.56613 90.1684 2.67792 90.0145C2.67792 90.0159 2.67792 90.0173 2.67793 90.0186C2.6843 89.9309 2.75141 90.1499 2.77604 90.7519ZM2.80463 68.1373C2.90998 67.6335 2.74276 67.4359 2.83008 66.4454C2.70328 65.1267 2.83006 70.0882 2.72296 70.6889C2.7354 65.3007 2.61683 74.2489 2.77716 70.4878C2.71897 73.5863 2.79701 71.5031 2.81744 71.9814C2.8392 72.4931 2.81555 74.2457 2.8548 74.1567C2.8548 74.1557 2.8548 74.1548 2.8548 74.1538C2.85205 73.0818 2.8493 72.0099 2.84656 70.9379C2.7619 71.9871 2.78729 69.7965 2.85626 69.0535C2.83905 68.7481 2.82184 68.4427 2.80463 68.1373ZM2.72515 74.2044C2.72709 74.0988 2.71523 71.7672 2.69824 71.9177C2.6874 72.2291 2.70039 75.5382 2.72515 74.2044ZM2.74365 84.4658C2.74386 83.6287 2.76037 82.3342 2.72845 81.8781C2.72824 82.7154 2.71171 84.0101 2.74365 84.4658ZM2.74969 41.3579C2.7235 40.2907 2.71574 43.5762 2.74676 42.6257C2.74822 42.5789 2.75091 41.4103 2.74969 41.3579ZM2.78869 65.7102C2.82089 64.6253 2.71841 65.138 2.74511 65.9418C2.74669 65.9883 2.78723 65.7603 2.78869 65.7102ZM2.99247 92.2672C2.95626 92.3488 3.80507 94.9562 4.12404 95.3476C3.86909 95.1619 2.85689 92.2215 2.99247 92.2672ZM2.83759 85.9392C2.92787 84.2734 2.82359 82.013 2.82587 81.7652C2.82819 81.5187 2.86766 81.9053 2.86871 81.8491C2.87093 81.721 2.86762 79.096 2.86487 78.969C2.86273 78.8781 2.80726 79.353 2.78979 78.8112C2.82131 79.8681 2.80159 84.667 2.80774 84.9159C2.81265 85.1089 2.87089 83.6547 2.83759 85.9363C2.83759 85.9373 2.83759 85.9382 2.83759 85.9392ZM2.83795 81.1457C2.8147 81.8015 2.81179 79.9625 2.82037 79.5175C2.83957 78.5286 2.84071 81.0616 2.83795 81.1457ZM2.85938 76.7228C2.86459 76.5127 2.86933 74.6175 2.84345 74.4563C2.80987 75.3534 2.84723 77.1992 2.85938 76.7228ZM2.8559 55.6326C2.85258 55.1404 2.87247 53.7867 2.84985 53.7092C2.85315 54.2019 2.83328 55.5553 2.8559 55.6326ZM8.36975 99.4972C7.73391 99.0963 9.23164 99.9857 9.71325 100.157C9.72354 100.201 8.41268 99.5527 8.36975 99.4972ZM3.00495 65.5264C3.01183 65.235 2.99467 59.2889 2.98408 58.4549C2.96697 59.2707 2.96566 65.1635 2.974 65.4309C2.9765 65.509 3.00387 65.5636 3.00495 65.5264ZM3.01539 78.3857C3.04869 78.9309 3.00875 79.2866 3.00825 79.3554C3.00315 80.0295 3.01066 81.4277 2.97858 81.1211C2.99152 79.9314 2.94925 77.3004 3.01539 78.3857ZM3.0066 55.21C2.99424 53.191 2.95915 57.0691 2.99396 56.5604C2.99607 56.5276 3.0079 55.4188 3.0066 55.21ZM3.01466 66.1907C3.04157 66.636 3.01836 72.5839 3.01832 73.5387C2.96868 72.6834 3.00638 71.9941 3.00385 70.8453C3.00311 70.5353 2.98246 70.618 2.98243 70.5847C2.98147 70.0479 3.00532 70.4497 3.00568 70.1187C3.00585 69.9096 2.97674 65.564 3.01466 66.1907ZM3.03846 78.6969C3.05755 79.0294 3.06569 82.7432 3.06062 82.8926C3.02288 84.0103 3.03181 78.9855 3.03846 78.6969ZM3.05879 65.6451C3.11647 66.2846 3.07784 69.2385 3.04908 67.2169C3.04646 67.0238 3.07147 66.2062 3.05879 65.6451ZM3.06153 55.4257C3.06323 55.3263 3.07476 53.2216 3.0564 53.1838C3.04927 53.488 3.04287 56.5561 3.06153 55.4257ZM3.12361 56.5169C3.12317 56.4662 3.08782 56.9597 3.09229 55.9728C3.09272 55.8905 3.13249 55.7371 3.11793 54.4965C3.11493 54.2448 3.08862 53.8547 3.08698 53.8828C3.02457 55.1747 3.14411 59.0654 3.12361 56.5169ZM3.07069 78.7649C3.08748 78.5648 3.13731 79.0475 3.11207 79.4828C3.10117 79.6694 3.07127 79.3212 3.07069 78.7649ZM3.07765 48.7507C3.10787 49.9742 3.11358 46.1329 3.10585 45.9371C3.08702 46.0605 3.07469 48.6283 3.07765 48.7507ZM10.0345 100.055C10.0337 100.055 10.0328 100.054 10.032 100.054C10.8979 100.383 10.3524 100.206 10.392 100.224C12.2738 100.843 11.8028 100.569 12.1 100.645C12.7559 100.729 12.6405 100.815 13.7636 100.835C11.9105 100.764 13.5954 100.866 13.6482 100.881C13.8483 101.044 11.1744 100.615 10.3279 100.225C10.2024 100.191 11.0992 100.515 10.7818 100.423C9.69975 100.194 6.8589 98.4563 10.0345 100.055ZM3.11647 79.8185C3.146 80.2959 3.11735 83.9181 3.09303 82.9577C3.08913 82.8033 3.07342 79.1167 3.11647 79.8185ZM97.0759 5.78781C96.4658 5.29358 97.8202 6.50729 98.0314 6.77292C98.1589 6.88473 97.3595 5.99162 97.0759 5.78781ZM100.731 17.8312C100.736 18.8656 100.842 19.9561 100.826 18.6692C100.824 18.5324 100.745 17.7126 100.731 17.8312ZM44.7566 3.21461C45.8367 3.2527 45.7724 3.18194 44.9795 3.18294C44.6995 3.18328 44.7226 3.21341 44.7566 3.21461ZM85.9816 3.20546C86.0897 3.20793 87.3384 3.20341 87.2929 3.18715C86.8313 3.17739 85.2825 3.1885 85.9816 3.20546ZM44.4136 3.22469C45.054 3.21193 43.9517 3.16075 43.1689 3.21077C43.5665 3.20667 44.3477 3.22599 44.4136 3.22469ZM3.21516 63.4133C3.18611 62.8771 3.19489 61.3598 3.18989 60.4883C3.22754 60.3944 3.20834 62.7907 3.21516 63.4133ZM100.762 13.4962C100.83 14.375 100.749 12.4873 100.705 12.6651C100.713 12.6892 100.766 13.4609 100.762 13.4962ZM10.3969 3.84556C10.6949 3.73169 10.3611 3.82569 10.0252 3.95321C9.69023 4.07915 9.3574 4.23995 9.62006 4.14153C9.64371 4.12542 10.3624 3.8519 10.3969 3.84556ZM4.09534 9.72582C4.24555 9.25714 5.35148 7.50527 4.90262 8.17471C4.80588 8.26352 4.06564 9.6725 4.09534 9.72582ZM12.1586 100.628C11.9062 100.562 13.4045 100.77 13.6249 100.755C13.7128 100.774 12.485 100.756 12.1586 100.628ZM51.7717 3.22066C52.3305 3.21582 53.78 3.22501 54.0353 3.20473C53.3516 3.20893 51.5879 3.18025 51.7717 3.22066ZM99.8455 9.61894C100.141 10.3276 100.472 11.5876 100.441 11.2632C100.011 9.88357 100.515 11.4244 99.8455 9.61894ZM40.8141 3.26991C41.2623 3.27312 41.6057 3.22039 41.5551 3.21791C41.0695 3.19428 40.3688 3.2494 40.8141 3.26991ZM74.4451 3.22652C74.471 3.24905 75.9076 3.23882 75.7159 3.22432C75.653 3.21945 74.4242 3.20828 74.4451 3.22652ZM3.22798 44.5984C3.24855 43.94 3.26865 45.9504 3.24464 46.545C3.21005 46.8341 3.22562 44.6816 3.22798 44.5984ZM28.3861 3.25673C28.3193 3.29017 30.5648 3.27126 29.68 3.24355C29.4585 3.23661 28.4096 3.24555 28.3861 3.25673ZM8.02312 5.11964C8.58067 4.7418 7.63598 5.27258 6.84275 5.98421C6.04071 6.6852 5.41388 7.52949 5.9052 6.9692C5.92431 6.83643 7.88137 5.12652 8.02312 5.11964ZM3.34503 12.7399C3.38545 12.5106 3.44687 12.6358 3.35325 13.5856C3.34041 13.7112 3.3423 13.122 3.3309 13.224C3.32791 13.2484 3.29778 13.5872 3.29492 14C3.28976 14.7008 3.28463 15.58 3.28621 15.6451C3.28919 15.7609 3.3252 15.6245 3.32924 15.742C3.33376 15.8745 3.30212 17.3139 3.30178 18.0678C3.30118 19.4884 3.33116 19.6419 3.33126 19.7583C3.33146 20.0977 3.31017 20.6682 3.3102 21.3561C3.31044 24.8239 3.33585 30.1277 3.27229 32.8767C3.29782 30.4302 3.27074 28.099 3.26241 25.6647C3.32498 26.3777 3.2142 22.0836 3.28639 24.5952C3.27379 23.6643 3.26321 17.005 3.26672 14C3.26811 13.3453 3.32582 12.8904 3.34473 12.7424C3.34483 12.7416 3.34493 12.7407 3.34503 12.7399ZM100.699 21.914C100.661 21.2785 100.669 24.5392 100.714 24.8159C100.72 24.3854 100.703 21.9928 100.699 21.914ZM98.7903 8.06409C98.6216 7.85525 98.4721 7.64776 97.5414 6.60522C97.5405 6.60431 97.5396 6.6034 97.5387 6.60249C97.2576 6.30493 97.6002 6.62188 97.5518 6.56458C97.5438 6.5353 96.6251 5.63717 97.4104 6.35946C98.5428 7.52838 97.488 6.49783 98.0654 7.14116C98.1585 7.20091 99.1361 8.51445 99.0726 8.44451C99.0704 8.43394 98.7959 8.02415 98.7498 7.95664C98.5842 7.69655 98.6888 7.80581 98.6648 7.76962C98.6409 7.60217 96.831 5.72942 96.4952 5.53504C96.4478 5.49296 97.2945 6.10751 98.0085 6.91707C98.7383 7.71274 99.2967 8.6851 99.3316 8.75927C99.38 8.85326 99.3016 8.8459 99.3481 8.94425C99.4007 8.97948 100.113 10.5379 100.14 10.7654C100.158 10.8276 100.171 10.8751 100.18 10.9101C100.143 10.6501 100.522 12.1573 100.466 12.1188C100.465 12.0917 100.228 11.0524 100.206 11.0185C100.202 11.0023 100.198 10.9881 100.195 10.9749C100.215 11.0851 99.9781 10.2688 99.6394 9.56952C99.3101 8.86581 98.9129 8.27998 99.102 8.6194C98.5333 7.74659 99.2341 8.71142 98.7903 8.06409ZM95.0951 4.74168C95.1925 4.78764 95.2893 4.83511 95.3854 4.88406C93.9101 4.01692 91.9904 3.39208 90 3.3984C89.8546 3.39819 89.7091 3.39808 89.5637 3.39809C88.9588 3.39811 89.6547 3.43991 88.8617 3.42849C88.2265 3.41933 87.5236 3.38055 87.8689 3.37191C87.9532 3.36975 89.2464 3.39501 89.8937 3.39242C89.93 3.39227 89.9654 3.39211 90 3.39195C91.5832 3.43333 91.1739 3.43024 91.272 3.42295C91.3823 3.42492 92.4331 3.61859 92.9871 3.79611C94.3682 4.24631 95.0427 4.46739 96.6238 5.69167C95.685 5.02288 96.1829 5.40929 95.0951 4.74168ZM18.9019 3.35817C18.8233 3.38074 17.4691 3.36072 16.977 3.36403C17.0544 3.34141 18.4097 3.36149 18.9019 3.35817ZM72.9923 100.613C72.5763 100.65 75.694 100.659 74.8724 100.628C74.6906 100.621 73.384 100.613 72.9923 100.613ZM86.9979 100.635C87.4149 100.625 85.7356 100.598 85.7387 100.627C85.7412 100.636 86.9442 100.636 86.9979 100.635ZM69.2884 3.39809C69.2095 3.39925 68.0623 3.391 68.0263 3.38912C67.2663 3.3498 71.0423 3.37253 69.2884 3.39809ZM99.7477 94.1455C99.4945 94.7353 99.7877 94.1592 100.008 93.5382C100.232 92.9181 100.372 92.2602 100.212 92.8288C100.213 92.8905 99.7884 94.0957 99.7477 94.1455ZM100.583 88.7447C100.583 88.9428 100.58 89.5279 100.579 90C100.578 90.3192 100.563 90.5752 100.567 90.5841C100.574 90.595 100.598 90.3301 100.6 90C100.604 89.4872 100.601 88.8469 100.583 88.7447ZM40.5116 3.40981C40.6796 3.45154 38.6391 3.41994 37.9296 3.42519C37.7612 3.38344 39.8025 3.41508 40.5116 3.40981ZM53.3912 3.44057C44.7889 3.47347 46.6853 3.38432 53.9035 3.42025C53.9139 3.44702 53.9341 3.4385 53.3912 3.44057ZM42.3758 3.43563C42.6884 3.4089 43.6653 3.41683 44.3253 3.41897C44.2066 3.43755 42.8519 3.43083 42.3758 3.43563ZM69.28 100.555C69.8195 100.521 72.2086 100.563 71.7838 100.577C71.685 100.58 69.0819 100.574 69.28 100.555ZM68.5676 3.4338C68.768 3.47438 66.1848 3.45783 65.9871 3.44881C65.1899 3.41257 68.3585 3.44276 68.5676 3.4338ZM28.3022 3.44552C27.846 3.4773 26.5505 3.46096 25.7173 3.46053C26.0967 3.43335 27.5952 3.44495 28.3022 3.44552ZM34.3172 3.47042C34.2649 3.47164 33.1028 3.46877 33.0508 3.46731C32.0986 3.43626 35.386 3.44421 34.3172 3.47042ZM9.01611 99.2447C9.04301 99.266 9.73347 99.6064 9.76048 99.6121C10.0709 99.7613 9.69138 99.6136 9.33961 99.4374C8.9872 99.262 8.66309 99.063 9.01611 99.2447Z" fill="#6E7171"/>
</svg>
