<svg width="104" height="104" viewBox="0 0 104 104" fill="none" xmlns="http://www.w3.org/2000/svg">
<path d="M100.524 43.3565C100.528 43.5912 100.519 44.5355 100.52 44.9442C100.48 44.4808 100.51 42.5097 100.524 43.3565ZM103.446 85.2849C103.436 84.9457 103.426 84.6066 103.416 84.2674C103.41 85.2312 103.417 86.5267 103.408 87.4211C103.406 87.5674 103.377 87.1879 103.376 87.534C103.375 87.8803 103.414 87.8135 103.418 88.317C103.421 88.5747 103.416 89.2532 103.41 90C103.412 90.9943 103.251 92.0891 103.14 92.621C102.432 96.3024 100.069 99.658 96.8187 101.543C99.9825 99.3204 96.8329 101.626 95.817 102.029C95.5754 102.04 95.7723 102.528 91.9456 103.276C90.2782 103.462 90.7861 103.331 90 103.342C89.6665 103.335 89.0732 103.336 87.8917 103.353C90.7268 103.426 87.9388 103.421 85.7164 103.423C85.3332 103.424 82.239 103.413 80.8722 103.416C80.4046 103.417 79.6921 103.455 79.0718 103.456C78.6449 103.457 78.322 103.436 77.6882 103.437C74.7331 103.442 71.8271 103.443 68.8669 103.436C70.5967 103.338 67.509 103.394 67.3703 103.39C66.6651 103.363 69.8548 103.355 68.5933 103.339C66.8305 103.342 65.0677 103.345 63.3049 103.348C64.7516 103.36 61.3895 103.431 60.7706 103.398C61.0431 103.486 52.7362 103.323 51.4717 103.352C51.2084 103.358 52.9323 103.401 48.9331 103.381C48.5 103.379 48.6639 103.353 48.4367 103.355C48.3007 103.357 47.4773 103.44 46.6001 103.394C46.2797 103.377 48.3292 103.322 43.8285 103.344C45.6209 103.429 37.5879 103.39 36.11 103.369C36.4053 103.381 36.7005 103.392 36.9958 103.403C35.5348 103.373 35.2711 103.401 34.942 103.4C33.6157 103.394 31.7922 103.364 30.5567 103.367C29.1109 103.37 29.106 103.423 27.4204 103.402C27.8203 103.414 28.2203 103.426 28.6202 103.437C27.4561 103.435 26.292 103.432 25.1279 103.429C27.8236 103.359 24.5463 103.426 24.3304 103.427C23.986 103.43 24.4808 103.401 23.9049 103.405C23.8453 103.405 23.9314 103.432 23.0437 103.435C21.189 103.441 21.4822 103.408 20.7035 103.408C20.6321 103.408 20.8819 103.432 19.5369 103.438C15.2622 103.456 19.5582 103.42 19.7222 103.416C19.9376 103.412 18.4719 103.31 22.103 103.346C20.8838 103.335 20.7611 103.29 20.6239 103.289C20.5023 103.288 18.3899 103.294 18.2734 103.296C17.235 103.311 18.1487 103.342 17.9463 103.347C17.7808 103.352 15.2358 103.312 14.6393 103.404C13.4215 103.319 15.3399 103.327 17.3819 103.313C17.6798 103.296 15.4374 103.279 15.3195 103.279C14.6898 103.279 14.2731 103.282 14 103.288C12.9123 103.287 13.8769 103.362 13.3271 103.377C12.953 103.394 11.6503 103.193 12.8529 103.384C9.94146 102.992 11.716 103.186 11.5259 103.169C11.245 103.12 10.2442 102.885 10.1246 102.836C9.94577 102.777 10.5773 102.949 9.87068 102.722C9.7539 102.685 8.60705 102.33 10.0674 102.841C8.11145 102.17 8.28976 102.167 7.68919 101.811C6.39048 101.215 6.84047 101.223 6.38112 100.915C5.20311 100.026 5.50387 100.331 5.43362 100.294C4.88748 100.082 2.25577 96.8778 1.94694 95.868C2.11671 96.2368 3.6398 98.6591 4.15261 99.0713C4.90973 99.8212 4.37392 99.2926 3.8487 98.6615C3.32245 98.0293 2.84422 97.2761 3.32295 97.8777C2.92159 97.3745 2.55588 96.8411 2.22978 96.2815C1.7875 95.1815 2.35912 96.7565 1.26479 93.7744C1.17045 93.5307 1.31974 94.0746 1.51757 94.5964C1.71207 95.1207 1.95259 95.6198 1.82018 95.3744C1.6336 95.0965 1.05391 93.3365 1.06163 93.295C1.01582 93.2707 1.54456 94.8604 1.45047 94.6138C0.939606 94.1411 0.296813 88.0404 0.919156 92.6501C0.705181 91.5421 0.733656 90.8818 0.724503 90C0.724391 89.8801 0.722688 89.7555 0.718916 89.6239C0.711889 89.3796 0.689546 89.7405 0.665554 90C0.646179 90.2473 0.626692 90.4134 0.60889 90C0.595136 89.6463 0.588113 88.8194 0.595315 87.1316C0.639196 87.0141 0.608273 89.3364 0.611612 89.3966C0.616473 89.4814 0.715494 89.0612 0.720381 88.9885C0.736473 88.7314 0.68345 83.0997 0.733199 81.9097C0.675969 82.3808 0.722987 77.6542 0.705549 77.1394C0.700735 77.0024 0.665679 77.5146 0.661968 77.3681C0.639884 76.4541 0.702463 73.982 0.704084 72.8351C0.705921 71.5517 0.675644 71.7143 0.675702 71.6426C0.677391 71.0778 0.697916 71.529 0.697858 71.1838C0.69776 70.6623 0.701958 67.0782 0.697675 66.8983C0.696341 66.8456 0.661754 67.4307 0.655193 66.6494C0.654056 66.514 0.695063 66.5998 0.67735 64.2859C0.656046 61.4992 0.626356 66.221 0.583413 65.0631C0.644557 63.2731 0.583966 63.3312 0.588723 62.8458C0.590456 62.6777 0.641972 61.4269 0.638713 60.0685C0.647075 61.0435 0.655437 62.0185 0.663799 62.9935C0.672832 62.035 0.661652 60.1736 0.671856 59.3839C0.676824 58.9987 0.719144 59.3161 0.718001 58.4793C0.717528 58.3017 0.614423 57.597 0.660687 59.7891C0.623871 59.9644 0.647845 58.9212 0.637431 58.4373C0.635809 58.3641 0.574304 58.0755 0.612528 57.4575C0.621932 57.3092 0.801346 58.9246 0.67149 54.7583C0.667305 54.6241 0.644836 55.0906 0.640178 54.9595C0.637024 54.8698 0.646112 53.8062 0.642925 53.6887C0.639504 53.5685 0.614974 54.0822 0.610148 53.9391C0.585276 53.2056 0.682565 52.2426 0.675152 53.7553C0.687177 53.2497 0.699201 52.7441 0.711226 52.2385C0.637902 52.7797 0.690595 51.4444 0.688337 50.7449C0.673905 46.2615 0.626215 49.2637 0.601541 48.4929C0.561924 47.2531 0.687404 48.2 0.6497 46.3596C0.646175 46.1893 0.592911 48.4141 0.622965 44.07C0.625041 44.7111 0.627116 45.3523 0.629191 45.9934C0.700112 45.6237 0.624326 43.6782 0.623332 43.5287C0.613594 41.8228 0.639161 42.976 0.60264 40.443C0.599361 40.2167 0.616864 39.724 0.608133 39.2403C0.572164 37.2351 0.586307 41.8862 0.557594 42.0133C0.543525 42.0736 0.547068 37.0717 0.553749 36.9C0.583362 36.1709 0.566792 39.1674 0.603555 38.5962C0.616609 38.3878 0.589799 31.2588 0.604105 29.8285C0.620752 28.178 0.716908 27.435 0.608866 27.4245C0.714918 26.9587 0.642561 26.5473 0.643291 26.3361C0.653108 23.7839 0.654178 23.7791 0.644023 21.5904C0.641816 21.1071 0.673994 20.699 0.66856 20.5281C0.665279 20.4286 0.630843 20.6146 0.620219 20.1272C0.605684 19.4502 0.641102 15.3814 0.660137 15.079C0.679173 14.7766 0.668392 16.7972 0.699689 16.4351C0.70147 15.6121 0.699796 14.8081 0.69858 14C0.697723 13.3039 0.750168 12.6053 0.863283 11.9009C0.979388 11.2319 0.942537 11.5804 0.99855 11.2934C0.973492 11.158 1.65924 8.92062 1.65745 9.02343C1.50906 9.13221 0.55324 12.4146 0.674524 14C0.669997 14.6673 0.66294 14.9667 0.650615 14.4147C0.648591 14.3242 0.650889 14.171 0.654045 14C0.658364 13.4927 0.725111 12.8517 0.669369 12.9978C1.0475 6.42965 6.921 0.795665 13.4764 0.684169C9.75888 0.807078 5.68287 2.81777 3.37049 5.97701C3.01878 6.38227 2.1081 7.94198 2.25579 7.77169C3.74006 4.79588 7.14076 2.05628 10.2352 1.26252C10.3325 1.23456 9.98415 1.36616 10.3489 1.26381C11.0194 1.01972 13.3099 0.679361 13.702 0.732091C13.767 0.719578 12.4616 0.84413 12.8614 0.840076C13.3775 0.827664 13.6934 0.804179 14 0.777241C14.272 0.75184 14.5293 0.719601 14.9249 0.720381C15.5418 0.721654 19.6874 0.785832 20.7199 0.745284C21.8178 0.702066 17.6647 0.720194 17.9715 0.684857C20.7815 0.649346 23.6268 0.687267 26.2819 0.682843C26.3287 0.68273 25.9225 0.655039 26.5149 0.651165C27.5459 0.644422 27.8165 0.683701 28.3183 0.689985C28.8594 0.696674 30.7732 0.691045 31.0291 0.705366C31.0617 0.707244 30.674 0.746203 30.6151 0.747299C29.7815 0.763356 29.4854 0.71279 29.4095 0.712141C29.1246 0.710224 28.8445 0.729592 28.5846 0.728438C28.1565 0.726515 27.9208 0.708596 27.3558 0.707014C26.966 0.705856 27.3422 0.740266 26.9665 0.738692C26.8286 0.737976 25.3409 0.659403 25.2022 0.739608C25.1592 0.764896 37.3246 0.797371 38.5406 0.777146C37.4976 0.767502 36.4545 0.757858 35.4115 0.748214C37.5296 0.77169 40.074 0.707605 40.2542 0.802416C48.1087 0.810167 55.9632 0.817919 63.8178 0.825671C65.2202 0.833748 64.4512 0.894674 66.7587 0.876942C66.1624 0.857532 65.5661 0.838122 64.9698 0.818713C66.1524 0.832329 71.393 0.858931 72.2411 0.846363C72.3509 0.844715 72.5034 0.789574 73.8128 0.784837C74.9748 0.780654 75.1614 0.821968 75.7826 0.829882C76.3042 0.836412 76.8899 0.825587 77.0447 0.827868C77.1635 0.829694 77.2105 0.854958 77.4962 0.859364C78.3985 0.872984 77.6672 0.801851 78.5629 0.883534C78.3448 0.886647 78.1268 0.88976 77.9087 0.892873C78.9976 0.904696 80.4853 0.941779 78.8813 0.960075C78.6055 0.963234 78.8424 0.938792 78.6367 0.938834C70.5828 0.943376 77.0141 0.990889 79.8365 0.952934C80.5614 0.98915 84.6238 0.967038 84.7588 0.974175C84.9465 0.984512 84.2513 1.01346 85.1626 1.03845C85.3543 1.04374 90.7859 1.02346 88.8301 1.07159C88.4265 1.08152 85.8223 1.07109 85.1944 1.07251C86.3897 1.13462 88.885 1.07446 90 1.05074C90.2849 1.04524 90.4851 1.05041 90.5649 1.05422C91.4367 1.11437 90.5462 1.06081 90 1.08247C89.6605 1.09367 89.4644 1.10452 90 1.1114C90.2337 1.11488 90.5914 1.11963 91.1197 1.16559C94.0109 1.57578 91.3061 1.11852 92.4214 1.27745C93.0863 1.2676 96.1562 2.55323 96.0718 2.52762C97.0744 3.0774 96.4687 2.78738 96.5911 2.85763C96.7303 2.89324 98.578 4.17638 99.0518 4.74169C99.1136 4.80444 98.8881 4.63858 98.9513 4.7042C99.1084 4.79922 100.513 6.43476 100.531 6.53048C100.567 6.57321 100.289 6.13865 100.421 6.30421C100.613 6.47311 101.669 8.26999 101.691 8.38921C101.823 8.50241 100.498 6.29599 100.734 6.65204C101.432 7.62004 102.244 9.39271 102.475 10.149C102.421 9.96194 102.021 8.87695 101.84 8.51629C102.025 8.64271 102.805 11.0155 102.5 10.2171C102.673 10.7295 102.583 10.3713 102.684 10.6606C102.716 10.735 102.887 11.4883 102.917 11.6335C102.928 11.6517 102.781 10.867 102.825 11.0209C102.964 11.2891 103.227 13.6295 103.172 13.822C103.179 14.3605 103.087 12.4546 103.009 12.3016C103.025 12.2801 103.092 13.8945 103.065 13.9197C103.049 14.0119 102.959 12.2248 102.921 12.4332C102.966 12.8742 102.988 13.3164 102.988 13.757C103.027 12.0355 102.089 8.987 101.614 8.31567C102.796 10.5712 102.929 13.2802 102.818 13.2624C102.787 13.2604 102.656 12.1963 102.642 12.2406C102.648 12.4002 102.785 13.876 102.763 13.9339C102.761 13.9793 102.759 14 102.756 14C102.756 14 102.756 14 102.756 14C102.774 13.9952 102.589 11.8925 102.517 11.7951C102.474 11.624 102.542 12.5595 102.517 12.56C102.53 12.5238 102.25 11.0635 102.312 11.5624C102.402 12.0636 102.516 13.3523 102.502 13.3999C102.535 13.6428 102.263 11.3974 102.189 11.3428C102.189 11.3084 102.361 12.506 102.341 12.5437C102.342 12.5734 102.193 11.6675 102.077 11.3241C102 11.0665 102.145 11.8338 102.112 11.7001C102.135 11.5937 101.551 9.56639 101.467 9.48534C101.406 9.34358 101.559 9.81332 101.527 9.74868C101.487 9.65413 101.237 9.02463 101.26 9.11031C101.346 9.15485 102.024 11.6872 101.933 11.6862C101.927 11.6538 101.293 8.98426 101.784 11.4916C101.791 11.509 101.913 12.1145 101.911 12.1333C101.934 12.5136 101.615 10.5662 101.943 12.9569C101.122 8.55358 101.839 12.411 101.65 11.7699C101.61 11.5162 101.111 9.87253 101.078 9.87601C101.108 10.0422 101.305 10.5527 101.337 10.7363C101.376 10.8296 100.836 9.39892 100.926 9.73318C101.008 9.89348 101.467 11.4426 101.453 11.5154C101.56 12.1455 101.381 11.3832 101.393 11.524C101.413 11.6155 101.568 12.5713 101.56 12.5981C101.576 12.6361 101.318 11.3464 101.215 11.0927C101.156 10.8947 101.321 11.6528 101.281 11.514C101.092 10.6642 100.496 8.91725 100.987 10.6267C101.017 10.7299 101.19 11.3777 101.189 11.398C101.257 11.8061 100.964 10.6106 100.854 10.4149C100.706 10.0687 101.243 11.742 100.784 10.3545C101.09 11.4055 101.231 12.0036 101.339 13.2802C101.211 11.5038 100.721 10.382 100.614 10.1483C100.466 9.91985 100.82 10.5182 101.127 12.4414C100.931 11.2189 100.856 11.3764 100.771 11.0194C100.745 10.7894 100.146 9.1043 100.321 9.91536C100.355 10.0121 100.709 11.0276 100.571 10.7179C99.6853 8.29947 100.561 10.6638 100.53 10.6763C100.487 10.6765 100.035 9.14431 99.0481 7.74189C98.1 6.31177 96.6289 5.15726 96.1741 4.87625C95.1321 4.1744 94.0644 3.83328 93.8141 3.74195C92.9768 3.44868 93.6827 3.65978 93.4989 3.58365C93.3272 3.43463 90.8247 3.02311 90.6933 3.08324C90.2046 3.04393 90.7029 3.03089 90.6528 3.02685C90.5313 3.0152 90.303 3.00068 90 2.99945C88.6764 2.99474 86.1205 3.01257 85.2856 3.00544C85.3178 3.03026 87.4089 3.03223 86.1033 3.07209C84.5831 3.11857 84.4961 3.00916 84.4563 3.00434C77.4909 3.00538 70.5255 3.00642 63.5601 3.00746C63.6469 3.06567 68.2008 3.02177 68.3044 3.02943C68.9127 3.0748 61.2199 3.07397 60.2762 3.05342C60.9931 3.06599 61.71 3.07856 62.4269 3.09114C61.2028 3.15806 58.4937 3.07111 56.7231 3.10066C56.1511 3.11024 57.2495 3.13607 57.2267 3.13783C56.5838 3.16382 55.5524 3.1438 56.3236 3.1089C54.7542 3.14234 54.9835 3.10544 53.7793 3.10267C53.7172 3.10256 54.2342 3.12956 53.2814 3.14076C52.8349 3.14599 50.4537 3.14607 50.1349 3.16969C50.0038 3.17964 51.2117 3.28437 51.3608 3.19423C53.9507 3.23817 52.1883 3.15316 53.1945 3.15523C53.3488 3.1557 52.9938 3.20601 55.5276 3.18233C55.045 3.27306 52.1273 3.20521 51.6271 3.2162C50.5957 3.23879 54.8462 3.28565 55.626 3.21492C55.2616 3.28572 55.9275 3.22446 56.875 3.22737C57.9121 3.23053 57.4601 3.25161 58.0213 3.25173C59.5561 3.25225 58.9198 3.20228 60.185 3.24733C58.9515 3.10785 62.351 3.22893 63.3416 3.26546C61.7298 3.27254 60.118 3.27962 58.5061 3.2867C58.5983 3.29403 58.6904 3.30135 58.7826 3.30868C58.358 3.30764 57.9335 3.3066 57.509 3.30556C57.577 3.29854 57.645 3.29152 57.713 3.2845C55.5239 3.33014 54.9897 3.27885 54.8112 3.27828C52.5132 3.27233 49.859 3.27277 47.5356 3.2726C47.187 3.27258 47.4262 3.31823 44.8856 3.28249C44.0752 3.27111 44.8403 3.23559 43.9217 3.24092C42.7726 3.33743 42.7943 3.26046 42.4526 3.26033C41.4723 3.26035 40.8731 3.28425 40.7825 3.2845C39.5712 3.28823 37.7971 3.28424 36.4666 3.2878C36.4417 3.28816 37.134 3.31781 36.2698 3.30904C35.9662 3.30591 33.2439 3.17934 30.8641 3.2206C31.483 3.22914 32.102 3.23769 32.721 3.24623C31.9931 3.23429 26.8932 3.26619 28.1403 3.30007C28.9046 3.32078 30.7708 3.2392 30.9755 3.31765C29.2784 3.29417 19.9054 3.32928 19.1756 3.31106C19.0747 3.30845 19.6957 3.283 19.5563 3.27974C19.4484 3.27726 17.3013 3.28329 17.0163 3.27352C16.8466 3.26771 17.7953 3.25211 17.7182 3.24294C17.6507 3.2364 14.9694 3.2255 14.8164 3.2574C15.4748 3.2446 17.3254 3.25578 16.3548 3.28267C16.23 3.28601 15.5831 3.26543 15.4315 3.26967C14.0242 3.30876 18.2296 3.29938 18.8804 3.2997C17.5232 3.32059 15.7848 3.31809 14 3.31432C12.4901 3.30314 10.9583 3.65116 9.75196 4.1967C8.72507 4.60093 11.2568 3.5551 10.086 3.99117C7.70608 5.0354 9.47103 4.30228 9.39553 4.33431C8.79881 4.57372 6.92569 5.75152 7.02251 5.87308C6.31975 6.49525 6.49984 6.25285 5.64604 7.27025C5.7616 7.13906 5.88041 7.01061 6.00201 6.88541C4.95442 7.94791 3.61081 10.7896 3.7352 10.5907C3.86994 9.96229 4.66478 8.52065 4.75822 8.41619C4.88999 8.26862 4.96664 7.58093 6.66722 6.05799C6.98927 5.72033 6.29512 6.29871 5.79345 6.87354C5.29198 7.44571 4.9261 7.95059 5.5382 7.11223C4.56095 7.93287 2.79254 12.2373 3.07019 14C3.07191 14.2724 3.0747 14.4776 3.07887 14.5941C3.08313 14.703 3.15724 14.1958 3.11952 15.7621C3.10156 16.5057 3.1007 14.7127 3.08381 15.0529C3.032 16.0999 3.06514 30.3395 3.06788 33.0444C3.06796 33.2199 3.04497 33.1555 3.04518 33.3281C3.04582 33.858 3.08012 35.7894 3.06953 36.7379C3.1121 34.7727 3.11541 38.5893 3.11073 39.5602C3.1036 41.0337 3.06312 40.9426 3.05452 41.5791C3.02134 44.0327 3.11743 47.8344 3.0276 49.7405C3.11676 49.6362 2.98388 53.0374 2.9831 54.5846C2.98246 55.7965 3.04146 57.5549 3.0774 55.919C3.0733 58.0111 3.08993 60.2133 3.09535 62.1757C3.09626 62.5001 3.06989 62.0535 3.07228 62.607C3.07268 62.6573 3.09852 62.7266 3.10121 63.2019C3.12373 67.1253 3.06882 65.2162 3.05268 65.9503C3.04365 66.3611 3.03915 66.6642 3.03767 66.8867C3.03262 64.5999 3.02247 61.9621 3.02174 61.2567C2.96468 61.8584 3.0327 66.3253 3.01734 67.6335C3.01679 67.6789 2.98534 67.5209 2.98512 67.5669C2.98512 67.5679 2.98512 67.5689 2.98512 67.5698C2.98271 68.0601 2.99431 71.1825 3.03181 70.5397C3.04183 70.3672 3.04181 68.93 3.0384 67.2254C3.04544 67.6867 3.08066 67.3423 3.08217 67.4237C3.09958 68.4109 3.0652 70.8295 3.06056 71.6874C3.05954 71.8835 3.08211 71.8695 3.08217 71.9016C3.07704 72.6819 3.01259 72.3618 3.07905 73.1622C2.99873 74.5753 3.06713 70.514 3.01496 70.8002C2.9748 71.0201 2.99637 80.0407 3.05964 80.0138C3.05288 80.0449 3.04448 80.1689 3.03492 80.4233C3.01369 80.9875 3.02033 83.4983 3.03199 83.9316C3.03429 84.0047 3.0957 83.9755 3.09626 84.0662C3.09768 84.293 3.04953 87.3618 3.08583 88.508C3.09443 87.889 3.10304 87.2701 3.11165 86.6511C3.11218 90.389 3.13046 89.8113 3.14882 88.5659C3.14898 88.5036 3.15131 88.443 3.15156 88.3835C3.16514 87.4182 3.17822 86.1807 3.18306 86.1619C3.19429 86.1189 3.2025 88.4429 3.19443 90C3.19155 90.9086 3.28613 91.5239 3.20947 91.096C3.19817 91.0303 3.1512 90.4855 3.15538 90C3.15663 89.3145 3.15464 88.745 3.13179 89.5616C3.13002 89.6247 3.12941 89.7883 3.12941 90C3.11632 90.5842 3.23851 91.5605 3.25233 91.6252C3.29037 91.9677 3.08148 90.9077 3.07227 90C3.05574 89.2621 3.03817 88.6347 3.02009 88.8496C3.03438 89.2037 3.04094 89.5934 3.04391 90C3.04805 90.6774 3.10967 91.4046 3.24397 92.0659C3.3405 92.5317 3.40671 92.6354 3.41988 92.692C3.65868 93.5326 3.49923 93.0676 3.58375 93.3478C3.59952 93.5122 4.34971 95.0607 4.14087 94.801C5.53334 97.2928 6.05654 97.3993 5.52309 96.8575C5.04236 96.2858 3.96906 94.6825 3.51717 92.9942C3.79981 94.06 4.79717 95.9838 5.44376 96.7103C5.66348 96.9774 5.55253 96.8043 5.94094 97.2383C6.33346 97.6836 7.58057 98.9307 9.17775 99.7115C10.7542 100.533 12.5738 100.81 13.317 100.843C12.4018 100.776 12.6627 100.84 13.3737 100.89C14.0843 100.917 13.489 100.847 13.6277 100.848C13.6552 100.848 13.7911 100.853 14 100.854C15.0084 100.856 17.5383 100.87 18.0361 100.865C15.2719 100.881 15.8955 100.916 18.2416 100.919C17.9024 100.929 17.5633 100.939 17.2241 100.949C18.5992 100.935 21.4904 100.987 22.2854 100.972C22.41 100.969 21.962 100.94 22.0321 100.939C22.7293 100.927 25.1014 100.956 25.2118 100.946C25.3054 100.938 24.2936 100.914 24.6691 100.902C24.7475 100.9 25.723 100.939 26.6837 100.929C27.0402 100.925 26.8255 100.898 26.9153 100.897C27.6637 100.883 27.222 100.929 28.5898 100.922C29.5919 100.917 30.3383 100.872 31.7232 100.887C27.1761 100.829 30.9986 100.853 32.8999 100.836C33.2046 100.833 32.9434 100.783 34.764 100.808C30.8895 100.897 35.8687 100.855 36.8872 100.856C36.9431 100.856 36.9622 100.889 37.4618 100.889C37.5041 100.889 37.4433 100.867 37.9076 100.866C42.3108 100.85 39.4953 100.875 40.3318 100.896C40.688 100.906 42.8292 100.874 43.4059 100.874C43.5385 100.874 43.4775 100.897 43.9906 100.896C44.8983 100.894 45.7115 100.87 46.3106 100.868C46.3805 100.868 46.3834 100.904 47.5191 100.892C47.8384 100.889 48.1969 100.876 47.7434 100.865C46.2394 100.831 43.3865 100.89 41.6865 100.856C40.1363 100.825 45.0244 100.822 45.2787 100.822C45.372 100.822 44.4173 100.84 45.3872 100.843C46.2154 100.846 47.7292 100.784 48.9635 100.798C49.0576 100.799 50.0438 100.852 49.9984 100.855C49.9571 100.857 48.4425 100.868 48.6625 100.884C48.6887 100.886 49.6513 100.885 49.7769 100.897C49.9308 100.911 50.3456 101.047 50.5512 101.05C51.0787 101.059 50.7354 101.028 51.0766 101.03C51.8082 101.034 54.346 101.075 54.4285 101.028C54.0093 101.025 53.5901 101.022 53.1708 101.019C55.5034 101.014 54.5091 100.994 54.8396 100.985C55.1955 100.976 55.0953 101.017 55.8816 101.021C56.0527 101.022 59.3426 101.013 59.2828 100.996C57.4634 101.024 58.138 100.972 58.054 100.971C57.7353 100.968 57.3282 100.997 56.9005 100.996C53.8926 100.992 56.9261 100.946 56.216 100.934C55.9715 100.931 55.4846 100.955 55.3809 100.954C55.0439 100.95 55.0383 100.918 54.8135 100.92C54.2889 100.926 54.9014 100.972 54.8598 100.974C54.3911 101.003 52.5541 100.967 53.6977 100.918C53.0112 100.9 52.9307 100.96 52.3864 100.936C51.3041 100.888 52.9255 100.9 53.3648 100.893C54.9406 100.864 55.4081 100.887 57.6387 100.879C58.442 100.876 59.3935 100.847 59.7662 100.846C60.001 100.844 62.2178 100.946 62.2831 100.787C63.1448 100.802 64.4969 100.907 65.3846 100.903C66.1817 100.898 65.9283 100.842 66.0026 100.84C66.1166 100.836 67.0805 100.841 67.4065 100.833C67.7885 100.823 67.5978 100.802 68.204 100.793C69.7124 100.771 69.6728 100.829 69.8279 100.833C71.6277 100.876 70.8396 100.794 71.239 100.787C71.6104 100.781 76.8202 100.813 77.9169 100.792C77.4706 100.804 77.0243 100.815 76.5781 100.827C77.3767 100.863 78.2233 100.804 78.2382 100.868C78.4002 100.764 80.0486 100.834 80.5437 100.831C80.7388 100.83 80.7235 100.812 80.9678 100.812C81.9218 100.809 84.0729 100.823 84.5904 100.814C86.8283 100.775 81.1057 100.711 80.6552 100.707C81.557 100.708 86.6592 100.685 84.3139 100.635C83.9514 100.627 83.3091 100.673 83.1054 100.675C81.7273 100.687 82.8111 100.645 82.7031 100.642C82.5194 100.635 81.6124 100.675 81.373 100.671C81.2931 100.669 81.8074 100.631 80.4931 100.631C81.1395 100.594 84.8337 100.624 85.3184 100.615C85.491 100.612 84.4088 100.534 87.5704 100.61C87.5337 100.603 87.497 100.595 87.4604 100.588C88.3069 100.587 89.1535 100.585 90 100.584C90.8088 100.582 91.6145 100.49 92.3983 100.306C92.2383 100.363 91.3881 100.569 92.4641 100.335C93.0772 100.176 92.6133 100.256 92.6692 100.241C92.9201 100.184 95.6088 99.4698 97.5801 97.3759C99.6445 95.3666 100.427 92.3226 100.49 91.373C100.53 91.0714 100.573 90.5242 100.564 90C100.555 89.2989 100.546 88.6438 100.546 88.5572C100.543 87.6035 100.562 84.2262 100.558 83.5525C100.555 83.1318 100.524 83.5317 100.526 83.1559C100.527 82.8066 100.557 83.1685 100.559 83.0647C100.569 82.2053 100.53 75.6765 100.558 74.1262C100.55 75.0737 100.61 79.8021 100.631 79.707C100.634 79.6864 100.657 78.5373 100.646 78.3002C100.672 77.9086 100.593 76.5639 100.608 75.8325C100.61 75.7498 100.654 76.0756 100.663 74.7702C100.665 74.3206 100.631 73.1431 100.67 71.9581C100.651 70.2425 100.709 61.2228 100.661 60.604C100.658 60.5857 100.642 61.8558 100.622 60.9977C100.596 59.8569 100.684 60.8814 100.692 59.5518C100.693 59.3514 100.684 55.6523 100.678 55.5312C100.629 54.4108 100.609 57.6432 100.603 57.598C100.589 57.4852 100.58 54.7995 100.583 54.6903C100.587 54.5864 100.652 56.7768 100.628 54.1447C100.62 54.4462 100.612 54.7477 100.604 55.0493C100.589 53.8114 100.634 53.6934 100.637 53.3935C100.646 52.4613 100.577 51.4527 100.662 49.9591C100.684 49.5641 100.709 50.2198 100.713 50.1704C100.743 49.6959 100.662 49.0906 100.722 48.3772C100.727 48.3235 100.763 49.9838 100.763 47.0818C100.757 47.2816 100.752 47.4813 100.746 47.681C100.733 47.2718 100.725 44.3336 100.728 43.9383C100.737 42.7835 100.779 43.7906 100.774 42.6299C100.717 43.3743 100.709 39.8449 100.759 40.0479C100.697 39.555 100.744 36.5568 100.746 35.1474C100.747 34.2581 100.72 32.4441 100.723 32.1616C100.727 31.8174 100.769 31.922 100.778 31.3004C100.781 31.1232 100.75 29.273 100.794 27.6489C100.802 27.3341 100.873 26.6731 100.891 27.2581C100.922 28.2594 100.864 30.1537 100.906 30.1296C100.952 30.1012 100.925 27.5497 100.931 26.863C100.958 23.6925 101.006 25.5233 101.02 25.4417C101.056 25.2303 101.055 23.4979 101.058 23.4256C101.072 23.1261 101.1 24.3537 101.121 24.3722C101.149 24.3946 101.2 22.7247 101.209 23.1043C101.223 23.6477 101.181 25.1823 101.183 25.2796C101.21 26.5462 101.275 24.8101 101.306 24.3317C101.316 24.1866 101.332 24.7645 101.335 24.6443C101.379 22.8086 101.244 24.2573 101.253 23.0363C101.261 21.947 101.304 23.3486 101.306 23.307C101.309 23.2532 101.311 21.9507 101.326 21.7468C101.334 21.6463 101.416 25.0317 101.453 24.8903C101.445 23.8101 101.437 22.73 101.429 21.6498C101.477 21.5651 101.442 23.1188 101.447 23.2795C101.457 23.603 101.481 22.7009 101.496 22.7396C101.506 22.7604 101.541 23.8191 101.555 22.8626C101.56 22.5339 101.526 21.8441 101.561 20.6468C101.605 24.8134 101.632 21.926 101.65 21.8032C101.667 21.6829 101.707 23.6721 101.7 21.2576C101.794 21.1529 101.73 21.3096 101.746 21.9957C101.767 22.8362 101.798 20.8937 101.774 23.9655C101.818 23.7907 101.815 21.3217 101.819 21.191C101.822 21.0781 101.843 21.6269 101.851 21.4313C101.936 19.1166 101.897 20.7064 101.952 20.0361C101.956 19.9764 101.977 17.7888 101.984 19.4542C101.999 22.4885 101.936 23.7566 102.07 24.2665C102.128 22.0222 102.042 19.3028 102.04 18.6206C102.038 17.5763 102.065 18.6581 102.073 18.5294C102.076 18.4847 102.073 17.5848 102.075 17.5727C102.177 16.9311 102.077 21.5788 102.095 23.0421C102.11 22.6499 102.125 22.2577 102.141 21.8655C102.141 22.3976 102.142 22.9297 102.142 23.4618C102.173 20.9268 102.154 23.3725 102.237 24.0046C102.255 24.1465 102.223 22.4811 102.275 24.3809C102.287 22.9797 102.304 23.4266 102.28 22.1578C102.313 22.1906 102.351 25.0452 102.368 26.1712C102.405 22.1935 102.284 24.4618 102.348 21.0231C102.307 20.3855 102.315 22.0268 102.308 21.893C102.284 21.4128 102.322 20.287 102.237 18.9289C102.223 18.7077 102.18 19.6435 102.182 18.2588C102.183 18.1056 102.219 17.2233 102.222 17.2355C102.251 17.3525 102.24 18.2256 102.252 18.2617C102.263 18.2955 102.257 17.3214 102.26 17.318C102.296 17.2881 102.273 18.1308 102.285 18.0084C102.309 17.7441 102.387 14.2402 102.364 18.8131C102.323 15.0148 102.324 18.3268 102.34 19.8059C102.344 20.1831 102.366 20.2787 102.373 20.8162C102.383 21.5075 102.372 22.3167 102.376 22.6745C102.381 23.0593 102.432 20.873 102.416 24.035C102.467 22.4258 102.413 19.5833 102.449 18.0026C102.521 14.8134 102.536 20.2262 102.543 20.7901C102.545 20.9403 102.574 20.4367 102.576 20.5368C102.578 20.7006 102.565 23.7726 102.589 24.0755C102.613 24.3776 102.588 22.9503 102.613 22.8554C102.63 22.7911 102.66 26.497 102.672 24.4909C102.679 23.1081 102.612 20.5594 102.685 20.1301C102.691 22.1636 102.697 24.1971 102.703 26.2305C102.73 25.1175 102.758 24.0046 102.786 22.8916C102.795 25.1739 102.763 27.147 102.803 29.3147C102.892 24.1058 102.874 31.006 102.885 31.0819C102.891 31.1073 102.964 29.057 102.977 28.7271C103.005 30.5439 103.018 36.0644 103.107 32.8346C103.087 33.4208 103.137 34.8404 103.141 34.8217C103.18 34.6415 103.155 31.5451 103.19 32.0501C103.232 32.6353 103.176 33.4554 103.18 34.3557C103.203 38.9755 103.409 37.7081 103.376 42.3405C103.384 42.2483 103.391 42.1562 103.398 42.064C103.387 47.0992 103.375 52.1344 103.363 57.1696C103.426 59.1396 103.465 64.3825 103.458 66.9577C103.456 67.4762 103.423 70.022 103.418 70.2141C103.406 70.5699 103.402 68.6137 103.381 69.4977C103.377 69.6843 103.363 73.9944 103.398 73.6862C103.403 73.2032 103.385 71.6917 103.393 71.4443C103.452 69.7066 103.405 82.9941 103.429 83.6523C103.44 83.3581 103.452 83.0638 103.463 82.7695C103.457 83.608 103.452 84.4464 103.446 85.2849ZM100.624 46.7562C100.588 46.253 100.615 44.9918 100.605 44.2466C100.591 43.217 100.455 41.4668 100.591 42.2203C100.602 43.7323 100.613 45.2442 100.624 46.7562ZM100.571 68.8536C100.59 67.8397 100.666 68.6262 100.634 69.4572C100.631 69.5494 100.546 70.2254 100.571 68.8536ZM100.607 58.2246C100.608 58.2673 100.606 59.1435 100.605 59.1741C100.574 59.9598 100.581 57.3183 100.607 58.2246ZM89.2796 100.646C90.3968 100.643 89.5878 100.574 88.8932 100.602C88.8495 100.604 89.2062 100.646 89.2796 100.646ZM90.0664 100.648C90.8491 100.73 92.3636 100.355 91.148 100.536C91.0325 100.562 90.033 100.655 90.0664 100.648ZM100.601 65.2397C100.625 65.3538 100.613 66.3996 100.608 66.8462C100.586 66.8341 100.604 65.6777 100.601 65.2397ZM100.496 91.5489C100.501 91.5706 100.626 90.8132 100.621 90C100.62 89.0497 100.613 88.0437 100.601 87.9175C100.606 88.2005 100.604 89.1277 100.602 90C100.605 90.7953 100.49 91.5304 100.496 91.5489ZM96.4153 98.4817C96.4919 98.4465 97.3334 97.7162 97.2898 97.7173C96.8895 98.0842 96.1132 98.6911 96.4153 98.4817ZM79.244 100.633C79.1759 100.637 80.1163 100.742 77.8879 100.673C77.5607 100.663 78.7292 100.635 78.613 100.632C78.3695 100.624 78.1771 100.621 78.0225 100.62C79.0603 100.612 80.1384 100.608 80.2427 100.614C80.7324 100.644 79.2742 100.631 79.244 100.633ZM69.5167 100.711C69.3028 100.728 67.9373 100.719 67.6265 100.712C67.5731 100.711 67.8058 100.666 67.1909 100.669C66.6972 100.672 67.4346 100.718 66.473 100.71C65.5012 100.703 66.7996 100.67 66.7147 100.668C66.6009 100.665 65.0976 100.685 65.1444 100.659C65.1792 100.639 66.7897 100.652 67.188 100.648C67.6979 100.643 67.0796 100.61 67.9319 100.617C68.4674 100.621 68.1706 100.679 68.2836 100.682C68.3784 100.685 70.2504 100.651 69.5138 100.711C69.5148 100.711 69.5157 100.711 69.5167 100.711ZM77.7417 100.623C77.8198 100.621 77.9116 100.62 78.0225 100.62C77.9283 100.621 77.8345 100.622 77.7417 100.623ZM100.649 49.6855C100.631 50.2126 100.608 48.6483 100.632 48.0559C100.651 48.0456 100.652 49.6016 100.649 49.6855ZM76.7793 100.67C75.2376 100.656 76.3715 100.636 77.7417 100.623C77.3067 100.634 77.2969 100.675 76.7793 100.67ZM100.646 78.3002C100.642 78.3652 100.635 78.4064 100.624 78.4116C100.636 78.2407 100.642 78.2254 100.646 78.3002ZM100.626 81.8968C100.66 83.1297 100.659 80.6246 100.634 80.6405C100.625 80.648 100.625 81.8474 100.626 81.8968ZM87.8468 100.643C87.9596 100.646 86.2075 100.748 88.7514 100.672C87.3936 100.66 88.8261 100.648 88.8049 100.64C88.7495 100.614 86.4688 100.639 85.9639 100.627C85.5684 100.673 87.4745 100.632 87.8439 100.643C87.8449 100.643 87.8458 100.643 87.8468 100.643ZM51.9855 100.686C52.2945 100.659 53.2749 100.668 53.9365 100.67C53.6274 100.696 52.6471 100.688 51.9855 100.686ZM35.4303 3.31765C30.8973 3.34252 30.3101 3.23296 34.4577 3.27626C34.5389 3.27717 35.7055 3.30654 35.4303 3.31765ZM3.35885 12.7713C3.26851 13.1478 3.38756 11.8794 3.6527 11.087C3.70557 10.9058 3.96172 10.2619 3.73702 11.0185C3.67794 10.9726 3.3524 12.1645 3.35885 12.7713ZM75.908 100.701C75.459 100.733 74.0773 100.71 73.3492 100.705C73.7935 100.679 75.2642 100.691 75.908 100.701ZM20.5347 3.26052C20.0569 3.2569 19.7343 3.29844 19.8168 3.3019C20.1861 3.31775 21.0791 3.28417 20.5347 3.26052ZM80.3686 100.706C80.4318 100.725 78.6015 100.743 78.4741 100.696C78.8653 100.699 80.3232 100.694 80.3686 100.706ZM53.2331 100.7C53.5172 100.71 52.0456 100.727 51.6005 100.718C51.6363 100.698 53.0468 100.694 53.2331 100.7ZM12.9649 3.32383C12.5807 3.34409 11.6416 3.51943 11.5442 3.5692C11.4184 3.60224 12.7886 3.34186 12.9649 3.32383ZM92.1861 3.4603C92.2346 3.4604 90.7639 3.27551 90.1037 3.28701C90.0649 3.28583 90.0304 3.28489 90 3.28408C89.7031 3.27691 89.7613 3.26977 90 3.2633C90.5521 3.21029 92.157 3.42485 92.1861 3.4603ZM25.0575 3.23909C26.4068 3.2786 24.9087 3.24034 24.9678 3.28194C25.8757 3.28344 28.1344 3.28549 26.5815 3.24459C26.279 3.23667 25.4808 3.24179 25.0575 3.23909ZM23.8128 3.22518C23.6681 3.23865 22.6956 3.28114 23.5364 3.2781C23.925 3.27662 24.5515 3.22942 23.8128 3.22518ZM82.1956 3.25685C80.9863 3.22002 86.5302 3.23978 86.6895 3.24623C86.7737 3.24964 86.8289 3.25285 86.8603 3.25557C87.0639 3.2439 88.1111 3.2418 88.2323 3.27132C87.9183 3.26888 87.0611 3.27148 86.9616 3.26821C86.9187 3.26681 86.8867 3.26551 86.8646 3.26418C86.4951 3.28981 82.4274 3.26384 82.1956 3.25685ZM73.0096 3.21895C74.3934 3.16462 74.6384 3.25699 74.5191 3.25997C73.0126 3.29778 73.9951 3.22965 73.9489 3.22646C73.8437 3.22115 72.7735 3.25276 73.0139 3.21895C73.0125 3.21895 73.011 3.21895 73.0096 3.21895ZM80.3127 3.24166C80.3696 3.24045 81.5313 3.24331 81.5791 3.24477C82.5313 3.27581 79.2438 3.26786 80.3127 3.24166ZM62.1847 100.776C61.3529 100.766 62.1688 100.732 62.7216 100.745C62.767 100.746 62.9184 100.784 62.1847 100.776ZM23.1485 3.23433C22.9556 3.22791 18.0224 3.20369 18.3188 3.25502C18.7378 3.24897 24.3451 3.27539 23.1485 3.23433ZM3.22188 22.8684C3.22228 21.9984 3.27069 22.9469 3.25264 23.4111C3.24594 23.5832 3.22181 23.0877 3.22188 22.8684ZM82.8362 100.75C83.7395 100.723 83.5527 100.812 82.7697 100.782C82.7389 100.78 82.8008 100.751 82.8362 100.75ZM3.24971 15.9184C3.27905 18.9187 3.12557 18.2082 3.17738 14.3076C3.18422 14.4296 3.19106 14.5517 3.19789 14.6738C3.19918 14.4228 3.20035 14.1989 3.20142 14C3.32171 11.9094 3.2402 12.8832 3.2137 14C3.21405 14.5572 3.21479 15.1454 3.2173 15.4683C3.22057 15.8873 3.24619 15.536 3.2499 15.9155C3.24984 15.9165 3.24977 15.9175 3.24971 15.9184ZM3.21895 27.4433C3.11001 30.3327 3.18095 24.8167 3.16676 23.2346C3.21175 24.7683 3.20494 26.7653 3.25099 24.0494C3.2599 28.0203 3.21651 26.3672 3.21291 26.5257C3.20886 26.7134 3.22363 27.3201 3.21895 27.4433ZM3.21822 19.8218C3.21504 19.6549 3.23722 18.3965 3.2336 17.9432C3.27081 18.5771 3.23983 20.9307 3.21822 19.8218ZM63.3792 3.24422C63.4837 3.21506 63.7421 3.19359 64.7353 3.20448C64.4285 3.21913 63.7941 3.23174 63.3792 3.24422ZM100.777 45.801C100.779 45.117 100.79 43.7551 100.759 44.1728C100.757 44.2185 100.76 45.7989 100.777 45.801ZM9.48564 4.19735C9.42495 4.21922 8.62902 4.59842 8.03829 5.00546C7.44389 5.40611 7.02891 5.77419 7.49565 5.42376C7.6354 5.31756 8.33343 4.81965 8.9324 4.50465C9.52778 4.18424 9.989 3.99503 9.48564 4.19735ZM28.3009 3.21437C27.9861 3.21407 26.7071 3.21956 26.6799 3.22646C26.5934 3.2503 28.1633 3.23719 28.3009 3.21437ZM100.807 42.3506C100.81 42.2605 100.805 40.1714 100.79 40.4011C100.764 40.837 100.796 42.6593 100.807 42.3506ZM59.1583 100.844C58.9837 100.845 58.7527 100.813 58.6923 100.813C58.5503 100.812 55.3536 100.825 56.5749 100.784C56.7786 100.777 61.378 100.793 61.9762 100.797C62.2076 100.84 60.2429 100.799 59.7648 100.803C59.6805 100.804 59.6266 100.841 59.1598 100.844C59.1593 100.844 59.1588 100.844 59.1583 100.844ZM68.5533 3.21346C68.6944 3.18581 72.4526 3.16751 72.409 3.20101C71.1237 3.20516 69.8385 3.20931 68.5533 3.21346ZM66.6443 3.20888C65.8424 3.18932 67.7204 3.18286 68.274 3.19148C68.2799 3.21008 66.7611 3.21174 66.6443 3.20888ZM21.1729 3.1111C20.7953 3.11786 21.9566 3.15819 21.6968 3.16603C21.5304 3.17091 20.6865 3.1558 20.4174 3.16841C20.3411 3.17242 21.2018 3.21033 21.4508 3.2087C21.8044 3.20651 21.4615 3.17667 21.8474 3.17647C23.1286 3.17583 24.2645 3.19711 25.4656 3.19661C25.5741 3.19651 24.7329 3.17544 25.6581 3.17574C25.8011 3.17574 26.6601 3.20712 27.7668 3.20247C30.2111 3.10528 32.0058 3.20071 35.1076 3.16566C34.9905 3.15651 32.6709 3.13196 32.5343 3.13106C29.9415 3.11507 25.2967 3.11332 22.5812 3.11311C21.8844 3.11303 22.2227 3.1336 21.9226 3.13435C21.6854 3.13491 21.9674 3.09682 21.1729 3.1111ZM100.798 46.1642C100.836 45.8383 100.812 44.6947 100.814 43.9643C100.78 44.2214 100.807 45.4505 100.798 46.1642ZM49.7717 3.1794C49.4055 3.18087 48.2705 3.16941 48.1767 3.18086C48.0559 3.19582 49.6942 3.20526 49.7717 3.1794ZM41.1336 100.833C41.0982 100.834 40.2175 100.832 40.1842 100.831C39.3973 100.8 42.039 100.807 41.1336 100.833ZM20.0652 100.826C19.3973 100.83 18.7236 100.842 18.4992 100.811C18.9248 100.816 20.1435 100.804 20.0652 100.826ZM3.17336 85.8493C3.13293 85.9872 3.15911 83.977 3.16273 83.5973C3.1807 83.7379 3.20248 85.7482 3.17336 85.8493ZM63.2345 3.11732C64.4635 3.11971 64.204 3.05848 64.9843 3.08619C65.1116 3.09088 65.5232 3.21838 64.1723 3.17061C63.9292 3.16202 64.8803 3.13172 63.2345 3.11732ZM3.18265 13.703C3.1565 13.421 3.23149 12.5369 3.35474 11.9534C3.33406 12.0859 3.17248 13.2768 3.18265 13.703ZM100.837 38.5775C100.875 38.0011 100.847 35.3379 100.822 35.9969C100.819 36.0906 100.839 38.2039 100.837 38.5775ZM72.7833 100.823C71.6875 100.852 73.957 100.862 74.6734 100.833C74.3491 100.834 72.8571 100.821 72.7833 100.823ZM3.44955 92.5377C3.42501 92.4946 3.2376 91.4603 3.2455 91.4125C3.21195 90.9832 3.26595 91.5071 3.36095 92.0127C3.45389 92.5178 3.5821 93.0011 3.44955 92.5377ZM26.9934 100.875C26.5748 100.899 23.8227 100.88 23.2058 100.855C23.7994 100.819 27.5129 100.844 26.9934 100.875ZM58.1776 3.13472C59.0543 3.13345 59.8862 3.14099 60.6916 3.15156C60.5221 3.17216 58.2702 3.1501 58.1776 3.13472ZM3.14882 88.5659C3.14898 88.5036 3.15131 88.443 3.15156 88.3835C3.15069 88.4456 3.14969 88.5065 3.14882 88.5659ZM38.5536 3.12025C37.8189 3.11212 37.9714 3.14986 38.0167 3.15102C38.5695 3.16324 39.3854 3.12944 38.5536 3.12025ZM100.854 45.3248C100.888 45.0701 100.862 43.8343 100.87 43.1235C100.843 43.3297 100.851 44.7522 100.854 45.3248ZM3.14918 30.5377C3.11225 31.4608 3.06935 27.705 3.09315 26.9136C3.11597 26.8551 3.15424 30.4025 3.14918 30.5377ZM76.1859 100.874C76.2596 100.9 77.8365 100.868 77.5015 100.856C77.2893 100.848 76.1418 100.857 76.1859 100.874ZM3.10872 25.0249C3.10057 24.6721 3.12691 23.8495 3.14296 24.1391C3.16353 24.5109 3.11105 25.1161 3.10872 25.0249ZM15.7846 3.08729C15.6303 3.08321 13.5554 3.11061 14.4126 3.13783C15.0074 3.15675 15.102 3.11817 15.2419 3.11806C15.3982 3.11818 18.7291 3.16539 15.7846 3.08729ZM3.12593 51.5728C3.11567 50.79 3.12758 49.8434 3.12684 49.0241C3.14335 49.3579 3.14785 51.2397 3.12593 51.5728ZM70.1043 100.881C70.2944 100.892 75.4737 100.898 72.5314 100.865C72.3599 100.863 69.5269 100.848 70.1043 100.881ZM63.2345 3.11732C63.0795 3.11702 62.9006 3.11575 62.6932 3.11311C62.8992 3.11415 63.0784 3.11596 63.2345 3.11732ZM49.2767 3.11329C49.5596 3.09387 48.1342 3.08867 47.7136 3.09901C47.5841 3.12275 49.2377 3.11601 49.2767 3.11329ZM3.09974 48.9618C3.08863 48.4898 3.10049 47.633 3.09919 47.0485C3.11726 47.1474 3.11809 48.7577 3.09974 48.9618ZM3.07942 82.1124C3.09015 81.175 3.08522 80.0214 3.06312 80.0036C3.06657 79.9842 3.07024 79.9387 3.07393 79.8632C3.07757 79.787 3.0673 78.7828 3.07484 78.3465C3.11964 75.7344 3.10115 88.4335 3.03877 81.0732C3.05232 81.4196 3.06587 81.766 3.07942 82.1124ZM30.7174 100.927C31.2494 100.954 32.7395 100.92 32.3528 100.909C32.0835 100.902 30.1847 100.9 30.7174 100.927ZM10.6291 100.414C10.7598 100.484 12.0547 100.776 12.0931 100.749C11.3407 100.627 10.0107 100.183 10.6291 100.414ZM34.8074 100.958C35.1413 100.962 35.5674 100.919 35.5282 100.917C35.1888 100.901 34.2466 100.934 34.8074 100.958ZM60.6887 3.0005C60.1918 2.98808 58.6079 3.01947 58.263 3.04811C58.1988 3.04257 58.0258 3.03535 57.7087 3.02668C57.7097 3.02668 57.7106 3.02668 57.7116 3.02668C57.2834 3.01511 44.4817 3.00248 53.0686 3.05763C53.3375 3.0594 52.9702 3.03369 54.0644 3.03822C54.1367 3.03855 54.1726 3.05954 54.3958 3.06056C54.9097 3.06278 57.6464 3.07598 58.1964 3.05909C58.2011 3.06298 58.2366 3.06668 58.3122 3.07008C58.9868 3.10035 61.0742 3.01007 60.6887 3.0005ZM8.24705 99.3149C8.46526 99.4705 9.21767 99.859 9.30772 99.8729C8.92168 99.7071 7.73077 98.9724 8.24705 99.3149ZM70.265 100.957C70.8615 100.972 72.3732 100.944 71.9163 100.928C71.6362 100.919 69.577 100.939 70.265 100.957ZM16.6423 100.937C13.2218 100.915 15.826 100.938 15.3021 100.966C15.7489 100.956 16.1956 100.946 16.6423 100.937ZM76.5193 3.07063C75.9739 3.06438 76.6149 3.01079 77.2155 3.03987C77.4039 3.0491 76.8245 3.07402 76.5193 3.07063ZM98.769 7.44742C98.5754 7.0619 99.7069 8.8068 99.2358 8.14637C99.2205 8.11179 98.7912 7.46906 98.769 7.44742ZM83.9382 3.03456C83.568 3.06691 83.3269 3.07075 82.2839 3.06276C83.8279 3.05364 82.3959 3.02502 83.9382 3.03456ZM3.05964 80.0138C3.06095 80.0077 3.06192 80.0027 3.06312 80.0036C3.06193 80.0103 3.0608 80.0133 3.05964 80.0138ZM38.0234 100.95C38.4514 100.977 39.6515 100.975 39.2941 100.948C39.2596 100.945 38.1988 100.93 38.0234 100.95ZM58.263 3.04811C58.3199 3.05302 58.2909 3.05619 58.1964 3.05909C58.192 3.05543 58.2164 3.05197 58.263 3.04811ZM31.58 100.972C31.6228 100.952 29.7963 100.944 29.7231 100.946C28.6748 100.982 30.8258 100.973 31.58 100.972ZM82.3413 100.986C82.4355 100.983 81.828 100.931 81.4555 100.951C81.1671 100.967 81.9885 100.994 82.3413 100.986ZM87.4797 3.02137C88.0581 3.02141 88.8724 3.02138 89.0226 3.04646C88.635 3.04261 87.4678 3.03977 87.4797 3.02137ZM98.2845 6.793C97.8659 6.32703 96.8175 5.35194 96.0464 4.86207C96.0855 4.77566 97.9449 6.30112 98.2845 6.793ZM62.2576 3.01496C62.2101 3.01338 60.7598 3.00181 60.9579 3.02778C61.2472 3.06587 62.6667 3.02909 62.2576 3.01496ZM79.5248 100.958C78.8763 100.975 80.3688 101.03 81.0532 100.988C81.4046 100.966 79.6341 100.955 79.5248 100.958ZM41.7704 100.986C42.6264 100.971 40.5051 100.944 40.2088 100.971C40.603 100.973 41.4664 100.991 41.7704 100.986ZM12.7611 100.944C13.4001 101.034 13.7886 101.037 14 101.036C14.3644 101.031 14.2409 101.005 14 100.985C13.8268 100.97 13.5909 100.951 13.4502 100.948C13.3876 100.952 12.7022 100.94 12.7611 100.944ZM100.994 31.8851C100.983 31.5033 100.944 32.9268 100.97 33.111C100.986 33.2248 101.001 32.1293 100.994 31.8851ZM3.03767 66.8867C3.03792 67.0006 3.03818 67.1136 3.0384 67.2254C3.03712 67.1415 3.03671 67.0312 3.03767 66.8867ZM49.5396 101.091C47.641 100.98 47.8403 101.065 47.6754 101.065C47.3189 101.064 46.4904 101.034 45.8185 101.039C46.588 101.026 47.3575 101.014 48.127 101.001C47.5192 100.993 42.2386 100.953 42.1279 100.971C41.9694 100.996 43.631 100.988 43.6794 100.99C43.7491 100.994 44.0087 101.065 44.1628 101.067C44.4164 101.072 48.8319 101.073 49.5396 101.091ZM18.2894 101.001C17.8557 100.993 17.7324 100.964 17.531 100.971C17.4623 100.973 17.4512 101 17.2169 101.007C17.5744 101.005 17.9319 101.003 18.2894 101.001ZM52.9393 100.991C53.4767 101.024 51.067 101.012 50.9897 101.008C50.5776 100.986 52.5001 100.964 52.9393 100.991ZM32.4918 100.996C32.5797 100.998 34.4301 101.008 34.4152 100.99C33.9257 100.976 31.4516 100.972 32.4918 100.996ZM16.9274 101.009C16.2773 101.006 15.0483 100.979 15.1892 101.019C15.1902 101.019 15.1912 101.019 15.1921 101.019C15.7706 101.016 16.349 101.012 16.9274 101.009ZM77.3046 101.043C78.5095 101.107 77.9387 101.026 76.8719 101.005C76.5487 101.034 77.1071 101.032 77.3046 101.043ZM81.1603 101.091C81.4954 101.102 84.9495 101.09 84.4225 101.056C84.2352 101.044 82.2489 101.074 82.1575 101.072C82.0187 101.068 82.6523 101.031 81.593 101.038C81.655 101.051 81.0455 101.087 81.1603 101.091ZM78.3018 101.084C79.4991 101.133 79.7681 101.043 78.8677 101.043C78.5159 101.042 78.131 101.077 78.3018 101.084ZM73.4114 101.076C73.8422 101.085 74.9897 101.097 75.7806 101.067C74.7222 101.065 73.6637 101.062 72.6052 101.06C72.4832 101.077 73.0345 101.069 73.4143 101.076C73.4133 101.076 73.4124 101.076 73.4114 101.076ZM101.137 12.6953C101.064 11.8069 101.29 13.8475 101.241 13.9389C101.226 14.1962 101.187 13.0893 101.137 12.6953ZM101.814 24.4547C101.824 24.1904 101.858 24.0176 101.84 23.4358C101.815 24.021 101.791 24.6062 101.766 25.1914C101.823 25.6461 101.803 24.7436 101.814 24.4547ZM102.021 22.22C102.023 22.3027 102.11 21.8511 102.052 22.9191C102.012 23.6407 101.974 19.7168 102.013 19.0085C102.031 19.7911 102.01 21.5085 102.021 22.22ZM102.399 15.3468C102.406 15.3015 102.417 16.7923 102.412 16.9649C102.386 17.8709 102.362 15.5916 102.399 15.3468ZM102.383 20.1026C102.4 19.4035 102.411 20.9523 102.401 21.4139C102.385 21.4587 102.38 20.2106 102.383 20.1026ZM97.5667 4.07939C96.9706 3.55789 96.3087 3.28502 97.3173 3.9465C97.3648 3.97864 97.5917 4.1016 97.5667 4.07939ZM102.487 16.8042C102.471 17.5034 102.46 15.9546 102.469 15.493C102.486 15.45 102.49 16.6978 102.487 16.8042ZM97.2002 3.63711C96.3441 3.0139 96.5733 3.35155 96.6832 3.42144C97.1479 3.69689 98.6158 4.82586 98.8722 5.11156C96.7991 3.26715 97.5666 3.97393 97.2002 3.63711ZM92.748 1.77075C91.7972 1.56524 94.2102 2.15894 94.6451 2.36257C94.201 2.16824 93.0223 1.81226 92.748 1.77075ZM86.9949 1.42243C86.4937 1.4173 85.0031 1.40501 84.753 1.42756C85.3002 1.42348 86.7834 1.44564 86.9949 1.42243ZM85.8602 1.35487C85.0768 1.32423 84.8889 1.4135 85.7922 1.38691C85.8273 1.38588 85.889 1.35657 85.8602 1.35487ZM81.4561 1.32264C80.9421 1.28713 80.3554 1.37359 81.1883 1.37592C81.4357 1.37646 81.5105 1.32671 81.4561 1.32264ZM96.1515 2.80464C95.4672 2.41809 94.5303 2.0512 96.0206 2.79425C95.5011 2.52529 94.9634 2.29259 94.4124 2.09833C96.4114 2.95527 96.2557 2.92336 96.8016 3.22857C97.5336 3.71194 97.4223 3.74624 97.2701 3.65945C97.9216 3.97089 100.184 6.06739 100.994 7.65483C100.28 6.27694 98.5717 4.37762 97.2852 3.53117C96.928 3.27787 96.5562 3.07117 96.2326 2.88702C95.71 2.59678 96.1893 2.82614 96.1542 2.80613C96.1533 2.80564 96.1524 2.80514 96.1515 2.80464ZM75.6668 1.32136C74.1562 1.28114 75.1115 1.36797 75.965 1.35249C76.0015 1.35129 75.7044 1.32234 75.6668 1.32136ZM102.751 14.8012C102.715 16.8194 102.667 15.3524 102.74 19.5744C102.688 17.8006 102.703 19.4763 102.682 19.13C102.665 18.8523 102.679 17.8116 102.646 18.4165C102.682 17.6214 102.672 14.1692 102.678 14.0153C102.678 14.0167 102.678 14.0182 102.678 14.0196C102.681 13.9272 102.763 14.1572 102.751 14.8012ZM86.9877 1.19537C86.4838 1.09002 86.2862 1.25724 85.2958 1.16992C83.977 1.29672 88.9385 1.16994 89.5393 1.27704C85.7944 1.26839 88.9744 1.32303 90 1.30334C90.355 1.2996 90.468 1.28726 90 1.25552C89.8484 1.2462 89.6321 1.23537 89.3381 1.22284C89.5921 1.22761 89.8113 1.23147 90 1.23451C92.2421 1.36001 90.4199 1.20914 90.8877 1.21285C91.4404 1.18769 93.2775 1.5803 93.1878 1.54375C93.1868 1.5435 93.1858 1.54324 93.1848 1.54299C92.1448 1.28026 91.0717 1.15009 90 1.1529C89.9294 1.15308 89.8588 1.15326 89.7882 1.15344C89.8853 1.16128 89.9547 1.16817 90 1.17417C90.1029 1.1871 90.0901 1.19577 90 1.20082C89.6942 1.21983 88.4325 1.19282 87.9038 1.14374C87.5984 1.16095 87.293 1.17816 86.9877 1.19537ZM93.2048 1.682C93.1084 1.59265 90.6582 1.25043 90.8122 1.32734C91.1583 1.23871 94.5709 2.04377 93.2048 1.682ZM101.415 8.32754C101.035 7.52146 100.263 6.37525 99.923 6.0276C100.496 6.70968 101.184 7.90201 101.415 8.32754ZM60.2082 1.25031C59.141 1.2765 62.4265 1.28426 61.476 1.25324C61.4292 1.25178 60.2606 1.24909 60.2082 1.25031ZM84.5605 1.21131C83.4756 1.17911 83.9883 1.28159 84.7921 1.25489C84.8386 1.25331 84.6106 1.21277 84.5605 1.21131ZM102.764 16.4366C102.789 16.5092 102.771 19.4374 102.771 19.9565C102.748 19.6615 102.735 16.3534 102.764 16.4366ZM102.113 9.73701C101.655 7.98189 100.107 6.04892 99.9228 5.87293C99.7569 5.66817 100.05 5.96224 100.013 5.91553C99.9837 5.75608 97.9619 3.79395 97.8026 3.77061C97.7243 3.71363 98.0934 4.06468 97.6227 3.72908C98.0891 4.04175 99.3025 5.05002 100.175 6.21976C101.071 7.37128 101.623 8.61578 101.678 8.73304C101.753 8.92588 101.227 7.45665 102.112 9.73409C102.112 9.73506 102.112 9.73603 102.113 9.73701ZM99.4992 5.36397C99.9585 5.89294 98.6212 4.45344 98.2329 4.17207C97.444 3.46736 99.4871 5.24718 99.4992 5.36397ZM95.7614 2.50054C95.5802 2.35653 93.6803 1.62099 93.4952 1.6381C94.4268 1.88763 96.2157 2.73224 95.7614 2.50054ZM74.4829 1.1441C73.9907 1.14742 72.637 1.12753 72.5595 1.15015C73.0522 1.14685 74.4056 1.16672 74.4829 1.1441ZM102.961 26.4274C102.98 25.6096 102.988 27.5043 102.979 28.057C102.964 28.087 102.96 26.497 102.961 26.4274ZM84.3767 0.99505C84.0853 0.988172 78.1392 1.00533 77.3052 1.01592C78.1211 1.03303 84.0138 1.03434 84.2812 1.026C84.3593 1.0235 84.4139 0.996132 84.3767 0.99505ZM97.3822 3.27937C97.8883 3.58889 98.1608 3.86999 98.2183 3.91615C98.7999 4.36261 99.8384 5.46898 99.5853 5.24967C98.7822 4.21805 96.3713 2.67109 97.3822 3.27937ZM74.0603 0.993402C72.0413 1.00576 75.9194 1.04085 75.4107 1.00604C75.3779 1.00393 74.2691 0.992104 74.0603 0.993402ZM85.041 0.985345C85.3304 0.967857 87.9435 0.971534 90 0.976265C91.2042 0.974918 92.2206 1.16429 92.5743 1.23637C91.7386 1.1209 91.0537 1.00672 90 0.996367C89.902 0.996022 89.8007 0.995917 89.6956 0.996149C89.3856 0.99689 89.4683 1.01754 89.435 1.01757C88.8982 1.01853 89.3 0.994679 88.969 0.994317C88.7599 0.994154 84.4143 1.02326 85.041 0.985345ZM97.6711 3.45592C97.8236 3.55123 98.7134 4.20716 99.4531 4.99075C100.205 5.76259 100.795 6.63894 100.837 6.70781C101.147 7.23217 100.604 6.31156 99.7712 5.37535C98.9532 4.42332 97.7992 3.54379 97.6711 3.45592ZM84.4954 0.941215C85.1349 0.883527 88.0888 0.922161 86.0672 0.95092C85.8741 0.953536 85.0566 0.928529 84.4954 0.941215ZM74.276 0.938468C74.1766 0.936771 72.0719 0.92524 72.0341 0.943595C72.3383 0.950728 75.4064 0.957127 74.276 0.938468ZM75.3672 0.876393C75.3165 0.876833 75.81 0.912185 74.8231 0.907705C74.7408 0.907284 74.5874 0.867509 73.3468 0.882069C73.0951 0.885068 72.705 0.91138 72.7332 0.913015C74.0251 0.975435 77.9157 0.855886 75.3672 0.876393ZM97.7498 3.47365C97.5827 3.33167 98.0428 3.59797 98.3912 3.92422C98.5386 4.06549 98.2369 3.83353 97.7498 3.47365ZM67.601 0.922354C68.8245 0.892134 64.9832 0.88642 64.7874 0.894155C64.9108 0.912979 67.4786 0.925306 67.601 0.922354ZM103.194 28.3421C103.194 28.3412 103.194 28.3402 103.194 28.3392C103.188 29.3686 103.162 28.731 103.162 28.7792C103.125 30.9718 103.182 30.3902 103.188 30.7331C103.203 31.4683 103.134 31.3498 103.162 32.59C103.12 30.54 103.138 32.406 103.113 32.4641C103.013 32.6938 103.16 29.7347 103.139 28.7127C103.136 28.5702 103.104 29.6217 103.095 29.2568C103.065 28.0706 103.221 24.3923 103.194 28.3421ZM98.6726 4.15967C98.8817 4.3156 99.7024 5.08625 100.266 5.8211C100.837 6.54859 101.195 7.18448 100.903 6.74866C100.858 6.67813 100.263 5.81207 99.6256 5.13302C98.9974 4.44609 98.3659 3.9278 98.6726 4.15967ZM0.839954 79.6852C0.814399 78.8147 0.784356 80.8323 0.804247 81.2063C0.814156 81.3919 0.851169 80.0676 0.839954 79.6852ZM1.3981 94.1659C1.76408 95.256 2.40446 96.2811 1.80781 94.9992C1.74151 94.8655 1.36652 94.0396 1.3981 94.1659ZM0.785386 25.9063C0.747302 26.9864 0.818063 26.9221 0.817065 26.1292C0.816723 25.8492 0.786591 25.8722 0.785386 25.9063ZM0.794542 67.1313C0.792072 67.2394 0.79659 68.4881 0.812853 68.4426C0.82261 67.981 0.811497 66.4322 0.794542 67.1313ZM0.775315 25.5633C0.788068 26.2037 0.839248 25.1014 0.789231 24.3186C0.793334 24.7162 0.774012 25.4974 0.775315 25.5633ZM82.2637 0.784837C81.7274 0.813893 80.2101 0.805113 79.3386 0.810106C79.2447 0.772462 81.641 0.791662 82.2637 0.784837ZM0.773484 89.4401C0.800015 90.4193 0.821736 88.3214 0.786668 88.5138C0.784763 88.5405 0.772352 89.4015 0.773484 89.4401ZM18.0916 0.77147C17.3798 0.793925 19.6399 0.824123 19.0179 0.784654C18.9872 0.783044 18.1306 0.77022 18.0916 0.77147ZM27.9608 0.784471C27.4208 0.776896 25.1179 0.779226 26.0142 0.801134C26.1533 0.8045 27.9203 0.805038 27.9608 0.784471ZM103.216 30.7939C103.254 30.5029 103.245 32.1919 103.238 32.4337C103.235 32.5287 103.165 31.1734 103.216 30.7939ZM0.779343 32.9214C0.784181 33.4802 0.774988 34.9297 0.795274 35.1849C0.791075 34.5013 0.819755 32.7376 0.779343 32.9214ZM0.773301 84.9751C0.731281 85.8279 0.735428 87.2849 0.79033 86.9246C0.786651 85.3153 0.740983 87.1236 0.773301 84.9751ZM0.730086 21.9638C0.726881 22.412 0.779606 22.7554 0.78209 22.7048C0.805723 22.2192 0.7506 21.5185 0.730086 21.9638ZM0.773484 55.5948C0.750952 55.6207 0.761178 57.0573 0.775681 56.8656C0.78055 56.8027 0.791718 55.5739 0.773484 55.5948ZM63.4487 0.772019C62.7903 0.751453 64.8007 0.731346 65.3953 0.755356C65.6844 0.789952 63.5319 0.774381 63.4487 0.772019ZM1.64722 9.17972C1.59487 9.08306 0.919482 11.4772 1.21295 10.5414C1.26947 10.3025 1.63718 9.2048 1.64722 9.17972ZM21.1107 0.703169C19.6045 0.743044 25.9293 0.771354 24.2673 0.721663C24.1484 0.718122 21.2419 0.699801 21.1107 0.703169ZM31.4401 0.728072C31.1802 0.723678 31.3098 0.611315 32.3852 0.654644C32.5263 0.660263 31.866 0.689966 31.9814 0.69676C32.0493 0.700631 34.3876 0.716412 34.4954 0.713789C34.6112 0.710811 34.4748 0.674797 34.5923 0.670758C34.7248 0.666243 36.1642 0.697879 36.9182 0.698225C38.3388 0.698818 38.4922 0.668843 38.6086 0.668743C38.948 0.668545 39.5185 0.689828 40.2064 0.689801C43.6742 0.689562 48.978 0.664154 51.727 0.727706C49.2806 0.702185 46.9493 0.729262 44.5151 0.737594C45.228 0.675025 40.9339 0.785803 43.4455 0.713606C42.289 0.729266 32.2919 0.74179 31.443 0.728072C31.442 0.728072 31.4411 0.728072 31.4401 0.728072ZM3.48819 98.1504C3.26158 97.8795 3.6797 98.4792 4.26774 99.101C4.84866 99.7301 5.6183 100.344 5.75367 100.418C5.33453 100.171 3.4996 98.2568 3.48819 98.1504ZM0.60557 82.8707C0.598948 82.5679 0.523958 82.2805 0.561989 80.6925C0.561989 80.6911 0.561989 80.6897 0.561989 80.6882C0.573096 80.2239 0.591368 80.7529 0.597879 80.6679C0.600538 80.6369 0.637841 79.1889 0.64384 80.3915C0.653044 82.2256 0.588052 80.5642 0.587258 81.5421C0.587197 81.6617 0.627789 83.5124 0.636699 83.4048C0.637737 83.3937 0.62915 82.8368 0.632853 82.7448C0.646775 82.3975 0.670193 82.5666 0.671307 82.5176C0.674163 82.3574 0.634268 79.4306 0.66911 79.005C0.680345 78.8667 0.706263 83.6706 0.700422 83.8578C0.696741 83.9762 0.631739 83.9263 0.625346 84.0488C0.622162 84.112 0.64652 86.0442 0.640544 86.2951C0.638816 86.3679 0.636953 86.4236 0.635417 86.4644C0.655528 86.172 0.65408 87.9219 0.631389 87.8683C0.62247 87.8379 0.627632 86.6334 0.629191 86.5903C0.629851 86.5714 0.630761 86.555 0.631389 86.5397C0.60688 86.789 0.607985 82.7112 0.571511 83.5915C0.551529 82.4094 0.625018 83.7592 0.60557 82.8707ZM0.565468 77.1886C0.572304 77.3107 0.57914 77.4327 0.585977 77.5548C0.569244 75.4853 0.602153 73.0973 0.601907 70.7134C0.601895 70.1085 0.560086 70.8044 0.571511 70.0114C0.580667 69.3762 0.619446 68.6732 0.628093 69.0186C0.63025 69.1029 0.604992 70.3961 0.607584 71.0434C0.615258 72.9543 0.651112 72.4716 0.65208 72.5833C0.6531 72.7066 0.627885 73.9093 0.629008 74.5661C0.63191 76.2174 0.653923 76.9718 0.625163 79.2279C0.601533 77.9258 0.550199 78.6391 0.565468 77.1886ZM8.69208 1.73834C8.75647 1.66596 10.1799 1.15479 10.7186 1.04213C10.6354 1.06763 9.18577 1.49252 8.69208 1.73834ZM103.232 92.0463C103.247 91.8138 103.135 92.5595 102.96 93.2335C102.79 93.9088 102.576 94.5124 102.737 94.0829C102.824 93.8979 103.188 92.4842 103.232 92.0463ZM93.3087 102.952C92.8636 103.094 94.6742 102.597 94.6509 102.542C94.6503 102.549 93.3717 102.952 93.3087 102.952ZM0.601907 50.4381C0.600748 50.3592 0.608996 49.212 0.61088 49.176C0.650202 48.416 0.627475 52.192 0.601907 50.4381ZM75.976 103.411C77.4297 103.386 73.0543 103.376 74.3912 103.407C74.4579 103.408 75.9061 103.412 75.976 103.411ZM69.8944 103.417C70.2429 103.416 71.7903 103.428 71.8107 103.417C71.8416 103.399 70.0703 103.386 69.8944 103.417ZM0.590188 21.6613C0.548462 21.8292 0.580061 19.7888 0.574807 19.0793C0.616562 18.9109 0.584919 20.9522 0.590188 21.6613ZM0.559425 34.5409C0.526532 25.9386 0.615682 27.835 0.579751 35.0532C0.552982 35.0636 0.561497 35.0838 0.559425 34.5409ZM0.564369 23.5255C0.591101 23.8381 0.583174 24.815 0.581033 25.475C0.562448 25.3563 0.569174 24.0016 0.564369 23.5255ZM103.445 88.1303C103.464 88.4391 103.459 89.3538 103.448 90C103.439 90.5425 103.397 90.9108 103.405 90.708C103.405 90.6741 103.422 90.3854 103.423 90C103.425 89.2128 103.432 87.9923 103.445 88.1303ZM0.566201 49.7173C0.52562 49.9177 0.542173 47.3345 0.551185 47.1368C0.587435 46.3396 0.557244 49.5082 0.566201 49.7173ZM1.50591 9.02349C1.65057 8.53014 2.30561 7.22325 2.84772 6.46044C2.61107 6.81423 1.77323 8.27302 1.50591 9.02349ZM0.529578 15.4669C0.528358 15.4146 0.531228 14.2525 0.532691 14.2005C0.563737 13.2483 0.555786 16.5357 0.529578 15.4669ZM103.5 26.9151C103.501 26.9538 103.499 27.8339 103.498 27.8645C103.467 28.65 103.473 26.0087 103.5 26.9151Z" fill="#6E7171"/>
</svg>
