<svg width="44" height="44" viewBox="0 0 44 44" fill="none" xmlns="http://www.w3.org/2000/svg">
<path fill-rule="evenodd" clip-rule="evenodd" d="M15.6329 30.8882C16.4413 29.7092 17.4341 28.4537 17.9126 27.8599C18.4331 27.2139 19.3295 27.168 19.9288 27.6042C20.528 28.0403 20.76 28.9082 20.306 29.602C19.8817 30.2505 18.9719 31.6146 18.0917 32.7607C17.6568 33.327 17.1999 33.8786 16.7962 34.2646C16.6029 34.4494 16.3639 34.6533 16.1037 34.7865C15.9062 34.8876 15.2447 35.165 14.6763 34.6502C14.1848 34.2051 14.2735 33.5932 14.3134 33.3896C14.3679 33.1109 14.4855 32.8278 14.6056 32.5809C14.8525 32.0727 15.2327 31.4717 15.6329 30.8882ZM10.839 24.238C12.172 23.7654 13.6768 23.3508 14.4009 23.1589C15.2075 22.9452 15.9504 23.4463 16.1762 24.1414C16.4063 24.85 16.0804 25.6844 15.3097 25.9796C14.5738 26.2614 12.9977 26.8496 11.5957 27.2672C10.9046 27.4731 10.2036 27.6535 9.6531 27.7238C9.39529 27.7567 9.06671 27.7807 8.7633 27.7161C8.6091 27.6833 8.36837 27.609 8.15266 27.4163C7.90167 27.1921 7.7655 26.8788 7.7655 26.5488C7.7655 25.9969 8.12583 25.635 8.29425 25.4848C8.50505 25.2968 8.76438 25.1376 9.0135 25.0047C9.52043 24.7342 10.1783 24.4722 10.839 24.238ZM11.6015 16.6931C13.0079 17.1188 14.5871 17.7278 15.3224 18.0193C16.0871 18.3225 16.4048 19.1542 16.1761 19.8589C15.9518 20.5495 15.2182 21.0526 14.4125 20.8503C13.687 20.6682 12.179 20.272 10.842 19.8044C10.1796 19.5727 9.51657 19.309 9.00382 19.0283C8.75125 18.8901 8.48764 18.7225 8.27389 18.5211C8.08751 18.3454 7.7655 17.982 7.7655 17.4511C7.7655 17.1485 7.87677 16.8458 8.10815 16.612C8.31436 16.4036 8.5538 16.3124 8.71972 16.2693C9.03725 16.1867 9.37943 16.206 9.64128 16.2361C10.2012 16.3005 10.9093 16.4837 11.6015 16.6931ZM14.2533 10.4972C14.2198 10.2284 14.2225 9.52357 14.9128 9.19031C15.4631 8.92466 15.9739 9.16093 16.1762 9.2717C16.4296 9.41037 16.6663 9.60983 16.8687 9.80278C17.283 10.1978 17.7381 10.7465 18.1673 11.307C19.0341 12.4393 19.9056 13.7669 20.3152 14.4045C20.7633 15.102 20.5238 15.9627 19.9296 16.3951C19.3288 16.8323 18.4341 16.7841 17.9127 16.1438C17.4197 15.5383 16.3851 14.2441 15.5596 13.0482C15.1522 12.4581 14.7654 11.8488 14.5258 11.3413C14.4119 11.0998 14.291 10.7995 14.2533 10.4972Z" fill="black"/>
<path d="M19.7215 35.8306C18.8852 36.3003 18.9489 37.5861 19.8993 37.7156C20.6087 37.8122 21.333 37.8621 22.069 37.8621C30.8674 37.8621 38 30.7295 38 21.931C38 13.1326 30.8674 6 22.069 6C21.333 6 20.6087 6.0499 19.8993 6.14651C18.9489 6.27593 18.8852 7.56177 19.7215 8.03148C24.5796 10.7602 27.8621 15.9623 27.8621 21.931C27.8621 27.8998 24.5796 33.1018 19.7215 35.8306Z" fill="black"/>
<path fill-rule="evenodd" clip-rule="evenodd" d="M39 22C39 12.6112 31.3888 5 22 5C12.6112 5 5 12.6112 5 22C5 31.3888 12.6112 39 22 39C31.3888 39 39 31.3888 39 22ZM44 22C44 9.84973 34.1503 -1.49276e-06 22 -9.61651e-07C9.84973 -4.30546e-07 -1.49276e-06 9.84974 -9.61651e-07 22C-4.30546e-07 34.1503 9.84974 44 22 44C34.1503 44 44 34.1503 44 22Z" fill="black"/>
</svg>
