<svg width="64" height="64" viewBox="0 0 64 64" fill="none" xmlns="http://www.w3.org/2000/svg">
<g clip-path="url(#clip0_1220_7384)">
<rect width="64" height="64" fill="white"/>
<path fill-rule="evenodd" clip-rule="evenodd" d="M22.0356 0.746952C24.8079 -0.0491024 26.8035 3.34822 25.451 5.89579V5.89579C23.4919 9.58519 22.3811 13.7931 22.3811 18.2607C22.3811 32.856 34.2234 44.6878 48.8315 44.6878C51.3512 44.6878 53.8419 44.3569 56.2374 43.6743C58.9771 42.8936 61.9233 45.3515 60.5817 47.8646C60.1473 48.6784 59.7855 49.3012 59.576 49.6122C53.7306 58.2901 43.8113 64 32.5544 64C14.5753 63.9998 0 49.4376 0 31.4743C2.41979e-06 17.6574 8.62302 5.85333 20.7856 1.14022C21.0047 1.05531 21.4484 0.915553 22.0356 0.746952ZM16.459 10.5015C10.1628 15.3324 6.10394 22.9297 6.10394 31.4743C6.10394 46.0696 17.9462 57.9014 32.5544 57.9014C39.0048 57.9014 44.9132 55.5916 49.5031 51.7582C27.9642 52.8603 10.6371 31.3149 16.459 10.5015Z" fill="black"/>
</g>
<defs>
<clipPath id="clip0_1220_7384">
<rect width="64" height="64" fill="white"/>
</clipPath>
</defs>
</svg>
