<svg width="1414" height="596" viewBox="0 0 1414 596" fill="none" xmlns="http://www.w3.org/2000/svg">
<g id="dd-deliver" clip-path="url(#clip0_1259_41567)">
<g id="graph-right">
<g id="deliver">
<path id="triangle-right" d="M1402.02 305.776C1407.8 301.802 1407.8 293.273 1402.02 289.299L1092.8 76.5583C1079.53 67.4292 1061.46 76.9289 1061.46 93.0355V502.04C1061.46 518.146 1079.53 527.646 1092.8 518.517L1402.02 305.776Z" fill="url(#paint0_linear_1259_41567)"/>
<g id="label">
<g id="Vector" filter="url(#filter0_d_1259_41567)">
<path d="M1286.03 288.33C1286.54 288.33 1287.07 288.362 1287.61 288.426C1288.16 288.458 1288.57 288.522 1288.86 288.618L1288.14 296.25C1287.79 296.186 1287.37 296.122 1286.89 296.058C1286.44 295.994 1285.84 295.962 1285.07 295.962C1284.4 295.962 1283.71 296.058 1283 296.25C1282.3 296.41 1281.64 296.714 1281.04 297.162C1280.43 297.578 1279.93 298.17 1279.55 298.938C1279.16 299.706 1278.97 300.714 1278.97 301.962V315.162H1270.86V288.81H1276.96L1278.2 293.13H1278.59C1279.07 292.234 1279.69 291.418 1280.46 290.682C1281.23 289.946 1282.09 289.37 1283.05 288.954C1284.01 288.538 1285 288.33 1286.03 288.33Z" fill="white"/>
</g>
<g id="Vector_2" filter="url(#filter1_d_1259_41567)">
<path d="M1253.22 288.33C1255.75 288.33 1257.91 288.778 1259.7 289.674C1261.53 290.57 1262.92 291.914 1263.88 293.706C1264.87 295.498 1265.37 297.706 1265.37 300.33V304.122H1248.71C1248.78 305.818 1249.34 307.178 1250.39 308.202C1251.48 309.226 1253.03 309.738 1255.05 309.738C1256.71 309.738 1258.22 309.578 1259.56 309.258C1260.9 308.938 1262.3 308.442 1263.74 307.77V313.722C1262.46 314.394 1261.08 314.874 1259.61 315.162C1258.14 315.482 1256.31 315.642 1254.14 315.642C1251.48 315.642 1249.13 315.162 1247.08 314.202C1245.03 313.242 1243.42 311.77 1242.23 309.786C1241.08 307.77 1240.5 305.226 1240.5 302.154C1240.5 299.018 1241.03 296.442 1242.09 294.426C1243.18 292.378 1244.66 290.858 1246.55 289.866C1248.47 288.842 1250.7 288.33 1253.22 288.33ZM1253.46 293.946C1252.18 293.946 1251.14 294.362 1250.34 295.194C1249.54 295.994 1249.06 297.21 1248.9 298.842H1257.88C1257.88 297.914 1257.7 297.098 1257.35 296.394C1257.03 295.658 1256.54 295.066 1255.86 294.618C1255.22 294.17 1254.42 293.946 1253.46 293.946Z" fill="white"/>
</g>
<g id="Vector_3" filter="url(#filter2_d_1259_41567)">
<path d="M1220.11 315.162L1210.08 288.81H1218.57L1223.28 304.362C1223.37 304.586 1223.47 304.922 1223.57 305.37C1223.69 305.786 1223.81 306.218 1223.9 306.666C1224 307.114 1224.05 307.53 1224.05 307.914H1224.19C1224.22 307.53 1224.29 307.13 1224.38 306.714C1224.48 306.266 1224.59 305.834 1224.72 305.418C1224.85 305.002 1224.94 304.666 1225.01 304.41L1229.85 288.81H1238.35L1228.32 315.162H1220.11Z" fill="white"/>
</g>
<g id="Vector_4" filter="url(#filter3_d_1259_41567)">
<path d="M1206.69 288.81V315.162H1198.58V288.81H1206.69ZM1202.66 278.298C1203.84 278.298 1204.87 278.57 1205.73 279.114C1206.6 279.626 1207.03 280.618 1207.03 282.09C1207.03 283.53 1206.6 284.522 1205.73 285.066C1204.87 285.578 1203.84 285.834 1202.66 285.834C1201.44 285.834 1200.4 285.578 1199.54 285.066C1198.71 284.522 1198.29 283.53 1198.29 282.09C1198.29 280.618 1198.71 279.626 1199.54 279.114C1200.4 278.57 1201.44 278.298 1202.66 278.298Z" fill="white"/>
</g>
<g id="Vector_5" filter="url(#filter4_d_1259_41567)">
<path d="M1191.83 315.162H1183.72V278.682H1191.83V315.162Z" fill="white"/>
</g>
<g id="Vector_6" filter="url(#filter5_d_1259_41567)">
<path d="M1166.08 288.33C1168.61 288.33 1170.77 288.778 1172.56 289.674C1174.39 290.57 1175.78 291.914 1176.74 293.706C1177.73 295.498 1178.23 297.706 1178.23 300.33V304.122H1161.57C1161.64 305.818 1162.2 307.178 1163.25 308.202C1164.34 309.226 1165.89 309.738 1167.91 309.738C1169.57 309.738 1171.08 309.578 1172.42 309.258C1173.76 308.938 1175.16 308.442 1176.6 307.77V313.722C1175.32 314.394 1173.94 314.874 1172.47 315.162C1171 315.482 1169.17 315.642 1167 315.642C1164.34 315.642 1161.99 315.162 1159.94 314.202C1157.89 313.242 1156.28 311.77 1155.09 309.786C1153.94 307.77 1153.36 305.226 1153.36 302.154C1153.36 299.018 1153.89 296.442 1154.95 294.426C1156.04 292.378 1157.52 290.858 1159.41 289.866C1161.33 288.842 1163.56 288.33 1166.08 288.33ZM1166.32 293.946C1165.04 293.946 1164 294.362 1163.2 295.194C1162.4 295.994 1161.92 297.21 1161.76 298.842H1170.74C1170.74 297.914 1170.56 297.098 1170.21 296.394C1169.89 295.658 1169.4 295.066 1168.72 294.618C1168.08 294.17 1167.28 293.946 1166.32 293.946Z" fill="white"/>
</g>
<g id="Vector_7" filter="url(#filter6_d_1259_41567)">
<path d="M1148.64 297.402C1148.64 301.338 1147.9 304.634 1146.43 307.29C1144.96 309.914 1142.88 311.882 1140.19 313.194C1137.5 314.506 1134.32 315.162 1130.64 315.162H1119.89V280.89H1131.5C1135.12 280.89 1138.21 281.53 1140.77 282.81C1143.33 284.058 1145.28 285.914 1146.62 288.378C1147.97 290.81 1148.64 293.818 1148.64 297.402ZM1140.1 297.69C1140.1 295.418 1139.76 293.53 1139.09 292.026C1138.45 290.522 1137.49 289.402 1136.21 288.666C1134.93 287.93 1133.33 287.562 1131.41 287.562H1128.14V308.394H1130.74C1133.94 308.394 1136.29 307.514 1137.79 305.754C1139.33 303.962 1140.1 301.274 1140.1 297.69Z" fill="white"/>
</g>
</g>
</g>
<g id="develop">
<path id="triangle-left" opacity="0.5" d="M718.975 305.776C713.199 301.803 713.199 293.273 718.975 289.299L1028.2 76.5584C1041.47 67.4293 1059.54 76.929 1059.54 93.0356V502.04C1059.54 518.146 1041.47 527.646 1028.2 518.517L718.975 305.776Z" fill="url(#paint1_linear_1259_41567)"/>
<g id="label_2">
<g id="Vector_8" filter="url(#filter7_d_1259_41567)">
<path d="M1000.66 288.168C1003.63 288.168 1005.99 289.336 1007.71 291.672C1009.44 293.976 1010.31 297.336 1010.31 301.752C1010.31 304.728 1009.87 307.24 1009.01 309.288C1008.15 311.336 1006.96 312.888 1005.46 313.944C1003.99 314.968 1002.31 315.48 1000.42 315.48C999.138 315.48 998.05 315.32 997.154 315C996.258 314.68 995.506 314.28 994.898 313.8C994.29 313.288 993.778 312.776 993.362 312.264H993.074C993.138 312.872 993.202 313.544 993.266 314.28C993.33 314.984 993.362 315.768 993.362 316.632V326.52H985.25V288.648H991.874L992.978 292.008H993.362C993.842 291.304 994.402 290.664 995.042 290.088C995.682 289.512 996.466 289.048 997.394 288.696C998.322 288.344 999.41 288.168 1000.66 288.168ZM997.73 294.6C996.674 294.6 995.826 294.84 995.186 295.32C994.578 295.8 994.13 296.504 993.842 297.432C993.554 298.36 993.394 299.544 993.362 300.984V301.704C993.362 303.272 993.49 304.584 993.746 305.64C994.034 306.696 994.498 307.512 995.138 308.088C995.778 308.632 996.674 308.904 997.826 308.904C998.754 308.904 999.522 308.648 1000.13 308.136C1000.77 307.592 1001.23 306.792 1001.52 305.736C1001.84 304.648 1002 303.288 1002 301.656C1002 299.192 1001.63 297.4 1000.9 296.28C1000.19 295.16 999.138 294.6 997.73 294.6Z" fill="white"/>
</g>
<g id="Vector_9" filter="url(#filter8_d_1259_41567)">
<path d="M979.736 301.752C979.736 303.928 979.432 305.88 978.824 307.608C978.248 309.304 977.384 310.744 976.232 311.928C975.112 313.08 973.752 313.96 972.152 314.568C970.552 315.176 968.744 315.48 966.728 315.48C964.84 315.48 963.096 315.176 961.496 314.568C959.928 313.96 958.568 313.08 957.416 311.928C956.296 310.744 955.416 309.304 954.776 307.608C954.136 305.88 953.816 303.928 953.816 301.752C953.816 298.84 954.328 296.376 955.352 294.36C956.408 292.312 957.912 290.776 959.864 289.752C961.816 288.696 964.152 288.168 966.872 288.168C969.368 288.168 971.576 288.696 973.496 289.752C975.448 290.776 976.968 292.312 978.056 294.36C979.176 296.376 979.736 298.84 979.736 301.752ZM962.072 301.752C962.072 303.352 962.232 304.728 962.552 305.88C962.872 307.032 963.384 307.896 964.088 308.472C964.792 309.048 965.704 309.336 966.824 309.336C967.944 309.336 968.84 309.048 969.512 308.472C970.184 307.896 970.68 307.032 971 305.88C971.32 304.728 971.48 303.352 971.48 301.752C971.48 300.12 971.32 298.76 971 297.672C970.68 296.552 970.168 295.704 969.464 295.128C968.792 294.552 967.896 294.264 966.776 294.264C965.112 294.264 963.912 294.904 963.176 296.184C962.44 297.464 962.072 299.32 962.072 301.752Z" fill="white"/>
</g>
<g id="Vector_10" filter="url(#filter9_d_1259_41567)">
<path d="M948.315 315H940.203V278.52H948.315V315Z" fill="white"/>
</g>
<g id="Vector_11" filter="url(#filter10_d_1259_41567)">
<path d="M922.568 288.168C925.096 288.168 927.256 288.616 929.048 289.512C930.872 290.408 932.264 291.752 933.224 293.544C934.216 295.336 934.712 297.544 934.712 300.168V303.96H918.056C918.12 305.656 918.68 307.016 919.736 308.04C920.824 309.064 922.376 309.576 924.392 309.576C926.056 309.576 927.56 309.416 928.904 309.096C930.248 308.776 931.64 308.28 933.08 307.608V313.56C931.8 314.232 930.424 314.712 928.952 315C927.48 315.32 925.656 315.48 923.48 315.48C920.824 315.48 918.472 315 916.424 314.04C914.376 313.08 912.76 311.608 911.576 309.624C910.424 307.608 909.848 305.064 909.848 301.992C909.848 298.856 910.376 296.28 911.432 294.264C912.52 292.216 914.008 290.696 915.896 289.704C917.816 288.68 920.04 288.168 922.568 288.168ZM922.808 293.784C921.528 293.784 920.488 294.2 919.688 295.032C918.888 295.832 918.408 297.048 918.248 298.68H927.224C927.224 297.752 927.048 296.936 926.696 296.232C926.376 295.496 925.88 294.904 925.208 294.456C924.568 294.008 923.768 293.784 922.808 293.784Z" fill="white"/>
</g>
<g id="Vector_12" filter="url(#filter11_d_1259_41567)">
<path d="M889.454 315L879.422 288.648H887.918L892.622 304.2C892.718 304.424 892.814 304.76 892.91 305.208C893.038 305.624 893.15 306.056 893.246 306.504C893.342 306.952 893.39 307.368 893.39 307.752H893.534C893.566 307.368 893.63 306.968 893.726 306.552C893.822 306.104 893.934 305.672 894.062 305.256C894.19 304.84 894.286 304.504 894.35 304.248L899.198 288.648H907.694L897.662 315H889.454Z" fill="white"/>
</g>
<g id="Vector_13" filter="url(#filter12_d_1259_41567)">
<path d="M866.083 288.168C868.611 288.168 870.771 288.616 872.563 289.512C874.387 290.408 875.779 291.752 876.739 293.544C877.731 295.336 878.227 297.544 878.227 300.168V303.96H861.571C861.635 305.656 862.195 307.016 863.251 308.04C864.339 309.064 865.891 309.576 867.907 309.576C869.571 309.576 871.075 309.416 872.419 309.096C873.763 308.776 875.155 308.28 876.595 307.608V313.56C875.315 314.232 873.939 314.712 872.467 315C870.995 315.32 869.171 315.48 866.995 315.48C864.339 315.48 861.987 315 859.939 314.04C857.891 313.08 856.275 311.608 855.091 309.624C853.939 307.608 853.363 305.064 853.363 301.992C853.363 298.856 853.891 296.28 854.947 294.264C856.035 292.216 857.523 290.696 859.411 289.704C861.331 288.68 863.555 288.168 866.083 288.168ZM866.323 293.784C865.043 293.784 864.003 294.2 863.203 295.032C862.403 295.832 861.923 297.048 861.763 298.68H870.739C870.739 297.752 870.563 296.936 870.211 296.232C869.891 295.496 869.395 294.904 868.723 294.456C868.083 294.008 867.283 293.784 866.323 293.784Z" fill="white"/>
</g>
<g id="Vector_14" filter="url(#filter13_d_1259_41567)">
<path d="M848.641 297.24C848.641 301.176 847.905 304.472 846.433 307.128C844.961 309.752 842.881 311.72 840.193 313.032C837.505 314.344 834.321 315 830.641 315H819.889V280.728H831.505C835.121 280.728 838.209 281.368 840.769 282.648C843.329 283.896 845.281 285.752 846.625 288.216C847.969 290.648 848.641 293.656 848.641 297.24ZM840.097 297.528C840.097 295.256 839.761 293.368 839.089 291.864C838.449 290.36 837.489 289.24 836.209 288.504C834.929 287.768 833.329 287.4 831.409 287.4H828.145V308.232H830.737C833.937 308.232 836.289 307.352 837.793 305.592C839.329 303.8 840.097 301.112 840.097 297.528Z" fill="white"/>
</g>
</g>
</g>
</g>
<g id="graph-left">
<g id="define">
<path id="triangle-right_2" opacity="0.5" d="M695.025 305.776C700.801 301.803 700.801 293.273 695.025 289.299L385.798 76.5586C372.529 67.4294 354.462 76.9292 354.462 93.0357V502.04C354.462 518.147 372.529 527.646 385.798 518.517L695.025 305.776Z" fill="url(#paint2_linear_1259_41567)"/>
<g id="label_3">
<g id="Vector_15" filter="url(#filter14_d_1259_41567)">
<path d="M553.911 288.33C556.439 288.33 558.599 288.778 560.391 289.674C562.215 290.57 563.607 291.914 564.567 293.706C565.559 295.498 566.055 297.706 566.055 300.33V304.122H549.399C549.463 305.818 550.023 307.178 551.079 308.202C552.167 309.226 553.719 309.738 555.735 309.738C557.399 309.738 558.903 309.578 560.247 309.258C561.591 308.938 562.983 308.442 564.423 307.77V313.722C563.143 314.394 561.767 314.874 560.295 315.162C558.823 315.482 556.999 315.642 554.823 315.642C552.167 315.642 549.815 315.162 547.767 314.202C545.719 313.242 544.103 311.77 542.919 309.786C541.767 307.77 541.191 305.226 541.191 302.154C541.191 299.018 541.719 296.442 542.775 294.426C543.863 292.378 545.351 290.858 547.239 289.866C549.159 288.842 551.383 288.33 553.911 288.33ZM554.151 293.946C552.871 293.946 551.831 294.362 551.031 295.194C550.231 295.994 549.751 297.21 549.591 298.842H558.567C558.567 297.914 558.391 297.098 558.039 296.394C557.719 295.658 557.223 295.066 556.551 294.618C555.911 294.17 555.111 293.946 554.151 293.946Z" fill="white"/>
</g>
<g id="Vector_16" filter="url(#filter15_d_1259_41567)">
<path d="M526.494 288.33C529.31 288.33 531.566 289.098 533.262 290.634C534.958 292.138 535.806 294.586 535.806 297.978V315.162H527.646V300.234C527.646 298.41 527.342 297.05 526.734 296.154C526.158 295.226 525.214 294.762 523.902 294.762C521.95 294.762 520.622 295.482 519.918 296.922C519.214 298.362 518.862 300.442 518.862 303.162V315.162H510.75V288.81H516.894L518.046 292.314H518.382C518.958 291.45 519.63 290.73 520.398 290.154C521.198 289.546 522.11 289.098 523.134 288.81C524.158 288.49 525.278 288.33 526.494 288.33Z" fill="white"/>
</g>
<g id="Vector_17" filter="url(#filter16_d_1259_41567)">
<path d="M492.127 294.858H486.175V315.162H478.111V294.858H474.367V290.922L478.207 288.858V287.61C478.207 285.338 478.543 283.546 479.215 282.234C479.887 280.89 480.911 279.93 482.287 279.354C483.663 278.746 485.343 278.442 487.327 278.442C488.735 278.442 489.999 278.554 491.119 278.778C492.239 279.002 493.279 279.274 494.239 279.594L492.319 285.162C491.839 285.034 491.295 284.906 490.687 284.778C490.079 284.65 489.407 284.586 488.671 284.586C487.807 284.586 487.167 284.858 486.751 285.402C486.367 285.914 486.175 286.65 486.175 287.61V288.81H492.127V294.858ZM504.031 288.81V315.162H495.919V288.81H504.031ZM499.999 278.298C501.183 278.298 502.207 278.57 503.071 279.114C503.935 279.626 504.367 280.618 504.367 282.09C504.367 283.53 503.935 284.522 503.071 285.066C502.207 285.578 501.183 285.834 499.999 285.834C498.783 285.834 497.743 285.578 496.879 285.066C496.047 284.522 495.631 283.53 495.631 282.09C495.631 280.618 496.047 279.626 496.879 279.114C497.743 278.57 498.783 278.298 499.999 278.298Z" fill="white"/>
</g>
<g id="Vector_18" filter="url(#filter17_d_1259_41567)">
<path d="M459.083 288.33C461.611 288.33 463.771 288.778 465.563 289.674C467.387 290.57 468.779 291.914 469.739 293.706C470.731 295.498 471.227 297.706 471.227 300.33V304.122H454.571C454.635 305.818 455.195 307.178 456.251 308.202C457.339 309.226 458.891 309.738 460.907 309.738C462.571 309.738 464.075 309.578 465.419 309.258C466.763 308.938 468.155 308.442 469.595 307.77V313.722C468.315 314.394 466.939 314.874 465.467 315.162C463.995 315.482 462.171 315.642 459.995 315.642C457.339 315.642 454.987 315.162 452.939 314.202C450.891 313.242 449.275 311.77 448.091 309.786C446.939 307.77 446.363 305.226 446.363 302.154C446.363 299.018 446.891 296.442 447.947 294.426C449.035 292.378 450.523 290.858 452.411 289.866C454.331 288.842 456.555 288.33 459.083 288.33ZM459.323 293.946C458.043 293.946 457.003 294.362 456.203 295.194C455.403 295.994 454.923 297.21 454.763 298.842H463.739C463.739 297.914 463.563 297.098 463.211 296.394C462.891 295.658 462.395 295.066 461.723 294.618C461.083 294.17 460.283 293.946 459.323 293.946Z" fill="white"/>
</g>
<g id="Vector_19" filter="url(#filter18_d_1259_41567)">
<path d="M441.641 297.402C441.641 301.338 440.905 304.634 439.433 307.29C437.961 309.914 435.881 311.882 433.193 313.194C430.505 314.506 427.321 315.162 423.641 315.162H412.889V280.89H424.505C428.121 280.89 431.209 281.53 433.769 282.81C436.329 284.058 438.281 285.914 439.625 288.378C440.969 290.81 441.641 293.818 441.641 297.402ZM433.097 297.69C433.097 295.418 432.761 293.53 432.089 292.026C431.449 290.522 430.489 289.402 429.209 288.666C427.929 287.93 426.329 287.562 424.409 287.562H421.145V308.394H423.737C426.937 308.394 429.289 307.514 430.793 305.754C432.329 303.962 433.097 301.274 433.097 297.69Z" fill="white"/>
</g>
</g>
</g>
<g id="discover">
<path id="triangle-left_2" opacity="0.5" d="M11.9751 305.776C6.19903 301.803 6.19904 293.273 11.9751 289.299L321.202 76.5584C334.471 67.4293 352.538 76.929 352.538 93.0356V502.04C352.538 518.146 334.471 527.646 321.202 518.517L11.9751 305.776Z" fill="url(#paint3_linear_1259_41567)"/>
<g id="label_4">
<g id="Vector_20" filter="url(#filter19_d_1259_41567)">
<path d="M297.09 288.168C297.602 288.168 298.13 288.2 298.674 288.264C299.218 288.296 299.634 288.36 299.922 288.456L299.202 296.088C298.85 296.024 298.434 295.96 297.954 295.896C297.506 295.832 296.898 295.8 296.13 295.8C295.458 295.8 294.77 295.896 294.066 296.088C293.362 296.248 292.706 296.552 292.098 297C291.49 297.416 290.994 298.008 290.61 298.776C290.226 299.544 290.034 300.552 290.034 301.8V315H281.922V288.648H288.018L289.266 292.968H289.65C290.13 292.072 290.754 291.256 291.522 290.52C292.29 289.784 293.154 289.208 294.114 288.792C295.074 288.376 296.066 288.168 297.09 288.168Z" fill="white"/>
</g>
<g id="Vector_21" filter="url(#filter20_d_1259_41567)">
<path d="M264.286 288.168C266.814 288.168 268.974 288.616 270.766 289.512C272.59 290.408 273.982 291.752 274.942 293.544C275.934 295.336 276.43 297.544 276.43 300.168V303.96H259.774C259.838 305.656 260.398 307.016 261.454 308.04C262.542 309.064 264.094 309.576 266.11 309.576C267.774 309.576 269.278 309.416 270.622 309.096C271.966 308.776 273.358 308.28 274.798 307.608V313.56C273.518 314.232 272.142 314.712 270.67 315C269.198 315.32 267.374 315.48 265.198 315.48C262.542 315.48 260.19 315 258.142 314.04C256.094 313.08 254.478 311.608 253.294 309.624C252.142 307.608 251.566 305.064 251.566 301.992C251.566 298.856 252.094 296.28 253.15 294.264C254.238 292.216 255.726 290.696 257.614 289.704C259.534 288.68 261.758 288.168 264.286 288.168ZM264.526 293.784C263.246 293.784 262.206 294.2 261.406 295.032C260.606 295.832 260.126 297.048 259.966 298.68H268.942C268.942 297.752 268.766 296.936 268.414 296.232C268.094 295.496 267.598 294.904 266.926 294.456C266.286 294.008 265.486 293.784 264.526 293.784Z" fill="white"/>
</g>
<g id="Vector_22" filter="url(#filter21_d_1259_41567)">
<path d="M231.173 315L221.141 288.648H229.637L234.341 304.2C234.437 304.424 234.533 304.76 234.629 305.208C234.757 305.624 234.869 306.056 234.965 306.504C235.061 306.952 235.109 307.368 235.109 307.752H235.253C235.285 307.368 235.349 306.968 235.445 306.552C235.541 306.104 235.653 305.672 235.781 305.256C235.909 304.84 236.005 304.504 236.069 304.248L240.917 288.648H249.413L239.381 315H231.173Z" fill="white"/>
</g>
<g id="Vector_23" filter="url(#filter22_d_1259_41567)">
<path d="M219.924 301.752C219.924 303.928 219.62 305.88 219.012 307.608C218.436 309.304 217.572 310.744 216.42 311.928C215.3 313.08 213.94 313.96 212.34 314.568C210.74 315.176 208.932 315.48 206.916 315.48C205.028 315.48 203.284 315.176 201.684 314.568C200.116 313.96 198.756 313.08 197.604 311.928C196.484 310.744 195.604 309.304 194.964 307.608C194.324 305.88 194.004 303.928 194.004 301.752C194.004 298.84 194.516 296.376 195.54 294.36C196.596 292.312 198.1 290.776 200.052 289.752C202.004 288.696 204.34 288.168 207.06 288.168C209.556 288.168 211.764 288.696 213.684 289.752C215.636 290.776 217.156 292.312 218.244 294.36C219.364 296.376 219.924 298.84 219.924 301.752ZM202.26 301.752C202.26 303.352 202.42 304.728 202.74 305.88C203.06 307.032 203.572 307.896 204.276 308.472C204.98 309.048 205.892 309.336 207.012 309.336C208.132 309.336 209.028 309.048 209.7 308.472C210.372 307.896 210.868 307.032 211.188 305.88C211.508 304.728 211.668 303.352 211.668 301.752C211.668 300.12 211.508 298.76 211.188 297.672C210.868 296.552 210.356 295.704 209.652 295.128C208.98 294.552 208.084 294.264 206.964 294.264C205.3 294.264 204.1 294.904 203.364 296.184C202.628 297.464 202.26 299.32 202.26 301.752Z" fill="white"/>
</g>
<g id="Vector_24" filter="url(#filter23_d_1259_41567)">
<path d="M181.603 315.48C179.011 315.48 176.739 315 174.787 314.04C172.867 313.08 171.363 311.608 170.275 309.624C169.219 307.608 168.691 305.048 168.691 301.944C168.691 298.712 169.283 296.088 170.467 294.072C171.651 292.056 173.251 290.568 175.267 289.608C177.315 288.648 179.635 288.168 182.227 288.168C183.795 288.168 185.283 288.344 186.691 288.696C188.099 289.016 189.379 289.464 190.531 290.04L188.131 296.136C187.107 295.688 186.115 295.32 185.155 295.032C184.195 294.744 183.219 294.6 182.227 294.6C181.139 294.6 180.195 294.872 179.395 295.416C178.595 295.96 177.987 296.776 177.571 297.864C177.155 298.92 176.947 300.264 176.947 301.896C176.947 303.528 177.155 304.872 177.571 305.928C178.019 306.952 178.627 307.72 179.395 308.232C180.195 308.712 181.139 308.952 182.227 308.952C183.539 308.952 184.835 308.76 186.115 308.376C187.395 307.992 188.595 307.464 189.715 306.792V313.32C188.659 313.992 187.475 314.52 186.163 314.904C184.883 315.288 183.363 315.48 181.603 315.48Z" fill="white"/>
</g>
<g id="Vector_25" filter="url(#filter24_d_1259_41567)">
<path d="M164.573 307.08C164.573 308.744 164.189 310.216 163.421 311.496C162.653 312.744 161.453 313.72 159.821 314.424C158.189 315.128 156.093 315.48 153.533 315.48C151.677 315.48 150.013 315.368 148.541 315.144C147.101 314.92 145.677 314.52 144.269 313.944V307.368C145.805 308.072 147.405 308.6 149.069 308.952C150.765 309.304 152.157 309.48 153.245 309.48C154.525 309.48 155.453 309.32 156.029 309C156.605 308.68 156.893 308.232 156.893 307.656C156.893 307.208 156.733 306.824 156.413 306.504C156.093 306.152 155.501 305.784 154.637 305.4C153.805 305.016 152.621 304.52 151.085 303.912C149.581 303.272 148.317 302.6 147.293 301.896C146.269 301.192 145.501 300.36 144.989 299.4C144.477 298.408 144.221 297.192 144.221 295.752C144.221 293.256 145.197 291.368 147.149 290.088C149.101 288.808 151.677 288.168 154.877 288.168C156.605 288.168 158.221 288.36 159.725 288.744C161.229 289.096 162.749 289.608 164.285 290.28L162.029 295.656C160.781 295.08 159.501 294.632 158.189 294.312C156.877 293.96 155.773 293.784 154.877 293.784C153.949 293.784 153.229 293.912 152.717 294.168C152.205 294.424 151.949 294.792 151.949 295.272C151.949 295.688 152.093 296.056 152.381 296.376C152.701 296.664 153.261 296.984 154.061 297.336C154.893 297.688 156.061 298.168 157.565 298.776C159.133 299.384 160.429 300.04 161.453 300.744C162.477 301.448 163.245 302.296 163.757 303.288C164.301 304.28 164.573 305.544 164.573 307.08Z" fill="white"/>
</g>
<g id="Vector_26" filter="url(#filter25_d_1259_41567)">
<path d="M138.722 288.648V315H130.61V288.648H138.722ZM134.69 278.136C135.874 278.136 136.898 278.408 137.762 278.952C138.626 279.464 139.058 280.456 139.058 281.928C139.058 283.368 138.626 284.36 137.762 284.904C136.898 285.416 135.874 285.672 134.69 285.672C133.474 285.672 132.434 285.416 131.57 284.904C130.738 284.36 130.322 283.368 130.322 281.928C130.322 280.456 130.738 279.464 131.57 278.952C132.434 278.408 133.474 278.136 134.69 278.136Z" fill="white"/>
</g>
<g id="Vector_27" filter="url(#filter26_d_1259_41567)">
<path d="M124.641 297.24C124.641 301.176 123.905 304.472 122.433 307.128C120.961 309.752 118.881 311.72 116.193 313.032C113.505 314.344 110.321 315 106.641 315H95.8887V280.728H107.505C111.121 280.728 114.209 281.368 116.769 282.648C119.329 283.896 121.281 285.752 122.625 288.216C123.969 290.648 124.641 293.656 124.641 297.24ZM116.097 297.528C116.097 295.256 115.761 293.368 115.089 291.864C114.449 290.36 113.489 289.24 112.209 288.504C110.929 287.768 109.329 287.4 107.409 287.4H104.145V308.232H106.737C109.937 308.232 112.289 307.352 113.793 305.592C115.329 303.8 116.097 301.112 116.097 297.528Z" fill="white"/>
</g>
</g>
</g>
</g>
</g>
<defs>
<filter id="filter0_d_1259_41567" x="1266.86" y="288.33" width="26" height="34.832" filterUnits="userSpaceOnUse" color-interpolation-filters="sRGB">
<feFlood flood-opacity="0" result="BackgroundImageFix"/>
<feColorMatrix in="SourceAlpha" type="matrix" values="0 0 0 0 0 0 0 0 0 0 0 0 0 0 0 0 0 0 127 0" result="hardAlpha"/>
<feOffset dy="4"/>
<feGaussianBlur stdDeviation="2"/>
<feComposite in2="hardAlpha" operator="out"/>
<feColorMatrix type="matrix" values="0 0 0 0 0.0742963 0 0 0 0 0.0284056 0 0 0 0 0.200496 0 0 0 0.25 0"/>
<feBlend mode="normal" in2="BackgroundImageFix" result="effect1_dropShadow_1259_41567"/>
<feBlend mode="normal" in="SourceGraphic" in2="effect1_dropShadow_1259_41567" result="shape"/>
</filter>
<filter id="filter1_d_1259_41567" x="1236.5" y="288.33" width="32.8633" height="35.312" filterUnits="userSpaceOnUse" color-interpolation-filters="sRGB">
<feFlood flood-opacity="0" result="BackgroundImageFix"/>
<feColorMatrix in="SourceAlpha" type="matrix" values="0 0 0 0 0 0 0 0 0 0 0 0 0 0 0 0 0 0 127 0" result="hardAlpha"/>
<feOffset dy="4"/>
<feGaussianBlur stdDeviation="2"/>
<feComposite in2="hardAlpha" operator="out"/>
<feColorMatrix type="matrix" values="0 0 0 0 0.0742963 0 0 0 0 0.0284056 0 0 0 0 0.200496 0 0 0 0.25 0"/>
<feBlend mode="normal" in2="BackgroundImageFix" result="effect1_dropShadow_1259_41567"/>
<feBlend mode="normal" in="SourceGraphic" in2="effect1_dropShadow_1259_41567" result="shape"/>
</filter>
<filter id="filter2_d_1259_41567" x="1206.08" y="288.81" width="36.2715" height="34.3521" filterUnits="userSpaceOnUse" color-interpolation-filters="sRGB">
<feFlood flood-opacity="0" result="BackgroundImageFix"/>
<feColorMatrix in="SourceAlpha" type="matrix" values="0 0 0 0 0 0 0 0 0 0 0 0 0 0 0 0 0 0 127 0" result="hardAlpha"/>
<feOffset dy="4"/>
<feGaussianBlur stdDeviation="2"/>
<feComposite in2="hardAlpha" operator="out"/>
<feColorMatrix type="matrix" values="0 0 0 0 0.0742963 0 0 0 0 0.0284056 0 0 0 0 0.200496 0 0 0 0.25 0"/>
<feBlend mode="normal" in2="BackgroundImageFix" result="effect1_dropShadow_1259_41567"/>
<feBlend mode="normal" in="SourceGraphic" in2="effect1_dropShadow_1259_41567" result="shape"/>
</filter>
<filter id="filter3_d_1259_41567" x="1194.29" y="278.298" width="16.7363" height="44.864" filterUnits="userSpaceOnUse" color-interpolation-filters="sRGB">
<feFlood flood-opacity="0" result="BackgroundImageFix"/>
<feColorMatrix in="SourceAlpha" type="matrix" values="0 0 0 0 0 0 0 0 0 0 0 0 0 0 0 0 0 0 127 0" result="hardAlpha"/>
<feOffset dy="4"/>
<feGaussianBlur stdDeviation="2"/>
<feComposite in2="hardAlpha" operator="out"/>
<feColorMatrix type="matrix" values="0 0 0 0 0.0742963 0 0 0 0 0.0284056 0 0 0 0 0.200496 0 0 0 0.25 0"/>
<feBlend mode="normal" in2="BackgroundImageFix" result="effect1_dropShadow_1259_41567"/>
<feBlend mode="normal" in="SourceGraphic" in2="effect1_dropShadow_1259_41567" result="shape"/>
</filter>
<filter id="filter4_d_1259_41567" x="1179.72" y="278.682" width="16.1113" height="44.48" filterUnits="userSpaceOnUse" color-interpolation-filters="sRGB">
<feFlood flood-opacity="0" result="BackgroundImageFix"/>
<feColorMatrix in="SourceAlpha" type="matrix" values="0 0 0 0 0 0 0 0 0 0 0 0 0 0 0 0 0 0 127 0" result="hardAlpha"/>
<feOffset dy="4"/>
<feGaussianBlur stdDeviation="2"/>
<feComposite in2="hardAlpha" operator="out"/>
<feColorMatrix type="matrix" values="0 0 0 0 0.0742963 0 0 0 0 0.0284056 0 0 0 0 0.200496 0 0 0 0.25 0"/>
<feBlend mode="normal" in2="BackgroundImageFix" result="effect1_dropShadow_1259_41567"/>
<feBlend mode="normal" in="SourceGraphic" in2="effect1_dropShadow_1259_41567" result="shape"/>
</filter>
<filter id="filter5_d_1259_41567" x="1149.36" y="288.33" width="32.8633" height="35.312" filterUnits="userSpaceOnUse" color-interpolation-filters="sRGB">
<feFlood flood-opacity="0" result="BackgroundImageFix"/>
<feColorMatrix in="SourceAlpha" type="matrix" values="0 0 0 0 0 0 0 0 0 0 0 0 0 0 0 0 0 0 127 0" result="hardAlpha"/>
<feOffset dy="4"/>
<feGaussianBlur stdDeviation="2"/>
<feComposite in2="hardAlpha" operator="out"/>
<feColorMatrix type="matrix" values="0 0 0 0 0.0742963 0 0 0 0 0.0284056 0 0 0 0 0.200496 0 0 0 0.25 0"/>
<feBlend mode="normal" in2="BackgroundImageFix" result="effect1_dropShadow_1259_41567"/>
<feBlend mode="normal" in="SourceGraphic" in2="effect1_dropShadow_1259_41567" result="shape"/>
</filter>
<filter id="filter6_d_1259_41567" x="1115.89" y="280.89" width="36.752" height="42.272" filterUnits="userSpaceOnUse" color-interpolation-filters="sRGB">
<feFlood flood-opacity="0" result="BackgroundImageFix"/>
<feColorMatrix in="SourceAlpha" type="matrix" values="0 0 0 0 0 0 0 0 0 0 0 0 0 0 0 0 0 0 127 0" result="hardAlpha"/>
<feOffset dy="4"/>
<feGaussianBlur stdDeviation="2"/>
<feComposite in2="hardAlpha" operator="out"/>
<feColorMatrix type="matrix" values="0 0 0 0 0.0742963 0 0 0 0 0.0284056 0 0 0 0 0.200496 0 0 0 0.25 0"/>
<feBlend mode="normal" in2="BackgroundImageFix" result="effect1_dropShadow_1259_41567"/>
<feBlend mode="normal" in="SourceGraphic" in2="effect1_dropShadow_1259_41567" result="shape"/>
</filter>
<filter id="filter7_d_1259_41567" x="981.25" y="288.168" width="33.0566" height="46.3521" filterUnits="userSpaceOnUse" color-interpolation-filters="sRGB">
<feFlood flood-opacity="0" result="BackgroundImageFix"/>
<feColorMatrix in="SourceAlpha" type="matrix" values="0 0 0 0 0 0 0 0 0 0 0 0 0 0 0 0 0 0 127 0" result="hardAlpha"/>
<feOffset dy="4"/>
<feGaussianBlur stdDeviation="2"/>
<feComposite in2="hardAlpha" operator="out"/>
<feColorMatrix type="matrix" values="0 0 0 0 0.0742963 0 0 0 0 0.0284056 0 0 0 0 0.200496 0 0 0 0.25 0"/>
<feBlend mode="normal" in2="BackgroundImageFix" result="effect1_dropShadow_1259_41567"/>
<feBlend mode="normal" in="SourceGraphic" in2="effect1_dropShadow_1259_41567" result="shape"/>
</filter>
<filter id="filter8_d_1259_41567" x="949.816" y="288.168" width="33.9199" height="35.312" filterUnits="userSpaceOnUse" color-interpolation-filters="sRGB">
<feFlood flood-opacity="0" result="BackgroundImageFix"/>
<feColorMatrix in="SourceAlpha" type="matrix" values="0 0 0 0 0 0 0 0 0 0 0 0 0 0 0 0 0 0 127 0" result="hardAlpha"/>
<feOffset dy="4"/>
<feGaussianBlur stdDeviation="2"/>
<feComposite in2="hardAlpha" operator="out"/>
<feColorMatrix type="matrix" values="0 0 0 0 0.0742963 0 0 0 0 0.0284056 0 0 0 0 0.200496 0 0 0 0.25 0"/>
<feBlend mode="normal" in2="BackgroundImageFix" result="effect1_dropShadow_1259_41567"/>
<feBlend mode="normal" in="SourceGraphic" in2="effect1_dropShadow_1259_41567" result="shape"/>
</filter>
<filter id="filter9_d_1259_41567" x="936.203" y="278.52" width="16.1113" height="44.48" filterUnits="userSpaceOnUse" color-interpolation-filters="sRGB">
<feFlood flood-opacity="0" result="BackgroundImageFix"/>
<feColorMatrix in="SourceAlpha" type="matrix" values="0 0 0 0 0 0 0 0 0 0 0 0 0 0 0 0 0 0 127 0" result="hardAlpha"/>
<feOffset dy="4"/>
<feGaussianBlur stdDeviation="2"/>
<feComposite in2="hardAlpha" operator="out"/>
<feColorMatrix type="matrix" values="0 0 0 0 0.0742963 0 0 0 0 0.0284056 0 0 0 0 0.200496 0 0 0 0.25 0"/>
<feBlend mode="normal" in2="BackgroundImageFix" result="effect1_dropShadow_1259_41567"/>
<feBlend mode="normal" in="SourceGraphic" in2="effect1_dropShadow_1259_41567" result="shape"/>
</filter>
<filter id="filter10_d_1259_41567" x="905.848" y="288.168" width="32.8633" height="35.312" filterUnits="userSpaceOnUse" color-interpolation-filters="sRGB">
<feFlood flood-opacity="0" result="BackgroundImageFix"/>
<feColorMatrix in="SourceAlpha" type="matrix" values="0 0 0 0 0 0 0 0 0 0 0 0 0 0 0 0 0 0 127 0" result="hardAlpha"/>
<feOffset dy="4"/>
<feGaussianBlur stdDeviation="2"/>
<feComposite in2="hardAlpha" operator="out"/>
<feColorMatrix type="matrix" values="0 0 0 0 0.0742963 0 0 0 0 0.0284056 0 0 0 0 0.200496 0 0 0 0.25 0"/>
<feBlend mode="normal" in2="BackgroundImageFix" result="effect1_dropShadow_1259_41567"/>
<feBlend mode="normal" in="SourceGraphic" in2="effect1_dropShadow_1259_41567" result="shape"/>
</filter>
<filter id="filter11_d_1259_41567" x="875.422" y="288.648" width="36.2715" height="34.3521" filterUnits="userSpaceOnUse" color-interpolation-filters="sRGB">
<feFlood flood-opacity="0" result="BackgroundImageFix"/>
<feColorMatrix in="SourceAlpha" type="matrix" values="0 0 0 0 0 0 0 0 0 0 0 0 0 0 0 0 0 0 127 0" result="hardAlpha"/>
<feOffset dy="4"/>
<feGaussianBlur stdDeviation="2"/>
<feComposite in2="hardAlpha" operator="out"/>
<feColorMatrix type="matrix" values="0 0 0 0 0.0742963 0 0 0 0 0.0284056 0 0 0 0 0.200496 0 0 0 0.25 0"/>
<feBlend mode="normal" in2="BackgroundImageFix" result="effect1_dropShadow_1259_41567"/>
<feBlend mode="normal" in="SourceGraphic" in2="effect1_dropShadow_1259_41567" result="shape"/>
</filter>
<filter id="filter12_d_1259_41567" x="849.363" y="288.168" width="32.8633" height="35.312" filterUnits="userSpaceOnUse" color-interpolation-filters="sRGB">
<feFlood flood-opacity="0" result="BackgroundImageFix"/>
<feColorMatrix in="SourceAlpha" type="matrix" values="0 0 0 0 0 0 0 0 0 0 0 0 0 0 0 0 0 0 127 0" result="hardAlpha"/>
<feOffset dy="4"/>
<feGaussianBlur stdDeviation="2"/>
<feComposite in2="hardAlpha" operator="out"/>
<feColorMatrix type="matrix" values="0 0 0 0 0.0742963 0 0 0 0 0.0284056 0 0 0 0 0.200496 0 0 0 0.25 0"/>
<feBlend mode="normal" in2="BackgroundImageFix" result="effect1_dropShadow_1259_41567"/>
<feBlend mode="normal" in="SourceGraphic" in2="effect1_dropShadow_1259_41567" result="shape"/>
</filter>
<filter id="filter13_d_1259_41567" x="815.889" y="280.728" width="36.752" height="42.272" filterUnits="userSpaceOnUse" color-interpolation-filters="sRGB">
<feFlood flood-opacity="0" result="BackgroundImageFix"/>
<feColorMatrix in="SourceAlpha" type="matrix" values="0 0 0 0 0 0 0 0 0 0 0 0 0 0 0 0 0 0 127 0" result="hardAlpha"/>
<feOffset dy="4"/>
<feGaussianBlur stdDeviation="2"/>
<feComposite in2="hardAlpha" operator="out"/>
<feColorMatrix type="matrix" values="0 0 0 0 0.0742963 0 0 0 0 0.0284056 0 0 0 0 0.200496 0 0 0 0.25 0"/>
<feBlend mode="normal" in2="BackgroundImageFix" result="effect1_dropShadow_1259_41567"/>
<feBlend mode="normal" in="SourceGraphic" in2="effect1_dropShadow_1259_41567" result="shape"/>
</filter>
<filter id="filter14_d_1259_41567" x="537.191" y="288.33" width="32.8633" height="35.312" filterUnits="userSpaceOnUse" color-interpolation-filters="sRGB">
<feFlood flood-opacity="0" result="BackgroundImageFix"/>
<feColorMatrix in="SourceAlpha" type="matrix" values="0 0 0 0 0 0 0 0 0 0 0 0 0 0 0 0 0 0 127 0" result="hardAlpha"/>
<feOffset dy="4"/>
<feGaussianBlur stdDeviation="2"/>
<feComposite in2="hardAlpha" operator="out"/>
<feColorMatrix type="matrix" values="0 0 0 0 0.0742963 0 0 0 0 0.0284056 0 0 0 0 0.200496 0 0 0 0.25 0"/>
<feBlend mode="normal" in2="BackgroundImageFix" result="effect1_dropShadow_1259_41567"/>
<feBlend mode="normal" in="SourceGraphic" in2="effect1_dropShadow_1259_41567" result="shape"/>
</filter>
<filter id="filter15_d_1259_41567" x="506.75" y="288.33" width="33.0566" height="34.832" filterUnits="userSpaceOnUse" color-interpolation-filters="sRGB">
<feFlood flood-opacity="0" result="BackgroundImageFix"/>
<feColorMatrix in="SourceAlpha" type="matrix" values="0 0 0 0 0 0 0 0 0 0 0 0 0 0 0 0 0 0 127 0" result="hardAlpha"/>
<feOffset dy="4"/>
<feGaussianBlur stdDeviation="2"/>
<feComposite in2="hardAlpha" operator="out"/>
<feColorMatrix type="matrix" values="0 0 0 0 0.0742963 0 0 0 0 0.0284056 0 0 0 0 0.200496 0 0 0 0.25 0"/>
<feBlend mode="normal" in2="BackgroundImageFix" result="effect1_dropShadow_1259_41567"/>
<feBlend mode="normal" in="SourceGraphic" in2="effect1_dropShadow_1259_41567" result="shape"/>
</filter>
<filter id="filter16_d_1259_41567" x="470.367" y="278.298" width="38" height="44.864" filterUnits="userSpaceOnUse" color-interpolation-filters="sRGB">
<feFlood flood-opacity="0" result="BackgroundImageFix"/>
<feColorMatrix in="SourceAlpha" type="matrix" values="0 0 0 0 0 0 0 0 0 0 0 0 0 0 0 0 0 0 127 0" result="hardAlpha"/>
<feOffset dy="4"/>
<feGaussianBlur stdDeviation="2"/>
<feComposite in2="hardAlpha" operator="out"/>
<feColorMatrix type="matrix" values="0 0 0 0 0.0742963 0 0 0 0 0.0284056 0 0 0 0 0.200496 0 0 0 0.25 0"/>
<feBlend mode="normal" in2="BackgroundImageFix" result="effect1_dropShadow_1259_41567"/>
<feBlend mode="normal" in="SourceGraphic" in2="effect1_dropShadow_1259_41567" result="shape"/>
</filter>
<filter id="filter17_d_1259_41567" x="442.363" y="288.33" width="32.8633" height="35.312" filterUnits="userSpaceOnUse" color-interpolation-filters="sRGB">
<feFlood flood-opacity="0" result="BackgroundImageFix"/>
<feColorMatrix in="SourceAlpha" type="matrix" values="0 0 0 0 0 0 0 0 0 0 0 0 0 0 0 0 0 0 127 0" result="hardAlpha"/>
<feOffset dy="4"/>
<feGaussianBlur stdDeviation="2"/>
<feComposite in2="hardAlpha" operator="out"/>
<feColorMatrix type="matrix" values="0 0 0 0 0.0742963 0 0 0 0 0.0284056 0 0 0 0 0.200496 0 0 0 0.25 0"/>
<feBlend mode="normal" in2="BackgroundImageFix" result="effect1_dropShadow_1259_41567"/>
<feBlend mode="normal" in="SourceGraphic" in2="effect1_dropShadow_1259_41567" result="shape"/>
</filter>
<filter id="filter18_d_1259_41567" x="408.889" y="280.89" width="36.752" height="42.272" filterUnits="userSpaceOnUse" color-interpolation-filters="sRGB">
<feFlood flood-opacity="0" result="BackgroundImageFix"/>
<feColorMatrix in="SourceAlpha" type="matrix" values="0 0 0 0 0 0 0 0 0 0 0 0 0 0 0 0 0 0 127 0" result="hardAlpha"/>
<feOffset dy="4"/>
<feGaussianBlur stdDeviation="2"/>
<feComposite in2="hardAlpha" operator="out"/>
<feColorMatrix type="matrix" values="0 0 0 0 0.0742963 0 0 0 0 0.0284056 0 0 0 0 0.200496 0 0 0 0.25 0"/>
<feBlend mode="normal" in2="BackgroundImageFix" result="effect1_dropShadow_1259_41567"/>
<feBlend mode="normal" in="SourceGraphic" in2="effect1_dropShadow_1259_41567" result="shape"/>
</filter>
<filter id="filter19_d_1259_41567" x="277.922" y="288.168" width="26" height="34.832" filterUnits="userSpaceOnUse" color-interpolation-filters="sRGB">
<feFlood flood-opacity="0" result="BackgroundImageFix"/>
<feColorMatrix in="SourceAlpha" type="matrix" values="0 0 0 0 0 0 0 0 0 0 0 0 0 0 0 0 0 0 127 0" result="hardAlpha"/>
<feOffset dy="4"/>
<feGaussianBlur stdDeviation="2"/>
<feComposite in2="hardAlpha" operator="out"/>
<feColorMatrix type="matrix" values="0 0 0 0 0.0742963 0 0 0 0 0.0284056 0 0 0 0 0.200496 0 0 0 0.25 0"/>
<feBlend mode="normal" in2="BackgroundImageFix" result="effect1_dropShadow_1259_41567"/>
<feBlend mode="normal" in="SourceGraphic" in2="effect1_dropShadow_1259_41567" result="shape"/>
</filter>
<filter id="filter20_d_1259_41567" x="247.566" y="288.168" width="32.8633" height="35.312" filterUnits="userSpaceOnUse" color-interpolation-filters="sRGB">
<feFlood flood-opacity="0" result="BackgroundImageFix"/>
<feColorMatrix in="SourceAlpha" type="matrix" values="0 0 0 0 0 0 0 0 0 0 0 0 0 0 0 0 0 0 127 0" result="hardAlpha"/>
<feOffset dy="4"/>
<feGaussianBlur stdDeviation="2"/>
<feComposite in2="hardAlpha" operator="out"/>
<feColorMatrix type="matrix" values="0 0 0 0 0.0742963 0 0 0 0 0.0284056 0 0 0 0 0.200496 0 0 0 0.25 0"/>
<feBlend mode="normal" in2="BackgroundImageFix" result="effect1_dropShadow_1259_41567"/>
<feBlend mode="normal" in="SourceGraphic" in2="effect1_dropShadow_1259_41567" result="shape"/>
</filter>
<filter id="filter21_d_1259_41567" x="217.141" y="288.648" width="36.2715" height="34.3521" filterUnits="userSpaceOnUse" color-interpolation-filters="sRGB">
<feFlood flood-opacity="0" result="BackgroundImageFix"/>
<feColorMatrix in="SourceAlpha" type="matrix" values="0 0 0 0 0 0 0 0 0 0 0 0 0 0 0 0 0 0 127 0" result="hardAlpha"/>
<feOffset dy="4"/>
<feGaussianBlur stdDeviation="2"/>
<feComposite in2="hardAlpha" operator="out"/>
<feColorMatrix type="matrix" values="0 0 0 0 0.0742963 0 0 0 0 0.0284056 0 0 0 0 0.200496 0 0 0 0.25 0"/>
<feBlend mode="normal" in2="BackgroundImageFix" result="effect1_dropShadow_1259_41567"/>
<feBlend mode="normal" in="SourceGraphic" in2="effect1_dropShadow_1259_41567" result="shape"/>
</filter>
<filter id="filter22_d_1259_41567" x="190.004" y="288.168" width="33.9199" height="35.312" filterUnits="userSpaceOnUse" color-interpolation-filters="sRGB">
<feFlood flood-opacity="0" result="BackgroundImageFix"/>
<feColorMatrix in="SourceAlpha" type="matrix" values="0 0 0 0 0 0 0 0 0 0 0 0 0 0 0 0 0 0 127 0" result="hardAlpha"/>
<feOffset dy="4"/>
<feGaussianBlur stdDeviation="2"/>
<feComposite in2="hardAlpha" operator="out"/>
<feColorMatrix type="matrix" values="0 0 0 0 0.0742963 0 0 0 0 0.0284056 0 0 0 0 0.200496 0 0 0 0.25 0"/>
<feBlend mode="normal" in2="BackgroundImageFix" result="effect1_dropShadow_1259_41567"/>
<feBlend mode="normal" in="SourceGraphic" in2="effect1_dropShadow_1259_41567" result="shape"/>
</filter>
<filter id="filter23_d_1259_41567" x="164.691" y="288.168" width="29.8398" height="35.312" filterUnits="userSpaceOnUse" color-interpolation-filters="sRGB">
<feFlood flood-opacity="0" result="BackgroundImageFix"/>
<feColorMatrix in="SourceAlpha" type="matrix" values="0 0 0 0 0 0 0 0 0 0 0 0 0 0 0 0 0 0 127 0" result="hardAlpha"/>
<feOffset dy="4"/>
<feGaussianBlur stdDeviation="2"/>
<feComposite in2="hardAlpha" operator="out"/>
<feColorMatrix type="matrix" values="0 0 0 0 0.0742963 0 0 0 0 0.0284056 0 0 0 0 0.200496 0 0 0 0.25 0"/>
<feBlend mode="normal" in2="BackgroundImageFix" result="effect1_dropShadow_1259_41567"/>
<feBlend mode="normal" in="SourceGraphic" in2="effect1_dropShadow_1259_41567" result="shape"/>
</filter>
<filter id="filter24_d_1259_41567" x="140.221" y="288.168" width="28.3516" height="35.312" filterUnits="userSpaceOnUse" color-interpolation-filters="sRGB">
<feFlood flood-opacity="0" result="BackgroundImageFix"/>
<feColorMatrix in="SourceAlpha" type="matrix" values="0 0 0 0 0 0 0 0 0 0 0 0 0 0 0 0 0 0 127 0" result="hardAlpha"/>
<feOffset dy="4"/>
<feGaussianBlur stdDeviation="2"/>
<feComposite in2="hardAlpha" operator="out"/>
<feColorMatrix type="matrix" values="0 0 0 0 0.0742963 0 0 0 0 0.0284056 0 0 0 0 0.200496 0 0 0 0.25 0"/>
<feBlend mode="normal" in2="BackgroundImageFix" result="effect1_dropShadow_1259_41567"/>
<feBlend mode="normal" in="SourceGraphic" in2="effect1_dropShadow_1259_41567" result="shape"/>
</filter>
<filter id="filter25_d_1259_41567" x="126.322" y="278.136" width="16.7363" height="44.864" filterUnits="userSpaceOnUse" color-interpolation-filters="sRGB">
<feFlood flood-opacity="0" result="BackgroundImageFix"/>
<feColorMatrix in="SourceAlpha" type="matrix" values="0 0 0 0 0 0 0 0 0 0 0 0 0 0 0 0 0 0 127 0" result="hardAlpha"/>
<feOffset dy="4"/>
<feGaussianBlur stdDeviation="2"/>
<feComposite in2="hardAlpha" operator="out"/>
<feColorMatrix type="matrix" values="0 0 0 0 0.0742963 0 0 0 0 0.0284056 0 0 0 0 0.200496 0 0 0 0.25 0"/>
<feBlend mode="normal" in2="BackgroundImageFix" result="effect1_dropShadow_1259_41567"/>
<feBlend mode="normal" in="SourceGraphic" in2="effect1_dropShadow_1259_41567" result="shape"/>
</filter>
<filter id="filter26_d_1259_41567" x="91.8887" y="280.728" width="36.752" height="42.272" filterUnits="userSpaceOnUse" color-interpolation-filters="sRGB">
<feFlood flood-opacity="0" result="BackgroundImageFix"/>
<feColorMatrix in="SourceAlpha" type="matrix" values="0 0 0 0 0 0 0 0 0 0 0 0 0 0 0 0 0 0 127 0" result="hardAlpha"/>
<feOffset dy="4"/>
<feGaussianBlur stdDeviation="2"/>
<feComposite in2="hardAlpha" operator="out"/>
<feColorMatrix type="matrix" values="0 0 0 0 0.0742963 0 0 0 0 0.0284056 0 0 0 0 0.200496 0 0 0 0.25 0"/>
<feBlend mode="normal" in2="BackgroundImageFix" result="effect1_dropShadow_1259_41567"/>
<feBlend mode="normal" in="SourceGraphic" in2="effect1_dropShadow_1259_41567" result="shape"/>
</filter>
<linearGradient id="paint0_linear_1259_41567" x1="1105.5" y1="92.9999" x2="1281.76" y2="456.646" gradientUnits="userSpaceOnUse">
<stop stop-color="#2E9AA0"/>
<stop offset="1" stop-color="#476C87"/>
</linearGradient>
<linearGradient id="paint1_linear_1259_41567" x1="1015.5" y1="93" x2="839.238" y2="456.646" gradientUnits="userSpaceOnUse">
<stop stop-color="#444444"/>
<stop offset="1" stop-color="#888888"/>
</linearGradient>
<linearGradient id="paint2_linear_1259_41567" x1="398.5" y1="93.0002" x2="574.762" y2="456.646" gradientUnits="userSpaceOnUse">
<stop stop-color="#888888"/>
<stop offset="1" stop-color="#444444"/>
</linearGradient>
<linearGradient id="paint3_linear_1259_41567" x1="308.5" y1="93" x2="132.238" y2="456.646" gradientUnits="userSpaceOnUse">
<stop stop-color="#444444"/>
<stop offset="1" stop-color="#888888"/>
</linearGradient>
<clipPath id="clip0_1259_41567">
<rect width="1414" height="595.075" fill="white"/>
</clipPath>
</defs>
</svg>
