<svg width="153" height="113" viewBox="0 0 153 113" fill="none" xmlns="http://www.w3.org/2000/svg">
<path d="M127.312 0.511719C128.132 0.408408 128.882 0.992672 128.988 1.8125L130.723 15.1953C130.829 16.0169 130.243 16.7647 129.422 16.8711C128.602 16.9748 127.853 16.4015 127.746 15.582L126.539 6.30078C125.817 7.52768 125.032 8.70629 124.113 9.79297C122.993 11.1182 121.724 12.302 120.316 13.3438C119.071 14.2658 117.924 15.2802 116.883 16.3789C115.786 17.5363 114.692 18.7096 113.602 19.8945C112.392 21.2083 110.994 22.2886 109.418 23.1406C108.057 23.8763 106.779 24.7175 105.574 25.6484C104.258 26.6649 102.884 27.6027 101.461 28.4609C100.085 29.2905 98.707 30.1159 97.3242 30.9336C95.9311 31.7574 94.5166 32.5548 93.0938 33.3359C91.7137 34.0936 90.3472 34.9112 89.0039 35.7734C87.478 36.7526 85.8163 37.4289 84.0352 37.8008C82.5399 38.1132 81.1113 38.5836 79.7461 39.207C78.1753 39.9243 76.5413 40.4547 74.8477 40.8008C73.3876 41.0987 71.9678 41.5812 70.6055 42.2422C69.0019 43.0196 67.3243 43.5421 65.5781 43.8125C63.9599 44.0626 62.334 44.2903 60.7148 44.4805C59.1901 44.6597 57.6816 44.9511 56.1914 45.3594C54.5962 45.7964 52.984 46.1782 51.3633 46.5078C49.6706 46.8518 47.9592 47.0047 46.2305 46.9766C44.6408 46.9505 42.2933 46.9436 39.1875 46.9766L39.1992 46.9883L39.1055 47C38.2802 47.0559 37.5579 46.4301 37.5 45.6055C37.4441 44.7802 38.0699 44.0579 38.8945 44H39L39.0352 43.9883H46.2773C47.79 44.013 49.2852 43.8672 50.7656 43.5664C52.3197 43.2504 53.865 42.8838 55.3945 42.4648C57.0289 42.017 58.6883 41.689 60.3633 41.4922C61.9461 41.3063 63.5387 41.0923 65.1211 40.8477C66.5697 40.6231 67.9659 40.1848 69.3047 39.5352C70.8869 38.768 72.5325 38.2078 74.2383 37.8594C75.7116 37.5587 77.1385 37.1001 78.5039 36.4766C80.0746 35.7596 81.7158 35.2164 83.4258 34.8594C84.851 34.5616 86.1701 34.0232 87.3867 33.2422C88.7859 32.3441 90.2125 31.5014 91.6523 30.7109C93.0473 29.9451 94.4235 29.1513 95.7891 28.3438C97.1663 27.5293 98.5439 26.709 99.9141 25.8828C101.237 25.0848 102.511 24.2147 103.734 23.2695C105.07 22.2379 106.498 21.3157 108 20.5039C109.283 19.8095 110.417 18.9338 111.398 17.8672C112.5 16.6702 113.607 15.4859 114.715 14.3164C115.879 13.0875 117.151 11.9542 118.535 10.9297C119.756 10.0259 120.849 9.00297 121.816 7.85938C122.794 6.70249 123.656 5.44918 124.383 4.10938C124.424 4.03421 124.461 3.95889 124.5 3.88672L114.305 5.22266C113.483 5.32908 112.735 4.74344 112.629 3.92188C112.525 3.10242 113.098 2.35285 113.918 2.24609L127.312 0.511719Z" fill="#848A88"/>
<path d="M127.312 112.988C128.132 113.092 128.882 112.507 128.988 111.688L130.723 98.3047C130.829 97.4831 130.243 96.7353 129.422 96.6289C128.602 96.5252 127.853 97.0985 127.746 97.918L126.516 107.434C125.621 106.338 124.779 105.195 123.996 104.012C123.063 102.602 122.028 101.262 120.902 100.004C119.753 98.72 118.474 97.5636 117.07 96.5469C115.859 95.669 114.775 94.6455 113.824 93.4766C112.719 92.118 111.476 90.9107 110.098 89.8555C108.72 88.8009 107.229 87.9078 105.633 87.1836C104.256 86.5589 102.991 85.7723 101.836 84.8281C100.534 83.7644 99.1734 82.7853 97.7578 81.8867C96.2902 80.9553 94.7253 80.2004 93.0703 79.6367C91.5846 79.1306 90.139 78.5411 88.7461 77.8672C87.2132 77.1259 85.6179 76.5397 83.9648 76.0977C82.4718 75.6984 81.0245 75.1841 79.6172 74.5742C78.1552 73.9406 76.6924 73.2864 75.2344 72.6055C73.6858 71.8822 72.0829 71.2948 70.4414 70.8477C68.7954 70.3996 67.115 70.109 65.4023 69.9688C63.8653 69.8431 62.3592 69.5894 60.8906 69.207C59.3077 68.7945 57.7073 68.4167 56.0977 68.0938C54.5383 67.7809 52.9794 67.4351 51.4219 67.0508C49.7345 66.6344 48.0213 66.4132 46.2891 66.3828C44.6508 66.3542 42.2731 66.4037 39.1758 66.5117L39.1055 66.5C38.2802 66.4441 37.5579 67.0699 37.5 67.8945C37.4441 68.7198 38.0699 69.4421 38.8945 69.5H39L39.0703 69.5117L39.1523 69.5C42.2966 69.3892 44.6507 69.3554 46.2305 69.3828C47.7365 69.4091 49.226 69.6066 50.6953 69.9688C52.2959 70.3637 53.9081 70.7135 55.5117 71.0352C57.0641 71.3466 58.6029 71.7039 60.1289 72.1016C61.7693 72.529 63.4469 72.8173 65.1562 72.957C66.6883 73.0824 68.1883 73.3424 69.6562 73.7422C71.1306 74.1438 72.5636 74.6737 73.957 75.3242C75.441 76.0173 76.933 76.6829 78.4219 77.3281C79.9661 77.9973 81.5562 78.5549 83.1914 78.9922C84.6643 79.3861 86.0825 79.9148 87.4453 80.5742C88.9485 81.3014 90.499 81.9397 92.0977 82.4844C93.5295 82.9721 94.8868 83.6148 96.1523 84.418C97.4659 85.2518 98.7286 86.1608 99.9375 87.1484C101.295 88.2579 102.781 89.1834 104.391 89.9141C105.781 90.5453 107.075 91.3202 108.27 92.2344C109.461 93.1467 110.543 94.194 111.504 95.375C112.619 96.7455 113.888 97.9524 115.312 98.9844C116.545 99.8774 117.67 100.883 118.676 102.008C119.705 103.158 120.646 104.386 121.5 105.676C122.398 107.032 123.359 108.34 124.395 109.59L114.305 108.277C113.483 108.171 112.735 108.757 112.629 109.578C112.525 110.398 113.098 111.147 113.918 111.254L127.312 112.988Z" fill="#848A88"/>
<path d="M140.391 44.8945C140.976 44.3091 141.926 44.3097 142.512 44.8945L152.062 54.4336C152.648 55.0194 152.648 55.9806 152.062 56.5664L142.512 66.1055C141.926 66.6903 140.976 66.6909 140.391 66.1055C139.807 65.5198 139.806 64.5696 140.391 63.9844L147.645 56.7188C146.275 56.5342 144.907 56.593 143.531 56.8945C141.733 57.2893 139.921 57.3245 138.117 57.0117C136.66 56.7592 135.201 56.7395 133.746 56.9414C132.005 57.1826 130.261 57.1858 128.52 56.9531C126.981 56.7473 125.439 56.6485 123.902 56.6602C122.384 56.6719 120.855 56.827 119.332 57.1172C117.59 57.4487 115.841 57.5382 114.094 57.3867C112.558 57.2537 111.023 57.2351 109.488 57.3281C107.778 57.4319 106.063 57.3672 104.355 57.1289C102.874 56.9222 101.395 56.9075 99.9141 57.082C98.2636 57.2768 96.6083 57.3985 94.957 57.457C93.2967 57.5158 91.6366 57.4874 89.9766 57.375C88.3609 57.2655 86.7406 57.1512 85.125 57.0234C83.6027 56.9032 81.2905 56.8899 78.1523 57H78C77.1716 57 76.5 56.3284 76.5 55.5C76.5 54.6716 77.1716 54 78 54H78.0469C81.2122 53.889 83.6618 53.9012 85.3594 54.0352C86.9636 54.162 88.5715 54.278 90.1758 54.3867C91.7343 54.4923 93.2933 54.5122 94.8516 54.457C96.4203 54.4014 97.993 54.279 99.5625 54.0938C101.299 53.8892 103.042 53.9102 104.777 54.1523C106.287 54.3627 107.794 54.4194 109.301 54.3281C110.983 54.226 112.669 54.2528 114.352 54.3984C115.821 54.5258 117.294 54.4448 118.77 54.1641C120.467 53.8407 122.177 53.6733 123.879 53.6602C125.558 53.6474 127.241 53.7523 128.918 53.9766C130.392 54.1733 131.862 54.1691 133.336 53.9648C135.1 53.72 136.871 53.753 138.633 54.0586C140.049 54.3041 141.465 54.2768 142.887 53.9648C144.263 53.663 145.642 53.5708 147.023 53.6602L140.391 47.0156C139.806 46.4304 139.807 45.4802 140.391 44.8945Z" fill="#848A88"/>
<path d="M2 48.0329C2.18499 46.9173 2.56058 44.3106 3.58365 41.8749C4.44862 39.8155 7.03403 38.8842 9.27916 37.9452C11.9142 36.8432 15.4428 37.0118 18.6185 37.0062C21.3823 37.0013 23.2909 39.8035 24.9783 41.8581C27.1136 44.458 25.7351 49.1428 24.8942 51.388C24.0327 53.6882 21.071 54.0087 18.8259 54.8496C16.7657 56.436 15.2746 58.6727 13.9628 61.4729C13.7722 62.5912 13.7722 64.2561 13.7722 65.9715" stroke="#848A88" stroke-width="3" stroke-linecap="round"/>
<path d="M14.8931 78.8649C14.8931 78.6799 14.8931 78.4949 15.1706 78.3996C15.4481 78.3043 16.003 78.3043 16.1039 78.5818C16.2049 78.8593 15.8349 79.4143 15.3668 79.7002C14.8987 79.9861 14.3437 79.9861 14.1503 79.7086C13.9569 79.4311 14.1419 78.8761 14.3325 78.3043" stroke="#848A88" stroke-width="3" stroke-linecap="round"/>
</svg>
