<svg width="161" height="113" viewBox="0 0 161 113" fill="none" xmlns="http://www.w3.org/2000/svg">
<path d="M90.3125 66.5117C91.132 66.4084 91.8821 66.9927 91.9883 67.8125L93.7227 81.1953C93.8291 82.0169 93.2434 82.7647 92.4219 82.8711C91.6024 82.9748 90.8529 82.4015 90.7461 81.582L89.5391 72.3008C88.8167 73.5277 88.0318 74.7063 87.1133 75.793C85.9931 77.1182 84.7241 78.302 83.3164 79.3438C82.0707 80.2658 80.9238 81.2802 79.8828 82.3789C78.7862 83.5363 77.6917 84.7096 76.6016 85.8945C75.3925 87.2083 73.9944 88.2886 72.418 89.1406C71.0569 89.8763 69.7793 90.7175 68.5742 91.6484C67.2583 92.6649 65.8841 93.6027 64.4609 94.4609C63.0852 95.2905 61.707 96.1159 60.3242 96.9336C58.9311 97.7574 57.5166 98.5548 56.0938 99.3359C54.7137 100.094 53.3472 100.911 52.0039 101.773C50.478 102.753 48.8163 103.429 47.0352 103.801C45.5399 104.113 44.1113 104.584 42.7461 105.207C41.1753 105.924 39.5413 106.455 37.8477 106.801C36.3876 107.099 34.9678 107.581 33.6055 108.242C32.0019 109.02 30.3243 109.542 28.5781 109.812C26.9599 110.063 25.334 110.29 23.7148 110.48C22.1901 110.66 20.6816 110.951 19.1914 111.359C17.5962 111.796 15.984 112.178 14.3633 112.508C12.6706 112.852 10.9592 113.005 9.23047 112.977C7.64083 112.95 5.29334 112.944 2.1875 112.977L2.19922 112.988L2.10547 113C1.2802 113.056 0.557938 112.43 0.5 111.605C0.44407 110.78 1.06988 110.058 1.89453 110H2L2.03516 109.988H9.27734C10.79 110.013 12.2852 109.867 13.7656 109.566C15.3197 109.25 16.865 108.884 18.3945 108.465C20.0289 108.017 21.6883 107.689 23.3633 107.492C24.9461 107.306 26.5387 107.092 28.1211 106.848C29.5697 106.623 30.9659 106.185 32.3047 105.535C33.8869 104.768 35.5325 104.208 37.2383 103.859C38.7116 103.559 40.1385 103.1 41.5039 102.477C43.0746 101.76 44.7158 101.216 46.4258 100.859C47.851 100.562 49.1701 100.023 50.3867 99.2422C51.7859 98.3441 53.2125 97.5014 54.6523 96.7109C56.0473 95.9451 57.4235 95.1513 58.7891 94.3438C60.1663 93.5293 61.5439 92.709 62.9141 91.8828C64.2371 91.0848 65.5108 90.2147 66.7344 89.2695C68.0698 88.2379 69.4979 87.3157 71 86.5039C72.2835 85.8095 73.4168 84.9338 74.3984 83.8672C75.4997 82.6702 76.6067 81.4859 77.7148 80.3164C78.8793 79.0875 80.1508 77.9542 81.5352 76.9297C82.7562 76.0259 83.8492 75.003 84.8164 73.8594C85.7943 72.7025 86.6562 71.4492 87.3828 70.1094C87.4236 70.0342 87.4606 69.9589 87.5 69.8867L77.3047 71.2227C76.4831 71.3291 75.7353 70.7434 75.6289 69.9219C75.5252 69.1024 76.0985 68.3529 76.918 68.2461L90.3125 66.5117Z" fill="#848A88"/>
<path d="M90.3125 46.9883C91.132 47.0916 91.8821 46.5073 91.9883 45.6875L93.7227 32.3047C93.8291 31.4831 93.2434 30.7353 92.4219 30.6289C91.6024 30.5252 90.8529 31.0985 90.7461 31.918L89.5156 41.4336C88.6209 40.3379 87.7791 39.1951 86.9961 38.0117C86.0628 36.6016 85.0281 35.2624 83.9023 34.0039C82.7533 32.72 81.4739 31.5636 80.0703 30.5469C78.8592 29.669 77.7751 28.6455 76.8242 27.4766C75.7186 26.118 74.4756 24.9107 73.0977 23.8555C71.72 22.8009 70.2287 21.9078 68.6328 21.1836C67.2563 20.5589 65.9914 19.7723 64.8359 18.8281C63.534 17.7644 62.1734 16.7853 60.7578 15.8867C59.2902 14.9553 57.7253 14.2004 56.0703 13.6367C54.5846 13.1306 53.139 12.5411 51.7461 11.8672C50.2132 11.1259 48.6179 10.5397 46.9648 10.0977C45.4718 9.69843 44.0245 9.18405 42.6172 8.57422C41.1552 7.94061 39.6924 7.28639 38.2344 6.60547C36.6858 5.88219 35.0829 5.2948 33.4414 4.84766C31.7954 4.39957 30.115 4.10897 28.4023 3.96875C26.8653 3.84309 25.3592 3.5894 23.8906 3.20703C22.3077 2.79453 20.7073 2.41667 19.0977 2.09375C17.5383 1.78091 15.9794 1.43506 14.4219 1.05078C12.7345 0.634448 11.0213 0.41323 9.28906 0.382812C7.65077 0.35421 5.2731 0.403703 2.17578 0.511719L2.10547 0.5C1.2802 0.44407 0.557938 1.06988 0.5 1.89453C0.44407 2.7198 1.06988 3.44206 1.89453 3.5H2L2.07031 3.51172L2.15234 3.5C5.29662 3.38918 7.65073 3.35537 9.23047 3.38281C10.7365 3.4091 12.226 3.60657 13.6953 3.96875C15.2959 4.36368 16.9081 4.71346 18.5117 5.03516C20.0641 5.34665 21.6029 5.70394 23.1289 6.10156C24.7693 6.52903 26.4469 6.81728 28.1562 6.95703C29.6883 7.08238 31.1883 7.34239 32.6562 7.74219C34.1306 8.1438 35.5636 8.67366 36.957 9.32422C38.441 10.0173 39.933 10.6829 41.4219 11.3281C42.9661 11.9973 44.5562 12.5549 46.1914 12.9922C47.6643 13.3861 49.0825 13.9148 50.4453 14.5742C51.9485 15.3014 53.499 15.9397 55.0977 16.4844C56.5295 16.9721 57.8868 17.6148 59.1523 18.418C60.4659 19.2518 61.7286 20.1608 62.9375 21.1484C64.2953 22.2579 65.7813 23.1834 67.3906 23.9141C68.7815 24.5453 70.0751 25.3202 71.2695 26.2344C72.4614 27.1467 73.5432 28.194 74.5039 29.375C75.6193 30.7455 76.8879 31.9524 78.3125 32.9844C79.5452 33.8774 80.6698 34.8831 81.6758 36.0078C82.7049 37.1585 83.6465 38.3859 84.5 39.6758C85.3979 41.0324 86.3589 42.3403 87.3945 43.5898L77.3047 42.2773C76.4831 42.1709 75.7353 42.7566 75.6289 43.5781C75.5252 44.3976 76.0985 45.1471 76.918 45.2539L90.3125 46.9883Z" fill="#848A88"/>
<path d="M64.3906 44.8945C64.9761 44.3091 65.9259 44.3097 66.5117 44.8945L76.0625 54.4336C76.6483 55.0194 76.6483 55.9806 76.0625 56.5664L66.5117 66.1055C65.9259 66.6903 64.9761 66.6909 64.3906 66.1055C63.8071 65.5198 63.8064 64.5696 64.3906 63.9844L71.6445 56.7188C70.2751 56.5342 68.9073 56.593 67.5312 56.8945C65.733 57.2893 63.9206 57.3245 62.1172 57.0117C60.66 56.7592 59.2009 56.7395 57.7461 56.9414C56.0046 57.1826 54.2613 57.1858 52.5195 56.9531C50.9806 56.7473 49.4394 56.6485 47.9023 56.6602C46.3843 56.6719 44.8549 56.827 43.332 57.1172C41.5901 57.4487 39.8414 57.5382 38.0938 57.3867C36.5583 57.2537 35.0234 57.2351 33.4883 57.3281C31.778 57.4319 30.0635 57.3672 28.3555 57.1289C26.8735 56.9222 25.3949 56.9075 23.9141 57.082C22.2636 57.2768 20.6083 57.3985 18.957 57.457C17.2967 57.5158 15.6366 57.4874 13.9766 57.375C12.3609 57.2655 10.7406 57.1512 9.125 57.0234C7.60266 56.9032 5.29051 56.8899 2.15234 57H2C1.17157 57 0.5 56.3284 0.5 55.5C0.5 54.6716 1.17157 54 2 54H2.04688C5.21222 53.889 7.66183 53.9012 9.35938 54.0352C10.9636 54.162 12.5715 54.278 14.1758 54.3867C15.7343 54.4923 17.2933 54.5122 18.8516 54.457C20.4203 54.4014 21.993 54.279 23.5625 54.0938C25.299 53.8892 27.0419 53.9102 28.7773 54.1523C30.2867 54.3627 31.7937 54.4194 33.3008 54.3281C34.9834 54.226 36.6694 54.2528 38.3516 54.3984C39.8213 54.5258 41.294 54.4448 42.7695 54.1641C44.4667 53.8407 46.177 53.6733 47.8789 53.6602C49.558 53.6474 51.2407 53.7523 52.918 53.9766C54.3915 54.1733 55.8621 54.1691 57.3359 53.9648C59.1004 53.72 60.8708 53.753 62.6328 54.0586C64.0491 54.3041 65.4654 54.2768 66.8867 53.9648C68.2629 53.663 69.642 53.5708 71.0234 53.6602L64.3906 47.0156C63.8064 46.4304 63.8071 45.4802 64.3906 44.8945Z" fill="#848A88"/>
<path d="M109.375 57.7142C109.997 58.4596 111.241 59.9543 112.368 61.4546C113.703 63.2302 115.489 65.1987 117.421 67.3208C118.83 68.8677 119.984 70.4432 121.295 71.9434C122.505 73.3283 123.602 74.6911 124.481 76.0022C125.44 77.4342 126.974 78.6844 128.474 79.8738C129.221 80.5574 129.974 81.1867 130.722 81.685C131.098 81.9359 131.469 82.1832 131.851 82.8125" stroke="#848A88" stroke-width="3" stroke-linecap="round"/>
<path d="M132.225 82.8125C133.468 82.0671 135.214 80.8196 136.714 79.5085C138.099 78.2983 139.709 77.201 141.395 75.8262C143.967 73.7285 145.328 72.5784 146.518 71.2673C148.004 69.6288 149.951 67.8359 150.951 66.3356C151.937 64.857 153.322 63.7153 154.384 62.3386C155.068 61.9622 155.697 61.4639 156.195 60.7166C156.446 60.3401 156.694 59.9693 157.323 59.2126" stroke="#848A88" stroke-width="3" stroke-linecap="round"/>
<path d="M110.498 56.2158C111.738 57.0848 114.237 58.336 115.86 59.2706C117.007 59.9715 118.5 60.5 119.863 61.4602" stroke="#848A88" stroke-width="3" stroke-linecap="round"/>
<path d="M125 61.5C125.622 62.9947 127.371 67.9893 128.182 69.4896C128.495 70.2369 128.869 70.9899 129.306 71.7372C129.495 72.1137 129.619 72.4845 129.746 72.8666" stroke="#848A88" stroke-width="3" stroke-linecap="round"/>
<path d="M141.964 62.584C140.559 64.9244 139.501 67.2377 138 69.5" stroke="#848A88" stroke-width="3" stroke-linecap="round"/>
<path d="M143.088 61.4602C144.579 60.962 146.826 60.4638 148.327 59.9637C149.827 59.4636 152.311 59.2126 154.32 58.9017C154.697 58.838 155.068 58.838 156.199 58.4634" stroke="#848A88" stroke-width="3" stroke-linecap="round"/>
<path d="M125 61C128.52 61 131.498 61 135 61" stroke="#848A88" stroke-width="3" stroke-linecap="round"/>
<path d="M111.996 53.219C112.367 52.9717 112.738 52.7245 113.98 52.0408C115.221 51.3572 117.323 50.2446 118.591 49.6097C119.859 48.9747 120.23 48.8511 120.612 48.7237" stroke="#848A88" stroke-width="3" stroke-linecap="round"/>
<path d="M138.594 48.3491C139.5 50.5 140.549 54.5741 141.5 56" stroke="#848A88" stroke-width="3" stroke-linecap="round"/>
<path d="M146.086 46.1015C147.079 46.9706 149.075 48.469 152.13 50.6511C153.759 51.8149 155.316 53.4587 156.882 54.7754C157.197 55.0882 157.444 55.4591 157.695 55.8355C157.946 56.212 158.193 56.5829 158.822 56.965" stroke="#848A88" stroke-width="3" stroke-linecap="round"/>
<path d="M130.727 43.4793C130.85 43.4793 130.974 43.4793 132.521 43.4793C134.068 43.4793 137.035 43.4793 140.092 43.1047" stroke="#848A88" stroke-width="3" stroke-linecap="round"/>
<path d="M113.121 40.1079C113.368 40.1079 113.867 40.3551 114.614 40.7915C114.99 40.9807 115.361 41.1043 116.047 41.4152C116.732 41.7262 117.721 42.2206 119.115 42.7301" stroke="#848A88" stroke-width="3" stroke-linecap="round"/>
<path d="M112.746 24C113.735 25.2399 116.237 27.7385 116.927 29.2388C117.863 30.9863 118.612 32.6121 119.111 33.3594C119.362 33.7359 119.609 34.1068 120.238 34.8635" stroke="#848A88" stroke-width="3" stroke-linecap="round"/>
<path d="M128.105 29.9936L127.73 35.2381" stroke="#848A88" stroke-width="3" stroke-linecap="round"/>
<path d="M109 47.5999C109.371 47.4763 109.742 47.3527 110.18 47.289C110.618 47.2253 111.113 47.2253 111.997 46.8507" stroke="#848A88" stroke-width="3" stroke-linecap="round"/>
<path d="M135.221 34.8635C135.468 34.7398 135.715 34.6162 136.028 34.4289C136.341 34.2416 136.712 33.9944 137.094 33.7397" stroke="#848A88" stroke-width="3" stroke-linecap="round"/>
</svg>
