<svg width="157" height="113" viewBox="0 0 157 113" fill="none" xmlns="http://www.w3.org/2000/svg">
<path d="M131.312 0.511719C132.132 0.408408 132.882 0.992672 132.988 1.8125L134.723 15.1953C134.829 16.0169 134.243 16.7647 133.422 16.8711C132.602 16.9748 131.853 16.4015 131.746 15.582L130.539 6.30078C129.817 7.52768 129.032 8.70629 128.113 9.79297C126.993 11.1182 125.724 12.302 124.316 13.3438C123.071 14.2658 121.924 15.2802 120.883 16.3789C119.786 17.5363 118.692 18.7096 117.602 19.8945C116.392 21.2083 114.994 22.2886 113.418 23.1406C112.057 23.8763 110.779 24.7175 109.574 25.6484C108.258 26.6649 106.884 27.6027 105.461 28.4609C104.085 29.2905 102.707 30.1159 101.324 30.9336C99.9311 31.7574 98.5166 32.5548 97.0938 33.3359C95.7137 34.0936 94.3472 34.9112 93.0039 35.7734C91.478 36.7526 89.8163 37.4289 88.0352 37.8008C86.5399 38.1132 85.1113 38.5836 83.7461 39.207C82.1753 39.9243 80.5413 40.4547 78.8477 40.8008C77.3876 41.0987 75.9678 41.5812 74.6055 42.2422C73.0019 43.0196 71.3243 43.5421 69.5781 43.8125C67.9599 44.0626 66.334 44.2903 64.7148 44.4805C63.1901 44.6597 61.6816 44.9511 60.1914 45.3594C58.5962 45.7964 56.984 46.1782 55.3633 46.5078C53.6706 46.8518 51.9592 47.0047 50.2305 46.9766C48.6408 46.9505 46.2933 46.9436 43.1875 46.9766L43.1992 46.9883L43.1055 47C42.2802 47.0559 41.5579 46.4301 41.5 45.6055C41.4441 44.7802 42.0699 44.0579 42.8945 44H43L43.0352 43.9883H50.2773C51.79 44.013 53.2852 43.8672 54.7656 43.5664C56.3197 43.2504 57.865 42.8838 59.3945 42.4648C61.0289 42.017 62.6883 41.689 64.3633 41.4922C65.9461 41.3063 67.5387 41.0923 69.1211 40.8477C70.5697 40.6231 71.9659 40.1848 73.3047 39.5352C74.8869 38.768 76.5325 38.2078 78.2383 37.8594C79.7116 37.5587 81.1385 37.1001 82.5039 36.4766C84.0746 35.7596 85.7158 35.2164 87.4258 34.8594C88.851 34.5616 90.1701 34.0232 91.3867 33.2422C92.7859 32.3441 94.2125 31.5014 95.6523 30.7109C97.0473 29.9451 98.4235 29.1513 99.7891 28.3438C101.166 27.5293 102.544 26.709 103.914 25.8828C105.237 25.0848 106.511 24.2147 107.734 23.2695C109.07 22.2379 110.498 21.3157 112 20.5039C113.283 19.8095 114.417 18.9338 115.398 17.8672C116.5 16.6702 117.607 15.4859 118.715 14.3164C119.879 13.0875 121.151 11.9542 122.535 10.9297C123.756 10.0259 124.849 9.00297 125.816 7.85938C126.794 6.70249 127.656 5.44918 128.383 4.10938C128.424 4.03421 128.461 3.95889 128.5 3.88672L118.305 5.22266C117.483 5.32908 116.735 4.74344 116.629 3.92188C116.525 3.10242 117.098 2.35285 117.918 2.24609L131.312 0.511719Z" fill="#848A88"/>
<path d="M131.312 112.988C132.132 113.092 132.882 112.507 132.988 111.688L134.723 98.3047C134.829 97.4831 134.243 96.7353 133.422 96.6289C132.602 96.5252 131.853 97.0985 131.746 97.918L130.516 107.434C129.621 106.338 128.779 105.195 127.996 104.012C127.063 102.602 126.028 101.262 124.902 100.004C123.753 98.72 122.474 97.5636 121.07 96.5469C119.859 95.669 118.775 94.6455 117.824 93.4766C116.719 92.118 115.476 90.9107 114.098 89.8555C112.72 88.8009 111.229 87.9078 109.633 87.1836C108.256 86.5589 106.991 85.7723 105.836 84.8281C104.534 83.7644 103.173 82.7853 101.758 81.8867C100.29 80.9553 98.7253 80.2004 97.0703 79.6367C95.5846 79.1306 94.139 78.5411 92.7461 77.8672C91.2132 77.1259 89.6179 76.5397 87.9648 76.0977C86.4718 75.6984 85.0245 75.1841 83.6172 74.5742C82.1552 73.9406 80.6924 73.2864 79.2344 72.6055C77.6858 71.8822 76.0829 71.2948 74.4414 70.8477C72.7954 70.3996 71.115 70.109 69.4023 69.9688C67.8653 69.8431 66.3592 69.5894 64.8906 69.207C63.3077 68.7945 61.7073 68.4167 60.0977 68.0938C58.5383 67.7809 56.9794 67.4351 55.4219 67.0508C53.7345 66.6344 52.0213 66.4132 50.2891 66.3828C48.6508 66.3542 46.2731 66.4037 43.1758 66.5117L43.1055 66.5C42.2802 66.4441 41.5579 67.0699 41.5 67.8945C41.4441 68.7198 42.0699 69.4421 42.8945 69.5H43L43.0703 69.5117L43.1523 69.5C46.2966 69.3892 48.6507 69.3554 50.2305 69.3828C51.7365 69.4091 53.226 69.6066 54.6953 69.9688C56.2959 70.3637 57.9081 70.7135 59.5117 71.0352C61.0641 71.3466 62.6029 71.7039 64.1289 72.1016C65.7693 72.529 67.4469 72.8173 69.1562 72.957C70.6883 73.0824 72.1883 73.3424 73.6562 73.7422C75.1306 74.1438 76.5636 74.6737 77.957 75.3242C79.441 76.0173 80.933 76.6829 82.4219 77.3281C83.9661 77.9973 85.5562 78.5549 87.1914 78.9922C88.6643 79.3861 90.0825 79.9148 91.4453 80.5742C92.9485 81.3014 94.499 81.9397 96.0977 82.4844C97.5295 82.9721 98.8868 83.6148 100.152 84.418C101.466 85.2518 102.729 86.1608 103.938 87.1484C105.295 88.2579 106.781 89.1834 108.391 89.9141C109.781 90.5453 111.075 91.3202 112.27 92.2344C113.461 93.1467 114.543 94.194 115.504 95.375C116.619 96.7455 117.888 97.9524 119.312 98.9844C120.545 99.8774 121.67 100.883 122.676 102.008C123.705 103.158 124.646 104.386 125.5 105.676C126.398 107.032 127.359 108.34 128.395 109.59L118.305 108.277C117.483 108.171 116.735 108.757 116.629 109.578C116.525 110.398 117.098 111.147 117.918 111.254L131.312 112.988Z" fill="#848A88"/>
<path d="M144.391 44.8945C144.976 44.3091 145.926 44.3097 146.512 44.8945L156.062 54.4336C156.648 55.0194 156.648 55.9806 156.062 56.5664L146.512 66.1055C145.926 66.6903 144.976 66.6909 144.391 66.1055C143.807 65.5198 143.806 64.5696 144.391 63.9844L151.645 56.7188C150.275 56.5342 148.907 56.593 147.531 56.8945C145.733 57.2893 143.921 57.3245 142.117 57.0117C140.66 56.7592 139.201 56.7395 137.746 56.9414C136.005 57.1826 134.261 57.1858 132.52 56.9531C130.981 56.7473 129.439 56.6485 127.902 56.6602C126.384 56.6719 124.855 56.827 123.332 57.1172C121.59 57.4487 119.841 57.5382 118.094 57.3867C116.558 57.2537 115.023 57.2351 113.488 57.3281C111.778 57.4319 110.063 57.3672 108.355 57.1289C106.874 56.9222 105.395 56.9075 103.914 57.082C102.264 57.2768 100.608 57.3985 98.957 57.457C97.2967 57.5158 95.6366 57.4874 93.9766 57.375C92.3609 57.2655 90.7406 57.1512 89.125 57.0234C87.6027 56.9032 85.2905 56.8899 82.1523 57H82C81.1716 57 80.5 56.3284 80.5 55.5C80.5 54.6716 81.1716 54 82 54H82.0469C85.2122 53.889 87.6618 53.9012 89.3594 54.0352C90.9636 54.162 92.5715 54.278 94.1758 54.3867C95.7343 54.4923 97.2933 54.5122 98.8516 54.457C100.42 54.4014 101.993 54.279 103.562 54.0938C105.299 53.8892 107.042 53.9102 108.777 54.1523C110.287 54.3627 111.794 54.4194 113.301 54.3281C114.983 54.226 116.669 54.2528 118.352 54.3984C119.821 54.5258 121.294 54.4448 122.77 54.1641C124.467 53.8407 126.177 53.6733 127.879 53.6602C129.558 53.6474 131.241 53.7523 132.918 53.9766C134.392 54.1733 135.862 54.1691 137.336 53.9648C139.1 53.72 140.871 53.753 142.633 54.0586C144.049 54.3041 145.465 54.2768 146.887 53.9648C148.263 53.663 149.642 53.5708 151.023 53.6602L144.391 47.0156C143.806 46.4304 143.807 45.4802 144.391 44.8945Z" fill="#848A88"/>
<path d="M10.5266 49.1409C10.0902 50.6375 9.84111 51.3848 8.81376 54.3114C8.40126 55.4865 8.3427 56.2546 8.09265 57.0048C7.8426 57.7549 7.71711 58.5022 7.40619 59.2524C7.11498 59.955 7.03159 60.7499 6.78154 61.5C6.51288 62.306 6.28239 63.1848 6.03234 63.9349C5.82086 65.5587 5.33085 66.7699 4.81957 68.3037C4.56952 69.0539 4.19679 69.8012 3.88306 70.5514C3.57797 71.2808 3.38391 72.0488 2.9784 72.799C2.59732 73.5039 2.57102 74.2964 2.38465 75.0466C2.18369 75.8555 2.32004 76.7313 2.72554 77.4815C3.11792 78.2074 3.69108 78.7317 4.44122 79.1681C5.19217 79.605 5.93869 79.8555 6.78154 80.0747C7.96511 80.3824 8.74821 80.2938 9.49835 80.1075C9.8806 80.0125 10.2485 79.8574 10.5912 79.671C10.9588 79.4712 11.1232 78.9846 11.3414 78.6109C11.5457 78.2611 11.5615 76.501 11.5924 74.067C11.6297 71.129 12.158 69.0239 12.2526 66.8746C12.3067 65.6437 12.5326 64.5287 12.7517 63.7785C12.9637 63.0529 13.0945 62.281 13.5 61.5C13.9467 60.6396 13.9327 58.196 14.3691 57.2904C14.7583 56.4829 15.0565 55.7611 15.3065 55.011C15.5511 54.2773 15.6184 53.5135 15.8685 52.7634C16.113 52.0297 16.1803 51.2659 16.4304 50.5158L17.9288 46.0205C18.0533 45.6469 18.2406 45.2704 18.4588 44.8967C18.5534 44.7085 18.6152 44.5231 18.6789 43.9574" stroke="#848A88" stroke-width="3" stroke-linecap="round"/>
<path d="M11 41.5197C11.5 40 12 38.5575 8.47337 38.5575C7.25045 38.5575 4.4052 38.3384 2.57246 38.152C2.37506 38.132 2.19879 38.0275 2.10327 37.6248C1.83821 36.5074 2.13136 35.5308 2.44228 35.1262C3.15761 34.1954 4.06431 33.9705 4.81445 33.6568C5.54394 33.3517 6.31192 33.1577 7.24843 32.9076C8.18668 32.6571 9.05775 32.5321 10.027 32.3457C11.0545 32.1481 12.3056 32.0338 13.6775 32.0011C14.5686 31.9798 15.3024 32.2811 16.0525 32.5311C16.8432 32.7947 17.7373 32.843 18.4874 33.093L22.9826 34.5914C23.7328 34.8415 24.4801 35.0906 25.8212 35.0616C26.7949 35.0405 27.166 33.6596 27.8525 33.1267C28.7549 32.4262 30.4737 33.0303 31.193 33.4976C31.9425 33.9846 32.0995 34.9632 32.1323 36.8016C32.1501 37.7986 31.665 38.522 31.4149 39.2721C31.1649 40.0222 30.9158 40.7696 30.6348 41.5197C30.3356 42.3187 30.1029 43.0172 29.7611 43.7673C29.4189 44.5182 29.0428 45.2648 28.5755 46.0149C28.0494 46.8593 27.1098 47.0779 26.3597 47.3279C25.986 47.4525 25.6095 47.5161 25.2359 47.4543C25.0404 47.422 24.8622 47.2689 24.7358 47.1125C24.033 46.2431 24.3602 44.5231 24.1102 43.7729C24.0475 43.5847 23.9856 43.3993 23.8611 43.2419C23.5511 42.961 22.3093 42.8336 20.6245 42.9263C19.9905 43.019 19.8051 43.2045 19.4267 43.7701" stroke="#848A88" stroke-width="3" stroke-linecap="round"/>
</svg>
