<svg width="75" height="111" viewBox="0 0 75 111" fill="none" xmlns="http://www.w3.org/2000/svg">
<path d="M7.27645 59V60.0673H8.34375H66.893H67.9603V59L67.9603 32.1532L67.9603 32.1488C67.8925 15.4492 54.3338 1.9327 37.6184 1.9327C20.903 1.9327 7.3443 15.4492 7.27645 32.1488V32.1532V59ZM18.3999 53.8985V32.4698C18.444 21.8729 27.0333 13.2991 37.6184 13.2991C48.2035 13.2991 56.7929 21.8731 56.8368 32.47V53.8985H18.3999Z" fill="#FFF" stroke="#FFF" stroke-width="2.1346"/>
<mask id="path-2-outside-1_1043_38982" maskUnits="userSpaceOnUse" x="0" y="50.5321" width="75" height="60" fill="black">
<rect fill="white" y="50.5321" width="75" height="60"/>
<path fill-rule="evenodd" clip-rule="evenodd" d="M7.98074 53.5321C5.22995 53.5321 3 55.7621 3 58.5129V102.971C3 105.721 5.22995 107.951 7.98074 107.951H67.501C70.2517 107.951 72.4817 105.721 72.4817 102.971V58.5128C72.4817 55.7621 70.2517 53.5321 67.501 53.5321H7.98074ZM46.7594 71.841C46.7594 75.5197 44.5698 78.6869 41.4229 80.1107V93.3457H33.9517V80.1107C30.8048 78.6869 28.6152 75.5197 28.6152 71.841C28.6152 66.8306 32.6769 62.7689 37.6873 62.7689C42.6977 62.7689 46.7594 66.8306 46.7594 71.841Z"/>
</mask>
<path fill-rule="evenodd" clip-rule="evenodd" d="M7.98074 53.5321C5.22995 53.5321 3 55.7621 3 58.5129V102.971C3 105.721 5.22995 107.951 7.98074 107.951H67.501C70.2517 107.951 72.4817 105.721 72.4817 102.971V58.5128C72.4817 55.7621 70.2517 53.5321 67.501 53.5321H7.98074ZM46.7594 71.841C46.7594 75.5197 44.5698 78.6869 41.4229 80.1107V93.3457H33.9517V80.1107C30.8048 78.6869 28.6152 75.5197 28.6152 71.841C28.6152 66.8306 32.6769 62.7689 37.6873 62.7689C42.6977 62.7689 46.7594 66.8306 46.7594 71.841Z" fill="#FFF"/>
<path d="M41.4229 80.1107L40.543 78.1659L39.2883 78.7336V80.1107H41.4229ZM41.4229 93.3457V95.4803H43.5575V93.3457H41.4229ZM33.9517 93.3457H31.8171V95.4803H33.9517V93.3457ZM33.9517 80.1107H36.0863V78.7336L34.8316 78.1659L33.9517 80.1107ZM5.1346 58.5129C5.1346 56.941 6.40887 55.6667 7.98074 55.6667V51.3975C4.05104 51.3975 0.865396 54.5832 0.865396 58.5129H5.1346ZM5.1346 102.971V58.5129H0.865396V102.971H5.1346ZM7.98074 105.817C6.40886 105.817 5.1346 104.542 5.1346 102.971H0.865396C0.865396 106.9 4.05104 110.086 7.98074 110.086V105.817ZM67.501 105.817H7.98074V110.086H67.501V105.817ZM70.3471 102.971C70.3471 104.542 69.0728 105.817 67.501 105.817V110.086C71.4306 110.086 74.6163 106.9 74.6163 102.971H70.3471ZM70.3471 58.5128V102.971H74.6163V58.5128H70.3471ZM67.501 55.6667C69.0728 55.6667 70.3471 56.941 70.3471 58.5128H74.6163C74.6163 54.5831 71.4306 51.3975 67.501 51.3975V55.6667ZM7.98074 55.6667H67.501V51.3975H7.98074V55.6667ZM42.3027 82.0555C46.1855 80.2989 48.894 76.3885 48.894 71.841H44.6248C44.6248 74.6508 42.9542 77.075 40.543 78.1659L42.3027 82.0555ZM43.5575 93.3457V80.1107H39.2883V93.3457H43.5575ZM33.9517 95.4803H41.4229V91.2111H33.9517V95.4803ZM31.8171 80.1107V93.3457H36.0863V80.1107H31.8171ZM26.4806 71.841C26.4806 76.3885 29.1891 80.2989 33.0719 82.0555L34.8316 78.1659C32.4204 77.075 30.7498 74.6508 30.7498 71.841H26.4806ZM37.6873 60.6343C31.498 60.6343 26.4806 65.6517 26.4806 71.841H30.7498C30.7498 68.0095 33.8559 64.9035 37.6873 64.9035V60.6343ZM48.894 71.841C48.894 65.6517 43.8766 60.6343 37.6873 60.6343V64.9035C41.5188 64.9035 44.6248 68.0095 44.6248 71.841H48.894Z" fill="#C5C5C5" mask="url(#path-2-outside-1_1043_38982)"/>
</svg>
