<svg width="107" height="106" viewBox="0 0 107 106" fill="none" xmlns="http://www.w3.org/2000/svg">
<path fill-rule="evenodd" clip-rule="evenodd" d="M50.0998 2.57883C51.476 -0.823147 56.2926 -0.823153 57.6689 2.57882L60.9993 10.8111C61.2163 11.3415 66.5218 12.1761 67.3537 12.4524C69.6738 10.5695 71.9185 8.58483 74.1981 6.6529C76.9977 4.28019 81.2626 6.51857 80.9002 10.1705C80.6031 13.1648 80.1866 16.1736 80.01 19.1773C81.7019 20.4781 83.2947 21.9018 84.7747 23.4348C87.7475 22.9207 90.698 22.117 93.6427 21.4594C97.2243 20.6595 99.9605 24.6234 97.9425 27.6886L93.0593 35.106C92.5331 35.9053 94.5553 41.0629 95.4055 41.2924L103.979 43.6062C107.522 44.5624 108.103 49.3439 104.892 51.1202C102.224 52.5956 99.3396 53.9078 96.8101 55.6084C96.7039 57.6879 96.4504 59.7286 96.0597 61.72C98.104 63.9833 100.602 65.9478 102.84 68.0199C105.532 70.5131 103.825 75.0167 100.156 75.0972C97.1011 75.1642 93.9038 74.9575 90.8703 75.3206C89.8301 77.0759 88.6689 78.751 87.3982 80.3345C88.126 83.3037 89.4638 86.2261 90.4849 89.1076C91.7107 92.5666 88.1054 95.7606 84.8193 94.1268C82.0833 92.7665 79.3474 91.0956 76.4917 90.0088C74.7664 91.0817 72.9598 92.0362 71.0832 92.8608C70.3672 95.8286 70.1798 99.0162 69.7454 102.038C69.2233 105.671 64.5467 106.823 62.3963 103.85C60.6098 101.379 58.9597 98.6717 56.9652 96.3664C54.9267 96.5163 52.8304 96.5222 50.7888 96.3833C48.8093 98.6965 47.1566 101.382 45.3724 103.85C43.222 106.823 38.5453 105.671 38.0232 102.038C37.592 99.0382 37.3343 95.9496 36.713 92.9834C34.7718 92.147 32.9043 91.172 31.1229 90.0709C31.0486 90.1026 30.9747 90.1368 30.9012 90.1733L22.9493 94.1268C19.6632 95.7606 16.058 92.5666 17.2837 89.1076C18.2894 86.2697 19.4196 83.4461 20.3056 80.5689C18.955 78.9096 17.7254 77.1479 16.6302 75.2973C13.6337 75.1331 10.6136 75.163 7.61308 75.0972C3.94415 75.0167 2.23616 70.5131 4.92903 68.0199C7.11772 65.9935 9.34406 64.0006 11.4979 61.9373C11.0722 59.8253 10.801 57.6574 10.6963 55.4458C8.10973 53.9704 5.48276 52.5615 2.87703 51.1202C-0.334249 49.3439 0.246322 44.5624 3.78938 43.6062L12.3631 41.2924C12.9863 39.1536 13.7711 37.0834 14.7028 35.0961L9.82613 27.6886C7.80818 24.6235 10.5443 20.6595 14.1259 21.4594L22.7808 23.3923C24.319 21.8034 25.9783 20.3325 27.744 18.9944L26.8684 10.1705C26.5061 6.51858 30.771 4.28019 33.5706 6.6529L40.3427 12.3924C41.1213 12.1377 46.5858 11.2647 46.7694 10.8111L50.0998 2.57883ZM59.9884 53.3741C59.9884 56.8155 57.1987 59.6054 53.7572 59.6054C50.3157 59.6054 47.526 56.8155 47.526 53.3741C47.526 49.9328 50.3157 47.1429 53.7572 47.1429C57.1987 47.1429 59.9884 49.9328 59.9884 53.3741ZM53.7572 40.5302C60.0078 40.5302 65.0751 35.463 65.0751 29.2123C65.0751 22.9616 60.0078 17.8944 53.7572 17.8944C47.5066 17.8944 42.4393 22.9616 42.4393 29.2123C42.4393 35.463 47.5066 40.5302 53.7572 40.5302ZM65.0751 77.7903C65.0751 84.041 60.0078 89.1082 53.7572 89.1082C47.5066 89.1082 42.4393 84.041 42.4393 77.7903C42.4393 71.5396 47.5066 66.4724 53.7572 66.4724C60.0078 66.4724 65.0751 71.5396 65.0751 77.7903ZM66.7283 53.5013C66.7283 59.752 71.7956 64.8192 78.0462 64.8192C84.2968 64.8192 89.3641 59.752 89.3641 53.5013C89.3641 47.2506 84.2968 42.1834 78.0462 42.1834C71.7956 42.1834 66.7283 47.2506 66.7283 53.5013ZM29.4682 64.8192C23.2176 64.8192 18.1503 59.752 18.1503 53.5013C18.1503 47.2506 23.2176 42.1834 29.4682 42.1834C35.7188 42.1834 40.7861 47.2506 40.7861 53.5013C40.7861 59.752 35.7188 64.8192 29.4682 64.8192Z" fill="white"/>
</svg>
