<svg width="536" height="139" viewBox="0 0 536 139" fill="none" xmlns="http://www.w3.org/2000/svg">
<path d="M211.41 47.5C209.743 47.5 208.293 47.3 207.06 46.9C205.827 46.5 204.86 45.9167 204.16 45.15C203.493 44.35 203.16 43.3667 203.16 42.2C203.16 41.3 203.343 40.6 203.71 40.1C204.077 39.6 204.493 39.25 204.96 39.05C205.46 38.85 205.91 38.75 206.31 38.75C206.31 40.4833 206.693 41.9833 207.46 43.25C208.26 44.4833 209.677 45.1 211.71 45.1C213.477 45.1 214.827 44.6833 215.76 43.85C216.727 42.9833 217.21 41.8833 217.21 40.55C217.21 39.7167 217.027 39.0333 216.66 38.5C216.327 37.9667 215.71 37.45 214.81 36.95C213.943 36.4167 212.693 35.8 211.06 35.1C209.36 34.3333 207.943 33.6 206.81 32.9C205.71 32.1667 204.877 31.3333 204.31 30.4C203.777 29.4333 203.51 28.2333 203.51 26.8C203.51 24.5333 204.36 22.8 206.06 21.6C207.793 20.3667 210.077 19.75 212.91 19.75C214.51 19.75 215.843 19.9667 216.91 20.4C218.01 20.8 218.827 21.35 219.36 22.05C219.927 22.75 220.21 23.5167 220.21 24.35C220.21 25.25 219.893 25.9833 219.26 26.55C218.66 27.0833 217.777 27.35 216.61 27.35C216.61 25.6833 216.26 24.3833 215.56 23.45C214.86 22.5167 213.777 22.05 212.31 22.05C210.61 22.05 209.393 22.4333 208.66 23.2C207.927 23.9333 207.56 24.8833 207.56 26.05C207.56 27.3167 208.027 28.3 208.96 29C209.927 29.6667 211.527 30.45 213.76 31.35C215.527 32.0833 216.96 32.8167 218.06 33.55C219.16 34.2833 219.96 35.1333 220.46 36.1C220.993 37.0667 221.26 38.25 221.26 39.65C221.26 42.25 220.36 44.2167 218.56 45.55C216.76 46.85 214.377 47.5 211.41 47.5Z" fill="#444444"/>
<path d="M188.502 47.4997C184.869 47.4997 182.019 46.2997 179.952 43.8997C177.919 41.4997 176.902 38.133 176.902 33.7997C176.902 29.133 177.869 25.6164 179.802 23.2497C181.736 20.883 184.469 19.6997 188.002 19.6997C191.236 19.6997 193.769 20.6997 195.602 22.6997C197.469 24.6997 198.402 27.683 198.402 31.6497V33.9497H181.752C181.819 37.583 182.469 40.233 183.702 41.8997C184.969 43.533 186.802 44.3497 189.202 44.3497C190.936 44.3497 192.402 43.9997 193.602 43.2997C194.836 42.5664 195.752 41.7497 196.352 40.8497C196.586 40.9497 196.802 41.1497 197.002 41.4497C197.202 41.7497 197.302 42.1164 197.302 42.5497C197.302 43.2164 196.986 43.933 196.352 44.6997C195.719 45.4664 194.752 46.133 193.452 46.6997C192.152 47.233 190.502 47.4997 188.502 47.4997ZM193.352 31.2497C193.352 28.583 192.936 26.4497 192.102 24.8497C191.302 23.2164 189.902 22.3997 187.902 22.3997C186.069 22.3997 184.636 23.1664 183.602 24.6997C182.602 26.1997 182.019 28.383 181.852 31.2497H193.352Z" fill="#444444"/>
<path d="M156.389 47.5C154.189 47.5 152.323 47.0167 150.789 46.05C149.289 45.0833 148.139 43.5833 147.339 41.55C146.573 39.4833 146.189 36.85 146.189 33.65C146.189 30.4167 146.573 27.7833 147.339 25.75C148.139 23.6833 149.289 22.1667 150.789 21.2C152.323 20.2 154.189 19.7 156.389 19.7C158.323 19.7 159.889 20.1167 161.089 20.95C162.323 21.75 163.306 22.8 164.039 24.1H164.339C164.239 23.2667 164.156 22.35 164.089 21.35C164.056 20.3167 164.039 19.4 164.039 18.6V14.5C164.039 13.5 163.839 12.7667 163.439 12.3C163.073 11.8 162.573 11.4833 161.939 11.35C161.339 11.1833 160.673 11.1 159.939 11.1H159.539V9H168.739V41.5C168.739 42.4667 168.923 43.2 169.289 43.7C169.689 44.2 170.189 44.5333 170.789 44.7C171.423 44.8333 172.106 44.9 172.839 44.9H173.239V47H164.789L164.239 42.5H164.039C163.306 44.0333 162.339 45.25 161.139 46.15C159.939 47.05 158.356 47.5 156.389 47.5ZM157.239 44.3C159.839 44.3 161.623 43.4333 162.589 41.7C163.556 39.9333 164.039 37.25 164.039 33.65C164.039 30.1833 163.556 27.5333 162.589 25.7C161.623 23.8333 159.823 22.9 157.189 22.9C155.723 22.9 154.539 23.3167 153.639 24.15C152.739 24.9833 152.073 26.2 151.639 27.8C151.239 29.4 151.039 31.3667 151.039 33.7C151.039 37.2333 151.506 39.8833 152.439 41.65C153.406 43.4167 155.006 44.3 157.239 44.3Z" fill="#444444"/>
<path d="M125.516 47.4997C124.049 47.4997 122.716 47.2164 121.516 46.6497C120.349 46.0497 119.432 45.1664 118.766 43.9997C118.099 42.7997 117.766 41.2997 117.766 39.4997C117.766 36.833 118.699 34.8664 120.566 33.5997C122.466 32.333 125.332 31.633 129.166 31.4997L133.316 31.3497V28.3497C133.316 27.1497 133.216 26.0997 133.016 25.1997C132.816 24.2664 132.382 23.533 131.716 22.9997C131.049 22.4664 130.032 22.1997 128.666 22.1997C127.399 22.1997 126.432 22.433 125.766 22.8997C125.099 23.3664 124.649 24.0164 124.416 24.8497C124.216 25.6497 124.116 26.583 124.116 27.6497C122.716 27.6497 121.649 27.4164 120.916 26.9497C120.216 26.4497 119.866 25.633 119.866 24.4997C119.866 23.333 120.266 22.3997 121.066 21.6997C121.899 20.9997 122.999 20.4997 124.366 20.1997C125.732 19.8664 127.232 19.6997 128.866 19.6997C131.932 19.6997 134.216 20.3497 135.716 21.6497C137.249 22.9497 138.016 25.183 138.016 28.3497V41.2997C138.016 42.233 138.116 42.9664 138.316 43.4997C138.516 43.9997 138.849 44.3664 139.316 44.5997C139.782 44.7997 140.382 44.8997 141.116 44.8997H141.266V46.9997H134.516L133.716 42.6997H133.316C132.616 43.633 131.932 44.4664 131.266 45.1997C130.599 45.8997 129.816 46.4664 128.916 46.8997C128.049 47.2997 126.916 47.4997 125.516 47.4997ZM126.666 44.3997C128.032 44.3997 129.199 44.1164 130.166 43.5497C131.166 42.983 131.932 42.183 132.466 41.1497C133.032 40.083 133.316 38.8497 133.316 37.4497V33.3997L130.116 33.5497C128.216 33.6164 126.716 33.8997 125.616 34.3997C124.549 34.8997 123.782 35.5997 123.316 36.4997C122.849 37.3664 122.616 38.4497 122.616 39.7497C122.616 40.783 122.766 41.6497 123.066 42.3497C123.366 43.0164 123.816 43.533 124.416 43.8997C125.016 44.233 125.766 44.3997 126.666 44.3997Z" fill="#444444"/>
<path d="M94.3569 46.9997V44.8997H94.5069C95.2736 44.8997 95.9569 44.8164 96.5569 44.6497C97.1903 44.483 97.6903 44.1497 98.0569 43.6497C98.4236 43.1164 98.6069 42.333 98.6069 41.2997V25.6997C98.6069 24.6997 98.4069 23.9664 98.0069 23.4997C97.6403 22.9997 97.1403 22.683 96.5069 22.5497C95.9069 22.383 95.2403 22.2997 94.5069 22.2997H94.3569V20.1997H102.057L103.007 25.1497H103.257C103.69 24.1497 104.157 23.233 104.657 22.3997C105.157 21.5664 105.824 20.9164 106.657 20.4497C107.49 19.9497 108.64 19.6997 110.107 19.6997C111.94 19.6997 113.29 20.0164 114.157 20.6497C115.057 21.283 115.507 22.183 115.507 23.3497C115.507 24.383 115.14 25.233 114.407 25.8997C113.707 26.5664 112.524 26.8997 110.857 26.8997C110.857 25.9664 110.774 25.2164 110.607 24.6497C110.44 24.083 110.157 23.6664 109.757 23.3997C109.39 23.133 108.874 22.9997 108.207 22.9997C107.274 22.9997 106.49 23.3664 105.857 24.0997C105.224 24.833 104.724 25.7664 104.357 26.8997C103.99 28.033 103.724 29.2164 103.557 30.4497C103.39 31.6497 103.307 32.733 103.307 33.6997V41.5497C103.307 42.5164 103.49 43.2497 103.857 43.7497C104.257 44.2164 104.757 44.533 105.357 44.6997C105.99 44.833 106.674 44.8997 107.407 44.8997H108.807V46.9997H94.3569Z" fill="#444444"/>
<path d="M77.3526 58.9999C73.886 58.9999 71.286 58.3499 69.5526 57.0499C67.8193 55.7832 66.9526 53.9999 66.9526 51.6999C66.9526 50.3999 67.236 49.2999 67.8026 48.3999C68.4026 47.5332 69.1693 46.8499 70.1026 46.3499C71.0693 45.8499 72.1026 45.4999 73.2026 45.2999C72.536 44.9999 71.9026 44.5166 71.3026 43.8499C70.736 43.1499 70.4526 42.2666 70.4526 41.1999C70.4526 40.1999 70.7026 39.3332 71.2026 38.5999C71.736 37.8666 72.5693 37.1666 73.7026 36.4999C72.2693 35.8999 71.1526 34.9166 70.3526 33.5499C69.586 32.1499 69.2026 30.6166 69.2026 28.9499C69.2026 26.0832 69.986 23.8332 71.5526 22.1999C73.1193 20.5332 75.4693 19.6999 78.6026 19.6999C79.8026 19.6999 80.936 19.8666 82.0026 20.1999C83.0693 20.5332 83.836 20.9166 84.3026 21.3499C84.636 20.9832 85.036 20.5999 85.5026 20.1999C85.9693 19.7666 86.5026 19.3999 87.1026 19.0999C87.736 18.7999 88.4193 18.6499 89.1526 18.6499C90.1526 18.6499 90.886 18.9166 91.3526 19.4499C91.8526 19.9499 92.1026 20.5499 92.1026 21.2499C92.1026 21.9499 91.886 22.5666 91.4526 23.0999C91.0526 23.5999 90.386 23.8499 89.4526 23.8499C89.4526 23.4832 89.336 23.1166 89.1026 22.7499C88.9026 22.3499 88.4693 22.1499 87.8026 22.1499C87.3693 22.1499 86.986 22.1999 86.6526 22.2999C86.3193 22.3999 85.986 22.5499 85.6526 22.7499C86.2193 23.4499 86.686 24.2832 87.0526 25.2499C87.4193 26.1832 87.6026 27.3666 87.6026 28.7999C87.6026 31.2666 86.8526 33.3166 85.3526 34.9499C83.886 36.5832 81.636 37.3999 78.6026 37.3999C78.2026 37.3999 77.736 37.3832 77.2026 37.3499C76.7026 37.2832 76.286 37.2166 75.9526 37.1499C75.3193 37.4832 74.7693 37.8999 74.3026 38.3999C73.836 38.8999 73.6026 39.5332 73.6026 40.2999C73.6026 40.8999 73.786 41.3666 74.1526 41.6999C74.5526 42.0332 75.4026 42.1999 76.7026 42.1999H82.3526C84.3526 42.1999 85.9526 42.5332 87.1526 43.1999C88.3526 43.8332 89.2193 44.7166 89.7526 45.8499C90.3193 46.9499 90.6026 48.2166 90.6026 49.6499C90.6026 52.5166 89.5193 54.7832 87.3526 56.4499C85.2193 58.1499 81.886 58.9999 77.3526 58.9999ZM77.4526 56.5499C79.8526 56.5499 81.7026 56.2832 83.0026 55.7499C84.3026 55.2499 85.2026 54.5332 85.7026 53.5999C86.236 52.6999 86.5026 51.6666 86.5026 50.4999C86.5026 48.9666 86.0693 47.9332 85.2026 47.3999C84.336 46.8999 83.0693 46.6499 81.4026 46.6499H76.5026C75.5693 46.6499 74.686 46.7666 73.8526 46.9999C73.0193 47.2666 72.336 47.7332 71.8026 48.3999C71.2693 49.0666 71.0026 50.0666 71.0026 51.3999C71.0026 52.3666 71.186 53.2332 71.5526 53.9999C71.9193 54.7999 72.5693 55.4166 73.5026 55.8499C74.436 56.3166 75.7526 56.5499 77.4526 56.5499ZM78.4526 34.9999C79.5526 34.9999 80.4193 34.7832 81.0526 34.3499C81.7193 33.9166 82.186 33.2332 82.4526 32.2999C82.7526 31.3666 82.9026 30.1832 82.9026 28.7499C82.9026 27.2499 82.7526 26.0166 82.4526 25.0499C82.1526 24.0499 81.6693 23.3166 81.0026 22.8499C80.3693 22.3832 79.5026 22.1499 78.4026 22.1499C77.336 22.1499 76.4693 22.3999 75.8026 22.8999C75.136 23.3666 74.6526 24.0999 74.3526 25.0999C74.0526 26.0666 73.9026 27.2999 73.9026 28.7999C73.9026 30.9332 74.2526 32.4999 74.9526 33.4999C75.686 34.4999 76.8526 34.9999 78.4526 34.9999Z" fill="#444444"/>
<path d="M35.9897 58.9997V56.8997H36.3897C37.1564 56.8997 37.8397 56.8164 38.4397 56.6497C39.0731 56.483 39.5731 56.133 39.9397 55.5997C40.3064 55.0997 40.4897 54.333 40.4897 53.2997V25.6997C40.4897 24.6997 40.2897 23.9664 39.8897 23.4997C39.5231 22.9997 39.0231 22.683 38.3897 22.5497C37.7897 22.383 37.1231 22.2997 36.3897 22.2997H35.7397V20.1997H44.4897L44.9897 24.6997H45.1897C45.9564 23.1664 46.9397 21.9497 48.1397 21.0497C49.3397 20.1497 50.9064 19.6997 52.8397 19.6997C56.1397 19.6997 58.6564 20.8164 60.3897 23.0497C62.1564 25.2497 63.0397 28.7497 63.0397 33.5497C63.0397 38.383 62.1564 41.9164 60.3897 44.1497C58.6564 46.383 56.1397 47.4997 52.8397 47.4997C50.9064 47.4997 49.3231 47.0997 48.0897 46.2997C46.8897 45.4664 45.9231 44.3997 45.1897 43.0997H44.9897C45.0564 44.0664 45.1064 45.0997 45.1397 46.1997C45.1731 47.2664 45.1897 48.1164 45.1897 48.7497V53.5497C45.1897 54.5164 45.3731 55.233 45.7397 55.6997C46.1397 56.1997 46.6397 56.5164 47.2397 56.6497C47.8731 56.8164 48.5564 56.8997 49.2897 56.8997H49.4397V58.9997H35.9897ZM52.0397 44.2997C54.2397 44.2997 55.8064 43.383 56.7397 41.5497C57.7064 39.683 58.1897 36.9997 58.1897 33.4997C58.1897 29.933 57.7064 27.283 56.7397 25.5497C55.8064 23.783 54.2231 22.8997 51.9897 22.8997C50.2564 22.8997 48.8897 23.283 47.8897 24.0497C46.9231 24.8164 46.2231 25.9997 45.7897 27.5997C45.3897 29.1664 45.1897 31.1497 45.1897 33.5497C45.1897 35.8497 45.3897 37.7997 45.7897 39.3997C46.2231 40.9997 46.9397 42.2164 47.9397 43.0497C48.9397 43.883 50.3064 44.2997 52.0397 44.2997Z" fill="#444444"/>
<path d="M17.35 47.4998C14.7167 47.4998 12.45 47.1331 10.55 46.3998C8.68333 45.6331 7.25 44.4165 6.25 42.7498C5.25 41.0831 4.75 38.8998 4.75 36.1998V16.7998C4.75 15.7998 4.55 15.0665 4.15 14.5998C3.78333 14.0998 3.28333 13.7831 2.65 13.6498C2.05 13.4831 1.38333 13.3998 0.65 13.3998H0V11.2998H14.55V13.3998H13.9C13.1667 13.3998 12.4833 13.4831 11.85 13.6498C11.2167 13.8165 10.7167 14.1498 10.35 14.6498C9.98333 15.1498 9.8 15.9331 9.8 16.9998V36.4998C9.8 39.3998 10.5833 41.4665 12.15 42.6998C13.7167 43.8998 15.7167 44.4998 18.15 44.4998C20.0833 44.4998 21.6667 44.1665 22.9 43.4998C24.1333 42.8331 25.05 41.9165 25.65 40.7498C26.25 39.5498 26.55 38.1998 26.55 36.6998V16.7998C26.55 15.7998 26.35 15.0665 25.95 14.5998C25.5833 14.0998 25.0833 13.7831 24.45 13.6498C23.85 13.4831 23.1833 13.3998 22.45 13.3998H21.8V11.2998H34.35V13.3998H33.7C32.9667 13.3998 32.2833 13.4831 31.65 13.6498C31.0167 13.8165 30.5167 14.1498 30.15 14.6498C29.7833 15.1498 29.6 15.9331 29.6 16.9998V36.7998C29.6 38.9998 29.1333 40.8998 28.2 42.4998C27.2667 44.0998 25.8833 45.3331 24.05 46.1998C22.25 47.0665 20.0167 47.4998 17.35 47.4998Z" fill="#444444"/>
<path d="M242.142 123.3C241.142 123.3 240.272 123.18 239.532 122.94C238.792 122.7 238.212 122.35 237.792 121.89C237.392 121.41 237.192 120.82 237.192 120.12C237.192 119.58 237.302 119.16 237.522 118.86C237.742 118.56 237.992 118.35 238.272 118.23C238.572 118.11 238.842 118.05 239.082 118.05C239.082 119.09 239.312 119.99 239.772 120.75C240.252 121.49 241.102 121.86 242.322 121.86C243.382 121.86 244.192 121.61 244.752 121.11C245.332 120.59 245.622 119.93 245.622 119.13C245.622 118.63 245.512 118.22 245.292 117.9C245.092 117.58 244.722 117.27 244.182 116.97C243.662 116.65 242.912 116.28 241.932 115.86C240.912 115.4 240.062 114.96 239.382 114.54C238.722 114.1 238.222 113.6 237.882 113.04C237.562 112.46 237.402 111.74 237.402 110.88C237.402 109.52 237.912 108.48 238.932 107.76C239.972 107.02 241.342 106.65 243.042 106.65C244.002 106.65 244.802 106.78 245.442 107.04C246.102 107.28 246.592 107.61 246.912 108.03C247.252 108.45 247.422 108.91 247.422 109.41C247.422 109.95 247.232 110.39 246.852 110.73C246.492 111.05 245.962 111.21 245.262 111.21C245.262 110.21 245.052 109.43 244.632 108.87C244.212 108.31 243.562 108.03 242.682 108.03C241.662 108.03 240.932 108.26 240.492 108.72C240.052 109.16 239.832 109.73 239.832 110.43C239.832 111.19 240.112 111.78 240.672 112.2C241.252 112.6 242.212 113.07 243.552 113.61C244.612 114.05 245.472 114.49 246.132 114.93C246.792 115.37 247.272 115.88 247.572 116.46C247.892 117.04 248.052 117.75 248.052 118.59C248.052 120.15 247.512 121.33 246.432 122.13C245.352 122.91 243.922 123.3 242.142 123.3Z" fill="#444444"/>
<path d="M217.346 123V121.74H217.586C218.046 121.74 218.456 121.69 218.816 121.59C219.196 121.49 219.496 121.29 219.716 120.99C219.936 120.67 220.046 120.2 220.046 119.58V110.22C220.046 109.62 219.936 109.18 219.716 108.9C219.496 108.6 219.206 108.41 218.846 108.33C218.486 108.23 218.086 108.18 217.646 108.18H217.496V106.92H222.356L222.746 109.35H222.896C223.516 108.23 224.206 107.5 224.966 107.16C225.746 106.8 226.616 106.62 227.576 106.62C229.156 106.62 230.386 107.09 231.266 108.03C232.166 108.95 232.616 110.44 232.616 112.5V119.58C232.616 120.2 232.706 120.67 232.886 120.99C233.086 121.29 233.356 121.49 233.696 121.59C234.036 121.69 234.426 121.74 234.866 121.74H235.016V123H229.796V112.65C229.796 111.35 229.546 110.34 229.046 109.62C228.566 108.9 227.716 108.54 226.496 108.54C225.596 108.54 224.876 108.77 224.336 109.23C223.816 109.67 223.436 110.26 223.196 111C222.976 111.74 222.866 112.54 222.866 113.4V119.73C222.866 120.31 222.976 120.75 223.196 121.05C223.416 121.33 223.706 121.52 224.066 121.62C224.426 121.7 224.826 121.74 225.266 121.74H225.416V123H217.346Z" fill="#444444"/>
<path d="M207.801 123.3C205.641 123.3 203.941 122.61 202.701 121.23C201.461 119.85 200.841 117.75 200.841 114.93C200.841 112.13 201.431 110.05 202.611 108.69C203.811 107.31 205.571 106.62 207.891 106.62C210.051 106.62 211.751 107.31 212.991 108.69C214.231 110.05 214.851 112.13 214.851 114.93C214.851 117.75 214.251 119.85 213.051 121.23C211.871 122.61 210.121 123.3 207.801 123.3ZM207.861 121.74C208.861 121.74 209.661 121.49 210.261 120.99C210.861 120.47 211.291 119.7 211.551 118.68C211.811 117.66 211.941 116.41 211.941 114.93C211.941 112.69 211.631 111.01 211.011 109.89C210.391 108.77 209.331 108.21 207.831 108.21C206.331 108.21 205.271 108.77 204.651 109.89C204.051 111.01 203.751 112.69 203.751 114.93C203.751 117.17 204.061 118.87 204.681 120.03C205.301 121.17 206.361 121.74 207.861 121.74Z" fill="#444444"/>
<path d="M190.272 123V121.74H190.662C191.102 121.74 191.502 121.7 191.862 121.62C192.242 121.52 192.542 121.33 192.762 121.05C193.002 120.75 193.122 120.31 193.122 119.73V110.22C193.122 109.62 193.002 109.18 192.762 108.9C192.542 108.6 192.242 108.41 191.862 108.33C191.502 108.23 191.102 108.18 190.662 108.18H190.572V106.92H195.942V119.58C195.942 120.2 196.052 120.67 196.272 120.99C196.492 121.29 196.792 121.49 197.172 121.59C197.552 121.69 197.962 121.74 198.402 121.74H198.792V123H190.272ZM194.412 103.92C193.932 103.92 193.522 103.78 193.182 103.5C192.862 103.22 192.702 102.74 192.702 102.06C192.702 101.36 192.862 100.88 193.182 100.62C193.522 100.34 193.932 100.2 194.412 100.2C194.872 100.2 195.272 100.34 195.612 100.62C195.952 100.88 196.122 101.36 196.122 102.06C196.122 102.74 195.952 103.22 195.612 103.5C195.272 103.78 194.872 103.92 194.412 103.92Z" fill="#444444"/>
<path d="M186.235 123.3C184.715 123.3 183.605 122.96 182.905 122.28C182.225 121.58 181.885 120.37 181.885 118.65V108.63H179.605V107.43C179.965 107.43 180.365 107.36 180.805 107.22C181.245 107.06 181.625 106.81 181.945 106.47C182.285 106.11 182.565 105.67 182.785 105.15C183.005 104.63 183.185 103.99 183.325 103.23H184.705V106.92H188.635V108.63H184.705V118.74C184.705 119.76 184.915 120.51 185.335 120.99C185.755 121.47 186.305 121.71 186.985 121.71C187.345 121.71 187.675 121.69 187.975 121.65C188.275 121.61 188.585 121.56 188.905 121.5V122.82C188.645 122.94 188.255 123.05 187.735 123.15C187.215 123.25 186.715 123.3 186.235 123.3Z" fill="#444444"/>
<path d="M161.148 130.2V128.94H161.388C161.848 128.94 162.258 128.89 162.618 128.79C162.998 128.69 163.298 128.48 163.518 128.16C163.738 127.86 163.848 127.4 163.848 126.78V110.22C163.848 109.62 163.728 109.18 163.488 108.9C163.268 108.6 162.968 108.41 162.588 108.33C162.228 108.23 161.828 108.18 161.388 108.18H160.998V106.92H166.248L166.548 109.62H166.668C167.128 108.7 167.718 107.97 168.438 107.43C169.158 106.89 170.098 106.62 171.258 106.62C173.238 106.62 174.748 107.29 175.788 108.63C176.848 109.95 177.378 112.05 177.378 114.93C177.378 117.83 176.848 119.95 175.788 121.29C174.748 122.63 173.238 123.3 171.258 123.3C170.098 123.3 169.148 123.06 168.408 122.58C167.688 122.08 167.108 121.44 166.668 120.66H166.548C166.588 121.24 166.618 121.86 166.638 122.52C166.658 123.16 166.668 123.67 166.668 124.05V126.93C166.668 127.51 166.778 127.94 166.998 128.22C167.238 128.52 167.538 128.71 167.898 128.79C168.278 128.89 168.688 128.94 169.128 128.94H169.218V130.2H161.148ZM170.778 121.38C172.098 121.38 173.038 120.83 173.598 119.73C174.178 118.61 174.468 117 174.468 114.9C174.468 112.76 174.178 111.17 173.598 110.13C173.038 109.07 172.088 108.54 170.748 108.54C169.708 108.54 168.888 108.77 168.288 109.23C167.708 109.69 167.288 110.4 167.028 111.36C166.788 112.3 166.668 113.49 166.668 114.93C166.668 116.31 166.788 117.48 167.028 118.44C167.288 119.4 167.718 120.13 168.318 120.63C168.918 121.13 169.738 121.38 170.778 121.38Z" fill="#444444"/>
<path d="M149.472 123.3C147.352 123.3 145.592 122.84 144.192 121.92C142.792 121 141.742 119.71 141.042 118.05C140.362 116.39 140.022 114.45 140.022 112.23C140.022 110.01 140.362 108.08 141.042 106.44C141.742 104.8 142.792 103.53 144.192 102.63C145.612 101.71 147.382 101.25 149.502 101.25C151.522 101.25 153.222 101.71 154.602 102.63C156.002 103.53 157.062 104.81 157.782 106.47C158.522 108.11 158.892 110.04 158.892 112.26C158.892 114.48 158.522 116.42 157.782 118.08C157.062 119.72 156.002 121 154.602 121.92C153.202 122.84 151.492 123.3 149.472 123.3ZM149.472 121.68C150.972 121.68 152.162 121.31 153.042 120.57C153.942 119.81 154.582 118.73 154.962 117.33C155.362 115.93 155.562 114.24 155.562 112.26C155.562 110.28 155.362 108.59 154.962 107.19C154.582 105.79 153.942 104.72 153.042 103.98C152.162 103.24 150.982 102.87 149.502 102.87C147.262 102.87 145.672 103.69 144.732 105.33C143.812 106.97 143.352 109.28 143.352 112.26C143.352 114.24 143.552 115.93 143.952 117.33C144.352 118.73 145.002 119.81 145.902 120.57C146.802 121.31 147.992 121.68 149.472 121.68Z" fill="#444444"/>
<path d="M215.041 76.0998C214.707 76.0998 214.417 76.0598 214.171 75.9798C213.924 75.8998 213.731 75.7831 213.591 75.6298C213.457 75.4698 213.391 75.2731 213.391 75.0398C213.391 74.8598 213.427 74.7198 213.501 74.6198C213.574 74.5198 213.657 74.4498 213.751 74.4098C213.851 74.3698 213.941 74.3498 214.021 74.3498C214.021 74.6965 214.097 74.9965 214.251 75.2498C214.411 75.4965 214.694 75.6198 215.101 75.6198C215.454 75.6198 215.724 75.5365 215.911 75.3698C216.104 75.1965 216.201 74.9765 216.201 74.7098C216.201 74.5431 216.164 74.4065 216.091 74.2998C216.024 74.1931 215.901 74.0898 215.721 73.9898C215.547 73.8831 215.297 73.7598 214.971 73.6198C214.631 73.4665 214.347 73.3198 214.121 73.1798C213.901 73.0331 213.734 72.8665 213.621 72.6798C213.514 72.4865 213.461 72.2465 213.461 71.9598C213.461 71.5065 213.631 71.1598 213.971 70.9198C214.317 70.6731 214.774 70.5498 215.341 70.5498C215.661 70.5498 215.927 70.5931 216.141 70.6798C216.361 70.7598 216.524 70.8698 216.631 71.0098C216.744 71.1498 216.801 71.3031 216.801 71.4698C216.801 71.6498 216.737 71.7965 216.611 71.9098C216.491 72.0165 216.314 72.0698 216.081 72.0698C216.081 71.7365 216.011 71.4765 215.871 71.2898C215.731 71.1031 215.514 71.0098 215.221 71.0098C214.881 71.0098 214.637 71.0865 214.491 71.2398C214.344 71.3865 214.271 71.5765 214.271 71.8098C214.271 72.0631 214.364 72.2598 214.551 72.3998C214.744 72.5331 215.064 72.6898 215.511 72.8698C215.864 73.0165 216.151 73.1631 216.371 73.3098C216.591 73.4565 216.751 73.6265 216.851 73.8198C216.957 74.0131 217.011 74.2498 217.011 74.5298C217.011 75.0498 216.831 75.4431 216.471 75.7098C216.111 75.9698 215.634 76.0998 215.041 76.0998Z" fill="#444444"/>
<path d="M209.356 76.1C209.062 76.1 208.796 76.0434 208.556 75.93C208.322 75.81 208.139 75.6334 208.006 75.4C207.872 75.16 207.806 74.86 207.806 74.5C207.806 73.9667 207.992 73.5734 208.366 73.32C208.746 73.0667 209.319 72.9267 210.086 72.9L210.916 72.87V72.27C210.916 72.03 210.896 71.82 210.856 71.64C210.816 71.4534 210.729 71.3067 210.596 71.2C210.462 71.0934 210.259 71.04 209.986 71.04C209.732 71.04 209.539 71.0867 209.406 71.18C209.272 71.2734 209.182 71.4034 209.136 71.57C209.096 71.73 209.076 71.9167 209.076 72.13C208.796 72.13 208.582 72.0834 208.436 71.99C208.296 71.89 208.226 71.7267 208.226 71.5C208.226 71.2667 208.306 71.08 208.466 70.94C208.632 70.8 208.852 70.7 209.126 70.64C209.399 70.5734 209.699 70.54 210.026 70.54C210.639 70.54 211.096 70.67 211.396 70.93C211.702 71.19 211.856 71.6367 211.856 72.27V74.86C211.856 75.0467 211.876 75.1934 211.916 75.3C211.956 75.4 212.022 75.4734 212.116 75.52C212.209 75.56 212.329 75.58 212.476 75.58H212.506V76H211.156L210.996 75.14H210.916C210.776 75.3267 210.639 75.4934 210.506 75.64C210.372 75.78 210.216 75.8934 210.036 75.98C209.862 76.06 209.636 76.1 209.356 76.1ZM209.586 75.48C209.859 75.48 210.092 75.4234 210.286 75.31C210.486 75.1967 210.639 75.0367 210.746 74.83C210.859 74.6167 210.916 74.37 210.916 74.09V73.28L210.276 73.31C209.896 73.3234 209.596 73.38 209.376 73.48C209.162 73.58 209.009 73.72 208.916 73.9C208.822 74.0734 208.776 74.29 208.776 74.55C208.776 74.7567 208.806 74.93 208.866 75.07C208.926 75.2034 209.016 75.3067 209.136 75.38C209.256 75.4467 209.406 75.48 209.586 75.48Z" fill="#444444"/>
<path d="M203.124 76V75.58H203.154C203.307 75.58 203.444 75.5634 203.564 75.53C203.691 75.4967 203.791 75.43 203.864 75.33C203.937 75.2234 203.974 75.0667 203.974 74.86V71.74C203.974 71.54 203.934 71.3934 203.854 71.3C203.781 71.2 203.681 71.1367 203.554 71.11C203.434 71.0767 203.301 71.06 203.154 71.06H203.124V70.64H204.664L204.854 71.63H204.904C204.991 71.43 205.084 71.2467 205.184 71.08C205.284 70.9134 205.417 70.7834 205.584 70.69C205.751 70.59 205.981 70.54 206.274 70.54C206.641 70.54 206.911 70.6034 207.084 70.73C207.264 70.8567 207.354 71.0367 207.354 71.27C207.354 71.4767 207.281 71.6467 207.134 71.78C206.994 71.9134 206.757 71.98 206.424 71.98C206.424 71.7934 206.407 71.6434 206.374 71.53C206.341 71.4167 206.284 71.3334 206.204 71.28C206.131 71.2267 206.027 71.2 205.894 71.2C205.707 71.2 205.551 71.2734 205.424 71.42C205.297 71.5667 205.197 71.7534 205.124 71.98C205.051 72.2067 204.997 72.4434 204.964 72.69C204.931 72.93 204.914 73.1467 204.914 73.34V74.91C204.914 75.1034 204.951 75.25 205.024 75.35C205.104 75.4434 205.204 75.5067 205.324 75.54C205.451 75.5667 205.587 75.58 205.734 75.58H206.014V76H203.124Z" fill="#444444"/>
<path d="M201.678 76.0997C201.172 76.0997 200.802 75.9863 200.568 75.7597C200.342 75.5263 200.228 75.123 200.228 74.5497V71.2097H199.468V70.8097C199.588 70.8097 199.722 70.7863 199.868 70.7397C200.015 70.6863 200.142 70.603 200.248 70.4897C200.362 70.3697 200.455 70.223 200.528 70.0497C200.602 69.8763 200.662 69.663 200.708 69.4097H201.168V70.6397H202.478V71.2097H201.168V74.5797C201.168 74.9197 201.238 75.1697 201.378 75.3297C201.518 75.4897 201.702 75.5697 201.928 75.5697C202.048 75.5697 202.158 75.563 202.258 75.5497C202.358 75.5363 202.462 75.5197 202.568 75.4997V75.9397C202.482 75.9797 202.352 76.0163 202.178 76.0497C202.005 76.083 201.838 76.0997 201.678 76.0997Z" fill="#444444"/>
<path d="M193.547 75.9996V75.5796H193.637C193.797 75.5796 193.934 75.563 194.047 75.5296C194.16 75.4896 194.27 75.423 194.377 75.3296C194.484 75.2363 194.6 75.1063 194.727 74.9396L195.987 73.3096L194.727 71.5896C194.634 71.4763 194.537 71.3796 194.437 71.2996C194.344 71.2196 194.25 71.1596 194.157 71.1196C194.064 71.0796 193.967 71.0596 193.867 71.0596H193.737V70.6396H196.277V71.0596H196.247C196.02 71.0596 195.867 71.0896 195.787 71.1496C195.714 71.203 195.677 71.2696 195.677 71.3496C195.677 71.4163 195.697 71.483 195.737 71.5496C195.777 71.6163 195.834 71.703 195.907 71.8096L196.567 72.7096L197.087 71.9596C197.16 71.8463 197.22 71.7396 197.267 71.6396C197.314 71.533 197.337 71.4363 197.337 71.3496C197.337 71.2296 197.284 71.153 197.177 71.1196C197.077 71.0796 196.95 71.0596 196.797 71.0596H196.767V70.6396H198.957V71.0596H198.867C198.74 71.0596 198.624 71.0763 198.517 71.1096C198.417 71.1363 198.314 71.1963 198.207 71.2896C198.107 71.383 197.99 71.5196 197.857 71.6996L196.827 73.0696L198.297 75.0496C198.397 75.1763 198.49 75.2796 198.577 75.3596C198.67 75.4396 198.76 75.4963 198.847 75.5296C198.934 75.563 199.017 75.5796 199.097 75.5796H199.227V75.9996H196.647V75.5796H196.697C196.897 75.5796 197.047 75.553 197.147 75.4996C197.247 75.4396 197.297 75.3563 197.297 75.2496C197.297 75.1763 197.27 75.0963 197.217 75.0096C197.17 74.9163 197.07 74.7663 196.917 74.5596L196.247 73.6596L195.547 74.6396C195.487 74.7196 195.427 74.8196 195.367 74.9396C195.307 75.053 195.277 75.163 195.277 75.2696C195.277 75.3763 195.324 75.4563 195.417 75.5096C195.517 75.5563 195.677 75.5796 195.897 75.5796H195.927V75.9996H193.547Z" fill="#444444"/>
<path d="M187.646 75.9999V75.5799H187.776C187.923 75.5799 188.056 75.5665 188.176 75.5399C188.303 75.5065 188.403 75.4432 188.476 75.3499C188.556 75.2499 188.596 75.1032 188.596 74.9099V69.9999C188.596 69.7865 188.56 69.6299 188.486 69.5299C188.413 69.4299 188.313 69.3632 188.186 69.3299C188.066 69.2965 187.93 69.2799 187.776 69.2799H187.646V68.8599H192.686L192.736 70.6099H192.216L192.166 70.1799C192.153 70.0332 192.113 69.8999 192.046 69.7799C191.986 69.6532 191.893 69.5532 191.766 69.4799C191.646 69.3999 191.486 69.3599 191.286 69.3599H189.606V72.0199H192.016V72.5099H189.606V75.4999H191.536C191.75 75.4999 191.92 75.4632 192.046 75.3899C192.18 75.3099 192.28 75.2099 192.346 75.0899C192.42 74.9632 192.466 74.8265 192.486 74.6799L192.556 74.2499H193.076L193.006 75.9999H187.646Z" fill="#444444"/>
<path d="M150.255 81.0998C149.922 81.0998 149.632 81.0598 149.385 80.9798C149.139 80.8998 148.945 80.7831 148.805 80.6298C148.672 80.4698 148.605 80.2731 148.605 80.0398C148.605 79.8598 148.642 79.7198 148.715 79.6198C148.789 79.5198 148.872 79.4498 148.965 79.4098C149.065 79.3698 149.155 79.3498 149.235 79.3498C149.235 79.6965 149.312 79.9965 149.465 80.2498C149.625 80.4965 149.909 80.6198 150.315 80.6198C150.669 80.6198 150.939 80.5365 151.125 80.3698C151.319 80.1965 151.415 79.9765 151.415 79.7098C151.415 79.5431 151.379 79.4065 151.305 79.2998C151.239 79.1931 151.115 79.0898 150.935 78.9898C150.762 78.8831 150.512 78.7598 150.185 78.6198C149.845 78.4665 149.562 78.3198 149.335 78.1798C149.115 78.0331 148.949 77.8665 148.835 77.6798C148.729 77.4865 148.675 77.2465 148.675 76.9598C148.675 76.5065 148.845 76.1598 149.185 75.9198C149.532 75.6731 149.989 75.5498 150.555 75.5498C150.875 75.5498 151.142 75.5931 151.355 75.6798C151.575 75.7598 151.739 75.8698 151.845 76.0098C151.959 76.1498 152.015 76.3031 152.015 76.4698C152.015 76.6498 151.952 76.7965 151.825 76.9098C151.705 77.0165 151.529 77.0698 151.295 77.0698C151.295 76.7365 151.225 76.4765 151.085 76.2898C150.945 76.1031 150.729 76.0098 150.435 76.0098C150.095 76.0098 149.852 76.0865 149.705 76.2398C149.559 76.3865 149.485 76.5765 149.485 76.8098C149.485 77.0631 149.579 77.2598 149.765 77.3998C149.959 77.5331 150.279 77.6898 150.725 77.8698C151.079 78.0165 151.365 78.1631 151.585 78.3098C151.805 78.4565 151.965 78.6265 152.065 78.8198C152.172 79.0131 152.225 79.2498 152.225 79.5298C152.225 80.0498 152.045 80.4431 151.685 80.7098C151.325 80.9698 150.849 81.0998 150.255 81.0998Z" fill="#444444"/>
<path d="M141.99 81V80.58H142.07C142.223 80.58 142.36 80.5634 142.48 80.53C142.606 80.4967 142.706 80.43 142.78 80.33C142.853 80.2234 142.89 80.0667 142.89 79.86V76.74C142.89 76.54 142.853 76.3934 142.78 76.3C142.706 76.2 142.61 76.1367 142.49 76.11C142.37 76.0767 142.236 76.06 142.09 76.06H142.04V75.64H143.66L143.79 76.45H143.84C144.046 76.0767 144.276 75.8334 144.53 75.72C144.79 75.6 145.08 75.54 145.4 75.54C145.926 75.54 146.336 75.6967 146.63 76.01C146.93 76.3167 147.08 76.8134 147.08 77.5V79.86C147.08 80.0667 147.11 80.2234 147.17 80.33C147.236 80.43 147.326 80.4967 147.44 80.53C147.553 80.5634 147.683 80.58 147.83 80.58H147.88V81H146.14V77.55C146.14 77.1167 146.056 76.78 145.89 76.54C145.73 76.3 145.446 76.18 145.04 76.18C144.74 76.18 144.5 76.2567 144.32 76.41C144.146 76.5567 144.02 76.7534 143.94 77C143.866 77.2467 143.83 77.5134 143.83 77.8V79.91C143.83 80.1034 143.866 80.25 143.94 80.35C144.013 80.4434 144.11 80.5067 144.23 80.54C144.35 80.5667 144.483 80.58 144.63 80.58H144.68V81H141.99Z" fill="#444444"/>
<path d="M137.998 81.1C137.291 81.1 136.705 80.9467 136.238 80.64C135.771 80.3333 135.421 79.9033 135.188 79.35C134.961 78.7967 134.848 78.15 134.848 77.41C134.848 76.67 134.961 76.0267 135.188 75.48C135.421 74.9333 135.771 74.51 136.238 74.21C136.711 73.9033 137.301 73.75 138.008 73.75C138.681 73.75 139.248 73.9033 139.708 74.21C140.175 74.51 140.528 74.9367 140.768 75.49C141.015 76.0367 141.138 76.68 141.138 77.42C141.138 78.16 141.015 78.8067 140.768 79.36C140.528 79.9067 140.175 80.3333 139.708 80.64C139.241 80.9467 138.671 81.1 137.998 81.1ZM137.998 80.56C138.498 80.56 138.895 80.4367 139.188 80.19C139.488 79.9367 139.701 79.5767 139.828 79.11C139.961 78.6433 140.028 78.08 140.028 77.42C140.028 76.76 139.961 76.1967 139.828 75.73C139.701 75.2633 139.488 74.9067 139.188 74.66C138.895 74.4133 138.501 74.29 138.008 74.29C137.261 74.29 136.731 74.5633 136.418 75.11C136.111 75.6567 135.958 76.4267 135.958 77.42C135.958 78.08 136.025 78.6433 136.158 79.11C136.291 79.5767 136.508 79.9367 136.808 80.19C137.108 80.4367 137.505 80.56 137.998 80.56Z" fill="#444444"/>
<path d="M131.442 78.6499V77.8999H134.042V78.6499H131.442Z" fill="#444444"/>
<path d="M127.64 81.0999C127.2 81.0999 126.826 81.0032 126.52 80.8099C126.22 80.6166 125.99 80.3166 125.83 79.9099C125.676 79.4966 125.6 78.9699 125.6 78.3299C125.6 77.6832 125.676 77.1566 125.83 76.7499C125.99 76.3366 126.22 76.0332 126.52 75.8399C126.826 75.6399 127.2 75.5399 127.64 75.5399C128.026 75.5399 128.34 75.6232 128.58 75.7899C128.826 75.9499 129.023 76.1599 129.17 76.4199H129.23C129.21 76.2532 129.193 76.0699 129.18 75.8699C129.173 75.6632 129.17 75.4799 129.17 75.3199V74.4999C129.17 74.2999 129.13 74.1532 129.05 74.0599C128.976 73.9599 128.876 73.8966 128.75 73.8699C128.63 73.8366 128.496 73.8199 128.35 73.8199H128.27V73.3999H130.11V79.8999C130.11 80.0932 130.146 80.2399 130.22 80.3399C130.3 80.4399 130.4 80.5066 130.52 80.5399C130.646 80.5666 130.783 80.5799 130.93 80.5799H131.01V80.9999H129.32L129.21 80.0999H129.17C129.023 80.4066 128.83 80.6499 128.59 80.8299C128.35 81.0099 128.033 81.0999 127.64 81.0999ZM127.81 80.4599C128.33 80.4599 128.686 80.2866 128.88 79.9399C129.073 79.5866 129.17 79.0499 129.17 78.3299C129.17 77.6366 129.073 77.1066 128.88 76.7399C128.686 76.3666 128.326 76.1799 127.8 76.1799C127.506 76.1799 127.27 76.2632 127.09 76.4299C126.91 76.5966 126.776 76.8399 126.69 77.1599C126.61 77.4799 126.57 77.8732 126.57 78.3399C126.57 79.0466 126.663 79.5766 126.85 79.9299C127.043 80.2832 127.363 80.4599 127.81 80.4599Z" fill="#444444"/>
<path d="M121.497 81.0999C121.057 81.0999 120.684 81.0032 120.377 80.8099C120.077 80.6166 119.847 80.3166 119.687 79.9099C119.534 79.4966 119.457 78.9699 119.457 78.3299C119.457 77.6832 119.534 77.1566 119.687 76.7499C119.847 76.3366 120.077 76.0332 120.377 75.8399C120.684 75.6399 121.057 75.5399 121.497 75.5399C121.884 75.5399 122.197 75.6232 122.437 75.7899C122.684 75.9499 122.88 76.1599 123.027 76.4199H123.087C123.067 76.2532 123.05 76.0699 123.037 75.8699C123.03 75.6632 123.027 75.4799 123.027 75.3199V74.4999C123.027 74.2999 122.987 74.1532 122.907 74.0599C122.834 73.9599 122.734 73.8966 122.607 73.8699C122.487 73.8366 122.354 73.8199 122.207 73.8199H122.127V73.3999H123.967V79.8999C123.967 80.0932 124.004 80.2399 124.077 80.3399C124.157 80.4399 124.257 80.5066 124.377 80.5399C124.504 80.5666 124.64 80.5799 124.787 80.5799H124.867V80.9999H123.177L123.067 80.0999H123.027C122.88 80.4066 122.687 80.6499 122.447 80.8299C122.207 81.0099 121.89 81.0999 121.497 81.0999ZM121.667 80.4599C122.187 80.4599 122.544 80.2866 122.737 79.9399C122.93 79.5866 123.027 79.0499 123.027 78.3299C123.027 77.6366 122.93 77.1066 122.737 76.7399C122.544 76.3666 122.184 76.1799 121.657 76.1799C121.364 76.1799 121.127 76.2632 120.947 76.4299C120.767 76.5966 120.634 76.8399 120.547 77.1599C120.467 77.4799 120.427 77.8732 120.427 78.3399C120.427 79.0466 120.52 79.5766 120.707 79.9299C120.9 80.2832 121.22 80.4599 121.667 80.4599Z" fill="#444444"/>
<path d="M112.052 80.9999V80.5799H112.242C112.375 80.5799 112.482 80.5599 112.562 80.5199C112.642 80.4799 112.715 80.4032 112.782 80.2899C112.848 80.1765 112.922 80.0132 113.002 79.7999L115.222 73.8599H116.002L118.262 80.0499C118.315 80.1899 118.372 80.2999 118.432 80.3799C118.492 80.4532 118.565 80.5065 118.652 80.5399C118.738 80.5665 118.845 80.5799 118.972 80.5799H119.102V80.9999H116.352V80.5799H116.582C116.782 80.5799 116.932 80.5432 117.032 80.4699C117.132 80.3899 117.182 80.2665 117.182 80.0999C117.182 80.0599 117.178 80.0232 117.172 79.9899C117.165 79.9499 117.155 79.9099 117.142 79.8699C117.135 79.8232 117.122 79.7765 117.102 79.7299L116.702 78.6099H114.072L113.692 79.6599C113.672 79.7132 113.655 79.7665 113.642 79.8199C113.628 79.8732 113.618 79.9232 113.612 79.9699C113.605 80.0099 113.602 80.0499 113.602 80.0899C113.602 80.2565 113.655 80.3799 113.762 80.4599C113.875 80.5399 114.042 80.5799 114.262 80.5799H114.492V80.9999H112.052ZM114.262 78.1099H116.522L115.902 76.3599C115.835 76.1599 115.768 75.9699 115.702 75.7899C115.642 75.6099 115.585 75.4365 115.532 75.2699C115.485 75.1032 115.442 74.9399 115.402 74.7799C115.368 74.9399 115.328 75.0965 115.282 75.2499C115.242 75.3965 115.195 75.5532 115.142 75.7199C115.088 75.8799 115.022 76.0632 114.942 76.2699L114.262 78.1099Z" fill="#444444"/>
<path d="M282.695 62.0997C282.188 62.0997 281.818 61.9863 281.585 61.7597C281.358 61.5263 281.245 61.123 281.245 60.5497V57.2097H280.485V56.8097C280.605 56.8097 280.738 56.7863 280.885 56.7397C281.032 56.6863 281.158 56.603 281.265 56.4897C281.378 56.3697 281.472 56.223 281.545 56.0497C281.618 55.8763 281.678 55.663 281.725 55.4097H282.185V56.6397H283.495V57.2097H282.185V60.5797C282.185 60.9197 282.255 61.1697 282.395 61.3297C282.535 61.4897 282.718 61.5697 282.945 61.5697C283.065 61.5697 283.175 61.563 283.275 61.5497C283.375 61.5363 283.478 61.5197 283.585 61.4997V61.9397C283.498 61.9797 283.368 62.0163 283.195 62.0497C283.022 62.083 282.855 62.0997 282.695 62.0997Z" fill="#444444"/>
<path d="M277.883 62.0998C277.55 62.0998 277.26 62.0598 277.013 61.9798C276.767 61.8998 276.573 61.7831 276.433 61.6298C276.3 61.4698 276.233 61.2731 276.233 61.0398C276.233 60.8598 276.27 60.7198 276.343 60.6198C276.417 60.5198 276.5 60.4498 276.593 60.4098C276.693 60.3698 276.783 60.3498 276.863 60.3498C276.863 60.6965 276.94 60.9965 277.093 61.2498C277.253 61.4965 277.537 61.6198 277.943 61.6198C278.297 61.6198 278.567 61.5365 278.753 61.3698C278.947 61.1965 279.043 60.9765 279.043 60.7098C279.043 60.5431 279.007 60.4065 278.933 60.2998C278.867 60.1931 278.743 60.0898 278.563 59.9898C278.39 59.8831 278.14 59.7598 277.813 59.6198C277.473 59.4665 277.19 59.3198 276.963 59.1798C276.743 59.0331 276.577 58.8665 276.463 58.6798C276.357 58.4865 276.303 58.2465 276.303 57.9598C276.303 57.5065 276.473 57.1598 276.813 56.9198C277.16 56.6731 277.617 56.5498 278.183 56.5498C278.503 56.5498 278.77 56.5931 278.983 56.6798C279.203 56.7598 279.367 56.8698 279.473 57.0098C279.587 57.1498 279.643 57.3031 279.643 57.4698C279.643 57.6498 279.58 57.7965 279.453 57.9098C279.333 58.0165 279.157 58.0698 278.923 58.0698C278.923 57.7365 278.853 57.4765 278.713 57.2898C278.573 57.1031 278.357 57.0098 278.063 57.0098C277.723 57.0098 277.48 57.0865 277.333 57.2398C277.187 57.3865 277.113 57.5765 277.113 57.8098C277.113 58.0631 277.207 58.2598 277.393 58.3998C277.587 58.5331 277.907 58.6898 278.353 58.8698C278.707 59.0165 278.993 59.1631 279.213 59.3098C279.433 59.4565 279.593 59.6265 279.693 59.8198C279.8 60.0131 279.853 60.2498 279.853 60.5298C279.853 61.0498 279.673 61.4431 279.313 61.7098C278.953 61.9698 278.477 62.0998 277.883 62.0998Z" fill="#444444"/>
<path d="M272.882 62.1C272.162 62.1 271.595 61.87 271.182 61.41C270.768 60.95 270.562 60.25 270.562 59.31C270.562 58.3767 270.758 57.6834 271.152 57.23C271.552 56.77 272.138 56.54 272.912 56.54C273.632 56.54 274.198 56.77 274.612 57.23C275.025 57.6834 275.232 58.3767 275.232 59.31C275.232 60.25 275.032 60.95 274.632 61.41C274.238 61.87 273.655 62.1 272.882 62.1ZM272.902 61.58C273.235 61.58 273.502 61.4967 273.702 61.33C273.902 61.1567 274.045 60.9 274.132 60.56C274.218 60.22 274.262 59.8034 274.262 59.31C274.262 58.5634 274.158 58.0034 273.952 57.63C273.745 57.2567 273.392 57.07 272.892 57.07C272.392 57.07 272.038 57.2567 271.832 57.63C271.632 58.0034 271.532 58.5634 271.532 59.31C271.532 60.0567 271.635 60.6234 271.842 61.01C272.048 61.39 272.402 61.58 272.902 61.58Z" fill="#444444"/>
<path d="M267.479 62.0998C266.819 62.0998 266.262 61.9464 265.809 61.6398C265.356 61.3331 265.012 60.9064 264.779 60.3598C264.552 59.8064 264.439 59.1598 264.439 58.4198C264.439 57.6998 264.559 57.0664 264.799 56.5198C265.046 55.9664 265.406 55.5364 265.879 55.2298C266.359 54.9164 266.949 54.7598 267.649 54.7598C268.102 54.7598 268.479 54.8098 268.779 54.9098C269.079 55.0031 269.302 55.1364 269.449 55.3098C269.596 55.4764 269.669 55.6664 269.669 55.8798C269.669 56.0931 269.586 56.2631 269.419 56.3898C269.252 56.5164 269.046 56.5798 268.799 56.5798C268.799 56.3731 268.762 56.1731 268.689 55.9798C268.616 55.7798 268.492 55.6164 268.319 55.4898C268.152 55.3564 267.922 55.2898 267.629 55.2898C267.129 55.2898 266.726 55.4131 266.419 55.6598C266.112 55.8998 265.889 56.2531 265.749 56.7198C265.616 57.1864 265.549 57.7531 265.549 58.4198C265.549 59.0131 265.619 59.5398 265.759 59.9998C265.906 60.4531 266.132 60.8064 266.439 61.0598C266.746 61.3131 267.142 61.4398 267.629 61.4398C267.956 61.4398 268.232 61.3998 268.459 61.3198C268.686 61.2398 268.876 61.1364 269.029 61.0098C269.189 60.8764 269.326 60.7364 269.439 60.5898C269.492 60.6231 269.536 60.6731 269.569 60.7398C269.609 60.7998 269.629 60.8798 269.629 60.9798C269.629 61.1064 269.586 61.2364 269.499 61.3698C269.412 61.4964 269.282 61.6164 269.109 61.7298C268.936 61.8364 268.712 61.9264 268.439 61.9998C268.172 62.0664 267.852 62.0998 267.479 62.0998Z" fill="#444444"/>
<path d="M258.306 61.9999V61.5799H258.436C258.589 61.5799 258.726 61.5632 258.846 61.5299C258.972 61.4966 259.072 61.4299 259.146 61.3299C259.219 61.2232 259.256 61.0666 259.256 60.8599V55.4999C259.256 55.2999 259.216 55.1532 259.136 55.0599C259.062 54.9599 258.962 54.8966 258.836 54.8699C258.716 54.8366 258.582 54.8199 258.436 54.8199H258.306V54.3999H260.196V60.8599C260.196 61.0666 260.232 61.2232 260.306 61.3299C260.379 61.4299 260.479 61.4966 260.606 61.5299C260.732 61.5632 260.869 61.5799 261.016 61.5799H261.146V61.9999H258.306Z" fill="#444444"/>
<path d="M255.203 61.9999V61.5799H255.333C255.479 61.5799 255.613 61.5666 255.733 61.5399C255.859 61.5066 255.959 61.4432 256.033 61.3499C256.113 61.2499 256.153 61.1032 256.153 60.9099V57.7399C256.153 57.5399 256.113 57.3932 256.033 57.2999C255.959 57.1999 255.859 57.1366 255.733 57.1099C255.613 57.0766 255.479 57.0599 255.333 57.0599H255.303V56.6399H257.093V60.8599C257.093 61.0666 257.129 61.2232 257.203 61.3299C257.276 61.4299 257.376 61.4966 257.503 61.5299C257.629 61.5632 257.766 61.5799 257.913 61.5799H258.043V61.9999H255.203ZM256.583 55.6399C256.423 55.6399 256.286 55.5932 256.173 55.4999C256.066 55.4066 256.013 55.2466 256.013 55.0199C256.013 54.7866 256.066 54.6266 256.173 54.5399C256.286 54.4466 256.423 54.3999 256.583 54.3999C256.736 54.3999 256.869 54.4466 256.983 54.5399C257.096 54.6266 257.153 54.7866 257.153 55.0199C257.153 55.2466 257.096 55.4066 256.983 55.4999C256.869 55.5932 256.736 55.6399 256.583 55.6399Z" fill="#444444"/>
<path d="M251.388 62.1C251.095 62.1 250.828 62.0434 250.588 61.93C250.355 61.81 250.171 61.6334 250.038 61.4C249.905 61.16 249.838 60.86 249.838 60.5C249.838 59.9667 250.025 59.5734 250.398 59.32C250.778 59.0667 251.351 58.9267 252.118 58.9L252.948 58.87V58.27C252.948 58.03 252.928 57.82 252.888 57.64C252.848 57.4534 252.761 57.3067 252.628 57.2C252.495 57.0934 252.291 57.04 252.018 57.04C251.765 57.04 251.571 57.0867 251.438 57.18C251.305 57.2734 251.215 57.4034 251.168 57.57C251.128 57.73 251.108 57.9167 251.108 58.13C250.828 58.13 250.615 58.0834 250.468 57.99C250.328 57.89 250.258 57.7267 250.258 57.5C250.258 57.2667 250.338 57.08 250.498 56.94C250.665 56.8 250.885 56.7 251.158 56.64C251.431 56.5734 251.731 56.54 252.058 56.54C252.671 56.54 253.128 56.67 253.428 56.93C253.735 57.19 253.888 57.6367 253.888 58.27V60.86C253.888 61.0467 253.908 61.1934 253.948 61.3C253.988 61.4 254.055 61.4734 254.148 61.52C254.241 61.56 254.361 61.58 254.508 61.58H254.538V62H253.188L253.028 61.14H252.948C252.808 61.3267 252.671 61.4934 252.538 61.64C252.405 61.78 252.248 61.8934 252.068 61.98C251.895 62.06 251.668 62.1 251.388 62.1ZM251.618 61.48C251.891 61.48 252.125 61.4234 252.318 61.31C252.518 61.1967 252.671 61.0367 252.778 60.83C252.891 60.6167 252.948 60.37 252.948 60.09V59.28L252.308 59.31C251.928 59.3234 251.628 59.38 251.408 59.48C251.195 59.58 251.041 59.72 250.948 59.9C250.855 60.0734 250.808 60.29 250.808 60.55C250.808 60.7567 250.838 60.93 250.898 61.07C250.958 61.2034 251.048 61.3067 251.168 61.38C251.288 61.4467 251.438 61.48 251.618 61.48Z" fill="#444444"/>
<path d="M248.222 62.0997C247.716 62.0997 247.346 61.9863 247.112 61.7597C246.886 61.5263 246.772 61.123 246.772 60.5497V57.2097H246.012V56.8097C246.132 56.8097 246.266 56.7863 246.412 56.7397C246.559 56.6863 246.686 56.603 246.792 56.4897C246.906 56.3697 246.999 56.223 247.072 56.0497C247.146 55.8763 247.206 55.663 247.252 55.4097H247.712V56.6397H249.022V57.2097H247.712V60.5797C247.712 60.9197 247.782 61.1697 247.922 61.3297C248.062 61.4897 248.246 61.5697 248.472 61.5697C248.592 61.5697 248.702 61.563 248.802 61.5497C248.902 61.5363 249.006 61.5197 249.112 61.4997V61.9397C249.026 61.9797 248.896 62.0163 248.722 62.0497C248.549 62.083 248.382 62.0997 248.222 62.0997Z" fill="#444444"/>
<path d="M243.341 62.1C242.614 62.1 242.044 61.86 241.631 61.38C241.224 60.9 241.021 60.2267 241.021 59.36C241.021 58.4267 241.214 57.7234 241.601 57.25C241.987 56.7767 242.534 56.54 243.241 56.54C243.887 56.54 244.394 56.74 244.761 57.14C245.134 57.54 245.321 58.1367 245.321 58.93V59.39H241.991C242.004 60.1167 242.134 60.6467 242.381 60.98C242.634 61.3067 243.001 61.47 243.481 61.47C243.827 61.47 244.121 61.4 244.361 61.26C244.607 61.1134 244.791 60.95 244.911 60.77C244.957 60.79 245.001 60.83 245.041 60.89C245.081 60.95 245.101 61.0234 245.101 61.11C245.101 61.2434 245.037 61.3867 244.911 61.54C244.784 61.6934 244.591 61.8267 244.331 61.94C244.071 62.0467 243.741 62.1 243.341 62.1ZM244.311 58.85C244.311 58.3167 244.227 57.89 244.061 57.57C243.901 57.2434 243.621 57.08 243.221 57.08C242.854 57.08 242.567 57.2334 242.361 57.54C242.161 57.84 242.044 58.2767 242.011 58.85H244.311Z" fill="#444444"/>
<path d="M234.288 61.9999V61.5799H234.418C234.565 61.5799 234.698 61.5665 234.818 61.5399C234.945 61.5065 235.045 61.4432 235.118 61.3499C235.198 61.2499 235.238 61.1032 235.238 60.9099V55.9599C235.238 55.7599 235.198 55.6132 235.118 55.5199C235.045 55.4199 234.945 55.3565 234.818 55.3299C234.698 55.2965 234.565 55.2799 234.418 55.2799H234.288V54.8599H236.978C237.558 54.8599 238.038 54.9332 238.418 55.0799C238.798 55.2199 239.081 55.4332 239.268 55.7199C239.455 55.9999 239.548 56.3565 239.548 56.7899C239.548 57.1432 239.475 57.4432 239.328 57.6899C239.181 57.9299 238.995 58.1232 238.768 58.2699C238.548 58.4165 238.318 58.5299 238.078 58.6099L239.448 60.7799C239.621 61.0465 239.788 61.2465 239.948 61.3799C240.108 61.5132 240.291 61.5799 240.498 61.5799H240.528V61.9999H240.388C239.975 61.9999 239.651 61.9799 239.418 61.9399C239.191 61.8932 239.008 61.8065 238.868 61.6799C238.728 61.5465 238.581 61.3532 238.428 61.0999L237.078 58.8499H236.248V60.9099C236.248 61.1032 236.285 61.2499 236.358 61.3499C236.438 61.4432 236.538 61.5065 236.658 61.5399C236.785 61.5665 236.921 61.5799 237.068 61.5799H237.198V61.9999H234.288ZM236.948 58.3799C237.535 58.3799 237.935 58.2499 238.148 57.9899C238.368 57.7299 238.478 57.3399 238.478 56.8199C238.478 56.4599 238.428 56.1732 238.328 55.9599C238.228 55.7399 238.065 55.5832 237.838 55.4899C237.611 55.3899 237.308 55.3399 236.928 55.3399H236.248V58.3799H236.948Z" fill="#444444"/>
<path d="M357.254 111.1C356.748 111.1 356.378 110.986 356.144 110.76C355.918 110.526 355.804 110.123 355.804 109.55V106.21H355.044V105.81C355.164 105.81 355.298 105.786 355.444 105.74C355.591 105.686 355.718 105.603 355.824 105.49C355.938 105.37 356.031 105.223 356.104 105.05C356.178 104.876 356.238 104.663 356.284 104.41H356.744V105.64H358.054V106.21H356.744V109.58C356.744 109.92 356.814 110.17 356.954 110.33C357.094 110.49 357.278 110.57 357.504 110.57C357.624 110.57 357.734 110.563 357.834 110.55C357.934 110.536 358.038 110.52 358.144 110.5V110.94C358.058 110.98 357.928 111.016 357.754 111.05C357.581 111.083 357.414 111.1 357.254 111.1Z" fill="#444444"/>
<path d="M347.804 111V110.58H347.994C348.127 110.58 348.234 110.56 348.314 110.52C348.394 110.48 348.467 110.403 348.534 110.29C348.6 110.177 348.674 110.013 348.754 109.8L350.974 103.86H351.754L354.014 110.05C354.067 110.19 354.124 110.3 354.184 110.38C354.244 110.453 354.317 110.507 354.404 110.54C354.49 110.567 354.597 110.58 354.724 110.58H354.854V111H352.104V110.58H352.334C352.534 110.58 352.684 110.543 352.784 110.47C352.884 110.39 352.934 110.267 352.934 110.1C352.934 110.06 352.93 110.023 352.924 109.99C352.917 109.95 352.907 109.91 352.894 109.87C352.887 109.823 352.874 109.777 352.854 109.73L352.454 108.61H349.824L349.444 109.66C349.424 109.713 349.407 109.767 349.394 109.82C349.38 109.873 349.37 109.923 349.364 109.97C349.357 110.01 349.354 110.05 349.354 110.09C349.354 110.257 349.407 110.38 349.514 110.46C349.627 110.54 349.794 110.58 350.014 110.58H350.244V111H347.804ZM350.014 108.11H352.274L351.654 106.36C351.587 106.16 351.52 105.97 351.454 105.79C351.394 105.61 351.337 105.437 351.284 105.27C351.237 105.103 351.194 104.94 351.154 104.78C351.12 104.94 351.08 105.097 351.034 105.25C350.994 105.397 350.947 105.553 350.894 105.72C350.84 105.88 350.774 106.063 350.694 106.27L350.014 108.11Z" fill="#444444"/>
<path d="M341.653 111.1C341.213 111.1 340.84 111.003 340.533 110.81C340.233 110.617 340.003 110.317 339.843 109.91C339.69 109.497 339.613 108.97 339.613 108.33C339.613 107.683 339.69 107.157 339.843 106.75C340.003 106.337 340.233 106.033 340.533 105.84C340.84 105.64 341.213 105.54 341.653 105.54C342.04 105.54 342.353 105.623 342.593 105.79C342.84 105.95 343.037 106.16 343.183 106.42H343.243C343.223 106.253 343.207 106.07 343.193 105.87C343.187 105.663 343.183 105.48 343.183 105.32V104.5C343.183 104.3 343.143 104.153 343.063 104.06C342.99 103.96 342.89 103.897 342.763 103.87C342.643 103.837 342.51 103.82 342.363 103.82H342.283V103.4H344.123V109.9C344.123 110.093 344.16 110.24 344.233 110.34C344.313 110.44 344.413 110.507 344.533 110.54C344.66 110.567 344.797 110.58 344.943 110.58H345.023V111H343.333L343.223 110.1H343.183C343.037 110.407 342.843 110.65 342.603 110.83C342.363 111.01 342.047 111.1 341.653 111.1ZM341.823 110.46C342.343 110.46 342.7 110.287 342.893 109.94C343.087 109.587 343.183 109.05 343.183 108.33C343.183 107.637 343.087 107.107 342.893 106.74C342.7 106.367 342.34 106.18 341.813 106.18C341.52 106.18 341.283 106.263 341.103 106.43C340.923 106.597 340.79 106.84 340.703 107.16C340.623 107.48 340.583 107.873 340.583 108.34C340.583 109.047 340.677 109.577 340.863 109.93C341.057 110.283 341.377 110.46 341.823 110.46Z" fill="#444444"/>
<path d="M336.582 111.1C335.855 111.1 335.285 110.86 334.872 110.38C334.465 109.9 334.262 109.227 334.262 108.36C334.262 107.427 334.455 106.723 334.842 106.25C335.228 105.777 335.775 105.54 336.482 105.54C337.128 105.54 337.635 105.74 338.002 106.14C338.375 106.54 338.562 107.137 338.562 107.93V108.39H335.232C335.245 109.117 335.375 109.647 335.622 109.98C335.875 110.307 336.242 110.47 336.722 110.47C337.068 110.47 337.362 110.4 337.602 110.26C337.848 110.113 338.032 109.95 338.152 109.77C338.198 109.79 338.242 109.83 338.282 109.89C338.322 109.95 338.342 110.023 338.342 110.11C338.342 110.243 338.278 110.387 338.152 110.54C338.025 110.693 337.832 110.827 337.572 110.94C337.312 111.047 336.982 111.1 336.582 111.1ZM337.552 107.85C337.552 107.317 337.468 106.89 337.302 106.57C337.142 106.243 336.862 106.08 336.462 106.08C336.095 106.08 335.808 106.233 335.602 106.54C335.402 106.84 335.285 107.277 335.252 107.85H337.552Z" fill="#444444"/>
<path d="M330.746 111V110.58H330.876C331.029 110.58 331.166 110.563 331.286 110.53C331.413 110.497 331.513 110.43 331.586 110.33C331.659 110.223 331.696 110.067 331.696 109.86V104.5C331.696 104.3 331.656 104.153 331.576 104.06C331.503 103.96 331.403 103.897 331.276 103.87C331.156 103.837 331.023 103.82 330.876 103.82H330.746V103.4H332.636V109.86C332.636 110.067 332.673 110.223 332.746 110.33C332.819 110.43 332.919 110.497 333.046 110.53C333.173 110.563 333.309 110.58 333.456 110.58H333.586V111H330.746Z" fill="#444444"/>
<path d="M327.643 111V110.58H327.773C327.92 110.58 328.053 110.567 328.173 110.54C328.3 110.507 328.4 110.443 328.473 110.35C328.553 110.25 328.593 110.103 328.593 109.91V106.74C328.593 106.54 328.553 106.393 328.473 106.3C328.4 106.2 328.3 106.137 328.173 106.11C328.053 106.077 327.92 106.06 327.773 106.06H327.743V105.64H329.533V109.86C329.533 110.067 329.57 110.223 329.643 110.33C329.716 110.43 329.816 110.497 329.943 110.53C330.07 110.563 330.206 110.58 330.353 110.58H330.483V111H327.643ZM329.023 104.64C328.863 104.64 328.726 104.593 328.613 104.5C328.506 104.407 328.453 104.247 328.453 104.02C328.453 103.787 328.506 103.627 328.613 103.54C328.726 103.447 328.863 103.4 329.023 103.4C329.176 103.4 329.31 103.447 329.423 103.54C329.536 103.627 329.593 103.787 329.593 104.02C329.593 104.247 329.536 104.407 329.423 104.5C329.31 104.593 329.176 104.64 329.023 104.64Z" fill="#444444"/>
<path d="M323.828 111.1C323.535 111.1 323.268 111.043 323.028 110.93C322.795 110.81 322.612 110.633 322.478 110.4C322.345 110.16 322.278 109.86 322.278 109.5C322.278 108.967 322.465 108.573 322.838 108.32C323.218 108.067 323.792 107.927 324.558 107.9L325.388 107.87V107.27C325.388 107.03 325.368 106.82 325.328 106.64C325.288 106.453 325.202 106.307 325.068 106.2C324.935 106.093 324.732 106.04 324.458 106.04C324.205 106.04 324.012 106.087 323.878 106.18C323.745 106.273 323.655 106.403 323.608 106.57C323.568 106.73 323.548 106.917 323.548 107.13C323.268 107.13 323.055 107.083 322.908 106.99C322.768 106.89 322.698 106.727 322.698 106.5C322.698 106.267 322.778 106.08 322.938 105.94C323.105 105.8 323.325 105.7 323.598 105.64C323.872 105.573 324.172 105.54 324.498 105.54C325.112 105.54 325.568 105.67 325.868 105.93C326.175 106.19 326.328 106.637 326.328 107.27V109.86C326.328 110.047 326.348 110.193 326.388 110.3C326.428 110.4 326.495 110.473 326.588 110.52C326.682 110.56 326.802 110.58 326.948 110.58H326.978V111H325.628L325.468 110.14H325.388C325.248 110.327 325.112 110.493 324.978 110.64C324.845 110.78 324.688 110.893 324.508 110.98C324.335 111.06 324.108 111.1 323.828 111.1ZM324.058 110.48C324.332 110.48 324.565 110.423 324.758 110.31C324.958 110.197 325.112 110.037 325.218 109.83C325.332 109.617 325.388 109.37 325.388 109.09V108.28L324.748 108.31C324.368 108.323 324.068 108.38 323.848 108.48C323.635 108.58 323.482 108.72 323.388 108.9C323.295 109.073 323.248 109.29 323.248 109.55C323.248 109.757 323.278 109.93 323.338 110.07C323.398 110.203 323.488 110.307 323.608 110.38C323.728 110.447 323.878 110.48 324.058 110.48Z" fill="#444444"/>
<path d="M320.663 111.1C320.156 111.1 319.786 110.986 319.553 110.76C319.326 110.526 319.213 110.123 319.213 109.55V106.21H318.453V105.81C318.573 105.81 318.706 105.786 318.853 105.74C318.999 105.686 319.126 105.603 319.233 105.49C319.346 105.37 319.439 105.223 319.513 105.05C319.586 104.876 319.646 104.663 319.693 104.41H320.153V105.64H321.463V106.21H320.153V109.58C320.153 109.92 320.223 110.17 320.363 110.33C320.503 110.49 320.686 110.57 320.913 110.57C321.033 110.57 321.143 110.563 321.243 110.55C321.343 110.536 321.446 110.52 321.553 110.5V110.94C321.466 110.98 321.336 111.016 321.163 111.05C320.989 111.083 320.823 111.1 320.663 111.1Z" fill="#444444"/>
<path d="M315.781 111.1C315.054 111.1 314.484 110.86 314.071 110.38C313.664 109.9 313.461 109.227 313.461 108.36C313.461 107.427 313.654 106.723 314.041 106.25C314.428 105.777 314.974 105.54 315.681 105.54C316.328 105.54 316.834 105.74 317.201 106.14C317.574 106.54 317.761 107.137 317.761 107.93V108.39H314.431C314.444 109.117 314.574 109.647 314.821 109.98C315.074 110.307 315.441 110.47 315.921 110.47C316.268 110.47 316.561 110.4 316.801 110.26C317.048 110.113 317.231 109.95 317.351 109.77C317.398 109.79 317.441 109.83 317.481 109.89C317.521 109.95 317.541 110.023 317.541 110.11C317.541 110.243 317.478 110.387 317.351 110.54C317.224 110.693 317.031 110.827 316.771 110.94C316.511 111.047 316.181 111.1 315.781 111.1ZM316.751 107.85C316.751 107.317 316.668 106.89 316.501 106.57C316.341 106.243 316.061 106.08 315.661 106.08C315.294 106.08 315.008 106.233 314.801 106.54C314.601 106.84 314.484 107.277 314.451 107.85H316.751Z" fill="#444444"/>
<path d="M306.729 111V110.58H306.859C307.005 110.58 307.139 110.567 307.259 110.54C307.385 110.507 307.485 110.443 307.559 110.35C307.639 110.25 307.679 110.103 307.679 109.91V104.96C307.679 104.76 307.639 104.613 307.559 104.52C307.485 104.42 307.385 104.357 307.259 104.33C307.139 104.297 307.005 104.28 306.859 104.28H306.729V103.86H309.419C309.999 103.86 310.479 103.933 310.859 104.08C311.239 104.22 311.522 104.433 311.709 104.72C311.895 105 311.989 105.357 311.989 105.79C311.989 106.143 311.915 106.443 311.769 106.69C311.622 106.93 311.435 107.123 311.209 107.27C310.989 107.417 310.759 107.53 310.519 107.61L311.889 109.78C312.062 110.047 312.229 110.247 312.389 110.38C312.549 110.513 312.732 110.58 312.939 110.58H312.969V111H312.829C312.415 111 312.092 110.98 311.859 110.94C311.632 110.893 311.449 110.807 311.309 110.68C311.169 110.547 311.022 110.353 310.869 110.1L309.519 107.85H308.689V109.91C308.689 110.103 308.725 110.25 308.799 110.35C308.879 110.443 308.979 110.507 309.099 110.54C309.225 110.567 309.362 110.58 309.509 110.58H309.639V111H306.729ZM309.389 107.38C309.975 107.38 310.375 107.25 310.589 106.99C310.809 106.73 310.919 106.34 310.919 105.82C310.919 105.46 310.869 105.173 310.769 104.96C310.669 104.74 310.505 104.583 310.279 104.49C310.052 104.39 309.749 104.34 309.369 104.34H308.689V107.38H309.389Z" fill="#444444"/>
<path d="M339.517 26.1998C338.503 26.1998 337.763 25.9732 337.297 25.5198C336.843 25.0532 336.617 24.2465 336.617 23.0998V16.4198H335.097V15.6198C335.337 15.6198 335.603 15.5732 335.897 15.4798C336.19 15.3732 336.443 15.2065 336.657 14.9798C336.883 14.7398 337.07 14.4465 337.217 14.0998C337.363 13.7532 337.483 13.3265 337.577 12.8198H338.497V15.2798H341.117V16.4198H338.497V23.1598C338.497 23.8398 338.637 24.3398 338.917 24.6598C339.197 24.9798 339.563 25.1398 340.017 25.1398C340.257 25.1398 340.477 25.1265 340.677 25.0998C340.877 25.0732 341.083 25.0398 341.297 24.9998V25.8798C341.123 25.9598 340.863 26.0332 340.517 26.0998C340.17 26.1665 339.837 26.1998 339.517 26.1998Z" fill="#444444"/>
<path d="M320.615 25.9997V25.1597H320.995C321.262 25.1597 321.475 25.1197 321.635 25.0397C321.795 24.9597 321.942 24.8064 322.075 24.5797C322.209 24.3531 322.355 24.0264 322.515 23.5997L326.955 11.7197H328.515L333.035 24.0997C333.142 24.3797 333.255 24.5997 333.375 24.7597C333.495 24.9064 333.642 25.0131 333.815 25.0797C333.989 25.1331 334.202 25.1597 334.455 25.1597H334.715V25.9997H329.215V25.1597H329.675C330.075 25.1597 330.375 25.0864 330.575 24.9397C330.775 24.7797 330.875 24.5331 330.875 24.1997C330.875 24.1197 330.869 24.0464 330.855 23.9797C330.842 23.8997 330.822 23.8197 330.795 23.7397C330.782 23.6464 330.755 23.5531 330.715 23.4597L329.915 21.2197H324.655L323.895 23.3197C323.855 23.4264 323.822 23.5331 323.795 23.6397C323.769 23.7464 323.749 23.8464 323.735 23.9397C323.722 24.0197 323.715 24.0997 323.715 24.1797C323.715 24.5131 323.822 24.7597 324.035 24.9197C324.262 25.0797 324.595 25.1597 325.035 25.1597H325.495V25.9997H320.615ZM325.035 20.2197H329.555L328.315 16.7197C328.182 16.3197 328.049 15.9397 327.915 15.5797C327.795 15.2197 327.682 14.8731 327.575 14.5397C327.482 14.2064 327.395 13.8797 327.315 13.5597C327.249 13.8797 327.169 14.1931 327.075 14.4997C326.995 14.7931 326.902 15.1064 326.795 15.4397C326.689 15.7597 326.555 16.1264 326.395 16.5397L325.035 20.2197Z" fill="#444444"/>
<path d="M308.315 26.1998C307.435 26.1998 306.688 26.0065 306.075 25.6198C305.475 25.2331 305.015 24.6331 304.695 23.8198C304.388 22.9931 304.235 21.9398 304.235 20.6598C304.235 19.3665 304.388 18.3131 304.695 17.4998C305.015 16.6731 305.475 16.0665 306.075 15.6798C306.688 15.2798 307.435 15.0798 308.315 15.0798C309.088 15.0798 309.715 15.2465 310.195 15.5798C310.688 15.8998 311.082 16.3198 311.375 16.8398H311.495C311.455 16.5065 311.422 16.1398 311.395 15.7398C311.382 15.3265 311.375 14.9598 311.375 14.6398V12.9998C311.375 12.5998 311.295 12.3065 311.135 12.1198C310.988 11.9198 310.788 11.7931 310.535 11.7398C310.295 11.6731 310.028 11.6398 309.735 11.6398H309.575V10.7998H313.255V23.7998C313.255 24.1865 313.328 24.4798 313.475 24.6798C313.635 24.8798 313.835 25.0131 314.075 25.0798C314.328 25.1331 314.602 25.1598 314.895 25.1598H315.055V25.9998H311.675L311.455 24.1998H311.375C311.082 24.8131 310.695 25.2998 310.215 25.6598C309.735 26.0198 309.102 26.1998 308.315 26.1998ZM308.655 24.9198C309.695 24.9198 310.408 24.5731 310.795 23.8798C311.182 23.1731 311.375 22.0998 311.375 20.6598C311.375 19.2731 311.182 18.2131 310.795 17.4798C310.408 16.7331 309.688 16.3598 308.635 16.3598C308.048 16.3598 307.575 16.5265 307.215 16.8598C306.855 17.1931 306.588 17.6798 306.415 18.3198C306.255 18.9598 306.175 19.7465 306.175 20.6798C306.175 22.0931 306.362 23.1531 306.735 23.8598C307.122 24.5665 307.762 24.9198 308.655 24.9198Z" fill="#444444"/>
<path d="M298.172 26.2001C296.718 26.2001 295.578 25.7201 294.752 24.7601C293.938 23.8001 293.532 22.4534 293.532 20.7201C293.532 18.8534 293.918 17.4467 294.692 16.5001C295.465 15.5534 296.558 15.0801 297.972 15.0801C299.265 15.0801 300.278 15.4801 301.012 16.2801C301.758 17.0801 302.132 18.2734 302.132 19.8601V20.7801H295.472C295.498 22.2334 295.758 23.2934 296.252 23.9601C296.758 24.6134 297.492 24.9401 298.452 24.9401C299.145 24.9401 299.732 24.8001 300.212 24.5201C300.705 24.2267 301.072 23.9001 301.312 23.5401C301.405 23.5801 301.492 23.6601 301.572 23.7801C301.652 23.9001 301.692 24.0467 301.692 24.2201C301.692 24.4867 301.565 24.7734 301.312 25.0801C301.058 25.3867 300.672 25.6534 300.152 25.8801C299.632 26.0934 298.972 26.2001 298.172 26.2001ZM300.112 19.7001C300.112 18.6334 299.945 17.7801 299.612 17.1401C299.292 16.4867 298.732 16.1601 297.932 16.1601C297.198 16.1601 296.625 16.4667 296.212 17.0801C295.812 17.6801 295.578 18.5534 295.512 19.7001H300.112Z" fill="#444444"/>
<path d="M285.196 26.1998C284.143 26.1998 283.33 25.8931 282.756 25.2798C282.183 24.6531 281.896 23.6531 281.896 22.2798V17.4798C281.896 17.0798 281.816 16.7865 281.656 16.5998C281.51 16.3998 281.31 16.2731 281.056 16.2198C280.816 16.1531 280.55 16.1198 280.256 16.1198H280.196V15.2798H283.776V22.1798C283.776 22.7531 283.836 23.2465 283.956 23.6598C284.09 24.0731 284.31 24.3865 284.616 24.5998C284.923 24.8131 285.343 24.9198 285.876 24.9198C286.463 24.9198 286.943 24.7865 287.316 24.5198C287.69 24.2398 287.963 23.8598 288.136 23.3798C288.31 22.8865 288.396 22.3198 288.396 21.6798V17.5598C288.396 17.1331 288.323 16.8198 288.176 16.6198C288.03 16.4198 287.83 16.2865 287.576 16.2198C287.336 16.1531 287.063 16.1198 286.756 16.1198H286.696V15.2798H290.276V23.8198C290.276 24.2065 290.35 24.4998 290.496 24.6998C290.656 24.8865 290.856 25.0131 291.096 25.0798C291.35 25.1331 291.623 25.1598 291.916 25.1598H291.976V25.9998H288.796L288.536 24.3798H288.436C288.023 25.1265 287.543 25.6198 286.996 25.8598C286.45 26.0865 285.85 26.1998 285.196 26.1998Z" fill="#444444"/>
<path d="M273.805 25.9998V25.1598H274.065C274.371 25.1598 274.645 25.1265 274.885 25.0598C275.138 24.9931 275.338 24.8598 275.485 24.6598C275.631 24.4465 275.705 24.1331 275.705 23.7198V12.9998C275.705 12.5998 275.625 12.3065 275.465 12.1198C275.318 11.9198 275.118 11.7931 274.865 11.7398C274.625 11.6731 274.358 11.6398 274.065 11.6398H273.805V10.7998H277.585V23.7198C277.585 24.1331 277.658 24.4465 277.805 24.6598C277.951 24.8598 278.151 24.9931 278.405 25.0598C278.658 25.1265 278.931 25.1598 279.225 25.1598H279.485V25.9998H273.805Z" fill="#444444"/>
<path d="M266.375 26.2001C265.789 26.2001 265.255 26.0867 264.775 25.8601C264.309 25.6201 263.942 25.2667 263.675 24.8001C263.409 24.3201 263.275 23.7201 263.275 23.0001C263.275 21.9334 263.649 21.1467 264.395 20.6401C265.155 20.1334 266.302 19.8534 267.835 19.8001L269.495 19.7401V18.5401C269.495 18.0601 269.455 17.6401 269.375 17.2801C269.295 16.9067 269.122 16.6134 268.855 16.4001C268.589 16.1867 268.182 16.0801 267.635 16.0801C267.129 16.0801 266.742 16.1734 266.475 16.3601C266.209 16.5467 266.029 16.8067 265.935 17.1401C265.855 17.4601 265.815 17.8334 265.815 18.2601C265.255 18.2601 264.829 18.1667 264.535 17.9801C264.255 17.7801 264.115 17.4534 264.115 17.0001C264.115 16.5334 264.275 16.1601 264.595 15.8801C264.929 15.6001 265.369 15.4001 265.915 15.2801C266.462 15.1467 267.062 15.0801 267.715 15.0801C268.942 15.0801 269.855 15.3401 270.455 15.8601C271.069 16.3801 271.375 17.2734 271.375 18.5401V23.7201C271.375 24.0934 271.415 24.3867 271.495 24.6001C271.575 24.8001 271.709 24.9467 271.895 25.0401C272.082 25.1201 272.322 25.1601 272.615 25.1601H272.675V26.0001H269.975L269.655 24.2801H269.495C269.215 24.6534 268.942 24.9867 268.675 25.2801C268.409 25.5601 268.095 25.7867 267.735 25.9601C267.389 26.1201 266.935 26.2001 266.375 26.2001ZM266.835 24.9601C267.382 24.9601 267.849 24.8467 268.235 24.6201C268.635 24.3934 268.942 24.0734 269.155 23.6601C269.382 23.2334 269.495 22.7401 269.495 22.1801V20.5601L268.215 20.6201C267.455 20.6467 266.855 20.7601 266.415 20.9601C265.989 21.1601 265.682 21.4401 265.495 21.8001C265.309 22.1467 265.215 22.5801 265.215 23.1001C265.215 23.5134 265.275 23.8601 265.395 24.1401C265.515 24.4067 265.695 24.6134 265.935 24.7601C266.175 24.8934 266.475 24.9601 266.835 24.9601Z" fill="#444444"/>
<path d="M251.651 13.6197C251.557 13.3397 251.451 13.1264 251.331 12.9797C251.211 12.8197 251.064 12.7131 250.891 12.6597C250.717 12.5931 250.497 12.5597 250.231 12.5597H249.971V11.7197H255.471V12.5597H255.011C254.611 12.5597 254.311 12.6397 254.111 12.7997C253.911 12.9464 253.811 13.1864 253.811 13.5197C253.811 13.5864 253.817 13.6597 253.831 13.7397C253.844 13.8197 253.864 13.8997 253.891 13.9797C253.917 14.0597 253.944 14.1531 253.971 14.2597L256.171 20.7597C256.304 21.1464 256.424 21.5331 256.531 21.9197C256.637 22.3064 256.737 22.6797 256.831 23.0397C256.924 23.3864 257.004 23.7197 257.071 24.0397C257.137 23.7197 257.211 23.3864 257.291 23.0397C257.384 22.6931 257.484 22.3331 257.591 21.9597C257.711 21.5731 257.844 21.1731 257.991 20.7597L260.191 14.3997C260.231 14.2931 260.264 14.1864 260.291 14.0797C260.317 13.9731 260.337 13.8731 260.351 13.7797C260.364 13.6864 260.371 13.6064 260.371 13.5397C260.371 13.1931 260.257 12.9464 260.031 12.7997C259.817 12.6397 259.491 12.5597 259.051 12.5597H258.591V11.7197H263.471V12.5597H263.091C262.837 12.5597 262.624 12.5997 262.451 12.6797C262.277 12.7597 262.124 12.9131 261.991 13.1397C261.857 13.3531 261.717 13.6797 261.571 14.1197L257.431 25.9997H255.971L251.651 13.6197Z" fill="#444444"/>
<path d="M284.471 90.9997V90.1597H284.731C285.037 90.1597 285.311 90.1264 285.551 90.0597C285.804 89.9931 286.004 89.8597 286.151 89.6597C286.297 89.4464 286.371 89.1331 286.371 88.7197V78.9197C286.371 78.5197 286.291 78.2264 286.131 78.0397C285.984 77.8397 285.784 77.7131 285.531 77.6597C285.291 77.5931 285.024 77.5597 284.731 77.5597H284.471V76.7197H290.091C291.771 76.7197 293.011 77.0931 293.811 77.8397C294.611 78.5731 295.011 79.5931 295.011 80.8997C295.011 81.4997 294.917 82.0731 294.731 82.6197C294.544 83.1531 294.237 83.6331 293.811 84.0597C293.397 84.4864 292.844 84.8264 292.151 85.0797C291.471 85.3197 290.637 85.4397 289.651 85.4397H288.391V88.8197C288.391 89.2064 288.464 89.4997 288.611 89.6997C288.771 89.8864 288.971 90.0131 289.211 90.0797C289.464 90.1331 289.737 90.1597 290.031 90.1597H290.691V90.9997H284.471ZM289.451 84.4997C290.051 84.4997 290.564 84.4397 290.991 84.3197C291.431 84.1864 291.784 83.9797 292.051 83.6997C292.331 83.4197 292.531 83.0597 292.651 82.6197C292.784 82.1664 292.851 81.6197 292.851 80.9797C292.851 79.8597 292.617 79.0331 292.151 78.4997C291.684 77.9531 290.884 77.6797 289.751 77.6797H288.391V84.4997H289.451Z" fill="#444444"/>
<path d="M271.346 90.9997V90.1597H271.606C271.899 90.1597 272.166 90.1331 272.406 90.0797C272.659 90.0131 272.859 89.8864 273.006 89.6997C273.166 89.4997 273.246 89.2064 273.246 88.8197V78.9197C273.246 78.5197 273.166 78.2264 273.006 78.0397C272.859 77.8397 272.659 77.7131 272.406 77.6597C272.166 77.5931 271.899 77.5597 271.606 77.5597H271.346V76.7197H276.726C277.886 76.7197 278.846 76.8664 279.606 77.1597C280.366 77.4397 280.932 77.8664 281.306 78.4397C281.679 78.9997 281.866 79.7131 281.866 80.5797C281.866 81.2864 281.719 81.8864 281.426 82.3797C281.132 82.8597 280.759 83.2464 280.306 83.5397C279.866 83.8331 279.406 84.0597 278.926 84.2197L281.666 88.5597C282.012 89.0931 282.346 89.4931 282.666 89.7597C282.986 90.0264 283.352 90.1597 283.766 90.1597H283.826V90.9997H283.546C282.719 90.9997 282.072 90.9597 281.606 90.8797C281.152 90.7864 280.786 90.6131 280.506 90.3597C280.226 90.0931 279.932 89.7064 279.626 89.1997L276.926 84.6997H275.266V88.8197C275.266 89.2064 275.339 89.4997 275.486 89.6997C275.646 89.8864 275.846 90.0131 276.086 90.0797C276.339 90.1331 276.612 90.1597 276.906 90.1597H277.166V90.9997H271.346ZM276.666 83.7597C277.839 83.7597 278.639 83.4997 279.066 82.9797C279.506 82.4597 279.726 81.6797 279.726 80.6397C279.726 79.9197 279.626 79.3464 279.426 78.9197C279.226 78.4797 278.899 78.1664 278.446 77.9797C277.992 77.7797 277.386 77.6797 276.626 77.6797H275.266V83.7597H276.666Z" fill="#444444"/>
<path d="M264.647 91.2C263.994 91.2 263.414 91.1334 262.907 91C262.414 90.8667 262 90.6734 261.667 90.42C261.334 90.1667 261.08 89.8667 260.907 89.52C260.747 89.1734 260.667 88.7934 260.667 88.38C260.667 88.1134 260.72 87.88 260.827 87.68C260.947 87.48 261.114 87.3267 261.327 87.22C261.54 87.1 261.8 87.04 262.107 87.04C262.134 87.5867 262.24 88.1067 262.427 88.6C262.614 89.08 262.9 89.4734 263.287 89.78C263.674 90.0734 264.18 90.22 264.807 90.22C265.7 90.22 266.4 90.0067 266.907 89.58C267.414 89.14 267.667 88.5134 267.667 87.7C267.667 87.2067 267.567 86.7934 267.367 86.46C267.18 86.1134 266.86 85.7934 266.407 85.5C265.967 85.2067 265.354 84.9 264.567 84.58C263.74 84.2334 263.054 83.86 262.507 83.46C261.96 83.06 261.554 82.5934 261.287 82.06C261.02 81.5134 260.887 80.8734 260.887 80.14C260.887 79.38 261.074 78.7334 261.447 78.2C261.834 77.6534 262.354 77.24 263.007 76.96C263.674 76.6667 264.427 76.52 265.267 76.52C266.067 76.52 266.74 76.6267 267.287 76.84C267.847 77.0534 268.274 77.3334 268.567 77.68C268.86 78.0134 269.007 78.3734 269.007 78.76C269.007 79.1867 268.86 79.5134 268.567 79.74C268.287 79.9534 267.907 80.06 267.427 80.06C267.427 79.6467 267.354 79.2467 267.207 78.86C267.074 78.4734 266.84 78.1534 266.507 77.9C266.187 77.6467 265.747 77.52 265.187 77.52C264.414 77.52 263.814 77.7267 263.387 78.14C262.96 78.5534 262.747 79.1067 262.747 79.8C262.747 80.3334 262.84 80.7867 263.027 81.16C263.227 81.52 263.554 81.8467 264.007 82.14C264.46 82.42 265.074 82.72 265.847 83.04C266.634 83.36 267.3 83.7134 267.847 84.1C268.407 84.4734 268.834 84.9067 269.127 85.4C269.42 85.8934 269.567 86.4867 269.567 87.18C269.567 88.0334 269.367 88.76 268.967 89.36C268.567 89.9467 267.994 90.4 267.247 90.72C266.514 91.04 265.647 91.2 264.647 91.2Z" fill="#444444"/>
<path d="M241.697 90.9997V90.1597H241.957C242.251 90.1597 242.517 90.1331 242.757 90.0797C243.011 90.0131 243.211 89.8864 243.357 89.6997C243.517 89.4997 243.597 89.2064 243.597 88.8197V78.9197C243.597 78.5197 243.517 78.2264 243.357 78.0397C243.211 77.8397 243.011 77.7131 242.757 77.6597C242.517 77.5931 242.251 77.5597 241.957 77.5597H241.697V76.7197H246.257L250.397 88.1597L254.497 76.7197H258.937V77.5597H258.677C258.384 77.5597 258.111 77.5931 257.857 77.6597C257.604 77.7264 257.404 77.8597 257.257 78.0597C257.111 78.2597 257.037 78.5731 257.037 78.9997V88.7197C257.037 89.1331 257.111 89.4464 257.257 89.6597C257.404 89.8597 257.604 89.9931 257.857 90.0597C258.111 90.1264 258.384 90.1597 258.677 90.1597H258.937V90.9997H253.617V90.1597H253.677C253.971 90.1597 254.217 90.1331 254.417 90.0797C254.631 90.0131 254.797 89.8931 254.917 89.7197C255.037 89.5331 255.104 89.2597 255.117 88.8997V78.2197L250.537 90.9997H249.457L244.817 78.2597V88.7197C244.817 89.1331 244.871 89.4464 244.977 89.6597C245.097 89.8597 245.264 89.9931 245.477 90.0597C245.704 90.1264 245.964 90.1597 246.257 90.1597H246.317V90.9997H241.697Z" fill="#444444"/>
<path d="M509.093 86.6497C510.793 86.6497 512.259 86.3997 513.493 85.8997C514.726 85.3997 515.776 84.6997 516.643 83.7997C517.509 82.933 518.243 81.8997 518.843 80.6997C519.443 79.4997 519.943 78.1997 520.343 76.7997L511.093 54.9497C510.793 54.2497 510.493 53.7164 510.193 53.3497C509.893 52.9497 509.543 52.683 509.143 52.5497C508.743 52.383 508.209 52.2997 507.543 52.2997H507.393V50.1997H519.393V52.2997H519.243C518.243 52.2997 517.493 52.4997 516.993 52.8997C516.493 53.2664 516.243 53.8664 516.243 54.6997C516.243 54.9664 516.276 55.2497 516.343 55.5497C516.409 55.8497 516.509 56.183 516.643 56.5497L520.293 65.4497C520.626 66.2164 520.943 67.0664 521.243 67.9997C521.576 68.8997 521.876 69.7664 522.143 70.5997C522.409 71.433 522.593 72.133 522.693 72.6997C522.926 71.733 523.226 70.733 523.593 69.6997C523.993 68.6664 524.359 67.6497 524.693 66.6497L528.043 56.8997C528.209 56.4997 528.326 56.1164 528.393 55.7497C528.459 55.3497 528.493 55.0164 528.493 54.7497C528.493 53.883 528.209 53.2664 527.643 52.8997C527.109 52.4997 526.293 52.2997 525.193 52.2997H525.043V50.1997H535.443V52.2997H535.293C534.659 52.2997 534.126 52.3997 533.693 52.5997C533.259 52.7997 532.876 53.183 532.543 53.7497C532.243 54.3164 531.893 55.133 531.493 56.1997L523.893 77.1997C523.026 79.633 522.193 81.6164 521.393 83.1497C520.593 84.683 519.693 85.8664 518.693 86.6997C517.726 87.5664 516.509 88.1664 515.043 88.4997C513.576 88.833 511.743 88.9997 509.543 88.9997H509.093V86.6497Z" fill="#444444"/>
<path d="M492.364 77V74.9H493.014C493.78 74.9 494.464 74.8167 495.064 74.65C495.697 74.4833 496.197 74.15 496.564 73.65C496.93 73.1167 497.114 72.3333 497.114 71.3V44.5C497.114 43.5 496.914 42.7667 496.514 42.3C496.147 41.8 495.647 41.4833 495.014 41.35C494.414 41.1833 493.747 41.1 493.014 41.1H492.364V39H501.814V71.3C501.814 72.3333 501.997 73.1167 502.364 73.65C502.73 74.15 503.23 74.4833 503.864 74.65C504.497 74.8167 505.18 74.9 505.914 74.9H506.564V77H492.364Z" fill="#444444"/>
<path d="M476.885 77V74.9H477.535C478.302 74.9 478.985 74.8167 479.585 74.65C480.219 74.4833 480.719 74.15 481.085 73.65C481.452 73.1167 481.635 72.3333 481.635 71.3V44.5C481.635 43.5 481.435 42.7667 481.035 42.3C480.669 41.8 480.169 41.4833 479.535 41.35C478.935 41.1833 478.269 41.1 477.535 41.1H476.885V39H486.335V71.3C486.335 72.3333 486.519 73.1167 486.885 73.65C487.252 74.15 487.752 74.4833 488.385 74.65C489.019 74.8167 489.702 74.9 490.435 74.9H491.085V77H476.885Z" fill="#444444"/>
<path d="M458.312 77.4997C456.845 77.4997 455.512 77.2164 454.312 76.6497C453.145 76.0497 452.228 75.1664 451.562 73.9997C450.895 72.7997 450.562 71.2997 450.562 69.4997C450.562 66.833 451.495 64.8664 453.362 63.5997C455.262 62.333 458.128 61.633 461.962 61.4997L466.112 61.3497V58.3497C466.112 57.1497 466.012 56.0997 465.812 55.1997C465.612 54.2664 465.178 53.533 464.512 52.9997C463.845 52.4664 462.828 52.1997 461.462 52.1997C460.195 52.1997 459.228 52.433 458.562 52.8997C457.895 53.3664 457.445 54.0164 457.212 54.8497C457.012 55.6497 456.912 56.583 456.912 57.6497C455.512 57.6497 454.445 57.4164 453.712 56.9497C453.012 56.4497 452.662 55.633 452.662 54.4997C452.662 53.333 453.062 52.3997 453.862 51.6997C454.695 50.9997 455.795 50.4997 457.162 50.1997C458.528 49.8664 460.028 49.6997 461.662 49.6997C464.728 49.6997 467.012 50.3497 468.512 51.6497C470.045 52.9497 470.812 55.183 470.812 58.3497V71.2997C470.812 72.233 470.912 72.9664 471.112 73.4997C471.312 73.9997 471.645 74.3664 472.112 74.5997C472.578 74.7997 473.178 74.8997 473.912 74.8997H474.062V76.9997H467.312L466.512 72.6997H466.112C465.412 73.633 464.728 74.4664 464.062 75.1997C463.395 75.8997 462.612 76.4664 461.712 76.8997C460.845 77.2997 459.712 77.4997 458.312 77.4997ZM459.462 74.3997C460.828 74.3997 461.995 74.1164 462.962 73.5497C463.962 72.983 464.728 72.183 465.262 71.1497C465.828 70.083 466.112 68.8497 466.112 67.4497V63.3997L462.912 63.5497C461.012 63.6164 459.512 63.8997 458.412 64.3997C457.345 64.8997 456.578 65.5997 456.112 66.4997C455.645 67.3664 455.412 68.4497 455.412 69.7497C455.412 70.783 455.562 71.6497 455.862 72.3497C456.162 73.0164 456.612 73.533 457.212 73.8997C457.812 74.233 458.562 74.3997 459.462 74.3997Z" fill="#444444"/>
<path d="M417.235 76.9997V74.8997H417.635C418.402 74.8997 419.085 74.8164 419.685 74.6497C420.318 74.483 420.818 74.1497 421.185 73.6497C421.552 73.1164 421.735 72.333 421.735 71.2997V55.6997C421.735 54.6997 421.552 53.9664 421.185 53.4997C420.818 52.9997 420.335 52.683 419.735 52.5497C419.135 52.383 418.468 52.2997 417.735 52.2997H417.485V50.1997H425.585L426.235 54.2497H426.485C427.518 52.383 428.668 51.1664 429.935 50.5997C431.235 49.9997 432.685 49.6997 434.285 49.6997C436.918 49.6997 438.968 50.483 440.435 52.0497C441.935 53.583 442.685 56.0664 442.685 59.4997V71.2997C442.685 72.333 442.835 73.1164 443.135 73.6497C443.468 74.1497 443.918 74.483 444.485 74.6497C445.052 74.8164 445.702 74.8997 446.435 74.8997H446.685V76.9997H437.985V59.7497C437.985 57.583 437.568 55.8997 436.735 54.6997C435.935 53.4997 434.518 52.8997 432.485 52.8997C430.985 52.8997 429.785 53.283 428.885 54.0497C428.018 54.783 427.385 55.7664 426.985 56.9997C426.618 58.233 426.435 59.5664 426.435 60.9997V71.5497C426.435 72.5164 426.618 73.2497 426.985 73.7497C427.352 74.2164 427.835 74.533 428.435 74.6997C429.035 74.833 429.702 74.8997 430.435 74.8997H430.685V76.9997H417.235Z" fill="#444444"/>
<path d="M400.969 77V74.9H401.619C402.353 74.9 403.019 74.8333 403.619 74.7C404.253 74.5333 404.753 74.2167 405.119 73.75C405.519 73.25 405.719 72.5167 405.719 71.55V55.7C405.719 54.7 405.519 53.9667 405.119 53.5C404.753 53 404.253 52.6833 403.619 52.55C403.019 52.3833 402.353 52.3 401.619 52.3H401.469V50.2H410.419V71.3C410.419 72.3333 410.603 73.1167 410.969 73.65C411.336 74.15 411.836 74.4833 412.469 74.65C413.103 74.8167 413.786 74.9 414.519 74.9H415.169V77H400.969ZM407.869 45.2C407.069 45.2 406.386 44.9667 405.819 44.5C405.286 44.0333 405.019 43.2333 405.019 42.1C405.019 40.9333 405.286 40.1333 405.819 39.7C406.386 39.2333 407.069 39 407.869 39C408.636 39 409.303 39.2333 409.869 39.7C410.436 40.1333 410.719 40.9333 410.719 42.1C410.719 43.2333 410.436 44.0333 409.869 44.5C409.303 44.9667 408.636 45.2 407.869 45.2Z" fill="#444444"/>
<path d="M384.465 88.9999C380.998 88.9999 378.398 88.3499 376.665 87.0499C374.932 85.7832 374.065 83.9999 374.065 81.6999C374.065 80.3999 374.348 79.2999 374.915 78.3999C375.515 77.5332 376.282 76.8499 377.215 76.3499C378.182 75.8499 379.215 75.4999 380.315 75.2999C379.648 74.9999 379.015 74.5166 378.415 73.8499C377.848 73.1499 377.565 72.2666 377.565 71.1999C377.565 70.1999 377.815 69.3332 378.315 68.5999C378.848 67.8666 379.682 67.1666 380.815 66.4999C379.382 65.8999 378.265 64.9166 377.465 63.5499C376.698 62.1499 376.315 60.6166 376.315 58.9499C376.315 56.0832 377.098 53.8332 378.665 52.1999C380.232 50.5332 382.582 49.6999 385.715 49.6999C386.915 49.6999 388.048 49.8666 389.115 50.1999C390.182 50.5332 390.948 50.9166 391.415 51.3499C391.748 50.9832 392.148 50.5999 392.615 50.1999C393.082 49.7666 393.615 49.3999 394.215 49.0999C394.848 48.7999 395.532 48.6499 396.265 48.6499C397.265 48.6499 397.998 48.9166 398.465 49.4499C398.965 49.9499 399.215 50.5499 399.215 51.2499C399.215 51.9499 398.998 52.5666 398.565 53.0999C398.165 53.5999 397.498 53.8499 396.565 53.8499C396.565 53.4832 396.448 53.1166 396.215 52.7499C396.015 52.3499 395.582 52.1499 394.915 52.1499C394.482 52.1499 394.098 52.1999 393.765 52.2999C393.432 52.3999 393.098 52.5499 392.765 52.7499C393.332 53.4499 393.798 54.2832 394.165 55.2499C394.532 56.1832 394.715 57.3666 394.715 58.7999C394.715 61.2666 393.965 63.3166 392.465 64.9499C390.998 66.5832 388.748 67.3999 385.715 67.3999C385.315 67.3999 384.848 67.3832 384.315 67.3499C383.815 67.2832 383.398 67.2166 383.065 67.1499C382.432 67.4832 381.882 67.8999 381.415 68.3999C380.948 68.8999 380.715 69.5332 380.715 70.2999C380.715 70.8999 380.898 71.3666 381.265 71.6999C381.665 72.0332 382.515 72.1999 383.815 72.1999H389.465C391.465 72.1999 393.065 72.5332 394.265 73.1999C395.465 73.8332 396.332 74.7166 396.865 75.8499C397.432 76.9499 397.715 78.2166 397.715 79.6499C397.715 82.5166 396.632 84.7832 394.465 86.4499C392.332 88.1499 388.998 88.9999 384.465 88.9999ZM384.565 86.5499C386.965 86.5499 388.815 86.2832 390.115 85.7499C391.415 85.2499 392.315 84.5332 392.815 83.5999C393.348 82.6999 393.615 81.6666 393.615 80.4999C393.615 78.9666 393.182 77.9332 392.315 77.3999C391.448 76.8999 390.182 76.6499 388.515 76.6499H383.615C382.682 76.6499 381.798 76.7666 380.965 76.9999C380.132 77.2666 379.448 77.7332 378.915 78.3999C378.382 79.0666 378.115 80.0666 378.115 81.3999C378.115 82.3666 378.298 83.2332 378.665 83.9999C379.032 84.7999 379.682 85.4166 380.615 85.8499C381.548 86.3166 382.865 86.5499 384.565 86.5499ZM385.565 64.9999C386.665 64.9999 387.532 64.7832 388.165 64.3499C388.832 63.9166 389.298 63.2332 389.565 62.2999C389.865 61.3666 390.015 60.1832 390.015 58.7499C390.015 57.2499 389.865 56.0166 389.565 55.0499C389.265 54.0499 388.782 53.3166 388.115 52.8499C387.482 52.3832 386.615 52.1499 385.515 52.1499C384.448 52.1499 383.582 52.3999 382.915 52.8999C382.248 53.3666 381.765 54.0999 381.465 55.0999C381.165 56.0666 381.015 57.2999 381.015 58.7999C381.015 60.9332 381.365 62.4999 382.065 63.4999C382.798 64.4999 383.965 64.9999 385.565 64.9999Z" fill="#444444"/>
<path d="M358.049 77V74.9H358.699C359.433 74.9 360.099 74.8333 360.699 74.7C361.333 74.5333 361.833 74.2167 362.199 73.75C362.599 73.25 362.799 72.5167 362.799 71.55V55.7C362.799 54.7 362.599 53.9667 362.199 53.5C361.833 53 361.333 52.6833 360.699 52.55C360.099 52.3833 359.433 52.3 358.699 52.3H358.549V50.2H367.499V71.3C367.499 72.3333 367.683 73.1167 368.049 73.65C368.416 74.15 368.916 74.4833 369.549 74.65C370.183 74.8167 370.866 74.9 371.599 74.9H372.249V77H358.049ZM364.949 45.2C364.149 45.2 363.466 44.9667 362.899 44.5C362.366 44.0333 362.099 43.2333 362.099 42.1C362.099 40.9333 362.366 40.1333 362.899 39.7C363.466 39.2333 364.149 39 364.949 39C365.716 39 366.383 39.2333 366.949 39.7C367.516 40.1333 367.799 40.9333 367.799 42.1C367.799 43.2333 367.516 44.0333 366.949 44.5C366.383 44.9667 365.716 45.2 364.949 45.2Z" fill="#444444"/>
<path d="M335.014 76.9997V74.8997H335.164C335.931 74.8997 336.614 74.8164 337.214 74.6497C337.847 74.483 338.347 74.1497 338.714 73.6497C339.081 73.1164 339.264 72.333 339.264 71.2997V55.6997C339.264 54.6997 339.064 53.9664 338.664 53.4997C338.297 52.9997 337.797 52.683 337.164 52.5497C336.564 52.383 335.897 52.2997 335.164 52.2997H335.014V50.1997H342.714L343.664 55.1497H343.914C344.347 54.1497 344.814 53.233 345.314 52.3997C345.814 51.5664 346.481 50.9164 347.314 50.4497C348.147 49.9497 349.297 49.6997 350.764 49.6997C352.597 49.6997 353.947 50.0164 354.814 50.6497C355.714 51.283 356.164 52.183 356.164 53.3497C356.164 54.383 355.797 55.233 355.064 55.8997C354.364 56.5664 353.181 56.8997 351.514 56.8997C351.514 55.9664 351.431 55.2164 351.264 54.6497C351.097 54.083 350.814 53.6664 350.414 53.3997C350.047 53.133 349.531 52.9997 348.864 52.9997C347.931 52.9997 347.147 53.3664 346.514 54.0997C345.881 54.833 345.381 55.7664 345.014 56.8997C344.647 58.033 344.381 59.2164 344.214 60.4497C344.047 61.6497 343.964 62.733 343.964 63.6997V71.5497C343.964 72.5164 344.147 73.2497 344.514 73.7497C344.914 74.2164 345.414 74.533 346.014 74.6997C346.647 74.833 347.331 74.8997 348.064 74.8997H349.464V76.9997H335.014Z" fill="#444444"/>
<path d="M314.805 77.5C311.271 77.5 308.338 76.7333 306.005 75.2C303.671 73.6667 301.921 71.5167 300.755 68.75C299.621 65.9833 299.055 62.75 299.055 59.05C299.055 55.35 299.621 52.1333 300.755 49.4C301.921 46.6667 303.671 44.55 306.005 43.05C308.371 41.5167 311.321 40.75 314.855 40.75C318.221 40.75 321.055 41.5167 323.355 43.05C325.688 44.55 327.455 46.6833 328.655 49.45C329.888 52.1833 330.505 55.4 330.505 59.1C330.505 62.8 329.888 66.0333 328.655 68.8C327.455 71.5333 325.688 73.6667 323.355 75.2C321.021 76.7333 318.171 77.5 314.805 77.5ZM314.805 74.8C317.305 74.8 319.288 74.1833 320.755 72.95C322.255 71.6833 323.321 69.8833 323.955 67.55C324.621 65.2167 324.955 62.4 324.955 59.1C324.955 55.8 324.621 52.9833 323.955 50.65C323.321 48.3167 322.255 46.5333 320.755 45.3C319.288 44.0667 317.321 43.45 314.855 43.45C311.121 43.45 308.471 44.8167 306.905 47.55C305.371 50.2833 304.605 54.1333 304.605 59.1C304.605 62.4 304.938 65.2167 305.605 67.55C306.271 69.8833 307.355 71.6833 308.855 72.95C310.355 74.1833 312.338 74.8 314.805 74.8Z" fill="#444444"/>
<circle cx="47.3594" cy="7.5" r="5.5" fill="#BBBCC1"/>
<circle cx="448.359" cy="88.5" r="5.5" fill="#BBBCC1"/>
<circle cx="180.359" cy="133.5" r="5.5" fill="#BBBCC1"/>
<circle cx="61.3594" cy="7.5" r="5.5" fill="#BBBCC1"/>
<circle cx="462.359" cy="88.5" r="5.5" fill="#BBBCC1"/>
<circle cx="194.359" cy="133.5" r="5.5" fill="#BBBCC1"/>
<circle cx="75.3594" cy="7.5" r="5.5" fill="#BBBCC1"/>
<circle cx="476.359" cy="88.5" r="5.5" fill="#BBBCC1"/>
<circle cx="208.359" cy="133.5" r="5.5" fill="#BBBCC1"/>
<circle cx="286.359" cy="5.5" r="5.5" fill="#BBBCC1"/>
<circle cx="89.3594" cy="7.5" r="5.5" fill="#BBBCC1"/>
<circle cx="490.359" cy="88.5" r="5.5" fill="#BBBCC1"/>
<circle cx="300.359" cy="5.5" r="5.5" fill="#BBBCC1"/>
<circle cx="103.359" cy="7.5" r="5.5" fill="#BBBCC1"/>
<path d="M506.568 92.9228C503.828 94.2337 500.544 93.0751 499.233 90.335C497.922 87.5949 499.081 84.3108 501.821 82.9999L506.568 92.9228Z" fill="#BBBCC1"/>
<path d="M308.859 5.5C308.859 2.46243 311.322 -3.73189e-07 314.359 -2.40413e-07C317.397 -1.07636e-07 319.859 2.46243 319.859 5.5L308.859 5.5Z" fill="#BBBCC1"/>
</svg>
